<?xml version='1.0' encoding='UTF-8'?>
 <svg width="198mm" height="183mm" version="1.1" viewBox="0 0 198 183" xmlns="http://www.w3.org/2000/svg" xmlns:xlink="http://www.w3.org/1999/xlink">
 <rect width="198" height="183" fill="#fff"/>
 <g font-family="Liberation Serif" font-size="7px" text-anchor="middle">
 <g id="a">
 <g stroke="#000" stroke-width=".25"><path id="c" d="m70 71.7v-2m-19.6 2v-2m-19.6 2v-2"/><path d="m11.2 17.3h78.4m-78.4 10.9h78.4m-78.4 10.9h78.4m-78.4 10.9h78.4m-78.4 10.9h78.4m-19.6 10.9 0-60m-19.6 60v-60m-19.6 60v-60" stroke="#888888" stroke-dasharray="1"/><path id="b" d="m87.7 17.3h2m-2 10.9h2m-2 10.9h2m-2 11h2m-2 11h2"/><path d="m89.6 12h-78.4v60h78.4z" fill="none" stroke-width=".5"/><use transform="translate(-76.5)" xlink:href="#b"/><use transform="translate(0-58)" xlink:href="#c"/></g>
 <text x="51" y="87">f/f<tspan dy="2" font-size="5px">0</tspan></text><text x="11" y="79">0.0</text><text x="31" y="79">0.5</text><text x="50" y="79">1.0</text><text x="70" y="79">1.5</text><text x="89" y="79">2.0</text>
 <g text-anchor= "end"><text x="10" y="19">1.0</text><text x="10" y="30">0.8</text><text x="10" y="41">0.6</text><text x="10" y="52">0.4</text><text x="10" y="63">0.2</text><text x="10" y="74">0.0</text><text x="8" y="10">G</text></g></g>
 <use transform="translate(0 92.6)" xlink:href="#a"/><use transform="translate(103)" xlink:href="#a"/><use transform="translate(103 92.6)" xlink:href="#a"/><path d="m114 109.8c7 0 12.6 5 19.3 6 3.7 .5 7-1.6 9.7-4 1-1 3-2.7 4.4-1.4 1.5 1.5 2 3.7 3.4 5.4 1 .2 1-1.4 1-2 .3-1 .3-2.7 .7-4 .6 6 .4 11.7 .6 17.5 .3 12.2 .3 24.5 1 36.7 .4-1.7 .2-4 1.6-5 1.5 0 2.3 1.6 3.4 2.4 1 1 2 2 3.3 3 6.3-4.6 14.3-5 21.8-5.3 2.5 0 5 0 7.6 0m-181-49c7.8 0 15.6 0 23.4 .2 2.6 0 5.3 1.4 6.4 4 2.5 5 3 11 4.2 16.5 1.8 10 2.8 20.2 6 30 .5 1.3 1 2.7 1.6 4 1.3-3 4-5.6 7-5.4 4.7 .2 9 2.5 13.3 3.8 1.7 .5 3.4 1.3 5 1.6 3.8-1 7.6-2 11.5-2.7m24.6-144.3c3.7 .3 6 3.8 9.3 5 2.7 1.5 6 .3 8-1.6 2-1.4 3.7-3.8 6.3-3.6 3.3 1 4.5 5 7.7 6 2.3 .3 3.4-2.3 4.4-4 .5-.6 1-2.5 2-1.7 1.3 2.6 1.4 5.6 2 8.4 1.5 10 2 20.7 5 30.7 1.4 4.8 4 9.7 9 11.7 6 2.6 13 2.5 19.6 3 2 0 3.5 0 5.3 0m-181-54c8 0 16 0 23.8 .2 3.7 0 7.4 1.5 9.6 4.6 4 5.3 6 11.7 8.4 17.6 3 8 6.7 16.7 13.6 22.5 6.4 5.3 15 7 23 7.8" fill="none" stroke="#f00"/><text x="50" y="7">Butterworth</text><text x="153" y="7">Chebyshev type 1</text><text x="50" y="99">Chebyshev type 2</text><text x="153" y="99">Elliptic</text></g></svg>