<?xml version="1.0" encoding="UTF-8" standalone="no"?>
<svg width="294.217mm" height="177.094mm"
 viewBox="0 0 834 502"
 xmlns="http://www.w3.org/2000/svg" xmlns:xlink="http://www.w3.org/1999/xlink"  version="1.2" baseProfile="tiny">
<title>Qt SVG Document</title>
<desc>MATLAB, The MathWorks, Inc. Version 25.1.0.2833191 R2025a Prerelease Update 2</desc>
<defs>
</defs>
<g fill="none" stroke="black" stroke-width="1" fill-rule="evenodd" stroke-linecap="square" stroke-linejoin="bevel" >

<g fill="#ffffff" fill-opacity="1" stroke="none" transform="matrix(0.49985,0,0,0.499751,0,0)"
font-family=".AppleSystemUIFont" font-size="13" font-weight="400" font-style="normal" 
>
<path vector-effect="none" fill-rule="evenodd" d="M0,0 L1668,0 L1668,1005 L0,1005 L0,0"/>
</g>

<g fill="#212121" fill-opacity="1" stroke="#212121" stroke-opacity="1" stroke-width="1" stroke-linecap="square" stroke-linejoin="bevel" transform="matrix(0.49985,0,0,0.499751,378.319,17.991)"
font-family="Helvetica" font-size="22" font-weight="700" font-style="normal" 
>
<text fill="#212121" fill-opacity="1" stroke="none" xml:space="preserve" x="0" y="-0.0625" font-family="Helvetica" font-size="22" font-weight="700" font-style="normal" 
 >Impulse Response</text>
</g>

<g fill="#212121" fill-opacity="1" stroke="#212121" stroke-opacity="1" stroke-width="1" stroke-linecap="square" stroke-linejoin="bevel" transform="matrix(0.49985,0,0,0.499751,389.066,474.099)"
font-family="Helvetica" font-size="22" font-weight="400" font-style="normal" 
>
<text fill="#212121" fill-opacity="1" stroke="none" xml:space="preserve" x="0" y="-0.0625" font-family="Helvetica" font-size="22" font-weight="400" font-style="normal" 
 >Time (seconds)</text>
</g>

<g fill="#212121" fill-opacity="1" stroke="#212121" stroke-opacity="1" stroke-width="1" stroke-linecap="square" stroke-linejoin="bevel" transform="matrix(0,-0.499751,0.49985,0,68.7294,282.777)"
font-family="Helvetica" font-size="22" font-weight="400" font-style="normal" 
>
<text fill="#212121" fill-opacity="1" stroke="none" xml:space="preserve" x="0" y="-0.0625" font-family="Helvetica" font-size="22" font-weight="400" font-style="normal" 
 >v(t) [metres/s]</text>
</g>

<g fill="#ffffff" fill-opacity="1" stroke="none" transform="matrix(4.9985e-05,0,0,4.99751e-05,0,0)"
font-family="Helvetica" font-size="22" font-weight="400" font-style="normal" 
>
<path vector-effect="none" fill-rule="evenodd" d="M2e+06,1.05e+06 L2e+06,8.93e+06 L1.508e+07,8.93e+06 L1.508e+07,1.05e+06 L2e+06,1.05e+06"/>
</g>

<g fill="#212121" fill-opacity="0.14902" stroke="#212121" stroke-opacity="0.14902" stroke-width="1" stroke-linecap="butt" stroke-linejoin="round" transform="matrix(0.49985,0,0,0.499751,0,0)"
font-family="Helvetica" font-size="22" font-weight="400" font-style="normal" 
>
<polyline fill="none" vector-effect="none" points="200,105 200,893 " />
<polyline fill="none" vector-effect="none" points="330.8,105 330.8,893 " />
<polyline fill="none" vector-effect="none" points="461.6,105 461.6,893 " />
<polyline fill="none" vector-effect="none" points="592.4,105 592.4,893 " />
<polyline fill="none" vector-effect="none" points="723.2,105 723.2,893 " />
<polyline fill="none" vector-effect="none" points="854,105 854,893 " />
<polyline fill="none" vector-effect="none" points="984.8,105 984.8,893 " />
<polyline fill="none" vector-effect="none" points="1115.6,105 1115.6,893 " />
<polyline fill="none" vector-effect="none" points="1246.4,105 1246.4,893 " />
<polyline fill="none" vector-effect="none" points="1377.2,105 1377.2,893 " />
<polyline fill="none" vector-effect="none" points="1508,105 1508,893 " />
<polyline fill="none" vector-effect="none" points="200,893 1508,893 " />
<polyline fill="none" vector-effect="none" points="200,794.5 1508,794.5 " />
<polyline fill="none" vector-effect="none" points="200,696 1508,696 " />
<polyline fill="none" vector-effect="none" points="200,597.5 1508,597.5 " />
<polyline fill="none" vector-effect="none" points="200,499 1508,499 " />
<polyline fill="none" vector-effect="none" points="200,400.5 1508,400.5 " />
<polyline fill="none" vector-effect="none" points="200,302 1508,302 " />
<polyline fill="none" vector-effect="none" points="200,203.5 1508,203.5 " />
<polyline fill="none" vector-effect="none" points="200,105 1508,105 " />
</g>

<g fill="#616161" fill-opacity="1" stroke="#616161" stroke-opacity="1" stroke-width="1" stroke-linecap="square" stroke-linejoin="round" transform="matrix(0.49985,0,0,0.499751,0,0)"
font-family="Helvetica" font-size="22" font-weight="400" font-style="normal" 
>
<polyline fill="none" vector-effect="none" points="200,893 1508,893 " />
<polyline fill="none" vector-effect="none" points="200,105 1508,105 " />
<polyline fill="none" vector-effect="none" points="200,893 200,879.92 " />
<polyline fill="none" vector-effect="none" points="330.8,893 330.8,879.92 " />
<polyline fill="none" vector-effect="none" points="461.6,893 461.6,879.92 " />
<polyline fill="none" vector-effect="none" points="592.4,893 592.4,879.92 " />
<polyline fill="none" vector-effect="none" points="723.2,893 723.2,879.92 " />
<polyline fill="none" vector-effect="none" points="854,893 854,879.92 " />
<polyline fill="none" vector-effect="none" points="984.8,893 984.8,879.92 " />
<polyline fill="none" vector-effect="none" points="1115.6,893 1115.6,879.92 " />
<polyline fill="none" vector-effect="none" points="1246.4,893 1246.4,879.92 " />
<polyline fill="none" vector-effect="none" points="1377.2,893 1377.2,879.92 " />
<polyline fill="none" vector-effect="none" points="1508,893 1508,879.92 " />
<polyline fill="none" vector-effect="none" points="200,105 200,118.08 " />
<polyline fill="none" vector-effect="none" points="330.8,105 330.8,118.08 " />
<polyline fill="none" vector-effect="none" points="461.6,105 461.6,118.08 " />
<polyline fill="none" vector-effect="none" points="592.4,105 592.4,118.08 " />
<polyline fill="none" vector-effect="none" points="723.2,105 723.2,118.08 " />
<polyline fill="none" vector-effect="none" points="854,105 854,118.08 " />
<polyline fill="none" vector-effect="none" points="984.8,105 984.8,118.08 " />
<polyline fill="none" vector-effect="none" points="1115.6,105 1115.6,118.08 " />
<polyline fill="none" vector-effect="none" points="1246.4,105 1246.4,118.08 " />
<polyline fill="none" vector-effect="none" points="1377.2,105 1377.2,118.08 " />
<polyline fill="none" vector-effect="none" points="1508,105 1508,118.08 " />
</g>

<g fill="#616161" fill-opacity="1" stroke="#616161" stroke-opacity="1" stroke-width="1" stroke-linecap="square" stroke-linejoin="bevel" transform="matrix(0.49985,0,0,0.499751,97.2208,457.772)"
font-family="Helvetica" font-size="20" font-weight="400" font-style="normal" 
>
<text fill="#616161" fill-opacity="1" stroke="none" xml:space="preserve" x="0" y="0.390625" font-family="Helvetica" font-size="20" font-weight="400" font-style="normal" 
 >0</text>
</g>

<g fill="#616161" fill-opacity="1" stroke="#616161" stroke-opacity="1" stroke-width="1" stroke-linecap="square" stroke-linejoin="bevel" transform="matrix(0.49985,0,0,0.499751,159.852,457.772)"
font-family="Helvetica" font-size="20" font-weight="400" font-style="normal" 
>
<text fill="#616161" fill-opacity="1" stroke="none" xml:space="preserve" x="0" y="0.390625" font-family="Helvetica" font-size="20" font-weight="400" font-style="normal" 
 >10</text>
</g>

<g fill="#616161" fill-opacity="1" stroke="#616161" stroke-opacity="1" stroke-width="1" stroke-linecap="square" stroke-linejoin="bevel" transform="matrix(0.49985,0,0,0.499751,225.232,457.772)"
font-family="Helvetica" font-size="20" font-weight="400" font-style="normal" 
>
<text fill="#616161" fill-opacity="1" stroke="none" xml:space="preserve" x="0" y="0.390625" font-family="Helvetica" font-size="20" font-weight="400" font-style="normal" 
 >20</text>
</g>

<g fill="#616161" fill-opacity="1" stroke="#616161" stroke-opacity="1" stroke-width="1" stroke-linecap="square" stroke-linejoin="bevel" transform="matrix(0.49985,0,0,0.499751,290.613,457.772)"
font-family="Helvetica" font-size="20" font-weight="400" font-style="normal" 
>
<text fill="#616161" fill-opacity="1" stroke="none" xml:space="preserve" x="0" y="0.390625" font-family="Helvetica" font-size="20" font-weight="400" font-style="normal" 
 >30</text>
</g>

<g fill="#616161" fill-opacity="1" stroke="#616161" stroke-opacity="1" stroke-width="1" stroke-linecap="square" stroke-linejoin="bevel" transform="matrix(0.49985,0,0,0.499751,355.993,457.772)"
font-family="Helvetica" font-size="20" font-weight="400" font-style="normal" 
>
<text fill="#616161" fill-opacity="1" stroke="none" xml:space="preserve" x="0" y="0.390625" font-family="Helvetica" font-size="20" font-weight="400" font-style="normal" 
 >40</text>
</g>

<g fill="#616161" fill-opacity="1" stroke="#616161" stroke-opacity="1" stroke-width="1" stroke-linecap="square" stroke-linejoin="bevel" transform="matrix(0.49985,0,0,0.499751,421.374,457.772)"
font-family="Helvetica" font-size="20" font-weight="400" font-style="normal" 
>
<text fill="#616161" fill-opacity="1" stroke="none" xml:space="preserve" x="0" y="0.390625" font-family="Helvetica" font-size="20" font-weight="400" font-style="normal" 
 >50</text>
</g>

<g fill="#616161" fill-opacity="1" stroke="#616161" stroke-opacity="1" stroke-width="1" stroke-linecap="square" stroke-linejoin="bevel" transform="matrix(0.49985,0,0,0.499751,486.754,457.772)"
font-family="Helvetica" font-size="20" font-weight="400" font-style="normal" 
>
<text fill="#616161" fill-opacity="1" stroke="none" xml:space="preserve" x="0" y="0.390625" font-family="Helvetica" font-size="20" font-weight="400" font-style="normal" 
 >60</text>
</g>

<g fill="#616161" fill-opacity="1" stroke="#616161" stroke-opacity="1" stroke-width="1" stroke-linecap="square" stroke-linejoin="bevel" transform="matrix(0.49985,0,0,0.499751,552.134,457.772)"
font-family="Helvetica" font-size="20" font-weight="400" font-style="normal" 
>
<text fill="#616161" fill-opacity="1" stroke="none" xml:space="preserve" x="0" y="0.390625" font-family="Helvetica" font-size="20" font-weight="400" font-style="normal" 
 >70</text>
</g>

<g fill="#616161" fill-opacity="1" stroke="#616161" stroke-opacity="1" stroke-width="1" stroke-linecap="square" stroke-linejoin="bevel" transform="matrix(0.49985,0,0,0.499751,617.515,457.772)"
font-family="Helvetica" font-size="20" font-weight="400" font-style="normal" 
>
<text fill="#616161" fill-opacity="1" stroke="none" xml:space="preserve" x="0" y="0.390625" font-family="Helvetica" font-size="20" font-weight="400" font-style="normal" 
 >80</text>
</g>

<g fill="#616161" fill-opacity="1" stroke="#616161" stroke-opacity="1" stroke-width="1" stroke-linecap="square" stroke-linejoin="bevel" transform="matrix(0.49985,0,0,0.499751,682.895,457.772)"
font-family="Helvetica" font-size="20" font-weight="400" font-style="normal" 
>
<text fill="#616161" fill-opacity="1" stroke="none" xml:space="preserve" x="0" y="0.390625" font-family="Helvetica" font-size="20" font-weight="400" font-style="normal" 
 >90</text>
</g>

<g fill="#616161" fill-opacity="1" stroke="#616161" stroke-opacity="1" stroke-width="1" stroke-linecap="square" stroke-linejoin="bevel" transform="matrix(0.49985,0,0,0.499751,745.526,457.772)"
font-family="Helvetica" font-size="20" font-weight="400" font-style="normal" 
>
<text fill="#616161" fill-opacity="1" stroke="none" xml:space="preserve" x="0" y="0.390625" font-family="Helvetica" font-size="20" font-weight="400" font-style="normal" 
 >100</text>
</g>

<g fill="#616161" fill-opacity="1" stroke="#616161" stroke-opacity="1" stroke-width="1" stroke-linecap="square" stroke-linejoin="round" transform="matrix(0.49985,0,0,0.499751,0,0)"
font-family="Helvetica" font-size="20" font-weight="400" font-style="normal" 
>
<polyline fill="none" vector-effect="none" points="200,893 200,105 " />
<polyline fill="none" vector-effect="none" points="1508,893 1508,105 " />
<polyline fill="none" vector-effect="none" points="200,893 213.08,893 " />
<polyline fill="none" vector-effect="none" points="200,794.5 213.08,794.5 " />
<polyline fill="none" vector-effect="none" points="200,696 213.08,696 " />
<polyline fill="none" vector-effect="none" points="200,597.5 213.08,597.5 " />
<polyline fill="none" vector-effect="none" points="200,499 213.08,499 " />
<polyline fill="none" vector-effect="none" points="200,400.5 213.08,400.5 " />
<polyline fill="none" vector-effect="none" points="200,302 213.08,302 " />
<polyline fill="none" vector-effect="none" points="200,203.5 213.08,203.5 " />
<polyline fill="none" vector-effect="none" points="200,105 213.08,105 " />
<polyline fill="none" vector-effect="none" points="1508,893 1494.92,893 " />
<polyline fill="none" vector-effect="none" points="1508,794.5 1494.92,794.5 " />
<polyline fill="none" vector-effect="none" points="1508,696 1494.92,696 " />
<polyline fill="none" vector-effect="none" points="1508,597.5 1494.92,597.5 " />
<polyline fill="none" vector-effect="none" points="1508,499 1494.92,499 " />
<polyline fill="none" vector-effect="none" points="1508,400.5 1494.92,400.5 " />
<polyline fill="none" vector-effect="none" points="1508,302 1494.92,302 " />
<polyline fill="none" vector-effect="none" points="1508,203.5 1494.92,203.5 " />
<polyline fill="none" vector-effect="none" points="1508,105 1494.92,105 " />
</g>

<g fill="#616161" fill-opacity="1" stroke="#616161" stroke-opacity="1" stroke-width="1" stroke-linecap="square" stroke-linejoin="bevel" transform="matrix(0.49985,0,0,0.499751,90.4729,448.776)"
font-family="Helvetica" font-size="20" font-weight="400" font-style="normal" 
>
<text fill="#616161" fill-opacity="1" stroke="none" xml:space="preserve" x="0" y="0.390625" font-family="Helvetica" font-size="20" font-weight="400" font-style="normal" 
 >0</text>
</g>

<g fill="#616161" fill-opacity="1" stroke="#616161" stroke-opacity="1" stroke-width="1" stroke-linecap="square" stroke-linejoin="bevel" transform="matrix(0.49985,0,0,0.499751,90.4729,399.551)"
font-family="Helvetica" font-size="20" font-weight="400" font-style="normal" 
>
<text fill="#616161" fill-opacity="1" stroke="none" xml:space="preserve" x="0" y="0.390625" font-family="Helvetica" font-size="20" font-weight="400" font-style="normal" 
 >1</text>
</g>

<g fill="#616161" fill-opacity="1" stroke="#616161" stroke-opacity="1" stroke-width="1" stroke-linecap="square" stroke-linejoin="bevel" transform="matrix(0.49985,0,0,0.499751,90.4729,350.325)"
font-family="Helvetica" font-size="20" font-weight="400" font-style="normal" 
>
<text fill="#616161" fill-opacity="1" stroke="none" xml:space="preserve" x="0" y="0.390625" font-family="Helvetica" font-size="20" font-weight="400" font-style="normal" 
 >2</text>
</g>

<g fill="#616161" fill-opacity="1" stroke="#616161" stroke-opacity="1" stroke-width="1" stroke-linecap="square" stroke-linejoin="bevel" transform="matrix(0.49985,0,0,0.499751,90.4729,301.1)"
font-family="Helvetica" font-size="20" font-weight="400" font-style="normal" 
>
<text fill="#616161" fill-opacity="1" stroke="none" xml:space="preserve" x="0" y="0.390625" font-family="Helvetica" font-size="20" font-weight="400" font-style="normal" 
 >3</text>
</g>

<g fill="#616161" fill-opacity="1" stroke="#616161" stroke-opacity="1" stroke-width="1" stroke-linecap="square" stroke-linejoin="bevel" transform="matrix(0.49985,0,0,0.499751,90.4729,251.875)"
font-family="Helvetica" font-size="20" font-weight="400" font-style="normal" 
>
<text fill="#616161" fill-opacity="1" stroke="none" xml:space="preserve" x="0" y="0.390625" font-family="Helvetica" font-size="20" font-weight="400" font-style="normal" 
 >4</text>
</g>

<g fill="#616161" fill-opacity="1" stroke="#616161" stroke-opacity="1" stroke-width="1" stroke-linecap="square" stroke-linejoin="bevel" transform="matrix(0.49985,0,0,0.499751,90.4729,202.649)"
font-family="Helvetica" font-size="20" font-weight="400" font-style="normal" 
>
<text fill="#616161" fill-opacity="1" stroke="none" xml:space="preserve" x="0" y="0.390625" font-family="Helvetica" font-size="20" font-weight="400" font-style="normal" 
 >5</text>
</g>

<g fill="#616161" fill-opacity="1" stroke="#616161" stroke-opacity="1" stroke-width="1" stroke-linecap="square" stroke-linejoin="bevel" transform="matrix(0.49985,0,0,0.499751,90.4729,153.424)"
font-family="Helvetica" font-size="20" font-weight="400" font-style="normal" 
>
<text fill="#616161" fill-opacity="1" stroke="none" xml:space="preserve" x="0" y="0.390625" font-family="Helvetica" font-size="20" font-weight="400" font-style="normal" 
 >6</text>
</g>

<g fill="#616161" fill-opacity="1" stroke="#616161" stroke-opacity="1" stroke-width="1" stroke-linecap="square" stroke-linejoin="bevel" transform="matrix(0.49985,0,0,0.499751,90.4729,104.198)"
font-family="Helvetica" font-size="20" font-weight="400" font-style="normal" 
>
<text fill="#616161" fill-opacity="1" stroke="none" xml:space="preserve" x="0" y="0.390625" font-family="Helvetica" font-size="20" font-weight="400" font-style="normal" 
 >7</text>
</g>

<g fill="#616161" fill-opacity="1" stroke="#616161" stroke-opacity="1" stroke-width="1" stroke-linecap="square" stroke-linejoin="bevel" transform="matrix(0.49985,0,0,0.499751,90.4729,54.9726)"
font-family="Helvetica" font-size="20" font-weight="400" font-style="normal" 
>
<text fill="#616161" fill-opacity="1" stroke="none" xml:space="preserve" x="0" y="0.390625" font-family="Helvetica" font-size="20" font-weight="400" font-style="normal" 
 >8</text>
</g>

<g fill="#616161" fill-opacity="1" stroke="#616161" stroke-opacity="1" stroke-width="1" stroke-linecap="square" stroke-linejoin="bevel" transform="matrix(0.49985,0,0,0.499751,99.97,49.9751)"
font-family="mwb_cmsy10" font-size="20" font-weight="400" font-style="normal" 
>
<text fill="#616161" fill-opacity="1" stroke="none" xml:space="preserve" x="0" y="0.109375" font-family="mwb_cmsy10" font-size="20" font-weight="400" font-style="normal" 
 >#</text>
</g>

<g fill="#616161" fill-opacity="1" stroke="#616161" stroke-opacity="1" stroke-width="1" stroke-linecap="square" stroke-linejoin="bevel" transform="matrix(0.49985,0,0,0.499751,107.968,49.9751)"
font-family="Helvetica" font-size="20" font-weight="400" font-style="normal" 
>
<text fill="#616161" fill-opacity="1" stroke="none" xml:space="preserve" x="0" y="0.390625" font-family="Helvetica" font-size="20" font-weight="400" font-style="normal" 
 >10</text>
</g>

<g fill="#616161" fill-opacity="1" stroke="#616161" stroke-opacity="1" stroke-width="1" stroke-linecap="square" stroke-linejoin="bevel" transform="matrix(0.49985,0,0,0.499751,118.964,44.9776)"
font-family="Helvetica" font-size="16" font-weight="400" font-style="normal" 
>
<text fill="#616161" fill-opacity="1" stroke="none" xml:space="preserve" x="0" y="0.3125" font-family="Helvetica" font-size="16" font-weight="400" font-style="normal" 
 >-4</text>
</g>

<g fill="#7d7d7d" fill-opacity="0.701961" stroke="#7d7d7d" stroke-opacity="0.701961" stroke-dasharray="1,3" stroke-dashoffset="0" stroke-width="1" stroke-linecap="butt" stroke-linejoin="round" transform="matrix(0.49985,0,0,0.499751,0,0)"
font-family="Helvetica" font-size="16" font-weight="400" font-style="normal" 
>
<polyline fill="none" vector-effect="none" points="200,893 1508,893 " />
</g>

<g fill="none" stroke="#1171be" stroke-opacity="1" stroke-width="1" stroke-linecap="butt" stroke-linejoin="round" transform="matrix(0.49985,0,0,0.499751,0,0)"
font-family="Helvetica" font-size="16" font-weight="400" font-style="normal" 
>
<polyline fill="none" vector-effect="none" points="200,135.308 213.08,191.406 226.16,243.352 239.24,291.451 252.32,335.989 265.4,377.229 278.48,415.417 291.56,450.776 304.64,483.518 317.72,513.836 330.8,541.909 343.88,567.903 356.96,591.973 370.04,614.261 383.12,634.898 396.2,654.008 409.28,671.702 422.36,688.087 435.44,703.259 448.52,717.307 461.6,730.315 474.68,742.36 487.76,753.513 500.84,763.841 513.92,773.404 527,782.258 540.08,790.458 553.16,798.05 566.24,805.08 579.32,811.589 592.4,817.617 605.48,823.198 618.56,828.366 631.64,833.152 644.72,837.583 657.8,841.686 670.88,845.485 683.96,849.003 697.04,852.26 710.12,855.277 723.2,858.07 736.28,860.656 749.36,863.051 762.44,865.268 775.52,867.321 788.6,869.223 801.68,870.983 814.76,872.613 827.84,874.122 840.92,875.52 854,876.814 867.08,878.013 880.16,879.122 893.24,880.15 906.32,881.101 919.4,881.982 932.48,882.798 945.56,883.553 958.64,884.253 971.72,884.9 984.8,885.5 997.88,886.055 1010.96,886.57 1024.04,887.046 1037.12,887.487 1050.2,887.895 1063.28,888.273 1076.36,888.623 1089.44,888.947 1102.52,889.247 1115.6,889.525 1128.68,889.782 1141.76,890.02 1154.84,890.241 1167.92,890.445 1181,890.634 1194.08,890.81 1207.16,890.972 1220.24,891.122 1233.32,891.261 1246.4,891.39 1259.48,891.509 1272.56,891.619 1285.64,891.722 1298.72,891.816 1311.8,891.904 1324.88,891.985 1337.96,892.06 1351.04,892.13 1364.12,892.194 1377.2,892.254 1390.28,892.309 1403.36,892.36 1416.44,892.408 1429.52,892.451 1442.6,892.492 1455.68,892.53 1468.76,892.565 1481.84,892.597 1494.92,892.627 1508,892.654 " />
</g>
</g>
</svg>