<?xml version="1.0" encoding="UTF-8" standalone="no"?>
<svg width="294.217mm" height="177.094mm"
 viewBox="0 0 834 502"
 xmlns="http://www.w3.org/2000/svg" xmlns:xlink="http://www.w3.org/1999/xlink"  version="1.2" baseProfile="tiny">
<title>Qt SVG Document</title>
<desc>MATLAB, The MathWorks, Inc. Version 25.1.0.2833191 R2025a Prerelease Update 2</desc>
<defs>
</defs>
<g fill="none" stroke="black" stroke-width="1" fill-rule="evenodd" stroke-linecap="square" stroke-linejoin="bevel" >

<g fill="#ffffff" fill-opacity="1" stroke="none" transform="matrix(0.49985,0,0,0.499751,0,0)"
font-family=".AppleSystemUIFont" font-size="13" font-weight="400" font-style="normal" 
>
<path vector-effect="none" fill-rule="evenodd" d="M0,0 L1668,0 L1668,1005 L0,1005 L0,0"/>
</g>

<g fill="#212121" fill-opacity="1" stroke="#212121" stroke-opacity="1" stroke-width="1" stroke-linecap="square" stroke-linejoin="bevel" transform="matrix(0.49985,0,0,0.499751,389.566,17.991)"
font-family="Helvetica" font-size="22" font-weight="700" font-style="normal" 
>
<text fill="#212121" fill-opacity="1" stroke="none" xml:space="preserve" x="0" y="-0.0625" font-family="Helvetica" font-size="22" font-weight="700" font-style="normal" 
 >Bode Diagram</text>
</g>

<g fill="#212121" fill-opacity="1" stroke="#212121" stroke-opacity="1" stroke-width="1" stroke-linecap="square" stroke-linejoin="bevel" transform="matrix(0.49985,0,0,0.499751,383.317,476.598)"
font-family="Helvetica" font-size="22" font-weight="400" font-style="normal" 
>
<text fill="#212121" fill-opacity="1" stroke="none" xml:space="preserve" x="0" y="-0.0625" font-family="Helvetica" font-size="22" font-weight="400" font-style="normal" 
 >Frequency (rad/s)</text>
</g>

<g fill="#ffffff" fill-opacity="1" stroke="none" transform="matrix(4.9985e-05,0,0,4.99751e-05,0,0)"
font-family="Helvetica" font-size="22" font-weight="400" font-style="normal" 
>
<path vector-effect="none" fill-rule="evenodd" d="M2e+06,880000 L2e+06,4.55e+06 L1.508e+07,4.55e+06 L1.508e+07,880000 L2e+06,880000"/>
</g>

<g fill="#212121" fill-opacity="0.14902" stroke="#212121" stroke-opacity="0.14902" stroke-width="1" stroke-linecap="butt" stroke-linejoin="round" transform="matrix(0.49985,0,0,0.499751,0,0)"
font-family="Helvetica" font-size="22" font-weight="400" font-style="normal" 
>
<polyline fill="none" vector-effect="none" points="200,455 200,88 " />
<polyline fill="none" vector-effect="none" points="527,455 527,88 " />
<polyline fill="none" vector-effect="none" points="854,455 854,88 " />
<polyline fill="none" vector-effect="none" points="1181,455 1181,88 " />
<polyline fill="none" vector-effect="none" points="1508,455 1508,88 " />
<polyline fill="none" vector-effect="none" points="1508,455 200,455 " />
<polyline fill="none" vector-effect="none" points="1508,409.125 200,409.125 " />
<polyline fill="none" vector-effect="none" points="1508,363.25 200,363.25 " />
<polyline fill="none" vector-effect="none" points="1508,317.375 200,317.375 " />
<polyline fill="none" vector-effect="none" points="1508,271.5 200,271.5 " />
<polyline fill="none" vector-effect="none" points="1508,225.625 200,225.625 " />
<polyline fill="none" vector-effect="none" points="1508,179.75 200,179.75 " />
<polyline fill="none" vector-effect="none" points="1508,133.875 200,133.875 " />
<polyline fill="none" vector-effect="none" points="1508,88 200,88 " />
</g>

<g fill="#616161" fill-opacity="1" stroke="#616161" stroke-opacity="1" stroke-width="1" stroke-linecap="square" stroke-linejoin="round" transform="matrix(0.49985,0,0,0.499751,0,0)"
font-family="Helvetica" font-size="22" font-weight="400" font-style="normal" 
>
<polyline fill="none" vector-effect="none" points="200,455 1508,455 " />
<polyline fill="none" vector-effect="none" points="200,88 1508,88 " />
<polyline fill="none" vector-effect="none" points="200,455 200,441.92 " />
<polyline fill="none" vector-effect="none" points="527,455 527,441.92 " />
<polyline fill="none" vector-effect="none" points="854,455 854,441.92 " />
<polyline fill="none" vector-effect="none" points="1181,455 1181,441.92 " />
<polyline fill="none" vector-effect="none" points="1508,455 1508,441.92 " />
<polyline fill="none" vector-effect="none" points="200,88 200,101.08 " />
<polyline fill="none" vector-effect="none" points="527,88 527,101.08 " />
<polyline fill="none" vector-effect="none" points="854,88 854,101.08 " />
<polyline fill="none" vector-effect="none" points="1181,88 1181,101.08 " />
<polyline fill="none" vector-effect="none" points="1508,88 1508,101.08 " />
<polyline fill="none" vector-effect="none" points="200,455 200,448.46 " />
<polyline fill="none" vector-effect="none" points="298.437,455 298.437,448.46 " />
<polyline fill="none" vector-effect="none" points="356.019,455 356.019,448.46 " />
<polyline fill="none" vector-effect="none" points="396.874,455 396.874,448.46 " />
<polyline fill="none" vector-effect="none" points="428.563,455 428.563,448.46 " />
<polyline fill="none" vector-effect="none" points="454.455,455 454.455,448.46 " />
<polyline fill="none" vector-effect="none" points="476.347,455 476.347,448.46 " />
<polyline fill="none" vector-effect="none" points="495.31,455 495.31,448.46 " />
<polyline fill="none" vector-effect="none" points="512.037,455 512.037,448.46 " />
<polyline fill="none" vector-effect="none" points="527,455 527,448.46 " />
<polyline fill="none" vector-effect="none" points="625.437,455 625.437,448.46 " />
<polyline fill="none" vector-effect="none" points="683.019,455 683.019,448.46 " />
<polyline fill="none" vector-effect="none" points="723.874,455 723.874,448.46 " />
<polyline fill="none" vector-effect="none" points="755.563,455 755.563,448.46 " />
<polyline fill="none" vector-effect="none" points="781.455,455 781.455,448.46 " />
<polyline fill="none" vector-effect="none" points="803.347,455 803.347,448.46 " />
<polyline fill="none" vector-effect="none" points="822.31,455 822.31,448.46 " />
<polyline fill="none" vector-effect="none" points="839.037,455 839.037,448.46 " />
<polyline fill="none" vector-effect="none" points="854,455 854,448.46 " />
<polyline fill="none" vector-effect="none" points="952.437,455 952.437,448.46 " />
<polyline fill="none" vector-effect="none" points="1010.02,455 1010.02,448.46 " />
<polyline fill="none" vector-effect="none" points="1050.87,455 1050.87,448.46 " />
<polyline fill="none" vector-effect="none" points="1082.56,455 1082.56,448.46 " />
<polyline fill="none" vector-effect="none" points="1108.46,455 1108.46,448.46 " />
<polyline fill="none" vector-effect="none" points="1130.35,455 1130.35,448.46 " />
<polyline fill="none" vector-effect="none" points="1149.31,455 1149.31,448.46 " />
<polyline fill="none" vector-effect="none" points="1166.04,455 1166.04,448.46 " />
<polyline fill="none" vector-effect="none" points="1181,455 1181,448.46 " />
<polyline fill="none" vector-effect="none" points="1279.44,455 1279.44,448.46 " />
<polyline fill="none" vector-effect="none" points="1337.02,455 1337.02,448.46 " />
<polyline fill="none" vector-effect="none" points="1377.87,455 1377.87,448.46 " />
<polyline fill="none" vector-effect="none" points="1409.56,455 1409.56,448.46 " />
<polyline fill="none" vector-effect="none" points="1435.46,455 1435.46,448.46 " />
<polyline fill="none" vector-effect="none" points="1457.35,455 1457.35,448.46 " />
<polyline fill="none" vector-effect="none" points="1476.31,455 1476.31,448.46 " />
<polyline fill="none" vector-effect="none" points="1493.04,455 1493.04,448.46 " />
<polyline fill="none" vector-effect="none" points="1508,455 1508,448.46 " />
<polyline fill="none" vector-effect="none" points="200,88 200,94.54 " />
<polyline fill="none" vector-effect="none" points="298.437,88 298.437,94.54 " />
<polyline fill="none" vector-effect="none" points="356.019,88 356.019,94.54 " />
<polyline fill="none" vector-effect="none" points="396.874,88 396.874,94.54 " />
<polyline fill="none" vector-effect="none" points="428.563,88 428.563,94.54 " />
<polyline fill="none" vector-effect="none" points="454.455,88 454.455,94.54 " />
<polyline fill="none" vector-effect="none" points="476.347,88 476.347,94.54 " />
<polyline fill="none" vector-effect="none" points="495.31,88 495.31,94.54 " />
<polyline fill="none" vector-effect="none" points="512.037,88 512.037,94.54 " />
<polyline fill="none" vector-effect="none" points="527,88 527,94.54 " />
<polyline fill="none" vector-effect="none" points="625.437,88 625.437,94.54 " />
<polyline fill="none" vector-effect="none" points="683.019,88 683.019,94.54 " />
<polyline fill="none" vector-effect="none" points="723.874,88 723.874,94.54 " />
<polyline fill="none" vector-effect="none" points="755.563,88 755.563,94.54 " />
<polyline fill="none" vector-effect="none" points="781.455,88 781.455,94.54 " />
<polyline fill="none" vector-effect="none" points="803.347,88 803.347,94.54 " />
<polyline fill="none" vector-effect="none" points="822.31,88 822.31,94.54 " />
<polyline fill="none" vector-effect="none" points="839.037,88 839.037,94.54 " />
<polyline fill="none" vector-effect="none" points="854,88 854,94.54 " />
<polyline fill="none" vector-effect="none" points="952.437,88 952.437,94.54 " />
<polyline fill="none" vector-effect="none" points="1010.02,88 1010.02,94.54 " />
<polyline fill="none" vector-effect="none" points="1050.87,88 1050.87,94.54 " />
<polyline fill="none" vector-effect="none" points="1082.56,88 1082.56,94.54 " />
<polyline fill="none" vector-effect="none" points="1108.46,88 1108.46,94.54 " />
<polyline fill="none" vector-effect="none" points="1130.35,88 1130.35,94.54 " />
<polyline fill="none" vector-effect="none" points="1149.31,88 1149.31,94.54 " />
<polyline fill="none" vector-effect="none" points="1166.04,88 1166.04,94.54 " />
<polyline fill="none" vector-effect="none" points="1181,88 1181,94.54 " />
<polyline fill="none" vector-effect="none" points="1279.44,88 1279.44,94.54 " />
<polyline fill="none" vector-effect="none" points="1337.02,88 1337.02,94.54 " />
<polyline fill="none" vector-effect="none" points="1377.87,88 1377.87,94.54 " />
<polyline fill="none" vector-effect="none" points="1409.56,88 1409.56,94.54 " />
<polyline fill="none" vector-effect="none" points="1435.46,88 1435.46,94.54 " />
<polyline fill="none" vector-effect="none" points="1457.35,88 1457.35,94.54 " />
<polyline fill="none" vector-effect="none" points="1476.31,88 1476.31,94.54 " />
<polyline fill="none" vector-effect="none" points="1493.04,88 1493.04,94.54 " />
<polyline fill="none" vector-effect="none" points="1508,88 1508,94.54 " />
<polyline fill="none" vector-effect="none" points="200,455 200,88 " />
<polyline fill="none" vector-effect="none" points="1508,455 1508,88 " />
<polyline fill="none" vector-effect="none" points="200,455 213.08,455 " />
<polyline fill="none" vector-effect="none" points="200,409.125 213.08,409.125 " />
<polyline fill="none" vector-effect="none" points="200,363.25 213.08,363.25 " />
<polyline fill="none" vector-effect="none" points="200,317.375 213.08,317.375 " />
<polyline fill="none" vector-effect="none" points="200,271.5 213.08,271.5 " />
<polyline fill="none" vector-effect="none" points="200,225.625 213.08,225.625 " />
<polyline fill="none" vector-effect="none" points="200,179.75 213.08,179.75 " />
<polyline fill="none" vector-effect="none" points="200,133.875 213.08,133.875 " />
<polyline fill="none" vector-effect="none" points="200,88 213.08,88 " />
<polyline fill="none" vector-effect="none" points="1508,455 1494.92,455 " />
<polyline fill="none" vector-effect="none" points="1508,409.125 1494.92,409.125 " />
<polyline fill="none" vector-effect="none" points="1508,363.25 1494.92,363.25 " />
<polyline fill="none" vector-effect="none" points="1508,317.375 1494.92,317.375 " />
<polyline fill="none" vector-effect="none" points="1508,271.5 1494.92,271.5 " />
<polyline fill="none" vector-effect="none" points="1508,225.625 1494.92,225.625 " />
<polyline fill="none" vector-effect="none" points="1508,179.75 1494.92,179.75 " />
<polyline fill="none" vector-effect="none" points="1508,133.875 1494.92,133.875 " />
<polyline fill="none" vector-effect="none" points="1508,88 1494.92,88 " />
</g>

<g fill="#616161" fill-opacity="1" stroke="#616161" stroke-opacity="1" stroke-width="1" stroke-linecap="square" stroke-linejoin="bevel" transform="matrix(0.49985,0,0,0.499751,81.4756,229.885)"
font-family="Helvetica" font-size="20" font-weight="400" font-style="normal" 
>
<text fill="#616161" fill-opacity="1" stroke="none" xml:space="preserve" x="0" y="0.390625" font-family="Helvetica" font-size="20" font-weight="400" font-style="normal" 
 >-80</text>
</g>

<g fill="#616161" fill-opacity="1" stroke="#616161" stroke-opacity="1" stroke-width="1" stroke-linecap="square" stroke-linejoin="bevel" transform="matrix(0.49985,0,0,0.499751,81.4756,206.959)"
font-family="Helvetica" font-size="20" font-weight="400" font-style="normal" 
>
<text fill="#616161" fill-opacity="1" stroke="none" xml:space="preserve" x="0" y="0.390625" font-family="Helvetica" font-size="20" font-weight="400" font-style="normal" 
 >-70</text>
</g>

<g fill="#616161" fill-opacity="1" stroke="#616161" stroke-opacity="1" stroke-width="1" stroke-linecap="square" stroke-linejoin="bevel" transform="matrix(0.49985,0,0,0.499751,81.4756,184.033)"
font-family="Helvetica" font-size="20" font-weight="400" font-style="normal" 
>
<text fill="#616161" fill-opacity="1" stroke="none" xml:space="preserve" x="0" y="0.390625" font-family="Helvetica" font-size="20" font-weight="400" font-style="normal" 
 >-60</text>
</g>

<g fill="#616161" fill-opacity="1" stroke="#616161" stroke-opacity="1" stroke-width="1" stroke-linecap="square" stroke-linejoin="bevel" transform="matrix(0.49985,0,0,0.499751,81.4756,161.107)"
font-family="Helvetica" font-size="20" font-weight="400" font-style="normal" 
>
<text fill="#616161" fill-opacity="1" stroke="none" xml:space="preserve" x="0" y="0.390625" font-family="Helvetica" font-size="20" font-weight="400" font-style="normal" 
 >-50</text>
</g>

<g fill="#616161" fill-opacity="1" stroke="#616161" stroke-opacity="1" stroke-width="1" stroke-linecap="square" stroke-linejoin="bevel" transform="matrix(0.49985,0,0,0.499751,81.4756,138.181)"
font-family="Helvetica" font-size="20" font-weight="400" font-style="normal" 
>
<text fill="#616161" fill-opacity="1" stroke="none" xml:space="preserve" x="0" y="0.390625" font-family="Helvetica" font-size="20" font-weight="400" font-style="normal" 
 >-40</text>
</g>

<g fill="#616161" fill-opacity="1" stroke="#616161" stroke-opacity="1" stroke-width="1" stroke-linecap="square" stroke-linejoin="bevel" transform="matrix(0.49985,0,0,0.499751,81.4756,115.255)"
font-family="Helvetica" font-size="20" font-weight="400" font-style="normal" 
>
<text fill="#616161" fill-opacity="1" stroke="none" xml:space="preserve" x="0" y="0.390625" font-family="Helvetica" font-size="20" font-weight="400" font-style="normal" 
 >-30</text>
</g>

<g fill="#616161" fill-opacity="1" stroke="#616161" stroke-opacity="1" stroke-width="1" stroke-linecap="square" stroke-linejoin="bevel" transform="matrix(0.49985,0,0,0.499751,81.4756,92.329)"
font-family="Helvetica" font-size="20" font-weight="400" font-style="normal" 
>
<text fill="#616161" fill-opacity="1" stroke="none" xml:space="preserve" x="0" y="0.390625" font-family="Helvetica" font-size="20" font-weight="400" font-style="normal" 
 >-20</text>
</g>

<g fill="#616161" fill-opacity="1" stroke="#616161" stroke-opacity="1" stroke-width="1" stroke-linecap="square" stroke-linejoin="bevel" transform="matrix(0.49985,0,0,0.499751,81.4756,69.4029)"
font-family="Helvetica" font-size="20" font-weight="400" font-style="normal" 
>
<text fill="#616161" fill-opacity="1" stroke="none" xml:space="preserve" x="0" y="0.390625" font-family="Helvetica" font-size="20" font-weight="400" font-style="normal" 
 >-10</text>
</g>

<g fill="#616161" fill-opacity="1" stroke="#616161" stroke-opacity="1" stroke-width="1" stroke-linecap="square" stroke-linejoin="bevel" transform="matrix(0.49985,0,0,0.499751,90.4729,46.4768)"
font-family="Helvetica" font-size="20" font-weight="400" font-style="normal" 
>
<text fill="#616161" fill-opacity="1" stroke="none" xml:space="preserve" x="0" y="0.390625" font-family="Helvetica" font-size="20" font-weight="400" font-style="normal" 
 >0</text>
</g>

<g fill="#212121" fill-opacity="1" stroke="#212121" stroke-opacity="1" stroke-width="1" stroke-linecap="square" stroke-linejoin="bevel" transform="matrix(0,-0.499751,0.49985,0,75.9772,173.164)"
font-family="Helvetica" font-size="22" font-weight="400" font-style="normal" 
>
<text fill="#212121" fill-opacity="1" stroke="none" xml:space="preserve" x="0" y="-0.0625" font-family="Helvetica" font-size="22" font-weight="400" font-style="normal" 
 >Magnitude (dB)</text>
</g>

<g fill="none" stroke="#1171be" stroke-opacity="1" stroke-width="1" stroke-linecap="butt" stroke-linejoin="round" transform="matrix(0.49985,0,0,0.499751,0,0)"
font-family="Helvetica" font-size="22" font-weight="400" font-style="normal" 
>
<polyline fill="none" vector-effect="none" points="200,88.0095 211.918,88.0111 233.894,88.0151 255.869,88.0206 277.845,88.028 299.821,88.0382 321.797,88.0521 343.773,88.0709 365.749,88.0966 387.725,88.1315 409.701,88.179 431.677,88.2435 453.653,88.3311 475.629,88.45 497.604,88.6108 519.58,88.828 541.556,89.1204 563.532,89.5123 585.508,90.0348 607.484,90.7264 629.46,91.6334 651.436,92.8094 673.412,94.3127 695.388,96.2028 717.364,98.5337 739.339,101.349 761.315,104.674 783.291,108.517 805.267,112.869 827.243,117.707 849.219,123.007 871.195,128.746 893.171,134.912 915.147,141.505 937.123,148.537 959.099,156.031 981.074,164.011 1003.05,172.5 1025.03,181.507 1047,191.024 1068.98,201.025 1090.95,211.467 1112.93,222.296 1134.91,233.452 1156.88,244.877 1178.86,256.517 1200.83,268.327 1222.81,280.267 1244.79,292.307 1266.76,304.422 1288.74,316.593 1310.71,328.806 1332.69,341.05 1354.66,353.318 1376.64,365.603 1398.62,377.9 1420.59,390.206 1442.57,402.519 1464.54,414.837 1486.52,427.159 1508,439.206 " />
</g>

<g fill="#ffffff" fill-opacity="1" stroke="none" transform="matrix(4.9985e-05,0,0,4.99751e-05,0,0)"
font-family="Helvetica" font-size="22" font-weight="400" font-style="normal" 
>
<path vector-effect="none" fill-rule="evenodd" d="M2e+06,5.26e+06 L2e+06,8.93e+06 L1.508e+07,8.93e+06 L1.508e+07,5.26e+06 L2e+06,5.26e+06"/>
</g>

<g fill="#212121" fill-opacity="0.14902" stroke="#212121" stroke-opacity="0.14902" stroke-width="1" stroke-linecap="butt" stroke-linejoin="round" transform="matrix(0.49985,0,0,0.499751,0,0)"
font-family="Helvetica" font-size="22" font-weight="400" font-style="normal" 
>
<polyline fill="none" vector-effect="none" points="200,893 200,526 " />
<polyline fill="none" vector-effect="none" points="527,893 527,526 " />
<polyline fill="none" vector-effect="none" points="854,893 854,526 " />
<polyline fill="none" vector-effect="none" points="1181,893 1181,526 " />
<polyline fill="none" vector-effect="none" points="1508,893 1508,526 " />
<polyline fill="none" vector-effect="none" points="1508,893 200,893 " />
<polyline fill="none" vector-effect="none" points="1508,801.25 200,801.25 " />
<polyline fill="none" vector-effect="none" points="1508,709.5 200,709.5 " />
<polyline fill="none" vector-effect="none" points="1508,617.75 200,617.75 " />
<polyline fill="none" vector-effect="none" points="1508,526 200,526 " />
</g>

<g fill="#616161" fill-opacity="1" stroke="#616161" stroke-opacity="1" stroke-width="1" stroke-linecap="square" stroke-linejoin="round" transform="matrix(0.49985,0,0,0.499751,0,0)"
font-family="Helvetica" font-size="22" font-weight="400" font-style="normal" 
>
<polyline fill="none" vector-effect="none" points="200,893 1508,893 " />
<polyline fill="none" vector-effect="none" points="200,526 1508,526 " />
<polyline fill="none" vector-effect="none" points="200,893 200,879.92 " />
<polyline fill="none" vector-effect="none" points="527,893 527,879.92 " />
<polyline fill="none" vector-effect="none" points="854,893 854,879.92 " />
<polyline fill="none" vector-effect="none" points="1181,893 1181,879.92 " />
<polyline fill="none" vector-effect="none" points="1508,893 1508,879.92 " />
<polyline fill="none" vector-effect="none" points="200,526 200,539.08 " />
<polyline fill="none" vector-effect="none" points="527,526 527,539.08 " />
<polyline fill="none" vector-effect="none" points="854,526 854,539.08 " />
<polyline fill="none" vector-effect="none" points="1181,526 1181,539.08 " />
<polyline fill="none" vector-effect="none" points="1508,526 1508,539.08 " />
<polyline fill="none" vector-effect="none" points="200,893 200,886.46 " />
<polyline fill="none" vector-effect="none" points="298.437,893 298.437,886.46 " />
<polyline fill="none" vector-effect="none" points="356.019,893 356.019,886.46 " />
<polyline fill="none" vector-effect="none" points="396.874,893 396.874,886.46 " />
<polyline fill="none" vector-effect="none" points="428.563,893 428.563,886.46 " />
<polyline fill="none" vector-effect="none" points="454.455,893 454.455,886.46 " />
<polyline fill="none" vector-effect="none" points="476.347,893 476.347,886.46 " />
<polyline fill="none" vector-effect="none" points="495.31,893 495.31,886.46 " />
<polyline fill="none" vector-effect="none" points="512.037,893 512.037,886.46 " />
<polyline fill="none" vector-effect="none" points="527,893 527,886.46 " />
<polyline fill="none" vector-effect="none" points="625.437,893 625.437,886.46 " />
<polyline fill="none" vector-effect="none" points="683.019,893 683.019,886.46 " />
<polyline fill="none" vector-effect="none" points="723.874,893 723.874,886.46 " />
<polyline fill="none" vector-effect="none" points="755.563,893 755.563,886.46 " />
<polyline fill="none" vector-effect="none" points="781.455,893 781.455,886.46 " />
<polyline fill="none" vector-effect="none" points="803.347,893 803.347,886.46 " />
<polyline fill="none" vector-effect="none" points="822.31,893 822.31,886.46 " />
<polyline fill="none" vector-effect="none" points="839.037,893 839.037,886.46 " />
<polyline fill="none" vector-effect="none" points="854,893 854,886.46 " />
<polyline fill="none" vector-effect="none" points="952.437,893 952.437,886.46 " />
<polyline fill="none" vector-effect="none" points="1010.02,893 1010.02,886.46 " />
<polyline fill="none" vector-effect="none" points="1050.87,893 1050.87,886.46 " />
<polyline fill="none" vector-effect="none" points="1082.56,893 1082.56,886.46 " />
<polyline fill="none" vector-effect="none" points="1108.46,893 1108.46,886.46 " />
<polyline fill="none" vector-effect="none" points="1130.35,893 1130.35,886.46 " />
<polyline fill="none" vector-effect="none" points="1149.31,893 1149.31,886.46 " />
<polyline fill="none" vector-effect="none" points="1166.04,893 1166.04,886.46 " />
<polyline fill="none" vector-effect="none" points="1181,893 1181,886.46 " />
<polyline fill="none" vector-effect="none" points="1279.44,893 1279.44,886.46 " />
<polyline fill="none" vector-effect="none" points="1337.02,893 1337.02,886.46 " />
<polyline fill="none" vector-effect="none" points="1377.87,893 1377.87,886.46 " />
<polyline fill="none" vector-effect="none" points="1409.56,893 1409.56,886.46 " />
<polyline fill="none" vector-effect="none" points="1435.46,893 1435.46,886.46 " />
<polyline fill="none" vector-effect="none" points="1457.35,893 1457.35,886.46 " />
<polyline fill="none" vector-effect="none" points="1476.31,893 1476.31,886.46 " />
<polyline fill="none" vector-effect="none" points="1493.04,893 1493.04,886.46 " />
<polyline fill="none" vector-effect="none" points="1508,893 1508,886.46 " />
<polyline fill="none" vector-effect="none" points="200,526 200,532.54 " />
<polyline fill="none" vector-effect="none" points="298.437,526 298.437,532.54 " />
<polyline fill="none" vector-effect="none" points="356.019,526 356.019,532.54 " />
<polyline fill="none" vector-effect="none" points="396.874,526 396.874,532.54 " />
<polyline fill="none" vector-effect="none" points="428.563,526 428.563,532.54 " />
<polyline fill="none" vector-effect="none" points="454.455,526 454.455,532.54 " />
<polyline fill="none" vector-effect="none" points="476.347,526 476.347,532.54 " />
<polyline fill="none" vector-effect="none" points="495.31,526 495.31,532.54 " />
<polyline fill="none" vector-effect="none" points="512.037,526 512.037,532.54 " />
<polyline fill="none" vector-effect="none" points="527,526 527,532.54 " />
<polyline fill="none" vector-effect="none" points="625.437,526 625.437,532.54 " />
<polyline fill="none" vector-effect="none" points="683.019,526 683.019,532.54 " />
<polyline fill="none" vector-effect="none" points="723.874,526 723.874,532.54 " />
<polyline fill="none" vector-effect="none" points="755.563,526 755.563,532.54 " />
<polyline fill="none" vector-effect="none" points="781.455,526 781.455,532.54 " />
<polyline fill="none" vector-effect="none" points="803.347,526 803.347,532.54 " />
<polyline fill="none" vector-effect="none" points="822.31,526 822.31,532.54 " />
<polyline fill="none" vector-effect="none" points="839.037,526 839.037,532.54 " />
<polyline fill="none" vector-effect="none" points="854,526 854,532.54 " />
<polyline fill="none" vector-effect="none" points="952.437,526 952.437,532.54 " />
<polyline fill="none" vector-effect="none" points="1010.02,526 1010.02,532.54 " />
<polyline fill="none" vector-effect="none" points="1050.87,526 1050.87,532.54 " />
<polyline fill="none" vector-effect="none" points="1082.56,526 1082.56,532.54 " />
<polyline fill="none" vector-effect="none" points="1108.46,526 1108.46,532.54 " />
<polyline fill="none" vector-effect="none" points="1130.35,526 1130.35,532.54 " />
<polyline fill="none" vector-effect="none" points="1149.31,526 1149.31,532.54 " />
<polyline fill="none" vector-effect="none" points="1166.04,526 1166.04,532.54 " />
<polyline fill="none" vector-effect="none" points="1181,526 1181,532.54 " />
<polyline fill="none" vector-effect="none" points="1279.44,526 1279.44,532.54 " />
<polyline fill="none" vector-effect="none" points="1337.02,526 1337.02,532.54 " />
<polyline fill="none" vector-effect="none" points="1377.87,526 1377.87,532.54 " />
<polyline fill="none" vector-effect="none" points="1409.56,526 1409.56,532.54 " />
<polyline fill="none" vector-effect="none" points="1435.46,526 1435.46,532.54 " />
<polyline fill="none" vector-effect="none" points="1457.35,526 1457.35,532.54 " />
<polyline fill="none" vector-effect="none" points="1476.31,526 1476.31,532.54 " />
<polyline fill="none" vector-effect="none" points="1493.04,526 1493.04,532.54 " />
<polyline fill="none" vector-effect="none" points="1508,526 1508,532.54 " />
</g>

<g fill="#616161" fill-opacity="1" stroke="#616161" stroke-opacity="1" stroke-width="1" stroke-linecap="square" stroke-linejoin="bevel" transform="matrix(0.49985,0,0,0.499751,91.9724,461.27)"
font-family="Helvetica" font-size="20" font-weight="400" font-style="normal" 
>
<text fill="#616161" fill-opacity="1" stroke="none" xml:space="preserve" x="0" y="0.390625" font-family="Helvetica" font-size="20" font-weight="400" font-style="normal" 
 >10</text>
</g>

<g fill="#616161" fill-opacity="1" stroke="#616161" stroke-opacity="1" stroke-width="1" stroke-linecap="square" stroke-linejoin="bevel" transform="matrix(0.49985,0,0,0.499751,102.969,456.273)"
font-family="Helvetica" font-size="16" font-weight="400" font-style="normal" 
>
<text fill="#616161" fill-opacity="1" stroke="none" xml:space="preserve" x="0" y="0.3125" font-family="Helvetica" font-size="16" font-weight="400" font-style="normal" 
 >2</text>
</g>

<g fill="#616161" fill-opacity="1" stroke="#616161" stroke-opacity="1" stroke-width="1" stroke-linecap="square" stroke-linejoin="bevel" transform="matrix(0.49985,0,0,0.499751,255.423,461.27)"
font-family="Helvetica" font-size="20" font-weight="400" font-style="normal" 
>
<text fill="#616161" fill-opacity="1" stroke="none" xml:space="preserve" x="0" y="0.390625" font-family="Helvetica" font-size="20" font-weight="400" font-style="normal" 
 >10</text>
</g>

<g fill="#616161" fill-opacity="1" stroke="#616161" stroke-opacity="1" stroke-width="1" stroke-linecap="square" stroke-linejoin="bevel" transform="matrix(0.49985,0,0,0.499751,266.42,456.273)"
font-family="Helvetica" font-size="16" font-weight="400" font-style="normal" 
>
<text fill="#616161" fill-opacity="1" stroke="none" xml:space="preserve" x="0" y="0.3125" font-family="Helvetica" font-size="16" font-weight="400" font-style="normal" 
 >3</text>
</g>

<g fill="#616161" fill-opacity="1" stroke="#616161" stroke-opacity="1" stroke-width="1" stroke-linecap="square" stroke-linejoin="bevel" transform="matrix(0.49985,0,0,0.499751,418.874,461.27)"
font-family="Helvetica" font-size="20" font-weight="400" font-style="normal" 
>
<text fill="#616161" fill-opacity="1" stroke="none" xml:space="preserve" x="0" y="0.390625" font-family="Helvetica" font-size="20" font-weight="400" font-style="normal" 
 >10</text>
</g>

<g fill="#616161" fill-opacity="1" stroke="#616161" stroke-opacity="1" stroke-width="1" stroke-linecap="square" stroke-linejoin="bevel" transform="matrix(0.49985,0,0,0.499751,429.871,456.273)"
font-family="Helvetica" font-size="16" font-weight="400" font-style="normal" 
>
<text fill="#616161" fill-opacity="1" stroke="none" xml:space="preserve" x="0" y="0.3125" font-family="Helvetica" font-size="16" font-weight="400" font-style="normal" 
 >4</text>
</g>

<g fill="#616161" fill-opacity="1" stroke="#616161" stroke-opacity="1" stroke-width="1" stroke-linecap="square" stroke-linejoin="bevel" transform="matrix(0.49985,0,0,0.499751,582.325,461.27)"
font-family="Helvetica" font-size="20" font-weight="400" font-style="normal" 
>
<text fill="#616161" fill-opacity="1" stroke="none" xml:space="preserve" x="0" y="0.390625" font-family="Helvetica" font-size="20" font-weight="400" font-style="normal" 
 >10</text>
</g>

<g fill="#616161" fill-opacity="1" stroke="#616161" stroke-opacity="1" stroke-width="1" stroke-linecap="square" stroke-linejoin="bevel" transform="matrix(0.49985,0,0,0.499751,593.322,456.273)"
font-family="Helvetica" font-size="16" font-weight="400" font-style="normal" 
>
<text fill="#616161" fill-opacity="1" stroke="none" xml:space="preserve" x="0" y="0.3125" font-family="Helvetica" font-size="16" font-weight="400" font-style="normal" 
 >5</text>
</g>

<g fill="#616161" fill-opacity="1" stroke="#616161" stroke-opacity="1" stroke-width="1" stroke-linecap="square" stroke-linejoin="bevel" transform="matrix(0.49985,0,0,0.499751,745.776,461.27)"
font-family="Helvetica" font-size="20" font-weight="400" font-style="normal" 
>
<text fill="#616161" fill-opacity="1" stroke="none" xml:space="preserve" x="0" y="0.390625" font-family="Helvetica" font-size="20" font-weight="400" font-style="normal" 
 >10</text>
</g>

<g fill="#616161" fill-opacity="1" stroke="#616161" stroke-opacity="1" stroke-width="1" stroke-linecap="square" stroke-linejoin="bevel" transform="matrix(0.49985,0,0,0.499751,756.773,456.273)"
font-family="Helvetica" font-size="16" font-weight="400" font-style="normal" 
>
<text fill="#616161" fill-opacity="1" stroke="none" xml:space="preserve" x="0" y="0.3125" font-family="Helvetica" font-size="16" font-weight="400" font-style="normal" 
 >6</text>
</g>

<g fill="#616161" fill-opacity="1" stroke="#616161" stroke-opacity="1" stroke-width="1" stroke-linecap="square" stroke-linejoin="round" transform="matrix(0.49985,0,0,0.499751,0,0)"
font-family="Helvetica" font-size="16" font-weight="400" font-style="normal" 
>
<polyline fill="none" vector-effect="none" points="200,893 200,526 " />
<polyline fill="none" vector-effect="none" points="1508,893 1508,526 " />
<polyline fill="none" vector-effect="none" points="200,893 213.08,893 " />
<polyline fill="none" vector-effect="none" points="200,801.25 213.08,801.25 " />
<polyline fill="none" vector-effect="none" points="200,709.5 213.08,709.5 " />
<polyline fill="none" vector-effect="none" points="200,617.75 213.08,617.75 " />
<polyline fill="none" vector-effect="none" points="200,526 213.08,526 " />
<polyline fill="none" vector-effect="none" points="1508,893 1494.92,893 " />
<polyline fill="none" vector-effect="none" points="1508,801.25 1494.92,801.25 " />
<polyline fill="none" vector-effect="none" points="1508,709.5 1494.92,709.5 " />
<polyline fill="none" vector-effect="none" points="1508,617.75 1494.92,617.75 " />
<polyline fill="none" vector-effect="none" points="1508,526 1494.92,526 " />
</g>

<g fill="#616161" fill-opacity="1" stroke="#616161" stroke-opacity="1" stroke-width="1" stroke-linecap="square" stroke-linejoin="bevel" transform="matrix(0.49985,0,0,0.499751,75.9772,448.776)"
font-family="Helvetica" font-size="20" font-weight="400" font-style="normal" 
>
<text fill="#616161" fill-opacity="1" stroke="none" xml:space="preserve" x="0" y="0.390625" font-family="Helvetica" font-size="20" font-weight="400" font-style="normal" 
 >-180</text>
</g>

<g fill="#616161" fill-opacity="1" stroke="#616161" stroke-opacity="1" stroke-width="1" stroke-linecap="square" stroke-linejoin="bevel" transform="matrix(0.49985,0,0,0.499751,75.9772,402.924)"
font-family="Helvetica" font-size="20" font-weight="400" font-style="normal" 
>
<text fill="#616161" fill-opacity="1" stroke="none" xml:space="preserve" x="0" y="0.390625" font-family="Helvetica" font-size="20" font-weight="400" font-style="normal" 
 >-135</text>
</g>

<g fill="#616161" fill-opacity="1" stroke="#616161" stroke-opacity="1" stroke-width="1" stroke-linecap="square" stroke-linejoin="bevel" transform="matrix(0.49985,0,0,0.499751,81.4756,357.072)"
font-family="Helvetica" font-size="20" font-weight="400" font-style="normal" 
>
<text fill="#616161" fill-opacity="1" stroke="none" xml:space="preserve" x="0" y="0.390625" font-family="Helvetica" font-size="20" font-weight="400" font-style="normal" 
 >-90</text>
</g>

<g fill="#616161" fill-opacity="1" stroke="#616161" stroke-opacity="1" stroke-width="1" stroke-linecap="square" stroke-linejoin="bevel" transform="matrix(0.49985,0,0,0.499751,81.4756,311.22)"
font-family="Helvetica" font-size="20" font-weight="400" font-style="normal" 
>
<text fill="#616161" fill-opacity="1" stroke="none" xml:space="preserve" x="0" y="0.390625" font-family="Helvetica" font-size="20" font-weight="400" font-style="normal" 
 >-45</text>
</g>

<g fill="#616161" fill-opacity="1" stroke="#616161" stroke-opacity="1" stroke-width="1" stroke-linecap="square" stroke-linejoin="bevel" transform="matrix(0.49985,0,0,0.499751,90.4729,265.368)"
font-family="Helvetica" font-size="20" font-weight="400" font-style="normal" 
>
<text fill="#616161" fill-opacity="1" stroke="none" xml:space="preserve" x="0" y="0.390625" font-family="Helvetica" font-size="20" font-weight="400" font-style="normal" 
 >0</text>
</g>

<g fill="#212121" fill-opacity="1" stroke="#212121" stroke-opacity="1" stroke-width="1" stroke-linecap="square" stroke-linejoin="bevel" transform="matrix(0,-0.499751,0.49985,0,69.979,384.558)"
font-family="Helvetica" font-size="22" font-weight="400" font-style="normal" 
>
<text fill="#212121" fill-opacity="1" stroke="none" xml:space="preserve" x="0" y="-0.0625" font-family="Helvetica" font-size="22" font-weight="400" font-style="normal" 
 >Phase (deg)</text>
</g>

<g fill="none" stroke="#1171be" stroke-opacity="1" stroke-width="1" stroke-linecap="butt" stroke-linejoin="round" transform="matrix(0.49985,0,0,0.499751,0,0)"
font-family="Helvetica" font-size="22" font-weight="400" font-style="normal" 
>
<polyline fill="none" vector-effect="none" points="200,528.882 211.918,529.125 233.894,529.648 255.869,530.258 277.845,530.97 299.821,531.801 321.797,532.77 343.773,533.901 365.749,535.22 387.725,536.758 409.701,538.549 431.677,540.636 453.653,543.064 475.629,545.886 497.604,549.161 519.58,552.952 541.556,557.331 563.532,562.369 585.508,568.136 607.484,574.699 629.46,582.106 651.436,590.385 673.412,599.528 695.388,609.486 717.364,620.164 739.339,631.43 761.315,643.124 783.291,655.087 805.267,667.181 827.243,679.305 849.219,691.406 871.195,703.474 893.171,715.526 915.147,727.594 937.123,739.695 959.099,751.819 981.074,763.913 1003.05,775.876 1025.03,787.57 1047,798.836 1068.98,809.514 1090.95,819.472 1112.93,828.615 1134.91,836.894 1156.88,844.301 1178.86,850.864 1200.83,856.631 1222.81,861.669 1244.79,866.048 1266.76,869.839 1288.74,873.114 1310.71,875.936 1332.69,878.364 1354.66,880.451 1376.64,882.242 1398.62,883.78 1420.59,885.099 1442.57,886.23 1464.54,887.199 1486.52,888.03 1508,888.726 " />
</g>
</g>
</svg>