<?xml version="1.0" encoding="UTF-8" standalone="no"?>
<svg width="294.217mm" height="177.094mm"
 viewBox="0 0 834 502"
 xmlns="http://www.w3.org/2000/svg" xmlns:xlink="http://www.w3.org/1999/xlink"  version="1.2" baseProfile="tiny">
<title>Qt SVG Document</title>
<desc>MATLAB, The MathWorks, Inc. Version 25.1.0.2833191 R2025a Prerelease Update 2</desc>
<defs>
</defs>
<g fill="none" stroke="black" stroke-width="1" fill-rule="evenodd" stroke-linecap="square" stroke-linejoin="bevel" >

<g fill="#ffffff" fill-opacity="1" stroke="none" transform="matrix(0.49985,0,0,0.499751,0,0)"
font-family=".AppleSystemUIFont" font-size="13" font-weight="400" font-style="normal" 
>
<path vector-effect="none" fill-rule="evenodd" d="M0,0 L1668,0 L1668,1005 L0,1005 L0,0"/>
</g>

<g fill="#ffffff" fill-opacity="1" stroke="none" transform="matrix(4.9985e-05,0,0,4.99751e-05,0,0)"
font-family=".AppleSystemUIFont" font-size="13" font-weight="400" font-style="normal" 
>
<path vector-effect="none" fill-rule="evenodd" d="M2.17e+06,750000 L2.17e+06,8.93e+06 L1.508e+07,8.93e+06 L1.508e+07,750000 L2.17e+06,750000"/>
</g>

<g fill="#212121" fill-opacity="1" stroke="#212121" stroke-opacity="1" stroke-width="1" stroke-linecap="butt" stroke-linejoin="round" transform="matrix(0.49985,0,0,0.499751,0,0)"
font-family=".AppleSystemUIFont" font-size="13" font-weight="400" font-style="normal" 
>
<polyline fill="none" vector-effect="none" points="217,893 217,75 " />
<polyline fill="none" vector-effect="none" points="1508,893 1508,75 " />
<polyline fill="none" vector-effect="none" points="217,893 229.91,893 " />
<polyline fill="none" vector-effect="none" points="1495.09,893 1508,893 " />
<polyline fill="none" vector-effect="none" points="217,776.143 229.91,776.143 " />
<polyline fill="none" vector-effect="none" points="1495.09,776.143 1508,776.143 " />
<polyline fill="none" vector-effect="none" points="217,659.286 229.91,659.286 " />
<polyline fill="none" vector-effect="none" points="1495.09,659.286 1508,659.286 " />
<polyline fill="none" vector-effect="none" points="217,542.429 229.91,542.429 " />
<polyline fill="none" vector-effect="none" points="1495.09,542.429 1508,542.429 " />
<polyline fill="none" vector-effect="none" points="217,425.571 229.91,425.571 " />
<polyline fill="none" vector-effect="none" points="1495.09,425.571 1508,425.571 " />
<polyline fill="none" vector-effect="none" points="217,308.714 229.91,308.714 " />
<polyline fill="none" vector-effect="none" points="1495.09,308.714 1508,308.714 " />
<polyline fill="none" vector-effect="none" points="217,191.857 229.91,191.857 " />
<polyline fill="none" vector-effect="none" points="1495.09,191.857 1508,191.857 " />
<polyline fill="none" vector-effect="none" points="217,75 229.91,75 " />
<polyline fill="none" vector-effect="none" points="1495.09,75 1508,75 " />
</g>

<g fill="#212121" fill-opacity="1" stroke="#212121" stroke-opacity="1" stroke-width="1" stroke-linecap="square" stroke-linejoin="bevel" transform="matrix(0.49985,0,0,0.499751,87.4737,448.776)"
font-family="Helvetica" font-size="20" font-weight="400" font-style="normal" 
>
<text fill="#212121" fill-opacity="1" stroke="none" xml:space="preserve" x="0" y="0.390625" font-family="Helvetica" font-size="20" font-weight="400" font-style="normal" 
 >-0.2</text>
</g>

<g fill="#212121" fill-opacity="1" stroke="#212121" stroke-opacity="1" stroke-width="1" stroke-linecap="square" stroke-linejoin="bevel" transform="matrix(0.49985,0,0,0.499751,87.4737,390.377)"
font-family="Helvetica" font-size="20" font-weight="400" font-style="normal" 
>
<text fill="#212121" fill-opacity="1" stroke="none" xml:space="preserve" x="0" y="0.390625" font-family="Helvetica" font-size="20" font-weight="400" font-style="normal" 
 >-0.1</text>
</g>

<g fill="#212121" fill-opacity="1" stroke="#212121" stroke-opacity="1" stroke-width="1" stroke-linecap="square" stroke-linejoin="bevel" transform="matrix(0.49985,0,0,0.499751,98.9703,331.977)"
font-family="Helvetica" font-size="20" font-weight="400" font-style="normal" 
>
<text fill="#212121" fill-opacity="1" stroke="none" xml:space="preserve" x="0" y="0.390625" font-family="Helvetica" font-size="20" font-weight="400" font-style="normal" 
 >0</text>
</g>

<g fill="#212121" fill-opacity="1" stroke="#212121" stroke-opacity="1" stroke-width="1" stroke-linecap="square" stroke-linejoin="bevel" transform="matrix(0.49985,0,0,0.499751,90.4728,273.578)"
font-family="Helvetica" font-size="20" font-weight="400" font-style="normal" 
>
<text fill="#212121" fill-opacity="1" stroke="none" xml:space="preserve" x="0" y="0.390625" font-family="Helvetica" font-size="20" font-weight="400" font-style="normal" 
 >0.1</text>
</g>

<g fill="#212121" fill-opacity="1" stroke="#212121" stroke-opacity="1" stroke-width="1" stroke-linecap="square" stroke-linejoin="bevel" transform="matrix(0.49985,0,0,0.499751,90.4728,215.178)"
font-family="Helvetica" font-size="20" font-weight="400" font-style="normal" 
>
<text fill="#212121" fill-opacity="1" stroke="none" xml:space="preserve" x="0" y="0.390625" font-family="Helvetica" font-size="20" font-weight="400" font-style="normal" 
 >0.2</text>
</g>

<g fill="#212121" fill-opacity="1" stroke="#212121" stroke-opacity="1" stroke-width="1" stroke-linecap="square" stroke-linejoin="bevel" transform="matrix(0.49985,0,0,0.499751,90.4728,156.779)"
font-family="Helvetica" font-size="20" font-weight="400" font-style="normal" 
>
<text fill="#212121" fill-opacity="1" stroke="none" xml:space="preserve" x="0" y="0.390625" font-family="Helvetica" font-size="20" font-weight="400" font-style="normal" 
 >0.3</text>
</g>

<g fill="#212121" fill-opacity="1" stroke="#212121" stroke-opacity="1" stroke-width="1" stroke-linecap="square" stroke-linejoin="bevel" transform="matrix(0.49985,0,0,0.499751,90.4728,98.3795)"
font-family="Helvetica" font-size="20" font-weight="400" font-style="normal" 
>
<text fill="#212121" fill-opacity="1" stroke="none" xml:space="preserve" x="0" y="0.390625" font-family="Helvetica" font-size="20" font-weight="400" font-style="normal" 
 >0.4</text>
</g>

<g fill="#212121" fill-opacity="1" stroke="#212121" stroke-opacity="1" stroke-width="1" stroke-linecap="square" stroke-linejoin="bevel" transform="matrix(0.49985,0,0,0.499751,90.4728,39.9801)"
font-family="Helvetica" font-size="20" font-weight="400" font-style="normal" 
>
<text fill="#212121" fill-opacity="1" stroke="none" xml:space="preserve" x="0" y="0.390625" font-family="Helvetica" font-size="20" font-weight="400" font-style="normal" 
 >0.5</text>
</g>

<g fill="#212121" fill-opacity="1" stroke="#212121" stroke-opacity="1" stroke-width="1" stroke-linecap="square" stroke-linejoin="bevel" transform="matrix(0.49985,0,0,0.499751,348.896,33.6082)"
font-family="Helvetica" font-size="22" font-weight="700" font-style="normal" 
>
<text fill="#212121" fill-opacity="1" stroke="none" xml:space="preserve" x="0" y="-0.0625" font-family="Helvetica" font-size="22" font-weight="700" font-style="normal" 
 >Line Spectra for pulse with w=2</text>
</g>

<g fill="#212121" fill-opacity="1" stroke="#212121" stroke-opacity="1" stroke-width="1" stroke-linecap="butt" stroke-linejoin="round" transform="matrix(0.49985,0,0,0.499751,0,0)"
font-family="Helvetica" font-size="22" font-weight="700" font-style="normal" 
>
<polyline fill="none" vector-effect="none" points="217,659.286 1508,659.286 " />
</g>

<g fill="#1171be" fill-opacity="1" stroke="#1171be" stroke-opacity="1" stroke-width="1" stroke-linecap="butt" stroke-linejoin="round" transform="matrix(0.49985,0,0,0.499751,0,0)"
font-family="Helvetica" font-size="22" font-weight="700" font-style="normal" 
>
<polyline fill="none" vector-effect="none" points="248.681,659.286 248.681,684.084 " />
<polyline fill="none" vector-effect="none" points="330.524,659.286 330.524,630.673 " />
<polyline fill="none" vector-effect="none" points="412.366,659.286 412.366,693.101 " />
<polyline fill="none" vector-effect="none" points="494.209,659.286 494.209,617.956 " />
<polyline fill="none" vector-effect="none" points="576.051,659.286 576.051,712.424 " />
<polyline fill="none" vector-effect="none" points="657.894,659.286 657.894,584.892 " />
<polyline fill="none" vector-effect="none" points="739.736,659.286 739.736,783.275 " />
<polyline fill="none" vector-effect="none" points="821.579,659.286 821.579,287.318 " />
<polyline fill="none" vector-effect="none" points="862.5,659.286 862.5,75 " />
<polyline fill="none" vector-effect="none" points="903.421,659.286 903.421,287.318 " />
<polyline fill="none" vector-effect="none" points="985.264,659.286 985.264,783.275 " />
<polyline fill="none" vector-effect="none" points="1067.11,659.286 1067.11,584.892 " />
<polyline fill="none" vector-effect="none" points="1148.95,659.286 1148.95,712.424 " />
<polyline fill="none" vector-effect="none" points="1230.79,659.286 1230.79,617.956 " />
<polyline fill="none" vector-effect="none" points="1312.63,659.286 1312.63,693.101 " />
<polyline fill="none" vector-effect="none" points="1394.48,659.286 1394.48,630.673 " />
<polyline fill="none" vector-effect="none" points="1476.32,659.286 1476.32,684.084 " />
</g>

<g fill="none" stroke="#1171be" stroke-opacity="1" stroke-width="1" stroke-linecap="butt" stroke-linejoin="miter" stroke-miterlimit="2" transform="matrix(0.49985,0,0,0.499751,0,0)"
font-family="Helvetica" font-size="22" font-weight="700" font-style="normal" 
>
<path vector-effect="none" fill-rule="evenodd" d="M254.681,684.084 C254.681,680.77 251.995,678.084 248.681,678.084 C245.367,678.084 242.681,680.77 242.681,684.084 C242.681,687.397 245.367,690.084 248.681,690.084 C251.995,690.084 254.681,687.397 254.681,684.084 "/>
</g>

<g fill="none" stroke="#1171be" stroke-opacity="1" stroke-width="1" stroke-linecap="butt" stroke-linejoin="miter" stroke-miterlimit="2" transform="matrix(0.49985,0,0,0.499751,0,0)"
font-family="Helvetica" font-size="22" font-weight="700" font-style="normal" 
>
<path vector-effect="none" fill-rule="evenodd" d="M295.602,659.286 C295.602,655.972 292.916,653.286 289.602,653.286 C286.289,653.286 283.602,655.972 283.602,659.286 C283.602,662.599 286.289,665.286 289.602,665.286 C292.916,665.286 295.602,662.599 295.602,659.286 "/>
</g>

<g fill="none" stroke="#1171be" stroke-opacity="1" stroke-width="1" stroke-linecap="butt" stroke-linejoin="miter" stroke-miterlimit="2" transform="matrix(0.49985,0,0,0.499751,0,0)"
font-family="Helvetica" font-size="22" font-weight="700" font-style="normal" 
>
<path vector-effect="none" fill-rule="evenodd" d="M336.524,630.673 C336.524,627.359 333.837,624.673 330.524,624.673 C327.21,624.673 324.524,627.359 324.524,630.673 C324.524,633.986 327.21,636.673 330.524,636.673 C333.837,636.673 336.524,633.986 336.524,630.673 "/>
</g>

<g fill="none" stroke="#1171be" stroke-opacity="1" stroke-width="1" stroke-linecap="butt" stroke-linejoin="miter" stroke-miterlimit="2" transform="matrix(0.49985,0,0,0.499751,0,0)"
font-family="Helvetica" font-size="22" font-weight="700" font-style="normal" 
>
<path vector-effect="none" fill-rule="evenodd" d="M377.445,659.286 C377.445,655.972 374.759,653.286 371.445,653.286 C368.131,653.286 365.445,655.972 365.445,659.286 C365.445,662.599 368.131,665.286 371.445,665.286 C374.759,665.286 377.445,662.599 377.445,659.286 "/>
</g>

<g fill="none" stroke="#1171be" stroke-opacity="1" stroke-width="1" stroke-linecap="butt" stroke-linejoin="miter" stroke-miterlimit="2" transform="matrix(0.49985,0,0,0.499751,0,0)"
font-family="Helvetica" font-size="22" font-weight="700" font-style="normal" 
>
<path vector-effect="none" fill-rule="evenodd" d="M418.366,693.101 C418.366,689.787 415.68,687.101 412.366,687.101 C409.052,687.101 406.366,689.787 406.366,693.101 C406.366,696.415 409.052,699.101 412.366,699.101 C415.68,699.101 418.366,696.415 418.366,693.101 "/>
</g>

<g fill="none" stroke="#1171be" stroke-opacity="1" stroke-width="1" stroke-linecap="butt" stroke-linejoin="miter" stroke-miterlimit="2" transform="matrix(0.49985,0,0,0.499751,0,0)"
font-family="Helvetica" font-size="22" font-weight="700" font-style="normal" 
>
<path vector-effect="none" fill-rule="evenodd" d="M459.287,659.286 C459.287,655.972 456.601,653.286 453.287,653.286 C449.974,653.286 447.287,655.972 447.287,659.286 C447.287,662.599 449.974,665.286 453.287,665.286 C456.601,665.286 459.287,662.599 459.287,659.286 "/>
</g>

<g fill="none" stroke="#1171be" stroke-opacity="1" stroke-width="1" stroke-linecap="butt" stroke-linejoin="miter" stroke-miterlimit="2" transform="matrix(0.49985,0,0,0.499751,0,0)"
font-family="Helvetica" font-size="22" font-weight="700" font-style="normal" 
>
<path vector-effect="none" fill-rule="evenodd" d="M500.209,617.956 C500.209,614.642 497.522,611.956 494.209,611.956 C490.895,611.956 488.209,614.642 488.209,617.956 C488.209,621.27 490.895,623.956 494.209,623.956 C497.522,623.956 500.209,621.27 500.209,617.956 "/>
</g>

<g fill="none" stroke="#1171be" stroke-opacity="1" stroke-width="1" stroke-linecap="butt" stroke-linejoin="miter" stroke-miterlimit="2" transform="matrix(0.49985,0,0,0.499751,0,0)"
font-family="Helvetica" font-size="22" font-weight="700" font-style="normal" 
>
<path vector-effect="none" fill-rule="evenodd" d="M541.13,659.286 C541.13,655.972 538.444,653.286 535.13,653.286 C531.816,653.286 529.13,655.972 529.13,659.286 C529.13,662.599 531.816,665.286 535.13,665.286 C538.444,665.286 541.13,662.599 541.13,659.286 "/>
</g>

<g fill="none" stroke="#1171be" stroke-opacity="1" stroke-width="1" stroke-linecap="butt" stroke-linejoin="miter" stroke-miterlimit="2" transform="matrix(0.49985,0,0,0.499751,0,0)"
font-family="Helvetica" font-size="22" font-weight="700" font-style="normal" 
>
<path vector-effect="none" fill-rule="evenodd" d="M582.051,712.424 C582.051,709.11 579.365,706.424 576.051,706.424 C572.737,706.424 570.051,709.11 570.051,712.424 C570.051,715.738 572.737,718.424 576.051,718.424 C579.365,718.424 582.051,715.738 582.051,712.424 "/>
</g>

<g fill="none" stroke="#1171be" stroke-opacity="1" stroke-width="1" stroke-linecap="butt" stroke-linejoin="miter" stroke-miterlimit="2" transform="matrix(0.49985,0,0,0.499751,0,0)"
font-family="Helvetica" font-size="22" font-weight="700" font-style="normal" 
>
<path vector-effect="none" fill-rule="evenodd" d="M622.972,659.286 C622.972,655.972 620.286,653.286 616.972,653.286 C613.659,653.286 610.972,655.972 610.972,659.286 C610.972,662.599 613.659,665.286 616.972,665.286 C620.286,665.286 622.972,662.599 622.972,659.286 "/>
</g>

<g fill="none" stroke="#1171be" stroke-opacity="1" stroke-width="1" stroke-linecap="butt" stroke-linejoin="miter" stroke-miterlimit="2" transform="matrix(0.49985,0,0,0.499751,0,0)"
font-family="Helvetica" font-size="22" font-weight="700" font-style="normal" 
>
<path vector-effect="none" fill-rule="evenodd" d="M663.894,584.892 C663.894,581.578 661.207,578.892 657.894,578.892 C654.58,578.892 651.894,581.578 651.894,584.892 C651.894,588.206 654.58,590.892 657.894,590.892 C661.207,590.892 663.894,588.206 663.894,584.892 "/>
</g>

<g fill="none" stroke="#1171be" stroke-opacity="1" stroke-width="1" stroke-linecap="butt" stroke-linejoin="miter" stroke-miterlimit="2" transform="matrix(0.49985,0,0,0.499751,0,0)"
font-family="Helvetica" font-size="22" font-weight="700" font-style="normal" 
>
<path vector-effect="none" fill-rule="evenodd" d="M704.815,659.286 C704.815,655.972 702.129,653.286 698.815,653.286 C695.501,653.286 692.815,655.972 692.815,659.286 C692.815,662.599 695.501,665.286 698.815,665.286 C702.129,665.286 704.815,662.599 704.815,659.286 "/>
</g>

<g fill="none" stroke="#1171be" stroke-opacity="1" stroke-width="1" stroke-linecap="butt" stroke-linejoin="miter" stroke-miterlimit="2" transform="matrix(0.49985,0,0,0.499751,0,0)"
font-family="Helvetica" font-size="22" font-weight="700" font-style="normal" 
>
<path vector-effect="none" fill-rule="evenodd" d="M745.736,783.275 C745.736,779.961 743.05,777.275 739.736,777.275 C736.422,777.275 733.736,779.961 733.736,783.275 C733.736,786.589 736.422,789.275 739.736,789.275 C743.05,789.275 745.736,786.589 745.736,783.275 "/>
</g>

<g fill="none" stroke="#1171be" stroke-opacity="1" stroke-width="1" stroke-linecap="butt" stroke-linejoin="miter" stroke-miterlimit="2" transform="matrix(0.49985,0,0,0.499751,0,0)"
font-family="Helvetica" font-size="22" font-weight="700" font-style="normal" 
>
<path vector-effect="none" fill-rule="evenodd" d="M786.657,659.286 C786.657,655.972 783.971,653.286 780.657,653.286 C777.344,653.286 774.657,655.972 774.657,659.286 C774.657,662.599 777.344,665.286 780.657,665.286 C783.971,665.286 786.657,662.599 786.657,659.286 "/>
</g>

<g fill="none" stroke="#1171be" stroke-opacity="1" stroke-width="1" stroke-linecap="butt" stroke-linejoin="miter" stroke-miterlimit="2" transform="matrix(0.49985,0,0,0.499751,0,0)"
font-family="Helvetica" font-size="22" font-weight="700" font-style="normal" 
>
<path vector-effect="none" fill-rule="evenodd" d="M827.579,287.318 C827.579,284.004 824.892,281.318 821.579,281.318 C818.265,281.318 815.579,284.004 815.579,287.318 C815.579,290.632 818.265,293.318 821.579,293.318 C824.892,293.318 827.579,290.632 827.579,287.318 "/>
</g>

<g fill="none" stroke="#1171be" stroke-opacity="1" stroke-width="1" stroke-linecap="butt" stroke-linejoin="miter" stroke-miterlimit="2" transform="matrix(0.49985,0,0,0.499751,0,0)"
font-family="Helvetica" font-size="22" font-weight="700" font-style="normal" 
>
<path vector-effect="none" fill-rule="evenodd" d="M868.5,75 C868.5,71.6863 865.814,69 862.5,69 C859.186,69 856.5,71.6863 856.5,75 C856.5,78.3137 859.186,81 862.5,81 C865.814,81 868.5,78.3137 868.5,75 "/>
</g>

<g fill="none" stroke="#1171be" stroke-opacity="1" stroke-width="1" stroke-linecap="butt" stroke-linejoin="miter" stroke-miterlimit="2" transform="matrix(0.49985,0,0,0.499751,0,0)"
font-family="Helvetica" font-size="22" font-weight="700" font-style="normal" 
>
<path vector-effect="none" fill-rule="evenodd" d="M909.421,287.318 C909.421,284.004 906.735,281.318 903.421,281.318 C900.108,281.318 897.421,284.004 897.421,287.318 C897.421,290.632 900.108,293.318 903.421,293.318 C906.735,293.318 909.421,290.632 909.421,287.318 "/>
</g>

<g fill="none" stroke="#1171be" stroke-opacity="1" stroke-width="1" stroke-linecap="butt" stroke-linejoin="miter" stroke-miterlimit="2" transform="matrix(0.49985,0,0,0.499751,0,0)"
font-family="Helvetica" font-size="22" font-weight="700" font-style="normal" 
>
<path vector-effect="none" fill-rule="evenodd" d="M950.343,659.286 C950.343,655.972 947.656,653.286 944.343,653.286 C941.029,653.286 938.343,655.972 938.343,659.286 C938.343,662.599 941.029,665.286 944.343,665.286 C947.656,665.286 950.343,662.599 950.343,659.286 "/>
</g>

<g fill="none" stroke="#1171be" stroke-opacity="1" stroke-width="1" stroke-linecap="butt" stroke-linejoin="miter" stroke-miterlimit="2" transform="matrix(0.49985,0,0,0.499751,0,0)"
font-family="Helvetica" font-size="22" font-weight="700" font-style="normal" 
>
<path vector-effect="none" fill-rule="evenodd" d="M991.264,783.275 C991.264,779.961 988.578,777.275 985.264,777.275 C981.95,777.275 979.264,779.961 979.264,783.275 C979.264,786.589 981.95,789.275 985.264,789.275 C988.578,789.275 991.264,786.589 991.264,783.275 "/>
</g>

<g fill="none" stroke="#1171be" stroke-opacity="1" stroke-width="1" stroke-linecap="butt" stroke-linejoin="miter" stroke-miterlimit="2" transform="matrix(0.49985,0,0,0.499751,0,0)"
font-family="Helvetica" font-size="22" font-weight="700" font-style="normal" 
>
<path vector-effect="none" fill-rule="evenodd" d="M1032.19,659.286 C1032.19,655.972 1029.5,653.286 1026.19,653.286 C1022.87,653.286 1020.19,655.972 1020.19,659.286 C1020.19,662.599 1022.87,665.286 1026.19,665.286 C1029.5,665.286 1032.19,662.599 1032.19,659.286 "/>
</g>

<g fill="none" stroke="#1171be" stroke-opacity="1" stroke-width="1" stroke-linecap="butt" stroke-linejoin="miter" stroke-miterlimit="2" transform="matrix(0.49985,0,0,0.499751,0,0)"
font-family="Helvetica" font-size="22" font-weight="700" font-style="normal" 
>
<path vector-effect="none" fill-rule="evenodd" d="M1073.11,584.892 C1073.11,581.578 1070.42,578.892 1067.11,578.892 C1063.79,578.892 1061.11,581.578 1061.11,584.892 C1061.11,588.206 1063.79,590.892 1067.11,590.892 C1070.42,590.892 1073.11,588.206 1073.11,584.892 "/>
</g>

<g fill="none" stroke="#1171be" stroke-opacity="1" stroke-width="1" stroke-linecap="butt" stroke-linejoin="miter" stroke-miterlimit="2" transform="matrix(0.49985,0,0,0.499751,0,0)"
font-family="Helvetica" font-size="22" font-weight="700" font-style="normal" 
>
<path vector-effect="none" fill-rule="evenodd" d="M1114.03,659.286 C1114.03,655.972 1111.34,653.286 1108.03,653.286 C1104.71,653.286 1102.03,655.972 1102.03,659.286 C1102.03,662.599 1104.71,665.286 1108.03,665.286 C1111.34,665.286 1114.03,662.599 1114.03,659.286 "/>
</g>

<g fill="none" stroke="#1171be" stroke-opacity="1" stroke-width="1" stroke-linecap="butt" stroke-linejoin="miter" stroke-miterlimit="2" transform="matrix(0.49985,0,0,0.499751,0,0)"
font-family="Helvetica" font-size="22" font-weight="700" font-style="normal" 
>
<path vector-effect="none" fill-rule="evenodd" d="M1154.95,712.424 C1154.95,709.11 1152.26,706.424 1148.95,706.424 C1145.64,706.424 1142.95,709.11 1142.95,712.424 C1142.95,715.738 1145.64,718.424 1148.95,718.424 C1152.26,718.424 1154.95,715.738 1154.95,712.424 "/>
</g>

<g fill="none" stroke="#1171be" stroke-opacity="1" stroke-width="1" stroke-linecap="butt" stroke-linejoin="miter" stroke-miterlimit="2" transform="matrix(0.49985,0,0,0.499751,0,0)"
font-family="Helvetica" font-size="22" font-weight="700" font-style="normal" 
>
<path vector-effect="none" fill-rule="evenodd" d="M1195.87,659.286 C1195.87,655.972 1193.18,653.286 1189.87,653.286 C1186.56,653.286 1183.87,655.972 1183.87,659.286 C1183.87,662.599 1186.56,665.286 1189.87,665.286 C1193.18,665.286 1195.87,662.599 1195.87,659.286 "/>
</g>

<g fill="none" stroke="#1171be" stroke-opacity="1" stroke-width="1" stroke-linecap="butt" stroke-linejoin="miter" stroke-miterlimit="2" transform="matrix(0.49985,0,0,0.499751,0,0)"
font-family="Helvetica" font-size="22" font-weight="700" font-style="normal" 
>
<path vector-effect="none" fill-rule="evenodd" d="M1236.79,617.956 C1236.79,614.642 1234.11,611.956 1230.79,611.956 C1227.48,611.956 1224.79,614.642 1224.79,617.956 C1224.79,621.27 1227.48,623.956 1230.79,623.956 C1234.11,623.956 1236.79,621.27 1236.79,617.956 "/>
</g>

<g fill="none" stroke="#1171be" stroke-opacity="1" stroke-width="1" stroke-linecap="butt" stroke-linejoin="miter" stroke-miterlimit="2" transform="matrix(0.49985,0,0,0.499751,0,0)"
font-family="Helvetica" font-size="22" font-weight="700" font-style="normal" 
>
<path vector-effect="none" fill-rule="evenodd" d="M1277.71,659.286 C1277.71,655.972 1275.03,653.286 1271.71,653.286 C1268.4,653.286 1265.71,655.972 1265.71,659.286 C1265.71,662.599 1268.4,665.286 1271.71,665.286 C1275.03,665.286 1277.71,662.599 1277.71,659.286 "/>
</g>

<g fill="none" stroke="#1171be" stroke-opacity="1" stroke-width="1" stroke-linecap="butt" stroke-linejoin="miter" stroke-miterlimit="2" transform="matrix(0.49985,0,0,0.499751,0,0)"
font-family="Helvetica" font-size="22" font-weight="700" font-style="normal" 
>
<path vector-effect="none" fill-rule="evenodd" d="M1318.63,693.101 C1318.63,689.787 1315.95,687.101 1312.63,687.101 C1309.32,687.101 1306.63,689.787 1306.63,693.101 C1306.63,696.415 1309.32,699.101 1312.63,699.101 C1315.95,699.101 1318.63,696.415 1318.63,693.101 "/>
</g>

<g fill="none" stroke="#1171be" stroke-opacity="1" stroke-width="1" stroke-linecap="butt" stroke-linejoin="miter" stroke-miterlimit="2" transform="matrix(0.49985,0,0,0.499751,0,0)"
font-family="Helvetica" font-size="22" font-weight="700" font-style="normal" 
>
<path vector-effect="none" fill-rule="evenodd" d="M1359.56,659.286 C1359.56,655.972 1356.87,653.286 1353.56,653.286 C1350.24,653.286 1347.56,655.972 1347.56,659.286 C1347.56,662.599 1350.24,665.286 1353.56,665.286 C1356.87,665.286 1359.56,662.599 1359.56,659.286 "/>
</g>

<g fill="none" stroke="#1171be" stroke-opacity="1" stroke-width="1" stroke-linecap="butt" stroke-linejoin="miter" stroke-miterlimit="2" transform="matrix(0.49985,0,0,0.499751,0,0)"
font-family="Helvetica" font-size="22" font-weight="700" font-style="normal" 
>
<path vector-effect="none" fill-rule="evenodd" d="M1400.48,630.673 C1400.48,627.359 1397.79,624.673 1394.48,624.673 C1391.16,624.673 1388.48,627.359 1388.48,630.673 C1388.48,633.986 1391.16,636.673 1394.48,636.673 C1397.79,636.673 1400.48,633.986 1400.48,630.673 "/>
</g>

<g fill="none" stroke="#1171be" stroke-opacity="1" stroke-width="1" stroke-linecap="butt" stroke-linejoin="miter" stroke-miterlimit="2" transform="matrix(0.49985,0,0,0.499751,0,0)"
font-family="Helvetica" font-size="22" font-weight="700" font-style="normal" 
>
<path vector-effect="none" fill-rule="evenodd" d="M1441.4,659.286 C1441.4,655.972 1438.71,653.286 1435.4,653.286 C1432.08,653.286 1429.4,655.972 1429.4,659.286 C1429.4,662.599 1432.08,665.286 1435.4,665.286 C1438.71,665.286 1441.4,662.599 1441.4,659.286 "/>
</g>

<g fill="none" stroke="#1171be" stroke-opacity="1" stroke-width="1" stroke-linecap="butt" stroke-linejoin="miter" stroke-miterlimit="2" transform="matrix(0.49985,0,0,0.499751,0,0)"
font-family="Helvetica" font-size="22" font-weight="700" font-style="normal" 
>
<path vector-effect="none" fill-rule="evenodd" d="M1482.32,684.084 C1482.32,680.77 1479.63,678.084 1476.32,678.084 C1473.01,678.084 1470.32,680.77 1470.32,684.084 C1470.32,687.397 1473.01,690.084 1476.32,690.084 C1479.63,690.084 1482.32,687.397 1482.32,684.084 "/>
</g>

<g fill="none" stroke="#ff0000" stroke-opacity="1" stroke-dasharray="1,3" stroke-dashoffset="0" stroke-width="1" stroke-linecap="butt" stroke-linejoin="round" transform="matrix(0.49985,0,0,0.499751,0,0)"
font-family="Helvetica" font-size="22" font-weight="700" font-style="normal" 
>
<polyline fill="none" vector-effect="none" points="248.681,684.084 249.91,684.106 251.139,684.073 252.368,683.984 253.596,683.84 254.825,683.641 256.054,683.386 257.283,683.077 258.512,682.714 259.741,682.297 260.97,681.827 262.198,681.304 263.427,680.731 264.656,680.107 265.885,679.435 267.114,678.714 268.343,677.948 269.572,677.136 270.801,676.281 272.029,675.385 273.258,674.45 274.487,673.476 275.716,672.467 276.945,671.425 278.174,670.35 279.403,669.247 280.632,668.117 281.86,666.962 283.089,665.785 284.318,664.589 285.547,663.376 286.776,662.148 288.005,660.909 289.234,659.661 290.462,658.407 291.691,657.15 292.92,655.891 294.149,654.635 295.378,653.384 296.607,652.14 297.836,650.907 299.065,649.688 300.293,648.484 301.522,647.299 302.751,646.136 303.98,644.997 305.209,643.884 306.438,642.802 307.667,641.751 308.895,640.734 310.124,639.755 311.353,638.814 312.582,637.915 313.811,637.06 315.04,636.25 316.269,635.488 317.498,634.776 318.726,634.115 319.955,633.507 321.184,632.954 322.413,632.457 323.642,632.018 324.871,631.638 326.1,631.317 327.328,631.057 328.557,630.859 329.786,630.724 331.015,630.651 332.244,630.643 333.473,630.697 334.702,630.816 335.931,630.999 337.159,631.246 338.388,631.557 339.617,631.931 340.846,632.367 342.075,632.866 343.304,633.426 344.533,634.047 345.761,634.726 346.99,635.464 348.219,636.258 349.448,637.107 350.677,638.01 351.906,638.965 353.135,639.969 354.364,641.022 355.592,642.12 356.821,643.262 358.05,644.446 359.279,645.668 360.508,646.927 361.737,648.219 362.966,649.542 364.194,650.894 365.423,652.271 366.652,653.67 367.881,655.089 369.11,656.524 370.339,657.973 371.568,659.432 372.797,660.898 374.025,662.367 375.254,663.838 376.483,665.305 377.712,666.767 378.941,668.219 380.17,669.658 381.399,671.082 382.627,672.487 383.856,673.87 385.085,675.227 386.314,676.556 387.543,677.853 388.772,679.115 390.001,680.34 391.23,681.524 392.458,682.665 393.687,683.759 394.916,684.805 396.145,685.799 397.374,686.74 398.603,687.624 399.832,688.45 401.06,689.215 402.289,689.917 403.518,690.555 404.747,691.126 405.976,691.63 407.205,692.064 408.434,692.427 409.663,692.718 410.891,692.937 412.12,693.081 413.349,693.151 414.578,693.146 415.807,693.065 417.036,692.908 418.265,692.675 419.493,692.367 420.722,691.983 421.951,691.524 423.18,690.991 424.409,690.384 425.638,689.704 426.867,688.952 428.096,688.13 429.324,687.239 430.553,686.28 431.782,685.256 433.011,684.168 434.24,683.018 435.469,681.809 436.698,680.542 437.926,679.221 439.155,677.848 440.384,676.425 441.613,674.955 442.842,673.442 444.071,671.889 445.3,670.298 446.529,668.673 447.757,667.018 448.986,665.335 450.215,663.629 451.444,661.904 452.673,660.162 453.902,658.407 455.131,656.644 456.359,654.876 457.588,653.107 458.817,651.342 460.046,649.583 461.275,647.835 462.504,646.102 463.733,644.388 464.962,642.696 466.19,641.031 467.419,639.396 468.648,637.795 469.877,636.233 471.106,634.712 472.335,633.236 473.564,631.809 474.792,630.434 476.021,629.115 477.25,627.855 478.479,626.657 479.708,625.524 480.937,624.459 482.166,623.465 483.395,622.545 484.623,621.7 485.852,620.934 487.081,620.249 488.31,619.646 489.539,619.127 490.768,618.695 491.997,618.351 493.225,618.095 494.454,617.93 495.683,617.856 496.912,617.874 498.141,617.985 499.37,618.188 500.599,618.485 501.828,618.875 503.056,619.358 504.285,619.933 505.514,620.6 506.743,621.357 507.972,622.205 509.201,623.142 510.43,624.165 511.659,625.275 512.887,626.468 514.116,627.742 515.345,629.097 516.574,630.528 517.803,632.033 519.032,633.61 520.261,635.256 521.489,636.968 522.718,638.741 523.947,640.573 525.176,642.461 526.405,644.4 527.634,646.386 528.863,648.416 530.091,650.485 531.32,652.589 532.549,654.723 533.778,656.884 535.007,659.066 536.236,661.266 537.465,663.477 538.694,665.696 539.922,667.918 541.151,670.137 542.38,672.349 543.609,674.549 544.838,676.732 546.067,678.892 547.296,681.026 548.524,683.128 549.753,685.194 550.982,687.217 552.211,689.195 553.44,691.121 554.669,692.992 555.898,694.802 557.127,696.547 558.355,698.224 559.584,699.827 560.813,701.352 562.042,702.796 563.271,704.155 564.5,705.425 565.729,706.602 566.958,707.683 568.186,708.665 569.415,709.545 570.644,710.32 571.873,710.988 573.102,711.546 574.331,711.992 575.56,712.323 576.788,712.54 578.017,712.639 579.246,712.62 580.475,712.481 581.704,712.223 582.933,711.843 584.162,711.343 585.391,710.723 586.619,709.982 587.848,709.12 589.077,708.14 590.306,707.042 591.535,705.827 592.764,704.497 593.993,703.054 595.221,701.499 596.45,699.836 597.679,698.067 598.908,696.195 600.137,694.223 601.366,692.154 602.595,689.992 603.823,687.741 605.052,685.404 606.281,682.987 607.51,680.494 608.739,677.929 609.968,675.298 611.197,672.605 612.426,669.855 613.654,667.055 614.883,664.21 616.112,661.325 617.341,658.407 618.57,655.462 619.799,652.495 621.028,649.513 622.257,646.522 623.485,643.53 624.714,640.541 625.943,637.564 627.172,634.604 628.401,631.668 629.63,628.763 630.859,625.895 632.087,623.071 633.316,620.298 634.545,617.583 635.774,614.931 637.003,612.349 638.232,609.845 639.461,607.423 640.69,605.09 641.918,602.853 643.147,600.717 644.376,598.688 645.605,596.771 646.834,594.973 648.063,593.297 649.292,591.75 650.52,590.337 651.749,589.061 652.978,587.927 654.207,586.939 655.436,586.102 656.665,585.419 657.894,584.892 659.123,584.526 660.351,584.323 661.58,584.284 662.809,584.414 664.038,584.712 665.267,585.182 666.496,585.822 667.725,586.636 668.953,587.622 670.182,588.782 671.411,590.114 672.64,591.619 673.869,593.294 675.098,595.14 676.327,597.153 677.556,599.332 678.784,601.675 680.013,604.178 681.242,606.839 682.471,609.653 683.7,612.617 684.929,615.727 686.158,618.978 687.386,622.365 688.615,625.882 689.844,629.524 691.073,633.285 692.302,637.159 693.531,641.139 694.76,645.217 695.989,649.387 697.217,653.642 698.446,657.973 699.675,662.372 700.904,666.831 702.133,671.342 703.362,675.895 704.591,680.482 705.819,685.093 707.048,689.719 708.277,694.351 709.506,698.979 710.735,703.592 711.964,708.182 713.193,712.737 714.422,717.248 715.65,721.705 716.879,726.096 718.108,730.413 719.337,734.644 720.566,738.779 721.795,742.808 723.024,746.721 724.253,750.507 725.481,754.156 726.71,757.658 727.939,761.003 729.168,764.182 730.397,767.184 731.626,770 732.855,772.621 734.083,775.038 735.312,777.241 736.541,779.222 737.77,780.973 738.999,782.485 740.228,783.751 741.457,784.763 742.685,785.514 743.914,785.996 745.143,786.204 746.372,786.131 747.601,785.771 748.83,785.118 750.059,784.169 751.288,782.918 752.516,781.36 753.745,779.493 754.974,777.312 756.203,774.816 757.432,772.001 758.661,768.866 759.89,765.409 761.118,761.629 762.347,757.526 763.576,753.1 764.805,748.351 766.034,743.28 767.263,737.889 768.492,732.181 769.721,726.156 770.949,719.819 772.178,713.174 773.407,706.223 774.636,698.972 775.865,691.426 777.094,683.59 778.323,675.471 779.551,667.074 780.78,658.407 782.009,649.478 783.238,640.294 784.467,630.863 785.696,621.195 786.925,611.299 788.154,601.184 789.382,590.86 790.611,580.339 791.84,569.63 793.069,558.745 794.298,547.695 795.527,536.493 796.756,525.15 797.984,513.68 799.213,502.094 800.442,490.406 801.671,478.629 802.9,466.776 804.129,454.862 805.358,442.899 806.587,430.903 807.815,418.888 809.044,406.867 810.273,394.855 811.502,382.866 812.731,370.916 813.96,359.018 815.189,347.188 816.417,335.44 817.646,323.788 818.875,312.247 820.104,300.831 821.333,289.555 822.562,278.433 823.791,267.479 825.02,256.707 826.248,246.131 827.477,235.764 828.706,225.619 829.935,215.71 831.164,206.049 832.393,196.649 833.622,187.523 834.85,178.681 836.079,170.135 837.308,161.897 838.537,153.978 839.766,146.387 840.995,139.135 842.224,132.231 843.453,125.684 844.681,119.504 845.91,113.697 847.139,108.273 848.368,103.238 849.597,98.598 850.826,94.3602 852.055,90.53 853.284,87.1124 854.512,84.1119 855.741,81.5327 856.97,79.378 858.199,77.6508 859.428,76.3533 860.657,75.4874 861.886,75.0542 863.114,75.0542 864.343,75.4874 865.572,76.3533 866.801,77.6508 868.03,79.378 869.259,81.5327 870.488,84.1119 871.716,87.1124 872.945,90.53 874.174,94.3602 875.403,98.598 876.632,103.238 877.861,108.273 879.09,113.697 880.319,119.504 881.547,125.684 882.776,132.231 884.005,139.135 885.234,146.387 886.463,153.978 887.692,161.897 888.921,170.135 890.15,178.681 891.378,187.523 892.607,196.649 893.836,206.049 895.065,215.71 896.294,225.619 897.523,235.764 898.752,246.131 899.98,256.707 901.209,267.479 902.438,278.433 903.667,289.555 904.896,300.831 906.125,312.247 907.354,323.788 908.583,335.44 909.811,347.188 911.04,359.018 912.269,370.916 913.498,382.866 914.727,394.855 915.956,406.867 917.185,418.888 918.413,430.903 919.642,442.899 920.871,454.862 922.1,466.776 923.329,478.629 924.558,490.406 925.787,502.094 927.016,513.68 928.244,525.15 929.473,536.493 930.702,547.695 931.931,558.745 933.16,569.63 934.389,580.339 935.618,590.86 936.846,601.184 938.075,611.299 939.304,621.195 940.533,630.863 941.762,640.294 942.991,649.478 944.22,658.407 945.449,667.074 946.677,675.471 947.906,683.59 949.135,691.426 950.364,698.972 951.593,706.223 952.822,713.174 954.051,719.819 955.279,726.156 956.508,732.181 957.737,737.889 958.966,743.28 960.195,748.351 961.424,753.1 962.653,757.526 963.882,761.629 965.11,765.409 966.339,768.866 967.568,772.001 968.797,774.816 970.026,777.312 971.255,779.493 972.484,781.36 973.712,782.918 974.941,784.169 976.17,785.118 977.399,785.771 978.628,786.131 979.857,786.204 981.086,785.996 982.315,785.514 983.543,784.763 984.772,783.751 986.001,782.485 987.23,780.973 988.459,779.222 989.688,777.241 990.917,775.038 992.145,772.621 993.374,770 994.603,767.184 995.832,764.182 997.061,761.003 998.29,757.658 999.519,754.156 1000.75,750.507 1001.98,746.721 1003.21,742.808 1004.43,738.779 1005.66,734.644 1006.89,730.413 1008.12,726.096 1009.35,721.705 1010.58,717.248 1011.81,712.737 1013.04,708.182 1014.27,703.592 1015.49,698.979 1016.72,694.351 1017.95,689.719 1019.18,685.093 1020.41,680.482 1021.64,675.895 1022.87,671.342 1024.1,666.831 1025.32,662.372 1026.55,657.973 1027.78,653.642 1029.01,649.387 1030.24,645.217 1031.47,641.139 1032.7,637.159 1033.93,633.285 1035.16,629.524 1036.38,625.882 1037.61,622.365 1038.84,618.978 1040.07,615.727 1041.3,612.617 1042.53,609.653 1043.76,606.839 1044.99,604.178 1046.22,601.675 1047.44,599.332 1048.67,597.153 1049.9,595.14 1051.13,593.294 1052.36,591.619 1053.59,590.114 1054.82,588.782 1056.05,587.622 1057.28,586.636 1058.5,585.822 1059.73,585.182 1060.96,584.712 1062.19,584.414 1063.42,584.284 1064.65,584.323 1065.88,584.526 1067.11,584.892 1068.34,585.419 1069.56,586.102 1070.79,586.939 1072.02,587.927 1073.25,589.061 1074.48,590.337 1075.71,591.75 1076.94,593.297 1078.17,594.973 1079.4,596.771 1080.62,598.688 1081.85,600.717 1083.08,602.853 1084.31,605.09 1085.54,607.423 1086.77,609.845 1088,612.349 1089.23,614.931 1090.45,617.583 1091.68,620.298 1092.91,623.071 1094.14,625.895 1095.37,628.763 1096.6,631.668 1097.83,634.604 1099.06,637.564 1100.29,640.541 1101.51,643.53 1102.74,646.522 1103.97,649.513 1105.2,652.495 1106.43,655.462 1107.66,658.407 1108.89,661.325 1110.12,664.21 1111.35,667.055 1112.57,669.855 1113.8,672.605 1115.03,675.298 1116.26,677.929 1117.49,680.494 1118.72,682.987 1119.95,685.404 1121.18,687.741 1122.41,689.992 1123.63,692.154 1124.86,694.223 1126.09,696.195 1127.32,698.067 1128.55,699.836 1129.78,701.499 1131.01,703.054 1132.24,704.497 1133.47,705.827 1134.69,707.042 1135.92,708.14 1137.15,709.12 1138.38,709.982 1139.61,710.723 1140.84,711.343 1142.07,711.843 1143.3,712.223 1144.52,712.481 1145.75,712.62 1146.98,712.639 1148.21,712.54 1149.44,712.323 1150.67,711.992 1151.9,711.546 1153.13,710.988 1154.36,710.32 1155.58,709.545 1156.81,708.665 1158.04,707.683 1159.27,706.602 1160.5,705.425 1161.73,704.155 1162.96,702.796 1164.19,701.352 1165.42,699.827 1166.64,698.224 1167.87,696.547 1169.1,694.802 1170.33,692.992 1171.56,691.121 1172.79,689.195 1174.02,687.217 1175.25,685.194 1176.48,683.128 1177.7,681.026 1178.93,678.892 1180.16,676.732 1181.39,674.549 1182.62,672.349 1183.85,670.137 1185.08,667.918 1186.31,665.696 1187.54,663.477 1188.76,661.266 1189.99,659.066 1191.22,656.884 1192.45,654.723 1193.68,652.589 1194.91,650.485 1196.14,648.416 1197.37,646.386 1198.6,644.4 1199.82,642.461 1201.05,640.573 1202.28,638.741 1203.51,636.968 1204.74,635.256 1205.97,633.61 1207.2,632.033 1208.43,630.528 1209.65,629.097 1210.88,627.742 1212.11,626.468 1213.34,625.275 1214.57,624.165 1215.8,623.142 1217.03,622.205 1218.26,621.357 1219.49,620.6 1220.71,619.933 1221.94,619.358 1223.17,618.875 1224.4,618.485 1225.63,618.188 1226.86,617.985 1228.09,617.874 1229.32,617.856 1230.55,617.93 1231.77,618.095 1233,618.351 1234.23,618.695 1235.46,619.127 1236.69,619.646 1237.92,620.249 1239.15,620.934 1240.38,621.7 1241.61,622.545 1242.83,623.465 1244.06,624.459 1245.29,625.524 1246.52,626.657 1247.75,627.855 1248.98,629.115 1250.21,630.434 1251.44,631.809 1252.67,633.236 1253.89,634.712 1255.12,636.233 1256.35,637.795 1257.58,639.396 1258.81,641.031 1260.04,642.696 1261.27,644.388 1262.5,646.102 1263.73,647.835 1264.95,649.583 1266.18,651.342 1267.41,653.107 1268.64,654.876 1269.87,656.644 1271.1,658.407 1272.33,660.162 1273.56,661.904 1274.78,663.629 1276.01,665.335 1277.24,667.018 1278.47,668.673 1279.7,670.298 1280.93,671.889 1282.16,673.442 1283.39,674.955 1284.62,676.425 1285.84,677.848 1287.07,679.221 1288.3,680.542 1289.53,681.809 1290.76,683.018 1291.99,684.168 1293.22,685.256 1294.45,686.28 1295.68,687.239 1296.9,688.13 1298.13,688.952 1299.36,689.704 1300.59,690.384 1301.82,690.991 1303.05,691.524 1304.28,691.983 1305.51,692.367 1306.74,692.675 1307.96,692.908 1309.19,693.065 1310.42,693.146 1311.65,693.151 1312.88,693.081 1314.11,692.937 1315.34,692.718 1316.57,692.427 1317.8,692.064 1319.02,691.63 1320.25,691.126 1321.48,690.555 1322.71,689.917 1323.94,689.215 1325.17,688.45 1326.4,687.624 1327.63,686.74 1328.85,685.799 1330.08,684.805 1331.31,683.759 1332.54,682.665 1333.77,681.524 1335,680.34 1336.23,679.115 1337.46,677.853 1338.69,676.556 1339.91,675.227 1341.14,673.87 1342.37,672.487 1343.6,671.082 1344.83,669.658 1346.06,668.219 1347.29,666.767 1348.52,665.305 1349.75,663.838 1350.97,662.367 1352.2,660.898 1353.43,659.432 1354.66,657.973 1355.89,656.524 1357.12,655.089 1358.35,653.67 1359.58,652.271 1360.81,650.894 1362.03,649.542 1363.26,648.219 1364.49,646.927 1365.72,645.668 1366.95,644.446 1368.18,643.262 1369.41,642.12 1370.64,641.022 1371.87,639.969 1373.09,638.965 1374.32,638.01 1375.55,637.107 1376.78,636.258 1378.01,635.464 1379.24,634.726 1380.47,634.047 1381.7,633.426 1382.93,632.866 1384.15,632.367 1385.38,631.931 1386.61,631.557 1387.84,631.246 1389.07,630.999 1390.3,630.816 1391.53,630.697 1392.76,630.643 1393.98,630.651 1395.21,630.724 1396.44,630.859 1397.67,631.057 1398.9,631.317 1400.13,631.638 1401.36,632.018 1402.59,632.457 1403.82,632.954 1405.04,633.507 1406.27,634.115 1407.5,634.776 1408.73,635.488 1409.96,636.25 1411.19,637.06 1412.42,637.915 1413.65,638.814 1414.88,639.755 1416.1,640.734 1417.33,641.751 1418.56,642.802 1419.79,643.884 1421.02,644.997 1422.25,646.136 1423.48,647.299 1424.71,648.484 1425.94,649.688 1427.16,650.907 1428.39,652.14 1429.62,653.384 1430.85,654.635 1432.08,655.891 1433.31,657.15 1434.54,658.407 1435.77,659.661 1437,660.909 1438.22,662.148 1439.45,663.376 1440.68,664.589 1441.91,665.785 1443.14,666.962 1444.37,668.117 1445.6,669.247 1446.83,670.35 1448.06,671.425 1449.28,672.467 1450.51,673.476 1451.74,674.45 1452.97,675.385 1454.2,676.281 1455.43,677.136 1456.66,677.948 1457.89,678.714 1459.11,679.435 1460.34,680.107 1461.57,680.731 1462.8,681.304 1464.03,681.827 1465.26,682.297 1466.49,682.714 1467.72,683.077 1468.95,683.386 1470.17,683.641 1471.4,683.84 1472.63,683.984 1473.86,684.073 1475.09,684.106 1476.32,684.084 " />
</g>

<g fill="#212121" fill-opacity="1" stroke="#212121" stroke-opacity="1" stroke-width="1" stroke-linecap="square" stroke-linejoin="bevel" transform="matrix(0.49985,0,0,0.499751,389.883,471.265)"
font-family="Helvetica" font-size="22" font-weight="400" font-style="normal" 
>
<text fill="#212121" fill-opacity="1" stroke="none" xml:space="preserve" x="0" y="-0.0625" font-family="Helvetica" font-size="22" font-weight="400" font-style="normal" 
 >k Omega</text>
</g>

<g fill="#212121" fill-opacity="1" stroke="#212121" stroke-opacity="1" stroke-width="1" stroke-linecap="square" stroke-linejoin="bevel" transform="matrix(0.49985,0,0,0.499751,434.37,476.762)"
font-family="Helvetica" font-size="17" font-weight="400" font-style="normal" 
>
<text fill="#212121" fill-opacity="1" stroke="none" xml:space="preserve" x="0" y="0.078125" font-family="Helvetica" font-size="17" font-weight="400" font-style="normal" 
 >0</text>
</g>

<g fill="#212121" fill-opacity="1" stroke="#212121" stroke-opacity="1" stroke-width="1" stroke-linecap="square" stroke-linejoin="bevel" transform="matrix(0.49985,0,0,0.499751,438.868,471.265)"
font-family="Helvetica" font-size="22" font-weight="400" font-style="normal" 
>
<text fill="#212121" fill-opacity="1" stroke="none" xml:space="preserve" x="0" y="-0.0625" font-family="Helvetica" font-size="22" font-weight="400" font-style="normal" 
 > [rad/s]</text>
</g>

<g fill="#212121" fill-opacity="1" stroke="#212121" stroke-opacity="1" stroke-width="1" stroke-linecap="butt" stroke-linejoin="round" transform="matrix(0.49985,0,0,0.499751,0,0)"
font-family="Helvetica" font-size="22" font-weight="400" font-style="normal" 
>
<polyline fill="none" vector-effect="none" points="217,893 1508,893 " />
<polyline fill="none" vector-effect="none" points="217,75 1508,75 " />
<polyline fill="none" vector-effect="none" points="248.681,893 248.681,880.09 " />
<polyline fill="none" vector-effect="none" points="248.681,87.91 248.681,75 " />
<polyline fill="none" vector-effect="none" points="453.287,893 453.287,880.09 " />
<polyline fill="none" vector-effect="none" points="453.287,87.91 453.287,75 " />
<polyline fill="none" vector-effect="none" points="657.894,893 657.894,880.09 " />
<polyline fill="none" vector-effect="none" points="657.894,87.91 657.894,75 " />
<polyline fill="none" vector-effect="none" points="862.5,893 862.5,880.09 " />
<polyline fill="none" vector-effect="none" points="862.5,87.91 862.5,75 " />
<polyline fill="none" vector-effect="none" points="1067.11,893 1067.11,880.09 " />
<polyline fill="none" vector-effect="none" points="1067.11,87.91 1067.11,75 " />
<polyline fill="none" vector-effect="none" points="1271.71,893 1271.71,880.09 " />
<polyline fill="none" vector-effect="none" points="1271.71,87.91 1271.71,75 " />
<polyline fill="none" vector-effect="none" points="1476.32,893 1476.32,880.09 " />
<polyline fill="none" vector-effect="none" points="1476.32,87.91 1476.32,75 " />
</g>

<g fill="#212121" fill-opacity="1" stroke="#212121" stroke-opacity="1" stroke-width="1" stroke-linecap="square" stroke-linejoin="bevel" transform="matrix(0.49985,0,0,0.499751,117.055,457.772)"
font-family="Helvetica" font-size="20" font-weight="400" font-style="normal" 
>
<text fill="#212121" fill-opacity="1" stroke="none" xml:space="preserve" x="0" y="0.390625" font-family="Helvetica" font-size="20" font-weight="400" font-style="normal" 
 >-15</text>
</g>

<g fill="#212121" fill-opacity="1" stroke="#212121" stroke-opacity="1" stroke-width="1" stroke-linecap="square" stroke-linejoin="bevel" transform="matrix(0.49985,0,0,0.499751,219.328,457.772)"
font-family="Helvetica" font-size="20" font-weight="400" font-style="normal" 
>
<text fill="#212121" fill-opacity="1" stroke="none" xml:space="preserve" x="0" y="0.390625" font-family="Helvetica" font-size="20" font-weight="400" font-style="normal" 
 >-10</text>
</g>

<g fill="#212121" fill-opacity="1" stroke="#212121" stroke-opacity="1" stroke-width="1" stroke-linecap="square" stroke-linejoin="bevel" transform="matrix(0.49985,0,0,0.499751,324.35,457.772)"
font-family="Helvetica" font-size="20" font-weight="400" font-style="normal" 
>
<text fill="#212121" fill-opacity="1" stroke="none" xml:space="preserve" x="0" y="0.390625" font-family="Helvetica" font-size="20" font-weight="400" font-style="normal" 
 >-5</text>
</g>

<g fill="#212121" fill-opacity="1" stroke="#212121" stroke-opacity="1" stroke-width="1" stroke-linecap="square" stroke-linejoin="bevel" transform="matrix(0.49985,0,0,0.499751,428.371,457.772)"
font-family="Helvetica" font-size="20" font-weight="400" font-style="normal" 
>
<text fill="#212121" fill-opacity="1" stroke="none" xml:space="preserve" x="0" y="0.390625" font-family="Helvetica" font-size="20" font-weight="400" font-style="normal" 
 >0</text>
</g>

<g fill="#212121" fill-opacity="1" stroke="#212121" stroke-opacity="1" stroke-width="1" stroke-linecap="square" stroke-linejoin="bevel" transform="matrix(0.49985,0,0,0.499751,530.644,457.772)"
font-family="Helvetica" font-size="20" font-weight="400" font-style="normal" 
>
<text fill="#212121" fill-opacity="1" stroke="none" xml:space="preserve" x="0" y="0.390625" font-family="Helvetica" font-size="20" font-weight="400" font-style="normal" 
 >5</text>
</g>

<g fill="#212121" fill-opacity="1" stroke="#212121" stroke-opacity="1" stroke-width="1" stroke-linecap="square" stroke-linejoin="bevel" transform="matrix(0.49985,0,0,0.499751,630.167,457.772)"
font-family="Helvetica" font-size="20" font-weight="400" font-style="normal" 
>
<text fill="#212121" fill-opacity="1" stroke="none" xml:space="preserve" x="0" y="0.390625" font-family="Helvetica" font-size="20" font-weight="400" font-style="normal" 
 >10</text>
</g>

<g fill="#212121" fill-opacity="1" stroke="#212121" stroke-opacity="1" stroke-width="1" stroke-linecap="square" stroke-linejoin="bevel" transform="matrix(0.49985,0,0,0.499751,732.44,457.772)"
font-family="Helvetica" font-size="20" font-weight="400" font-style="normal" 
>
<text fill="#212121" fill-opacity="1" stroke="none" xml:space="preserve" x="0" y="0.390625" font-family="Helvetica" font-size="20" font-weight="400" font-style="normal" 
 >15</text>
</g>
</g>
</svg>