<?xml version="1.0" encoding="UTF-8" standalone="no"?>
<svg width="294.217mm" height="177.094mm"
 viewBox="0 0 834 502"
 xmlns="http://www.w3.org/2000/svg" xmlns:xlink="http://www.w3.org/1999/xlink"  version="1.2" baseProfile="tiny">
<title>Qt SVG Document</title>
<desc>MATLAB, The MathWorks, Inc. Version 25.1.0.2833191 R2025a Prerelease Update 2</desc>
<defs>
</defs>
<g fill="none" stroke="black" stroke-width="1" fill-rule="evenodd" stroke-linecap="square" stroke-linejoin="bevel" >

<g fill="#ffffff" fill-opacity="1" stroke="none" transform="matrix(0.49985,0,0,0.499751,0,0)"
font-family=".AppleSystemUIFont" font-size="13" font-weight="400" font-style="normal" 
>
<path vector-effect="none" fill-rule="evenodd" d="M0,0 L1668,0 L1668,1005 L0,1005 L0,0"/>
</g>

<g fill="#ffffff" fill-opacity="1" stroke="none" transform="matrix(4.9985e-05,0,0,4.99751e-05,0,0)"
font-family=".AppleSystemUIFont" font-size="13" font-weight="400" font-style="normal" 
>
<path vector-effect="none" fill-rule="evenodd" d="M2.17e+06,750000 L2.17e+06,8.93e+06 L1.508e+07,8.93e+06 L1.508e+07,750000 L2.17e+06,750000"/>
</g>

<g fill="#212121" fill-opacity="1" stroke="#212121" stroke-opacity="1" stroke-width="1" stroke-linecap="butt" stroke-linejoin="round" transform="matrix(0.49985,0,0,0.499751,0,0)"
font-family=".AppleSystemUIFont" font-size="13" font-weight="400" font-style="normal" 
>
<polyline fill="none" vector-effect="none" points="217,893 217,75 " />
<polyline fill="none" vector-effect="none" points="1508,893 1508,75 " />
<polyline fill="none" vector-effect="none" points="217,893 229.91,893 " />
<polyline fill="none" vector-effect="none" points="1495.09,893 1508,893 " />
<polyline fill="none" vector-effect="none" points="217,729.4 229.91,729.4 " />
<polyline fill="none" vector-effect="none" points="1495.09,729.4 1508,729.4 " />
<polyline fill="none" vector-effect="none" points="217,565.8 229.91,565.8 " />
<polyline fill="none" vector-effect="none" points="1495.09,565.8 1508,565.8 " />
<polyline fill="none" vector-effect="none" points="217,402.2 229.91,402.2 " />
<polyline fill="none" vector-effect="none" points="1495.09,402.2 1508,402.2 " />
<polyline fill="none" vector-effect="none" points="217,238.6 229.91,238.6 " />
<polyline fill="none" vector-effect="none" points="1495.09,238.6 1508,238.6 " />
<polyline fill="none" vector-effect="none" points="217,75 229.91,75 " />
<polyline fill="none" vector-effect="none" points="1495.09,75 1508,75 " />
</g>

<g fill="#212121" fill-opacity="1" stroke="#212121" stroke-opacity="1" stroke-width="1" stroke-linecap="square" stroke-linejoin="bevel" transform="matrix(0.49985,0,0,0.499751,81.4755,448.776)"
font-family="Helvetica" font-size="20" font-weight="400" font-style="normal" 
>
<text fill="#212121" fill-opacity="1" stroke="none" xml:space="preserve" x="0" y="0.390625" font-family="Helvetica" font-size="20" font-weight="400" font-style="normal" 
 >-0.05</text>
</g>

<g fill="#212121" fill-opacity="1" stroke="#212121" stroke-opacity="1" stroke-width="1" stroke-linecap="square" stroke-linejoin="bevel" transform="matrix(0.49985,0,0,0.499751,98.9703,367.017)"
font-family="Helvetica" font-size="20" font-weight="400" font-style="normal" 
>
<text fill="#212121" fill-opacity="1" stroke="none" xml:space="preserve" x="0" y="0.390625" font-family="Helvetica" font-size="20" font-weight="400" font-style="normal" 
 >0</text>
</g>

<g fill="#212121" fill-opacity="1" stroke="#212121" stroke-opacity="1" stroke-width="1" stroke-linecap="square" stroke-linejoin="bevel" transform="matrix(0.49985,0,0,0.499751,84.9745,285.258)"
font-family="Helvetica" font-size="20" font-weight="400" font-style="normal" 
>
<text fill="#212121" fill-opacity="1" stroke="none" xml:space="preserve" x="0" y="0.390625" font-family="Helvetica" font-size="20" font-weight="400" font-style="normal" 
 >0.05</text>
</g>

<g fill="#212121" fill-opacity="1" stroke="#212121" stroke-opacity="1" stroke-width="1" stroke-linecap="square" stroke-linejoin="bevel" transform="matrix(0.49985,0,0,0.499751,90.4728,203.499)"
font-family="Helvetica" font-size="20" font-weight="400" font-style="normal" 
>
<text fill="#212121" fill-opacity="1" stroke="none" xml:space="preserve" x="0" y="0.390625" font-family="Helvetica" font-size="20" font-weight="400" font-style="normal" 
 >0.1</text>
</g>

<g fill="#212121" fill-opacity="1" stroke="#212121" stroke-opacity="1" stroke-width="1" stroke-linecap="square" stroke-linejoin="bevel" transform="matrix(0.49985,0,0,0.499751,84.9745,121.739)"
font-family="Helvetica" font-size="20" font-weight="400" font-style="normal" 
>
<text fill="#212121" fill-opacity="1" stroke="none" xml:space="preserve" x="0" y="0.390625" font-family="Helvetica" font-size="20" font-weight="400" font-style="normal" 
 >0.15</text>
</g>

<g fill="#212121" fill-opacity="1" stroke="#212121" stroke-opacity="1" stroke-width="1" stroke-linecap="square" stroke-linejoin="bevel" transform="matrix(0.49985,0,0,0.499751,90.4728,39.9801)"
font-family="Helvetica" font-size="20" font-weight="400" font-style="normal" 
>
<text fill="#212121" fill-opacity="1" stroke="none" xml:space="preserve" x="0" y="0.390625" font-family="Helvetica" font-size="20" font-weight="400" font-style="normal" 
 >0.2</text>
</g>

<g fill="#212121" fill-opacity="1" stroke="#212121" stroke-opacity="1" stroke-width="1" stroke-linecap="square" stroke-linejoin="bevel" transform="matrix(0.49985,0,0,0.499751,348.896,33.6082)"
font-family="Helvetica" font-size="22" font-weight="700" font-style="normal" 
>
<text fill="#212121" fill-opacity="1" stroke="none" xml:space="preserve" x="0" y="-0.0625" font-family="Helvetica" font-size="22" font-weight="700" font-style="normal" 
 >Line Spectra for pulse with w=5</text>
</g>

<g fill="#212121" fill-opacity="1" stroke="#212121" stroke-opacity="1" stroke-width="1" stroke-linecap="butt" stroke-linejoin="round" transform="matrix(0.49985,0,0,0.499751,0,0)"
font-family="Helvetica" font-size="22" font-weight="700" font-style="normal" 
>
<polyline fill="none" vector-effect="none" points="217,729.4 1508,729.4 " />
</g>

<g fill="#1171be" fill-opacity="1" stroke="#1171be" stroke-opacity="1" stroke-width="1" stroke-linecap="butt" stroke-linejoin="round" transform="matrix(0.49985,0,0,0.499751,0,0)"
font-family="Helvetica" font-size="22" font-weight="700" font-style="normal" 
>
<polyline fill="none" vector-effect="none" points="289.602,729.4 289.602,685.673 " />
<polyline fill="none" vector-effect="none" points="330.524,729.4 330.524,653.205 " />
<polyline fill="none" vector-effect="none" points="371.445,729.4 371.445,646.855 " />
<polyline fill="none" vector-effect="none" points="412.366,729.4 412.366,673.747 " />
<polyline fill="none" vector-effect="none" points="494.209,729.4 494.209,797.42 " />
<polyline fill="none" vector-effect="none" points="535.13,729.4 535.13,853.217 " />
<polyline fill="none" vector-effect="none" points="576.051,729.4 576.051,870.905 " />
<polyline fill="none" vector-effect="none" points="616.972,729.4 616.972,831.431 " />
<polyline fill="none" vector-effect="none" points="698.815,729.4 698.815,576.354 " />
<polyline fill="none" vector-effect="none" points="739.736,729.4 739.736,399.222 " />
<polyline fill="none" vector-effect="none" points="780.657,729.4 780.657,234.133 " />
<polyline fill="none" vector-effect="none" points="821.579,729.4 821.579,117.216 " />
<polyline fill="none" vector-effect="none" points="862.5,729.4 862.5,75 " />
<polyline fill="none" vector-effect="none" points="903.421,729.4 903.421,117.216 " />
<polyline fill="none" vector-effect="none" points="944.343,729.4 944.343,234.133 " />
<polyline fill="none" vector-effect="none" points="985.264,729.4 985.264,399.222 " />
<polyline fill="none" vector-effect="none" points="1026.19,729.4 1026.19,576.354 " />
<polyline fill="none" vector-effect="none" points="1108.03,729.4 1108.03,831.431 " />
<polyline fill="none" vector-effect="none" points="1148.95,729.4 1148.95,870.905 " />
<polyline fill="none" vector-effect="none" points="1189.87,729.4 1189.87,853.217 " />
<polyline fill="none" vector-effect="none" points="1230.79,729.4 1230.79,797.42 " />
<polyline fill="none" vector-effect="none" points="1312.63,729.4 1312.63,673.747 " />
<polyline fill="none" vector-effect="none" points="1353.56,729.4 1353.56,646.855 " />
<polyline fill="none" vector-effect="none" points="1394.48,729.4 1394.48,653.205 " />
<polyline fill="none" vector-effect="none" points="1435.4,729.4 1435.4,685.673 " />
</g>

<g fill="none" stroke="#1171be" stroke-opacity="1" stroke-width="1" stroke-linecap="butt" stroke-linejoin="miter" stroke-miterlimit="2" transform="matrix(0.49985,0,0,0.499751,0,0)"
font-family="Helvetica" font-size="22" font-weight="700" font-style="normal" 
>
<path vector-effect="none" fill-rule="evenodd" d="M254.681,729.4 C254.681,726.086 251.995,723.4 248.681,723.4 C245.367,723.4 242.681,726.086 242.681,729.4 C242.681,732.714 245.367,735.4 248.681,735.4 C251.995,735.4 254.681,732.714 254.681,729.4 "/>
</g>

<g fill="none" stroke="#1171be" stroke-opacity="1" stroke-width="1" stroke-linecap="butt" stroke-linejoin="miter" stroke-miterlimit="2" transform="matrix(0.49985,0,0,0.499751,0,0)"
font-family="Helvetica" font-size="22" font-weight="700" font-style="normal" 
>
<path vector-effect="none" fill-rule="evenodd" d="M295.602,685.673 C295.602,682.359 292.916,679.673 289.602,679.673 C286.289,679.673 283.602,682.359 283.602,685.673 C283.602,688.986 286.289,691.673 289.602,691.673 C292.916,691.673 295.602,688.986 295.602,685.673 "/>
</g>

<g fill="none" stroke="#1171be" stroke-opacity="1" stroke-width="1" stroke-linecap="butt" stroke-linejoin="miter" stroke-miterlimit="2" transform="matrix(0.49985,0,0,0.499751,0,0)"
font-family="Helvetica" font-size="22" font-weight="700" font-style="normal" 
>
<path vector-effect="none" fill-rule="evenodd" d="M336.524,653.205 C336.524,649.891 333.837,647.205 330.524,647.205 C327.21,647.205 324.524,649.891 324.524,653.205 C324.524,656.519 327.21,659.205 330.524,659.205 C333.837,659.205 336.524,656.519 336.524,653.205 "/>
</g>

<g fill="none" stroke="#1171be" stroke-opacity="1" stroke-width="1" stroke-linecap="butt" stroke-linejoin="miter" stroke-miterlimit="2" transform="matrix(0.49985,0,0,0.499751,0,0)"
font-family="Helvetica" font-size="22" font-weight="700" font-style="normal" 
>
<path vector-effect="none" fill-rule="evenodd" d="M377.445,646.855 C377.445,643.542 374.759,640.855 371.445,640.855 C368.131,640.855 365.445,643.542 365.445,646.855 C365.445,650.169 368.131,652.855 371.445,652.855 C374.759,652.855 377.445,650.169 377.445,646.855 "/>
</g>

<g fill="none" stroke="#1171be" stroke-opacity="1" stroke-width="1" stroke-linecap="butt" stroke-linejoin="miter" stroke-miterlimit="2" transform="matrix(0.49985,0,0,0.499751,0,0)"
font-family="Helvetica" font-size="22" font-weight="700" font-style="normal" 
>
<path vector-effect="none" fill-rule="evenodd" d="M418.366,673.747 C418.366,670.433 415.68,667.747 412.366,667.747 C409.052,667.747 406.366,670.433 406.366,673.747 C406.366,677.061 409.052,679.747 412.366,679.747 C415.68,679.747 418.366,677.061 418.366,673.747 "/>
</g>

<g fill="none" stroke="#1171be" stroke-opacity="1" stroke-width="1" stroke-linecap="butt" stroke-linejoin="miter" stroke-miterlimit="2" transform="matrix(0.49985,0,0,0.499751,0,0)"
font-family="Helvetica" font-size="22" font-weight="700" font-style="normal" 
>
<path vector-effect="none" fill-rule="evenodd" d="M459.287,729.4 C459.287,726.086 456.601,723.4 453.287,723.4 C449.974,723.4 447.287,726.086 447.287,729.4 C447.287,732.714 449.974,735.4 453.287,735.4 C456.601,735.4 459.287,732.714 459.287,729.4 "/>
</g>

<g fill="none" stroke="#1171be" stroke-opacity="1" stroke-width="1" stroke-linecap="butt" stroke-linejoin="miter" stroke-miterlimit="2" transform="matrix(0.49985,0,0,0.499751,0,0)"
font-family="Helvetica" font-size="22" font-weight="700" font-style="normal" 
>
<path vector-effect="none" fill-rule="evenodd" d="M500.209,797.42 C500.209,794.107 497.522,791.42 494.209,791.42 C490.895,791.42 488.209,794.107 488.209,797.42 C488.209,800.734 490.895,803.42 494.209,803.42 C497.522,803.42 500.209,800.734 500.209,797.42 "/>
</g>

<g fill="none" stroke="#1171be" stroke-opacity="1" stroke-width="1" stroke-linecap="butt" stroke-linejoin="miter" stroke-miterlimit="2" transform="matrix(0.49985,0,0,0.499751,0,0)"
font-family="Helvetica" font-size="22" font-weight="700" font-style="normal" 
>
<path vector-effect="none" fill-rule="evenodd" d="M541.13,853.217 C541.13,849.903 538.444,847.217 535.13,847.217 C531.816,847.217 529.13,849.903 529.13,853.217 C529.13,856.531 531.816,859.217 535.13,859.217 C538.444,859.217 541.13,856.531 541.13,853.217 "/>
</g>

<g fill="none" stroke="#1171be" stroke-opacity="1" stroke-width="1" stroke-linecap="butt" stroke-linejoin="miter" stroke-miterlimit="2" transform="matrix(0.49985,0,0,0.499751,0,0)"
font-family="Helvetica" font-size="22" font-weight="700" font-style="normal" 
>
<path vector-effect="none" fill-rule="evenodd" d="M582.051,870.905 C582.051,867.591 579.365,864.905 576.051,864.905 C572.737,864.905 570.051,867.591 570.051,870.905 C570.051,874.219 572.737,876.905 576.051,876.905 C579.365,876.905 582.051,874.219 582.051,870.905 "/>
</g>

<g fill="none" stroke="#1171be" stroke-opacity="1" stroke-width="1" stroke-linecap="butt" stroke-linejoin="miter" stroke-miterlimit="2" transform="matrix(0.49985,0,0,0.499751,0,0)"
font-family="Helvetica" font-size="22" font-weight="700" font-style="normal" 
>
<path vector-effect="none" fill-rule="evenodd" d="M622.972,831.431 C622.972,828.117 620.286,825.431 616.972,825.431 C613.659,825.431 610.972,828.117 610.972,831.431 C610.972,834.744 613.659,837.431 616.972,837.431 C620.286,837.431 622.972,834.744 622.972,831.431 "/>
</g>

<g fill="none" stroke="#1171be" stroke-opacity="1" stroke-width="1" stroke-linecap="butt" stroke-linejoin="miter" stroke-miterlimit="2" transform="matrix(0.49985,0,0,0.499751,0,0)"
font-family="Helvetica" font-size="22" font-weight="700" font-style="normal" 
>
<path vector-effect="none" fill-rule="evenodd" d="M663.894,729.4 C663.894,726.086 661.207,723.4 657.894,723.4 C654.58,723.4 651.894,726.086 651.894,729.4 C651.894,732.714 654.58,735.4 657.894,735.4 C661.207,735.4 663.894,732.714 663.894,729.4 "/>
</g>

<g fill="none" stroke="#1171be" stroke-opacity="1" stroke-width="1" stroke-linecap="butt" stroke-linejoin="miter" stroke-miterlimit="2" transform="matrix(0.49985,0,0,0.499751,0,0)"
font-family="Helvetica" font-size="22" font-weight="700" font-style="normal" 
>
<path vector-effect="none" fill-rule="evenodd" d="M704.815,576.354 C704.815,573.04 702.129,570.354 698.815,570.354 C695.501,570.354 692.815,573.04 692.815,576.354 C692.815,579.668 695.501,582.354 698.815,582.354 C702.129,582.354 704.815,579.668 704.815,576.354 "/>
</g>

<g fill="none" stroke="#1171be" stroke-opacity="1" stroke-width="1" stroke-linecap="butt" stroke-linejoin="miter" stroke-miterlimit="2" transform="matrix(0.49985,0,0,0.499751,0,0)"
font-family="Helvetica" font-size="22" font-weight="700" font-style="normal" 
>
<path vector-effect="none" fill-rule="evenodd" d="M745.736,399.222 C745.736,395.908 743.05,393.222 739.736,393.222 C736.422,393.222 733.736,395.908 733.736,399.222 C733.736,402.535 736.422,405.222 739.736,405.222 C743.05,405.222 745.736,402.535 745.736,399.222 "/>
</g>

<g fill="none" stroke="#1171be" stroke-opacity="1" stroke-width="1" stroke-linecap="butt" stroke-linejoin="miter" stroke-miterlimit="2" transform="matrix(0.49985,0,0,0.499751,0,0)"
font-family="Helvetica" font-size="22" font-weight="700" font-style="normal" 
>
<path vector-effect="none" fill-rule="evenodd" d="M786.657,234.133 C786.657,230.819 783.971,228.133 780.657,228.133 C777.344,228.133 774.657,230.819 774.657,234.133 C774.657,237.446 777.344,240.133 780.657,240.133 C783.971,240.133 786.657,237.446 786.657,234.133 "/>
</g>

<g fill="none" stroke="#1171be" stroke-opacity="1" stroke-width="1" stroke-linecap="butt" stroke-linejoin="miter" stroke-miterlimit="2" transform="matrix(0.49985,0,0,0.499751,0,0)"
font-family="Helvetica" font-size="22" font-weight="700" font-style="normal" 
>
<path vector-effect="none" fill-rule="evenodd" d="M827.579,117.216 C827.579,113.902 824.892,111.216 821.579,111.216 C818.265,111.216 815.579,113.902 815.579,117.216 C815.579,120.53 818.265,123.216 821.579,123.216 C824.892,123.216 827.579,120.53 827.579,117.216 "/>
</g>

<g fill="none" stroke="#1171be" stroke-opacity="1" stroke-width="1" stroke-linecap="butt" stroke-linejoin="miter" stroke-miterlimit="2" transform="matrix(0.49985,0,0,0.499751,0,0)"
font-family="Helvetica" font-size="22" font-weight="700" font-style="normal" 
>
<path vector-effect="none" fill-rule="evenodd" d="M868.5,75 C868.5,71.6863 865.814,69 862.5,69 C859.186,69 856.5,71.6863 856.5,75 C856.5,78.3137 859.186,81 862.5,81 C865.814,81 868.5,78.3137 868.5,75 "/>
</g>

<g fill="none" stroke="#1171be" stroke-opacity="1" stroke-width="1" stroke-linecap="butt" stroke-linejoin="miter" stroke-miterlimit="2" transform="matrix(0.49985,0,0,0.499751,0,0)"
font-family="Helvetica" font-size="22" font-weight="700" font-style="normal" 
>
<path vector-effect="none" fill-rule="evenodd" d="M909.421,117.216 C909.421,113.902 906.735,111.216 903.421,111.216 C900.108,111.216 897.421,113.902 897.421,117.216 C897.421,120.53 900.108,123.216 903.421,123.216 C906.735,123.216 909.421,120.53 909.421,117.216 "/>
</g>

<g fill="none" stroke="#1171be" stroke-opacity="1" stroke-width="1" stroke-linecap="butt" stroke-linejoin="miter" stroke-miterlimit="2" transform="matrix(0.49985,0,0,0.499751,0,0)"
font-family="Helvetica" font-size="22" font-weight="700" font-style="normal" 
>
<path vector-effect="none" fill-rule="evenodd" d="M950.343,234.133 C950.343,230.819 947.656,228.133 944.343,228.133 C941.029,228.133 938.343,230.819 938.343,234.133 C938.343,237.446 941.029,240.133 944.343,240.133 C947.656,240.133 950.343,237.446 950.343,234.133 "/>
</g>

<g fill="none" stroke="#1171be" stroke-opacity="1" stroke-width="1" stroke-linecap="butt" stroke-linejoin="miter" stroke-miterlimit="2" transform="matrix(0.49985,0,0,0.499751,0,0)"
font-family="Helvetica" font-size="22" font-weight="700" font-style="normal" 
>
<path vector-effect="none" fill-rule="evenodd" d="M991.264,399.222 C991.264,395.908 988.578,393.222 985.264,393.222 C981.95,393.222 979.264,395.908 979.264,399.222 C979.264,402.535 981.95,405.222 985.264,405.222 C988.578,405.222 991.264,402.535 991.264,399.222 "/>
</g>

<g fill="none" stroke="#1171be" stroke-opacity="1" stroke-width="1" stroke-linecap="butt" stroke-linejoin="miter" stroke-miterlimit="2" transform="matrix(0.49985,0,0,0.499751,0,0)"
font-family="Helvetica" font-size="22" font-weight="700" font-style="normal" 
>
<path vector-effect="none" fill-rule="evenodd" d="M1032.19,576.354 C1032.19,573.04 1029.5,570.354 1026.19,570.354 C1022.87,570.354 1020.19,573.04 1020.19,576.354 C1020.19,579.668 1022.87,582.354 1026.19,582.354 C1029.5,582.354 1032.19,579.668 1032.19,576.354 "/>
</g>

<g fill="none" stroke="#1171be" stroke-opacity="1" stroke-width="1" stroke-linecap="butt" stroke-linejoin="miter" stroke-miterlimit="2" transform="matrix(0.49985,0,0,0.499751,0,0)"
font-family="Helvetica" font-size="22" font-weight="700" font-style="normal" 
>
<path vector-effect="none" fill-rule="evenodd" d="M1073.11,729.4 C1073.11,726.086 1070.42,723.4 1067.11,723.4 C1063.79,723.4 1061.11,726.086 1061.11,729.4 C1061.11,732.714 1063.79,735.4 1067.11,735.4 C1070.42,735.4 1073.11,732.714 1073.11,729.4 "/>
</g>

<g fill="none" stroke="#1171be" stroke-opacity="1" stroke-width="1" stroke-linecap="butt" stroke-linejoin="miter" stroke-miterlimit="2" transform="matrix(0.49985,0,0,0.499751,0,0)"
font-family="Helvetica" font-size="22" font-weight="700" font-style="normal" 
>
<path vector-effect="none" fill-rule="evenodd" d="M1114.03,831.431 C1114.03,828.117 1111.34,825.431 1108.03,825.431 C1104.71,825.431 1102.03,828.117 1102.03,831.431 C1102.03,834.744 1104.71,837.431 1108.03,837.431 C1111.34,837.431 1114.03,834.744 1114.03,831.431 "/>
</g>

<g fill="none" stroke="#1171be" stroke-opacity="1" stroke-width="1" stroke-linecap="butt" stroke-linejoin="miter" stroke-miterlimit="2" transform="matrix(0.49985,0,0,0.499751,0,0)"
font-family="Helvetica" font-size="22" font-weight="700" font-style="normal" 
>
<path vector-effect="none" fill-rule="evenodd" d="M1154.95,870.905 C1154.95,867.591 1152.26,864.905 1148.95,864.905 C1145.64,864.905 1142.95,867.591 1142.95,870.905 C1142.95,874.219 1145.64,876.905 1148.95,876.905 C1152.26,876.905 1154.95,874.219 1154.95,870.905 "/>
</g>

<g fill="none" stroke="#1171be" stroke-opacity="1" stroke-width="1" stroke-linecap="butt" stroke-linejoin="miter" stroke-miterlimit="2" transform="matrix(0.49985,0,0,0.499751,0,0)"
font-family="Helvetica" font-size="22" font-weight="700" font-style="normal" 
>
<path vector-effect="none" fill-rule="evenodd" d="M1195.87,853.217 C1195.87,849.903 1193.18,847.217 1189.87,847.217 C1186.56,847.217 1183.87,849.903 1183.87,853.217 C1183.87,856.531 1186.56,859.217 1189.87,859.217 C1193.18,859.217 1195.87,856.531 1195.87,853.217 "/>
</g>

<g fill="none" stroke="#1171be" stroke-opacity="1" stroke-width="1" stroke-linecap="butt" stroke-linejoin="miter" stroke-miterlimit="2" transform="matrix(0.49985,0,0,0.499751,0,0)"
font-family="Helvetica" font-size="22" font-weight="700" font-style="normal" 
>
<path vector-effect="none" fill-rule="evenodd" d="M1236.79,797.42 C1236.79,794.107 1234.11,791.42 1230.79,791.42 C1227.48,791.42 1224.79,794.107 1224.79,797.42 C1224.79,800.734 1227.48,803.42 1230.79,803.42 C1234.11,803.42 1236.79,800.734 1236.79,797.42 "/>
</g>

<g fill="none" stroke="#1171be" stroke-opacity="1" stroke-width="1" stroke-linecap="butt" stroke-linejoin="miter" stroke-miterlimit="2" transform="matrix(0.49985,0,0,0.499751,0,0)"
font-family="Helvetica" font-size="22" font-weight="700" font-style="normal" 
>
<path vector-effect="none" fill-rule="evenodd" d="M1277.71,729.4 C1277.71,726.086 1275.03,723.4 1271.71,723.4 C1268.4,723.4 1265.71,726.086 1265.71,729.4 C1265.71,732.714 1268.4,735.4 1271.71,735.4 C1275.03,735.4 1277.71,732.714 1277.71,729.4 "/>
</g>

<g fill="none" stroke="#1171be" stroke-opacity="1" stroke-width="1" stroke-linecap="butt" stroke-linejoin="miter" stroke-miterlimit="2" transform="matrix(0.49985,0,0,0.499751,0,0)"
font-family="Helvetica" font-size="22" font-weight="700" font-style="normal" 
>
<path vector-effect="none" fill-rule="evenodd" d="M1318.63,673.747 C1318.63,670.433 1315.95,667.747 1312.63,667.747 C1309.32,667.747 1306.63,670.433 1306.63,673.747 C1306.63,677.061 1309.32,679.747 1312.63,679.747 C1315.95,679.747 1318.63,677.061 1318.63,673.747 "/>
</g>

<g fill="none" stroke="#1171be" stroke-opacity="1" stroke-width="1" stroke-linecap="butt" stroke-linejoin="miter" stroke-miterlimit="2" transform="matrix(0.49985,0,0,0.499751,0,0)"
font-family="Helvetica" font-size="22" font-weight="700" font-style="normal" 
>
<path vector-effect="none" fill-rule="evenodd" d="M1359.56,646.855 C1359.56,643.542 1356.87,640.855 1353.56,640.855 C1350.24,640.855 1347.56,643.542 1347.56,646.855 C1347.56,650.169 1350.24,652.855 1353.56,652.855 C1356.87,652.855 1359.56,650.169 1359.56,646.855 "/>
</g>

<g fill="none" stroke="#1171be" stroke-opacity="1" stroke-width="1" stroke-linecap="butt" stroke-linejoin="miter" stroke-miterlimit="2" transform="matrix(0.49985,0,0,0.499751,0,0)"
font-family="Helvetica" font-size="22" font-weight="700" font-style="normal" 
>
<path vector-effect="none" fill-rule="evenodd" d="M1400.48,653.205 C1400.48,649.891 1397.79,647.205 1394.48,647.205 C1391.16,647.205 1388.48,649.891 1388.48,653.205 C1388.48,656.519 1391.16,659.205 1394.48,659.205 C1397.79,659.205 1400.48,656.519 1400.48,653.205 "/>
</g>

<g fill="none" stroke="#1171be" stroke-opacity="1" stroke-width="1" stroke-linecap="butt" stroke-linejoin="miter" stroke-miterlimit="2" transform="matrix(0.49985,0,0,0.499751,0,0)"
font-family="Helvetica" font-size="22" font-weight="700" font-style="normal" 
>
<path vector-effect="none" fill-rule="evenodd" d="M1441.4,685.673 C1441.4,682.359 1438.71,679.673 1435.4,679.673 C1432.08,679.673 1429.4,682.359 1429.4,685.673 C1429.4,688.986 1432.08,691.673 1435.4,691.673 C1438.71,691.673 1441.4,688.986 1441.4,685.673 "/>
</g>

<g fill="none" stroke="#1171be" stroke-opacity="1" stroke-width="1" stroke-linecap="butt" stroke-linejoin="miter" stroke-miterlimit="2" transform="matrix(0.49985,0,0,0.499751,0,0)"
font-family="Helvetica" font-size="22" font-weight="700" font-style="normal" 
>
<path vector-effect="none" fill-rule="evenodd" d="M1482.32,729.4 C1482.32,726.086 1479.63,723.4 1476.32,723.4 C1473.01,723.4 1470.32,726.086 1470.32,729.4 C1470.32,732.714 1473.01,735.4 1476.32,735.4 C1479.63,735.4 1482.32,732.714 1482.32,729.4 "/>
</g>

<g fill="none" stroke="#ff0000" stroke-opacity="1" stroke-dasharray="1,3" stroke-dashoffset="0" stroke-width="1" stroke-linecap="butt" stroke-linejoin="round" transform="matrix(0.49985,0,0,0.499751,0,0)"
font-family="Helvetica" font-size="22" font-weight="700" font-style="normal" 
>
<polyline fill="none" vector-effect="none" points="248.681,729.4 249.91,728.087 251.139,726.77 252.368,725.448 253.596,724.122 254.825,722.793 256.054,721.461 257.283,720.126 258.512,718.789 259.741,717.45 260.97,716.11 262.198,714.77 263.427,713.429 264.656,712.088 265.885,710.748 267.114,709.409 268.343,708.072 269.572,706.737 270.801,705.404 272.029,704.074 273.258,702.748 274.487,701.426 275.716,700.108 276.945,698.795 278.174,697.488 279.403,696.186 280.632,694.891 281.86,693.602 283.089,692.321 284.318,691.048 285.547,689.783 286.776,688.526 288.005,687.279 289.234,686.042 290.462,684.815 291.691,683.598 292.92,682.392 294.149,681.198 295.378,680.016 296.607,678.847 297.836,677.69 299.065,676.547 300.293,675.418 301.522,674.302 302.751,673.202 303.98,672.117 305.209,671.048 306.438,669.995 307.667,668.958 308.895,667.938 310.124,666.936 311.353,665.951 312.582,664.985 313.811,664.037 315.04,663.108 316.269,662.199 317.498,661.31 318.726,660.441 319.955,659.592 321.184,658.765 322.413,657.959 323.642,657.175 324.871,656.414 326.1,655.674 327.328,654.958 328.557,654.265 329.786,653.595 331.015,652.95 332.244,652.328 333.473,651.732 334.702,651.16 335.931,650.614 337.159,650.093 338.388,649.598 339.617,649.129 340.846,648.686 342.075,648.271 343.304,647.882 344.533,647.52 345.761,647.186 346.99,646.88 348.219,646.602 349.448,646.352 350.677,646.13 351.906,645.937 353.135,645.773 354.364,645.638 355.592,645.532 356.821,645.456 358.05,645.409 359.279,645.392 360.508,645.405 361.737,645.447 362.966,645.52 364.194,645.624 365.423,645.757 366.652,645.922 367.881,646.117 369.11,646.342 370.339,646.598 371.568,646.886 372.797,647.204 374.025,647.553 375.254,647.932 376.483,648.343 377.712,648.785 378.941,649.258 380.17,649.762 381.399,650.297 382.627,650.863 383.856,651.46 385.085,652.088 386.314,652.747 387.543,653.436 388.772,654.156 390.001,654.907 391.23,655.688 392.458,656.499 393.687,657.341 394.916,658.213 396.145,659.115 397.374,660.047 398.603,661.009 399.832,662 401.06,663.02 402.289,664.07 403.518,665.148 404.747,666.255 405.976,667.391 407.205,668.555 408.434,669.747 409.663,670.967 410.891,672.214 412.12,673.489 413.349,674.79 414.578,676.118 415.807,677.473 417.036,678.853 418.265,680.259 419.493,681.691 420.722,683.147 421.951,684.628 423.18,686.133 424.409,687.663 425.638,689.215 426.867,690.791 428.096,692.39 429.324,694.01 430.553,695.653 431.782,697.317 433.011,699.002 434.24,700.708 435.469,702.433 436.698,704.179 437.926,705.943 439.155,707.726 440.384,709.527 441.613,711.346 442.842,713.182 444.071,715.034 445.3,716.902 446.529,718.786 447.757,720.685 448.986,722.598 450.215,724.526 451.444,726.466 452.673,728.419 453.902,730.384 455.131,732.361 456.359,734.348 457.588,736.346 458.817,738.354 460.046,740.37 461.275,742.395 462.504,744.428 463.733,746.468 464.962,748.515 466.19,750.567 467.419,752.625 468.648,754.687 469.877,756.753 471.106,758.822 472.335,760.894 473.564,762.967 474.792,765.042 476.021,767.117 477.25,769.192 478.479,771.266 479.708,773.339 480.937,775.409 482.166,777.476 483.395,779.539 484.623,781.598 485.852,783.651 487.081,785.699 488.31,787.74 489.539,789.773 490.768,791.799 491.997,793.815 493.225,795.822 494.454,797.819 495.683,799.805 496.912,801.778 498.141,803.74 499.37,805.688 500.599,807.622 501.828,809.541 503.056,811.445 504.285,813.332 505.514,815.202 506.743,817.055 507.972,818.889 509.201,820.704 510.43,822.5 511.659,824.274 512.887,826.027 514.116,827.758 515.345,829.466 516.574,831.15 517.803,832.81 519.032,834.445 520.261,836.054 521.489,837.637 522.718,839.192 523.947,840.72 525.176,842.219 526.405,843.688 527.634,845.128 528.863,846.536 530.091,847.913 531.32,849.259 532.549,850.571 533.778,851.85 535.007,853.094 536.236,854.304 537.465,855.478 538.694,856.617 539.922,857.718 541.151,858.782 542.38,859.808 543.609,860.795 544.838,861.743 546.067,862.651 547.296,863.518 548.524,864.345 549.753,865.129 550.982,865.871 552.211,866.571 553.44,867.227 554.669,867.838 555.898,868.406 557.127,868.928 558.355,869.404 559.584,869.834 560.813,870.218 562.042,870.554 563.271,870.843 564.5,871.084 565.729,871.275 566.958,871.418 568.186,871.511 569.415,871.555 570.644,871.547 571.873,871.489 573.102,871.379 574.331,871.218 575.56,871.005 576.788,870.739 578.017,870.421 579.246,870.049 580.475,869.624 581.704,869.144 582.933,868.611 584.162,868.023 585.391,867.381 586.619,866.683 587.848,865.93 589.077,865.121 590.306,864.257 591.535,863.336 592.764,862.36 593.993,861.326 595.221,860.236 596.45,859.089 597.679,857.886 598.908,856.625 600.137,855.306 601.366,853.93 602.595,852.497 603.823,851.006 605.052,849.457 606.281,847.851 607.51,846.186 608.739,844.464 609.968,842.684 611.197,840.846 612.426,838.95 613.654,836.996 614.883,834.984 616.112,832.914 617.341,830.786 618.57,828.601 619.799,826.358 621.028,824.058 622.257,821.7 623.485,819.285 624.714,816.813 625.943,814.284 627.172,811.698 628.401,809.055 629.63,806.356 630.859,803.601 632.087,800.79 633.316,797.923 634.545,795.001 635.774,792.024 637.003,788.991 638.232,785.905 639.461,782.763 640.69,779.569 641.918,776.32 643.147,773.018 644.376,769.664 645.605,766.257 646.834,762.798 648.063,759.287 649.292,755.726 650.52,752.113 651.749,748.45 652.978,744.738 654.207,740.976 655.436,737.166 656.665,733.307 657.894,729.4 659.123,725.446 660.351,721.446 661.58,717.399 662.809,713.307 664.038,709.17 665.267,704.989 666.496,700.764 667.725,696.496 668.953,692.185 670.182,687.833 671.411,683.44 672.64,679.006 673.869,674.533 675.098,670.02 676.327,665.469 677.556,660.881 678.784,656.256 680.013,651.595 681.242,646.898 682.471,642.167 683.7,637.403 684.929,632.605 686.158,627.775 687.386,622.914 688.615,618.022 689.844,613.1 691.073,608.15 692.302,603.172 693.531,598.166 694.76,593.134 695.989,588.077 697.217,582.995 698.446,577.89 699.675,572.762 700.904,567.612 702.133,562.441 703.362,557.251 704.591,552.041 705.819,546.813 707.048,541.568 708.277,536.307 709.506,531.031 710.735,525.74 711.964,520.436 713.193,515.12 714.422,509.792 715.65,504.455 716.879,499.107 718.108,493.752 719.337,488.389 720.566,483.02 721.795,477.645 723.024,472.267 724.253,466.885 725.481,461.5 726.71,456.115 727.939,450.729 729.168,445.344 730.397,439.962 731.626,434.582 732.855,429.206 734.083,423.834 735.312,418.469 736.541,413.112 737.77,407.762 738.999,402.421 740.228,397.091 741.457,391.772 742.685,386.465 743.914,381.172 745.143,375.893 746.372,370.629 747.601,365.382 748.83,360.153 750.059,354.942 751.288,349.75 752.516,344.58 753.745,339.431 754.974,334.305 756.203,329.202 757.432,324.125 758.661,319.073 759.89,314.048 761.118,309.051 762.347,304.082 763.576,299.144 764.805,294.236 766.034,289.361 767.263,284.518 768.492,279.709 769.721,274.935 770.949,270.196 772.178,265.495 773.407,260.831 774.636,256.206 775.865,251.62 777.094,247.075 778.323,242.572 779.551,238.11 780.78,233.693 782.009,229.319 783.238,224.991 784.467,220.709 785.696,216.474 786.925,212.287 788.154,208.148 789.382,204.059 790.611,200.02 791.84,196.033 793.069,192.098 794.298,188.216 795.527,184.387 796.756,180.613 797.984,176.894 799.213,173.232 800.442,169.626 801.671,166.078 802.9,162.588 804.129,159.157 805.358,155.786 806.587,152.476 807.815,149.227 809.044,146.04 810.273,142.915 811.502,139.854 812.731,136.856 813.96,133.923 815.189,131.056 816.417,128.253 817.646,125.518 818.875,122.849 820.104,120.248 821.333,117.714 822.562,115.25 823.791,112.854 825.02,110.528 826.248,108.272 827.477,106.086 828.706,103.972 829.935,101.929 831.164,99.9583 832.393,98.0597 833.622,96.2338 834.85,94.4811 836.079,92.8019 837.308,91.1965 838.537,89.6653 839.766,88.2087 840.995,86.8269 842.224,85.5202 843.453,84.289 844.681,83.1334 845.91,82.0538 847.139,81.0503 848.368,80.1231 849.597,79.2726 850.826,78.4988 852.055,77.8018 853.284,77.182 854.512,76.6393 855.741,76.174 856.97,75.786 858.199,75.4756 859.428,75.2427 860.657,75.0874 861.886,75.0097 863.114,75.0097 864.343,75.0874 865.572,75.2427 866.801,75.4756 868.03,75.786 869.259,76.174 870.488,76.6393 871.716,77.182 872.945,77.8018 874.174,78.4988 875.403,79.2726 876.632,80.1231 877.861,81.0503 879.09,82.0538 880.319,83.1334 881.547,84.289 882.776,85.5202 884.005,86.8269 885.234,88.2087 886.463,89.6653 887.692,91.1965 888.921,92.8019 890.15,94.4811 891.378,96.2338 892.607,98.0597 893.836,99.9583 895.065,101.929 896.294,103.972 897.523,106.086 898.752,108.272 899.98,110.528 901.209,112.854 902.438,115.25 903.667,117.714 904.896,120.248 906.125,122.849 907.354,125.518 908.583,128.253 909.811,131.056 911.04,133.923 912.269,136.856 913.498,139.854 914.727,142.915 915.956,146.04 917.185,149.227 918.413,152.476 919.642,155.786 920.871,159.157 922.1,162.588 923.329,166.078 924.558,169.626 925.787,173.232 927.016,176.894 928.244,180.613 929.473,184.387 930.702,188.216 931.931,192.098 933.16,196.033 934.389,200.02 935.618,204.059 936.846,208.148 938.075,212.287 939.304,216.474 940.533,220.709 941.762,224.991 942.991,229.319 944.22,233.693 945.449,238.11 946.677,242.572 947.906,247.075 949.135,251.62 950.364,256.206 951.593,260.831 952.822,265.495 954.051,270.196 955.279,274.935 956.508,279.709 957.737,284.518 958.966,289.361 960.195,294.236 961.424,299.144 962.653,304.082 963.882,309.051 965.11,314.048 966.339,319.073 967.568,324.125 968.797,329.202 970.026,334.305 971.255,339.431 972.484,344.58 973.712,349.75 974.941,354.942 976.17,360.153 977.399,365.382 978.628,370.629 979.857,375.893 981.086,381.172 982.315,386.465 983.543,391.772 984.772,397.091 986.001,402.421 987.23,407.762 988.459,413.112 989.688,418.469 990.917,423.834 992.145,429.206 993.374,434.582 994.603,439.962 995.832,445.344 997.061,450.729 998.29,456.115 999.519,461.5 1000.75,466.885 1001.98,472.267 1003.21,477.645 1004.43,483.02 1005.66,488.389 1006.89,493.752 1008.12,499.107 1009.35,504.455 1010.58,509.792 1011.81,515.12 1013.04,520.436 1014.27,525.74 1015.49,531.031 1016.72,536.307 1017.95,541.568 1019.18,546.813 1020.41,552.041 1021.64,557.251 1022.87,562.441 1024.1,567.612 1025.32,572.762 1026.55,577.89 1027.78,582.995 1029.01,588.077 1030.24,593.134 1031.47,598.166 1032.7,603.172 1033.93,608.15 1035.16,613.1 1036.38,618.022 1037.61,622.914 1038.84,627.775 1040.07,632.605 1041.3,637.403 1042.53,642.167 1043.76,646.898 1044.99,651.595 1046.22,656.256 1047.44,660.881 1048.67,665.469 1049.9,670.02 1051.13,674.533 1052.36,679.006 1053.59,683.44 1054.82,687.833 1056.05,692.185 1057.28,696.496 1058.5,700.764 1059.73,704.989 1060.96,709.17 1062.19,713.307 1063.42,717.399 1064.65,721.446 1065.88,725.446 1067.11,729.4 1068.34,733.307 1069.56,737.166 1070.79,740.976 1072.02,744.738 1073.25,748.45 1074.48,752.113 1075.71,755.726 1076.94,759.287 1078.17,762.798 1079.4,766.257 1080.62,769.664 1081.85,773.018 1083.08,776.32 1084.31,779.569 1085.54,782.763 1086.77,785.905 1088,788.991 1089.23,792.024 1090.45,795.001 1091.68,797.923 1092.91,800.79 1094.14,803.601 1095.37,806.356 1096.6,809.055 1097.83,811.698 1099.06,814.284 1100.29,816.813 1101.51,819.285 1102.74,821.7 1103.97,824.058 1105.2,826.358 1106.43,828.601 1107.66,830.786 1108.89,832.914 1110.12,834.984 1111.35,836.996 1112.57,838.95 1113.8,840.846 1115.03,842.684 1116.26,844.464 1117.49,846.186 1118.72,847.851 1119.95,849.457 1121.18,851.006 1122.41,852.497 1123.63,853.93 1124.86,855.306 1126.09,856.625 1127.32,857.886 1128.55,859.089 1129.78,860.236 1131.01,861.326 1132.24,862.36 1133.47,863.336 1134.69,864.257 1135.92,865.121 1137.15,865.93 1138.38,866.683 1139.61,867.381 1140.84,868.023 1142.07,868.611 1143.3,869.144 1144.52,869.624 1145.75,870.049 1146.98,870.421 1148.21,870.739 1149.44,871.005 1150.67,871.218 1151.9,871.379 1153.13,871.489 1154.36,871.547 1155.58,871.555 1156.81,871.511 1158.04,871.418 1159.27,871.275 1160.5,871.084 1161.73,870.843 1162.96,870.554 1164.19,870.218 1165.42,869.834 1166.64,869.404 1167.87,868.928 1169.1,868.406 1170.33,867.838 1171.56,867.227 1172.79,866.571 1174.02,865.871 1175.25,865.129 1176.48,864.345 1177.7,863.518 1178.93,862.651 1180.16,861.743 1181.39,860.795 1182.62,859.808 1183.85,858.782 1185.08,857.718 1186.31,856.617 1187.54,855.478 1188.76,854.304 1189.99,853.094 1191.22,851.85 1192.45,850.571 1193.68,849.259 1194.91,847.913 1196.14,846.536 1197.37,845.128 1198.6,843.688 1199.82,842.219 1201.05,840.72 1202.28,839.192 1203.51,837.637 1204.74,836.054 1205.97,834.445 1207.2,832.81 1208.43,831.15 1209.65,829.466 1210.88,827.758 1212.11,826.027 1213.34,824.274 1214.57,822.5 1215.8,820.704 1217.03,818.889 1218.26,817.055 1219.49,815.202 1220.71,813.332 1221.94,811.445 1223.17,809.541 1224.4,807.622 1225.63,805.688 1226.86,803.74 1228.09,801.778 1229.32,799.805 1230.55,797.819 1231.77,795.822 1233,793.815 1234.23,791.799 1235.46,789.773 1236.69,787.74 1237.92,785.699 1239.15,783.651 1240.38,781.598 1241.61,779.539 1242.83,777.476 1244.06,775.409 1245.29,773.339 1246.52,771.266 1247.75,769.192 1248.98,767.117 1250.21,765.042 1251.44,762.967 1252.67,760.894 1253.89,758.822 1255.12,756.753 1256.35,754.687 1257.58,752.625 1258.81,750.567 1260.04,748.515 1261.27,746.468 1262.5,744.428 1263.73,742.395 1264.95,740.37 1266.18,738.354 1267.41,736.346 1268.64,734.348 1269.87,732.361 1271.1,730.384 1272.33,728.419 1273.56,726.466 1274.78,724.526 1276.01,722.598 1277.24,720.685 1278.47,718.786 1279.7,716.902 1280.93,715.034 1282.16,713.182 1283.39,711.346 1284.62,709.527 1285.84,707.726 1287.07,705.943 1288.3,704.179 1289.53,702.433 1290.76,700.708 1291.99,699.002 1293.22,697.317 1294.45,695.653 1295.68,694.01 1296.9,692.39 1298.13,690.791 1299.36,689.215 1300.59,687.663 1301.82,686.133 1303.05,684.628 1304.28,683.147 1305.51,681.691 1306.74,680.259 1307.96,678.853 1309.19,677.473 1310.42,676.118 1311.65,674.79 1312.88,673.489 1314.11,672.214 1315.34,670.967 1316.57,669.747 1317.8,668.555 1319.02,667.391 1320.25,666.255 1321.48,665.148 1322.71,664.07 1323.94,663.02 1325.17,662 1326.4,661.009 1327.63,660.047 1328.85,659.115 1330.08,658.213 1331.31,657.341 1332.54,656.499 1333.77,655.688 1335,654.907 1336.23,654.156 1337.46,653.436 1338.69,652.747 1339.91,652.088 1341.14,651.46 1342.37,650.863 1343.6,650.297 1344.83,649.762 1346.06,649.258 1347.29,648.785 1348.52,648.343 1349.75,647.932 1350.97,647.553 1352.2,647.204 1353.43,646.886 1354.66,646.598 1355.89,646.342 1357.12,646.117 1358.35,645.922 1359.58,645.757 1360.81,645.624 1362.03,645.52 1363.26,645.447 1364.49,645.405 1365.72,645.392 1366.95,645.409 1368.18,645.456 1369.41,645.532 1370.64,645.638 1371.87,645.773 1373.09,645.937 1374.32,646.13 1375.55,646.352 1376.78,646.602 1378.01,646.88 1379.24,647.186 1380.47,647.52 1381.7,647.882 1382.93,648.271 1384.15,648.686 1385.38,649.129 1386.61,649.598 1387.84,650.093 1389.07,650.614 1390.3,651.16 1391.53,651.732 1392.76,652.328 1393.98,652.95 1395.21,653.595 1396.44,654.265 1397.67,654.958 1398.9,655.674 1400.13,656.414 1401.36,657.175 1402.59,657.959 1403.82,658.765 1405.04,659.592 1406.27,660.441 1407.5,661.31 1408.73,662.199 1409.96,663.108 1411.19,664.037 1412.42,664.985 1413.65,665.951 1414.88,666.936 1416.1,667.938 1417.33,668.958 1418.56,669.995 1419.79,671.048 1421.02,672.117 1422.25,673.202 1423.48,674.302 1424.71,675.418 1425.94,676.547 1427.16,677.69 1428.39,678.847 1429.62,680.016 1430.85,681.198 1432.08,682.392 1433.31,683.598 1434.54,684.815 1435.77,686.042 1437,687.279 1438.22,688.526 1439.45,689.783 1440.68,691.048 1441.91,692.321 1443.14,693.602 1444.37,694.891 1445.6,696.186 1446.83,697.488 1448.06,698.795 1449.28,700.108 1450.51,701.426 1451.74,702.748 1452.97,704.074 1454.2,705.404 1455.43,706.737 1456.66,708.072 1457.89,709.409 1459.11,710.748 1460.34,712.088 1461.57,713.429 1462.8,714.77 1464.03,716.11 1465.26,717.45 1466.49,718.789 1467.72,720.126 1468.95,721.461 1470.17,722.793 1471.4,724.122 1472.63,725.448 1473.86,726.77 1475.09,728.087 1476.32,729.4 " />
</g>

<g fill="#212121" fill-opacity="1" stroke="#212121" stroke-opacity="1" stroke-width="1" stroke-linecap="square" stroke-linejoin="bevel" transform="matrix(0.49985,0,0,0.499751,389.883,471.265)"
font-family="Helvetica" font-size="22" font-weight="400" font-style="normal" 
>
<text fill="#212121" fill-opacity="1" stroke="none" xml:space="preserve" x="0" y="-0.0625" font-family="Helvetica" font-size="22" font-weight="400" font-style="normal" 
 >k Omega</text>
</g>

<g fill="#212121" fill-opacity="1" stroke="#212121" stroke-opacity="1" stroke-width="1" stroke-linecap="square" stroke-linejoin="bevel" transform="matrix(0.49985,0,0,0.499751,434.37,476.762)"
font-family="Helvetica" font-size="17" font-weight="400" font-style="normal" 
>
<text fill="#212121" fill-opacity="1" stroke="none" xml:space="preserve" x="0" y="0.078125" font-family="Helvetica" font-size="17" font-weight="400" font-style="normal" 
 >0</text>
</g>

<g fill="#212121" fill-opacity="1" stroke="#212121" stroke-opacity="1" stroke-width="1" stroke-linecap="square" stroke-linejoin="bevel" transform="matrix(0.49985,0,0,0.499751,438.868,471.265)"
font-family="Helvetica" font-size="22" font-weight="400" font-style="normal" 
>
<text fill="#212121" fill-opacity="1" stroke="none" xml:space="preserve" x="0" y="-0.0625" font-family="Helvetica" font-size="22" font-weight="400" font-style="normal" 
 > [rad/s]</text>
</g>

<g fill="#212121" fill-opacity="1" stroke="#212121" stroke-opacity="1" stroke-width="1" stroke-linecap="butt" stroke-linejoin="round" transform="matrix(0.49985,0,0,0.499751,0,0)"
font-family="Helvetica" font-size="22" font-weight="400" font-style="normal" 
>
<polyline fill="none" vector-effect="none" points="217,893 1508,893 " />
<polyline fill="none" vector-effect="none" points="217,75 1508,75 " />
<polyline fill="none" vector-effect="none" points="248.681,893 248.681,880.09 " />
<polyline fill="none" vector-effect="none" points="248.681,87.91 248.681,75 " />
<polyline fill="none" vector-effect="none" points="453.287,893 453.287,880.09 " />
<polyline fill="none" vector-effect="none" points="453.287,87.91 453.287,75 " />
<polyline fill="none" vector-effect="none" points="657.894,893 657.894,880.09 " />
<polyline fill="none" vector-effect="none" points="657.894,87.91 657.894,75 " />
<polyline fill="none" vector-effect="none" points="862.5,893 862.5,880.09 " />
<polyline fill="none" vector-effect="none" points="862.5,87.91 862.5,75 " />
<polyline fill="none" vector-effect="none" points="1067.11,893 1067.11,880.09 " />
<polyline fill="none" vector-effect="none" points="1067.11,87.91 1067.11,75 " />
<polyline fill="none" vector-effect="none" points="1271.71,893 1271.71,880.09 " />
<polyline fill="none" vector-effect="none" points="1271.71,87.91 1271.71,75 " />
<polyline fill="none" vector-effect="none" points="1476.32,893 1476.32,880.09 " />
<polyline fill="none" vector-effect="none" points="1476.32,87.91 1476.32,75 " />
</g>

<g fill="#212121" fill-opacity="1" stroke="#212121" stroke-opacity="1" stroke-width="1" stroke-linecap="square" stroke-linejoin="bevel" transform="matrix(0.49985,0,0,0.499751,117.055,457.772)"
font-family="Helvetica" font-size="20" font-weight="400" font-style="normal" 
>
<text fill="#212121" fill-opacity="1" stroke="none" xml:space="preserve" x="0" y="0.390625" font-family="Helvetica" font-size="20" font-weight="400" font-style="normal" 
 >-15</text>
</g>

<g fill="#212121" fill-opacity="1" stroke="#212121" stroke-opacity="1" stroke-width="1" stroke-linecap="square" stroke-linejoin="bevel" transform="matrix(0.49985,0,0,0.499751,219.328,457.772)"
font-family="Helvetica" font-size="20" font-weight="400" font-style="normal" 
>
<text fill="#212121" fill-opacity="1" stroke="none" xml:space="preserve" x="0" y="0.390625" font-family="Helvetica" font-size="20" font-weight="400" font-style="normal" 
 >-10</text>
</g>

<g fill="#212121" fill-opacity="1" stroke="#212121" stroke-opacity="1" stroke-width="1" stroke-linecap="square" stroke-linejoin="bevel" transform="matrix(0.49985,0,0,0.499751,324.35,457.772)"
font-family="Helvetica" font-size="20" font-weight="400" font-style="normal" 
>
<text fill="#212121" fill-opacity="1" stroke="none" xml:space="preserve" x="0" y="0.390625" font-family="Helvetica" font-size="20" font-weight="400" font-style="normal" 
 >-5</text>
</g>

<g fill="#212121" fill-opacity="1" stroke="#212121" stroke-opacity="1" stroke-width="1" stroke-linecap="square" stroke-linejoin="bevel" transform="matrix(0.49985,0,0,0.499751,428.371,457.772)"
font-family="Helvetica" font-size="20" font-weight="400" font-style="normal" 
>
<text fill="#212121" fill-opacity="1" stroke="none" xml:space="preserve" x="0" y="0.390625" font-family="Helvetica" font-size="20" font-weight="400" font-style="normal" 
 >0</text>
</g>

<g fill="#212121" fill-opacity="1" stroke="#212121" stroke-opacity="1" stroke-width="1" stroke-linecap="square" stroke-linejoin="bevel" transform="matrix(0.49985,0,0,0.499751,530.644,457.772)"
font-family="Helvetica" font-size="20" font-weight="400" font-style="normal" 
>
<text fill="#212121" fill-opacity="1" stroke="none" xml:space="preserve" x="0" y="0.390625" font-family="Helvetica" font-size="20" font-weight="400" font-style="normal" 
 >5</text>
</g>

<g fill="#212121" fill-opacity="1" stroke="#212121" stroke-opacity="1" stroke-width="1" stroke-linecap="square" stroke-linejoin="bevel" transform="matrix(0.49985,0,0,0.499751,630.167,457.772)"
font-family="Helvetica" font-size="20" font-weight="400" font-style="normal" 
>
<text fill="#212121" fill-opacity="1" stroke="none" xml:space="preserve" x="0" y="0.390625" font-family="Helvetica" font-size="20" font-weight="400" font-style="normal" 
 >10</text>
</g>

<g fill="#212121" fill-opacity="1" stroke="#212121" stroke-opacity="1" stroke-width="1" stroke-linecap="square" stroke-linejoin="bevel" transform="matrix(0.49985,0,0,0.499751,732.44,457.772)"
font-family="Helvetica" font-size="20" font-weight="400" font-style="normal" 
>
<text fill="#212121" fill-opacity="1" stroke="none" xml:space="preserve" x="0" y="0.390625" font-family="Helvetica" font-size="20" font-weight="400" font-style="normal" 
 >15</text>
</g>
</g>
</svg>