<?xml version="1.0" encoding="UTF-8" standalone="no"?>
<svg width="294.217mm" height="177.094mm"
 viewBox="0 0 834 502"
 xmlns="http://www.w3.org/2000/svg" xmlns:xlink="http://www.w3.org/1999/xlink"  version="1.2" baseProfile="tiny">
<title>Qt SVG Document</title>
<desc>MATLAB, The MathWorks, Inc. Version 25.1.0.2833191 R2025a Prerelease Update 2</desc>
<defs>
</defs>
<g fill="none" stroke="black" stroke-width="1" fill-rule="evenodd" stroke-linecap="square" stroke-linejoin="bevel" >

<g fill="#ffffff" fill-opacity="1" stroke="none" transform="matrix(0.49985,0,0,0.499751,0,0)"
font-family=".AppleSystemUIFont" font-size="13" font-weight="400" font-style="normal" 
>
<path vector-effect="none" fill-rule="evenodd" d="M0,0 L1668,0 L1668,1005 L0,1005 L0,0"/>
</g>

<g fill="#ffffff" fill-opacity="1" stroke="none" transform="matrix(4.9985e-05,0,0,4.99751e-05,0,0)"
font-family=".AppleSystemUIFont" font-size="13" font-weight="400" font-style="normal" 
>
<path vector-effect="none" fill-rule="evenodd" d="M2.17e+06,750000 L2.17e+06,8.93e+06 L1.508e+07,8.93e+06 L1.508e+07,750000 L2.17e+06,750000"/>
</g>

<g fill="#212121" fill-opacity="1" stroke="#212121" stroke-opacity="1" stroke-width="1" stroke-linecap="square" stroke-linejoin="bevel" transform="matrix(0,-0.499751,0.49985,0,68.4795,253.374)"
font-family="Helvetica" font-size="22" font-weight="400" font-style="normal" 
>
<text fill="#212121" fill-opacity="1" stroke="none" xml:space="preserve" x="0" y="-0.0625" font-family="Helvetica" font-size="22" font-weight="400" font-style="normal" 
 >|C</text>
</g>

<g fill="#212121" fill-opacity="1" stroke="#212121" stroke-opacity="1" stroke-width="1" stroke-linecap="square" stroke-linejoin="bevel" transform="matrix(0,-0.499751,0.49985,0,73.9778,242.379)"
font-family="Helvetica" font-size="17" font-weight="400" font-style="normal" 
>
<text fill="#212121" fill-opacity="1" stroke="none" xml:space="preserve" x="0" y="0.078125" font-family="Helvetica" font-size="17" font-weight="400" font-style="normal" 
 >k</text>
</g>

<g fill="#212121" fill-opacity="1" stroke="#212121" stroke-opacity="1" stroke-width="1" stroke-linecap="square" stroke-linejoin="bevel" transform="matrix(0,-0.499751,0.49985,0,68.4795,237.881)"
font-family="Helvetica" font-size="22" font-weight="400" font-style="normal" 
>
<text fill="#212121" fill-opacity="1" stroke="none" xml:space="preserve" x="0" y="-0.0625" font-family="Helvetica" font-size="22" font-weight="400" font-style="normal" 
 >|</text>
</g>

<g fill="#212121" fill-opacity="1" stroke="#212121" stroke-opacity="1" stroke-width="1" stroke-linecap="square" stroke-linejoin="bevel" transform="matrix(0,-0.499751,0.49985,0,62.9811,234.883)"
font-family="Helvetica" font-size="17" font-weight="400" font-style="normal" 
>
<text fill="#212121" fill-opacity="1" stroke="none" xml:space="preserve" x="0" y="0.078125" font-family="Helvetica" font-size="17" font-weight="400" font-style="normal" 
 >2</text>
</g>

<g fill="#212121" fill-opacity="1" stroke="#212121" stroke-opacity="1" stroke-width="1" stroke-linecap="butt" stroke-linejoin="round" transform="matrix(0.49985,0,0,0.499751,0,0)"
font-family="Helvetica" font-size="17" font-weight="400" font-style="normal" 
>
<polyline fill="none" vector-effect="none" points="217,893 217,75 " />
<polyline fill="none" vector-effect="none" points="1508,893 1508,75 " />
<polyline fill="none" vector-effect="none" points="217,893 229.91,893 " />
<polyline fill="none" vector-effect="none" points="1495.09,893 1508,893 " />
<polyline fill="none" vector-effect="none" points="217,756.667 229.91,756.667 " />
<polyline fill="none" vector-effect="none" points="1495.09,756.667 1508,756.667 " />
<polyline fill="none" vector-effect="none" points="217,620.333 229.91,620.333 " />
<polyline fill="none" vector-effect="none" points="1495.09,620.333 1508,620.333 " />
<polyline fill="none" vector-effect="none" points="217,484 229.91,484 " />
<polyline fill="none" vector-effect="none" points="1495.09,484 1508,484 " />
<polyline fill="none" vector-effect="none" points="217,347.667 229.91,347.667 " />
<polyline fill="none" vector-effect="none" points="1495.09,347.667 1508,347.667 " />
<polyline fill="none" vector-effect="none" points="217,211.333 229.91,211.333 " />
<polyline fill="none" vector-effect="none" points="1495.09,211.333 1508,211.333 " />
<polyline fill="none" vector-effect="none" points="217,75 229.91,75 " />
<polyline fill="none" vector-effect="none" points="1495.09,75 1508,75 " />
</g>

<g fill="#212121" fill-opacity="1" stroke="#212121" stroke-opacity="1" stroke-width="1" stroke-linecap="square" stroke-linejoin="bevel" transform="matrix(0.49985,0,0,0.499751,98.9703,448.776)"
font-family="Helvetica" font-size="20" font-weight="400" font-style="normal" 
>
<text fill="#212121" fill-opacity="1" stroke="none" xml:space="preserve" x="0" y="0.390625" font-family="Helvetica" font-size="20" font-weight="400" font-style="normal" 
 >0</text>
</g>

<g fill="#212121" fill-opacity="1" stroke="#212121" stroke-opacity="1" stroke-width="1" stroke-linecap="square" stroke-linejoin="bevel" transform="matrix(0.49985,0,0,0.499751,79.4761,380.644)"
font-family="Helvetica" font-size="20" font-weight="400" font-style="normal" 
>
<text fill="#212121" fill-opacity="1" stroke="none" xml:space="preserve" x="0" y="0.390625" font-family="Helvetica" font-size="20" font-weight="400" font-style="normal" 
 >0.002</text>
</g>

<g fill="#212121" fill-opacity="1" stroke="#212121" stroke-opacity="1" stroke-width="1" stroke-linecap="square" stroke-linejoin="bevel" transform="matrix(0.49985,0,0,0.499751,79.4761,312.511)"
font-family="Helvetica" font-size="20" font-weight="400" font-style="normal" 
>
<text fill="#212121" fill-opacity="1" stroke="none" xml:space="preserve" x="0" y="0.390625" font-family="Helvetica" font-size="20" font-weight="400" font-style="normal" 
 >0.004</text>
</g>

<g fill="#212121" fill-opacity="1" stroke="#212121" stroke-opacity="1" stroke-width="1" stroke-linecap="square" stroke-linejoin="bevel" transform="matrix(0.49985,0,0,0.499751,79.4761,244.378)"
font-family="Helvetica" font-size="20" font-weight="400" font-style="normal" 
>
<text fill="#212121" fill-opacity="1" stroke="none" xml:space="preserve" x="0" y="0.390625" font-family="Helvetica" font-size="20" font-weight="400" font-style="normal" 
 >0.006</text>
</g>

<g fill="#212121" fill-opacity="1" stroke="#212121" stroke-opacity="1" stroke-width="1" stroke-linecap="square" stroke-linejoin="bevel" transform="matrix(0.49985,0,0,0.499751,79.4761,176.245)"
font-family="Helvetica" font-size="20" font-weight="400" font-style="normal" 
>
<text fill="#212121" fill-opacity="1" stroke="none" xml:space="preserve" x="0" y="0.390625" font-family="Helvetica" font-size="20" font-weight="400" font-style="normal" 
 >0.008</text>
</g>

<g fill="#212121" fill-opacity="1" stroke="#212121" stroke-opacity="1" stroke-width="1" stroke-linecap="square" stroke-linejoin="bevel" transform="matrix(0.49985,0,0,0.499751,84.9745,108.113)"
font-family="Helvetica" font-size="20" font-weight="400" font-style="normal" 
>
<text fill="#212121" fill-opacity="1" stroke="none" xml:space="preserve" x="0" y="0.390625" font-family="Helvetica" font-size="20" font-weight="400" font-style="normal" 
 >0.01</text>
</g>

<g fill="#212121" fill-opacity="1" stroke="#212121" stroke-opacity="1" stroke-width="1" stroke-linecap="square" stroke-linejoin="bevel" transform="matrix(0.49985,0,0,0.499751,79.4761,39.9801)"
font-family="Helvetica" font-size="20" font-weight="400" font-style="normal" 
>
<text fill="#212121" fill-opacity="1" stroke="none" xml:space="preserve" x="0" y="0.390625" font-family="Helvetica" font-size="20" font-weight="400" font-style="normal" 
 >0.012</text>
</g>

<g fill="#212121" fill-opacity="1" stroke="#212121" stroke-opacity="1" stroke-width="1" stroke-linecap="square" stroke-linejoin="bevel" transform="matrix(0.49985,0,0,0.499751,337.649,33.6083)"
font-family="Helvetica" font-size="22" font-weight="700" font-style="normal" 
>
<text fill="#212121" fill-opacity="1" stroke="none" xml:space="preserve" x="0" y="-0.0625" font-family="Helvetica" font-size="22" font-weight="700" font-style="normal" 
 >Power Spectrum for pulse width T/2</text>
</g>

<g fill="#212121" fill-opacity="1" stroke="#212121" stroke-opacity="1" stroke-width="1" stroke-linecap="butt" stroke-linejoin="round" transform="matrix(0.49985,0,0,0.499751,0,0)"
font-family="Helvetica" font-size="22" font-weight="700" font-style="normal" 
>
<polyline fill="none" vector-effect="none" points="217,893 1508,893 " />
</g>

<g fill="#1171be" fill-opacity="1" stroke="#1171be" stroke-opacity="1" stroke-width="1" stroke-linecap="butt" stroke-linejoin="round" transform="matrix(0.49985,0,0,0.499751,0,0)"
font-family="Helvetica" font-size="22" font-weight="700" font-style="normal" 
>
<polyline fill="none" vector-effect="none" points="248.681,893 248.681,862.303 " />
<polyline fill="none" vector-effect="none" points="289.602,893 289.602,861.127 " />
<polyline fill="none" vector-effect="none" points="330.524,893 330.524,866.251 " />
<polyline fill="none" vector-effect="none" points="371.445,893 371.445,876.429 " />
<polyline fill="none" vector-effect="none" points="412.366,893 412.366,887.549 " />
<polyline fill="none" vector-effect="none" points="494.209,893 494.209,884.858 " />
<polyline fill="none" vector-effect="none" points="535.13,893 535.13,855.715 " />
<polyline fill="none" vector-effect="none" points="576.051,893 576.051,800.745 " />
<polyline fill="none" vector-effect="none" points="616.972,893 616.972,719.467 " />
<polyline fill="none" vector-effect="none" points="657.894,893 657.894,616.731 " />
<polyline fill="none" vector-effect="none" points="698.815,893 698.815,502.55 " />
<polyline fill="none" vector-effect="none" points="739.736,893 739.736,390.721 " />
<polyline fill="none" vector-effect="none" points="780.657,893 780.657,296.446 " />
<polyline fill="none" vector-effect="none" points="821.579,893 821.579,233.466 " />
<polyline fill="none" vector-effect="none" points="862.5,893 862.5,211.333 " />
<polyline fill="none" vector-effect="none" points="903.421,893 903.421,233.466 " />
<polyline fill="none" vector-effect="none" points="944.343,893 944.343,296.446 " />
<polyline fill="none" vector-effect="none" points="985.264,893 985.264,390.721 " />
<polyline fill="none" vector-effect="none" points="1026.19,893 1026.19,502.55 " />
<polyline fill="none" vector-effect="none" points="1067.11,893 1067.11,616.731 " />
<polyline fill="none" vector-effect="none" points="1108.03,893 1108.03,719.467 " />
<polyline fill="none" vector-effect="none" points="1148.95,893 1148.95,800.745 " />
<polyline fill="none" vector-effect="none" points="1189.87,893 1189.87,855.715 " />
<polyline fill="none" vector-effect="none" points="1230.79,893 1230.79,884.858 " />
<polyline fill="none" vector-effect="none" points="1312.63,893 1312.63,887.549 " />
<polyline fill="none" vector-effect="none" points="1353.56,893 1353.56,876.429 " />
<polyline fill="none" vector-effect="none" points="1394.48,893 1394.48,866.251 " />
<polyline fill="none" vector-effect="none" points="1435.4,893 1435.4,861.127 " />
<polyline fill="none" vector-effect="none" points="1476.32,893 1476.32,862.303 " />
</g>

<g fill="none" stroke="#1171be" stroke-opacity="1" stroke-width="1" stroke-linecap="butt" stroke-linejoin="miter" stroke-miterlimit="2" transform="matrix(0.49985,0,0,0.499751,0,0)"
font-family="Helvetica" font-size="22" font-weight="700" font-style="normal" 
>
<path vector-effect="none" fill-rule="evenodd" d="M254.681,862.303 C254.681,858.99 251.995,856.303 248.681,856.303 C245.367,856.303 242.681,858.99 242.681,862.303 C242.681,865.617 245.367,868.303 248.681,868.303 C251.995,868.303 254.681,865.617 254.681,862.303 "/>
</g>

<g fill="none" stroke="#1171be" stroke-opacity="1" stroke-width="1" stroke-linecap="butt" stroke-linejoin="miter" stroke-miterlimit="2" transform="matrix(0.49985,0,0,0.499751,0,0)"
font-family="Helvetica" font-size="22" font-weight="700" font-style="normal" 
>
<path vector-effect="none" fill-rule="evenodd" d="M295.602,861.127 C295.602,857.813 292.916,855.127 289.602,855.127 C286.289,855.127 283.602,857.813 283.602,861.127 C283.602,864.44 286.289,867.127 289.602,867.127 C292.916,867.127 295.602,864.44 295.602,861.127 "/>
</g>

<g fill="none" stroke="#1171be" stroke-opacity="1" stroke-width="1" stroke-linecap="butt" stroke-linejoin="miter" stroke-miterlimit="2" transform="matrix(0.49985,0,0,0.499751,0,0)"
font-family="Helvetica" font-size="22" font-weight="700" font-style="normal" 
>
<path vector-effect="none" fill-rule="evenodd" d="M336.524,866.251 C336.524,862.938 333.837,860.251 330.524,860.251 C327.21,860.251 324.524,862.938 324.524,866.251 C324.524,869.565 327.21,872.251 330.524,872.251 C333.837,872.251 336.524,869.565 336.524,866.251 "/>
</g>

<g fill="none" stroke="#1171be" stroke-opacity="1" stroke-width="1" stroke-linecap="butt" stroke-linejoin="miter" stroke-miterlimit="2" transform="matrix(0.49985,0,0,0.499751,0,0)"
font-family="Helvetica" font-size="22" font-weight="700" font-style="normal" 
>
<path vector-effect="none" fill-rule="evenodd" d="M377.445,876.429 C377.445,873.115 374.759,870.429 371.445,870.429 C368.131,870.429 365.445,873.115 365.445,876.429 C365.445,879.743 368.131,882.429 371.445,882.429 C374.759,882.429 377.445,879.743 377.445,876.429 "/>
</g>

<g fill="none" stroke="#1171be" stroke-opacity="1" stroke-width="1" stroke-linecap="butt" stroke-linejoin="miter" stroke-miterlimit="2" transform="matrix(0.49985,0,0,0.499751,0,0)"
font-family="Helvetica" font-size="22" font-weight="700" font-style="normal" 
>
<path vector-effect="none" fill-rule="evenodd" d="M418.366,887.549 C418.366,884.236 415.68,881.549 412.366,881.549 C409.052,881.549 406.366,884.236 406.366,887.549 C406.366,890.863 409.052,893.549 412.366,893.549 C415.68,893.549 418.366,890.863 418.366,887.549 "/>
</g>

<g fill="none" stroke="#1171be" stroke-opacity="1" stroke-width="1" stroke-linecap="butt" stroke-linejoin="miter" stroke-miterlimit="2" transform="matrix(0.49985,0,0,0.499751,0,0)"
font-family="Helvetica" font-size="22" font-weight="700" font-style="normal" 
>
<path vector-effect="none" fill-rule="evenodd" d="M459.287,893 C459.287,889.686 456.601,887 453.287,887 C449.974,887 447.287,889.686 447.287,893 C447.287,896.314 449.974,899 453.287,899 C456.601,899 459.287,896.314 459.287,893 "/>
</g>

<g fill="none" stroke="#1171be" stroke-opacity="1" stroke-width="1" stroke-linecap="butt" stroke-linejoin="miter" stroke-miterlimit="2" transform="matrix(0.49985,0,0,0.499751,0,0)"
font-family="Helvetica" font-size="22" font-weight="700" font-style="normal" 
>
<path vector-effect="none" fill-rule="evenodd" d="M500.209,884.858 C500.209,881.544 497.522,878.858 494.209,878.858 C490.895,878.858 488.209,881.544 488.209,884.858 C488.209,888.171 490.895,890.858 494.209,890.858 C497.522,890.858 500.209,888.171 500.209,884.858 "/>
</g>

<g fill="none" stroke="#1171be" stroke-opacity="1" stroke-width="1" stroke-linecap="butt" stroke-linejoin="miter" stroke-miterlimit="2" transform="matrix(0.49985,0,0,0.499751,0,0)"
font-family="Helvetica" font-size="22" font-weight="700" font-style="normal" 
>
<path vector-effect="none" fill-rule="evenodd" d="M541.13,855.715 C541.13,852.402 538.444,849.715 535.13,849.715 C531.816,849.715 529.13,852.402 529.13,855.715 C529.13,859.029 531.816,861.715 535.13,861.715 C538.444,861.715 541.13,859.029 541.13,855.715 "/>
</g>

<g fill="none" stroke="#1171be" stroke-opacity="1" stroke-width="1" stroke-linecap="butt" stroke-linejoin="miter" stroke-miterlimit="2" transform="matrix(0.49985,0,0,0.499751,0,0)"
font-family="Helvetica" font-size="22" font-weight="700" font-style="normal" 
>
<path vector-effect="none" fill-rule="evenodd" d="M582.051,800.745 C582.051,797.431 579.365,794.745 576.051,794.745 C572.737,794.745 570.051,797.431 570.051,800.745 C570.051,804.058 572.737,806.745 576.051,806.745 C579.365,806.745 582.051,804.058 582.051,800.745 "/>
</g>

<g fill="none" stroke="#1171be" stroke-opacity="1" stroke-width="1" stroke-linecap="butt" stroke-linejoin="miter" stroke-miterlimit="2" transform="matrix(0.49985,0,0,0.499751,0,0)"
font-family="Helvetica" font-size="22" font-weight="700" font-style="normal" 
>
<path vector-effect="none" fill-rule="evenodd" d="M622.972,719.467 C622.972,716.153 620.286,713.467 616.972,713.467 C613.659,713.467 610.972,716.153 610.972,719.467 C610.972,722.781 613.659,725.467 616.972,725.467 C620.286,725.467 622.972,722.781 622.972,719.467 "/>
</g>

<g fill="none" stroke="#1171be" stroke-opacity="1" stroke-width="1" stroke-linecap="butt" stroke-linejoin="miter" stroke-miterlimit="2" transform="matrix(0.49985,0,0,0.499751,0,0)"
font-family="Helvetica" font-size="22" font-weight="700" font-style="normal" 
>
<path vector-effect="none" fill-rule="evenodd" d="M663.894,616.731 C663.894,613.417 661.207,610.731 657.894,610.731 C654.58,610.731 651.894,613.417 651.894,616.731 C651.894,620.045 654.58,622.731 657.894,622.731 C661.207,622.731 663.894,620.045 663.894,616.731 "/>
</g>

<g fill="none" stroke="#1171be" stroke-opacity="1" stroke-width="1" stroke-linecap="butt" stroke-linejoin="miter" stroke-miterlimit="2" transform="matrix(0.49985,0,0,0.499751,0,0)"
font-family="Helvetica" font-size="22" font-weight="700" font-style="normal" 
>
<path vector-effect="none" fill-rule="evenodd" d="M704.815,502.55 C704.815,499.237 702.129,496.55 698.815,496.55 C695.501,496.55 692.815,499.237 692.815,502.55 C692.815,505.864 695.501,508.55 698.815,508.55 C702.129,508.55 704.815,505.864 704.815,502.55 "/>
</g>

<g fill="none" stroke="#1171be" stroke-opacity="1" stroke-width="1" stroke-linecap="butt" stroke-linejoin="miter" stroke-miterlimit="2" transform="matrix(0.49985,0,0,0.499751,0,0)"
font-family="Helvetica" font-size="22" font-weight="700" font-style="normal" 
>
<path vector-effect="none" fill-rule="evenodd" d="M745.736,390.721 C745.736,387.407 743.05,384.721 739.736,384.721 C736.422,384.721 733.736,387.407 733.736,390.721 C733.736,394.035 736.422,396.721 739.736,396.721 C743.05,396.721 745.736,394.035 745.736,390.721 "/>
</g>

<g fill="none" stroke="#1171be" stroke-opacity="1" stroke-width="1" stroke-linecap="butt" stroke-linejoin="miter" stroke-miterlimit="2" transform="matrix(0.49985,0,0,0.499751,0,0)"
font-family="Helvetica" font-size="22" font-weight="700" font-style="normal" 
>
<path vector-effect="none" fill-rule="evenodd" d="M786.657,296.446 C786.657,293.132 783.971,290.446 780.657,290.446 C777.344,290.446 774.657,293.132 774.657,296.446 C774.657,299.76 777.344,302.446 780.657,302.446 C783.971,302.446 786.657,299.76 786.657,296.446 "/>
</g>

<g fill="none" stroke="#1171be" stroke-opacity="1" stroke-width="1" stroke-linecap="butt" stroke-linejoin="miter" stroke-miterlimit="2" transform="matrix(0.49985,0,0,0.499751,0,0)"
font-family="Helvetica" font-size="22" font-weight="700" font-style="normal" 
>
<path vector-effect="none" fill-rule="evenodd" d="M827.579,233.466 C827.579,230.153 824.892,227.466 821.579,227.466 C818.265,227.466 815.579,230.153 815.579,233.466 C815.579,236.78 818.265,239.466 821.579,239.466 C824.892,239.466 827.579,236.78 827.579,233.466 "/>
</g>

<g fill="none" stroke="#1171be" stroke-opacity="1" stroke-width="1" stroke-linecap="butt" stroke-linejoin="miter" stroke-miterlimit="2" transform="matrix(0.49985,0,0,0.499751,0,0)"
font-family="Helvetica" font-size="22" font-weight="700" font-style="normal" 
>
<path vector-effect="none" fill-rule="evenodd" d="M868.5,211.333 C868.5,208.02 865.814,205.333 862.5,205.333 C859.186,205.333 856.5,208.02 856.5,211.333 C856.5,214.647 859.186,217.333 862.5,217.333 C865.814,217.333 868.5,214.647 868.5,211.333 "/>
</g>

<g fill="none" stroke="#1171be" stroke-opacity="1" stroke-width="1" stroke-linecap="butt" stroke-linejoin="miter" stroke-miterlimit="2" transform="matrix(0.49985,0,0,0.499751,0,0)"
font-family="Helvetica" font-size="22" font-weight="700" font-style="normal" 
>
<path vector-effect="none" fill-rule="evenodd" d="M909.421,233.466 C909.421,230.153 906.735,227.466 903.421,227.466 C900.108,227.466 897.421,230.153 897.421,233.466 C897.421,236.78 900.108,239.466 903.421,239.466 C906.735,239.466 909.421,236.78 909.421,233.466 "/>
</g>

<g fill="none" stroke="#1171be" stroke-opacity="1" stroke-width="1" stroke-linecap="butt" stroke-linejoin="miter" stroke-miterlimit="2" transform="matrix(0.49985,0,0,0.499751,0,0)"
font-family="Helvetica" font-size="22" font-weight="700" font-style="normal" 
>
<path vector-effect="none" fill-rule="evenodd" d="M950.343,296.446 C950.343,293.132 947.656,290.446 944.343,290.446 C941.029,290.446 938.343,293.132 938.343,296.446 C938.343,299.76 941.029,302.446 944.343,302.446 C947.656,302.446 950.343,299.76 950.343,296.446 "/>
</g>

<g fill="none" stroke="#1171be" stroke-opacity="1" stroke-width="1" stroke-linecap="butt" stroke-linejoin="miter" stroke-miterlimit="2" transform="matrix(0.49985,0,0,0.499751,0,0)"
font-family="Helvetica" font-size="22" font-weight="700" font-style="normal" 
>
<path vector-effect="none" fill-rule="evenodd" d="M991.264,390.721 C991.264,387.407 988.578,384.721 985.264,384.721 C981.95,384.721 979.264,387.407 979.264,390.721 C979.264,394.035 981.95,396.721 985.264,396.721 C988.578,396.721 991.264,394.035 991.264,390.721 "/>
</g>

<g fill="none" stroke="#1171be" stroke-opacity="1" stroke-width="1" stroke-linecap="butt" stroke-linejoin="miter" stroke-miterlimit="2" transform="matrix(0.49985,0,0,0.499751,0,0)"
font-family="Helvetica" font-size="22" font-weight="700" font-style="normal" 
>
<path vector-effect="none" fill-rule="evenodd" d="M1032.19,502.55 C1032.19,499.237 1029.5,496.55 1026.19,496.55 C1022.87,496.55 1020.19,499.237 1020.19,502.55 C1020.19,505.864 1022.87,508.55 1026.19,508.55 C1029.5,508.55 1032.19,505.864 1032.19,502.55 "/>
</g>

<g fill="none" stroke="#1171be" stroke-opacity="1" stroke-width="1" stroke-linecap="butt" stroke-linejoin="miter" stroke-miterlimit="2" transform="matrix(0.49985,0,0,0.499751,0,0)"
font-family="Helvetica" font-size="22" font-weight="700" font-style="normal" 
>
<path vector-effect="none" fill-rule="evenodd" d="M1073.11,616.731 C1073.11,613.417 1070.42,610.731 1067.11,610.731 C1063.79,610.731 1061.11,613.417 1061.11,616.731 C1061.11,620.045 1063.79,622.731 1067.11,622.731 C1070.42,622.731 1073.11,620.045 1073.11,616.731 "/>
</g>

<g fill="none" stroke="#1171be" stroke-opacity="1" stroke-width="1" stroke-linecap="butt" stroke-linejoin="miter" stroke-miterlimit="2" transform="matrix(0.49985,0,0,0.499751,0,0)"
font-family="Helvetica" font-size="22" font-weight="700" font-style="normal" 
>
<path vector-effect="none" fill-rule="evenodd" d="M1114.03,719.467 C1114.03,716.153 1111.34,713.467 1108.03,713.467 C1104.71,713.467 1102.03,716.153 1102.03,719.467 C1102.03,722.781 1104.71,725.467 1108.03,725.467 C1111.34,725.467 1114.03,722.781 1114.03,719.467 "/>
</g>

<g fill="none" stroke="#1171be" stroke-opacity="1" stroke-width="1" stroke-linecap="butt" stroke-linejoin="miter" stroke-miterlimit="2" transform="matrix(0.49985,0,0,0.499751,0,0)"
font-family="Helvetica" font-size="22" font-weight="700" font-style="normal" 
>
<path vector-effect="none" fill-rule="evenodd" d="M1154.95,800.745 C1154.95,797.431 1152.26,794.745 1148.95,794.745 C1145.64,794.745 1142.95,797.431 1142.95,800.745 C1142.95,804.058 1145.64,806.745 1148.95,806.745 C1152.26,806.745 1154.95,804.058 1154.95,800.745 "/>
</g>

<g fill="none" stroke="#1171be" stroke-opacity="1" stroke-width="1" stroke-linecap="butt" stroke-linejoin="miter" stroke-miterlimit="2" transform="matrix(0.49985,0,0,0.499751,0,0)"
font-family="Helvetica" font-size="22" font-weight="700" font-style="normal" 
>
<path vector-effect="none" fill-rule="evenodd" d="M1195.87,855.715 C1195.87,852.402 1193.18,849.715 1189.87,849.715 C1186.56,849.715 1183.87,852.402 1183.87,855.715 C1183.87,859.029 1186.56,861.715 1189.87,861.715 C1193.18,861.715 1195.87,859.029 1195.87,855.715 "/>
</g>

<g fill="none" stroke="#1171be" stroke-opacity="1" stroke-width="1" stroke-linecap="butt" stroke-linejoin="miter" stroke-miterlimit="2" transform="matrix(0.49985,0,0,0.499751,0,0)"
font-family="Helvetica" font-size="22" font-weight="700" font-style="normal" 
>
<path vector-effect="none" fill-rule="evenodd" d="M1236.79,884.858 C1236.79,881.544 1234.11,878.858 1230.79,878.858 C1227.48,878.858 1224.79,881.544 1224.79,884.858 C1224.79,888.171 1227.48,890.858 1230.79,890.858 C1234.11,890.858 1236.79,888.171 1236.79,884.858 "/>
</g>

<g fill="none" stroke="#1171be" stroke-opacity="1" stroke-width="1" stroke-linecap="butt" stroke-linejoin="miter" stroke-miterlimit="2" transform="matrix(0.49985,0,0,0.499751,0,0)"
font-family="Helvetica" font-size="22" font-weight="700" font-style="normal" 
>
<path vector-effect="none" fill-rule="evenodd" d="M1277.71,893 C1277.71,889.686 1275.03,887 1271.71,887 C1268.4,887 1265.71,889.686 1265.71,893 C1265.71,896.314 1268.4,899 1271.71,899 C1275.03,899 1277.71,896.314 1277.71,893 "/>
</g>

<g fill="none" stroke="#1171be" stroke-opacity="1" stroke-width="1" stroke-linecap="butt" stroke-linejoin="miter" stroke-miterlimit="2" transform="matrix(0.49985,0,0,0.499751,0,0)"
font-family="Helvetica" font-size="22" font-weight="700" font-style="normal" 
>
<path vector-effect="none" fill-rule="evenodd" d="M1318.63,887.549 C1318.63,884.236 1315.95,881.549 1312.63,881.549 C1309.32,881.549 1306.63,884.236 1306.63,887.549 C1306.63,890.863 1309.32,893.549 1312.63,893.549 C1315.95,893.549 1318.63,890.863 1318.63,887.549 "/>
</g>

<g fill="none" stroke="#1171be" stroke-opacity="1" stroke-width="1" stroke-linecap="butt" stroke-linejoin="miter" stroke-miterlimit="2" transform="matrix(0.49985,0,0,0.499751,0,0)"
font-family="Helvetica" font-size="22" font-weight="700" font-style="normal" 
>
<path vector-effect="none" fill-rule="evenodd" d="M1359.56,876.429 C1359.56,873.115 1356.87,870.429 1353.56,870.429 C1350.24,870.429 1347.56,873.115 1347.56,876.429 C1347.56,879.743 1350.24,882.429 1353.56,882.429 C1356.87,882.429 1359.56,879.743 1359.56,876.429 "/>
</g>

<g fill="none" stroke="#1171be" stroke-opacity="1" stroke-width="1" stroke-linecap="butt" stroke-linejoin="miter" stroke-miterlimit="2" transform="matrix(0.49985,0,0,0.499751,0,0)"
font-family="Helvetica" font-size="22" font-weight="700" font-style="normal" 
>
<path vector-effect="none" fill-rule="evenodd" d="M1400.48,866.251 C1400.48,862.938 1397.79,860.251 1394.48,860.251 C1391.16,860.251 1388.48,862.938 1388.48,866.251 C1388.48,869.565 1391.16,872.251 1394.48,872.251 C1397.79,872.251 1400.48,869.565 1400.48,866.251 "/>
</g>

<g fill="none" stroke="#1171be" stroke-opacity="1" stroke-width="1" stroke-linecap="butt" stroke-linejoin="miter" stroke-miterlimit="2" transform="matrix(0.49985,0,0,0.499751,0,0)"
font-family="Helvetica" font-size="22" font-weight="700" font-style="normal" 
>
<path vector-effect="none" fill-rule="evenodd" d="M1441.4,861.127 C1441.4,857.813 1438.71,855.127 1435.4,855.127 C1432.08,855.127 1429.4,857.813 1429.4,861.127 C1429.4,864.44 1432.08,867.127 1435.4,867.127 C1438.71,867.127 1441.4,864.44 1441.4,861.127 "/>
</g>

<g fill="none" stroke="#1171be" stroke-opacity="1" stroke-width="1" stroke-linecap="butt" stroke-linejoin="miter" stroke-miterlimit="2" transform="matrix(0.49985,0,0,0.499751,0,0)"
font-family="Helvetica" font-size="22" font-weight="700" font-style="normal" 
>
<path vector-effect="none" fill-rule="evenodd" d="M1482.32,862.303 C1482.32,858.99 1479.63,856.303 1476.32,856.303 C1473.01,856.303 1470.32,858.99 1470.32,862.303 C1470.32,865.617 1473.01,868.303 1476.32,868.303 C1479.63,868.303 1482.32,865.617 1482.32,862.303 "/>
</g>

<g fill="#212121" fill-opacity="1" stroke="#212121" stroke-opacity="1" stroke-width="1" stroke-linecap="square" stroke-linejoin="bevel" transform="matrix(0.49985,0,0,0.499751,408.377,471.265)"
font-family="mwb_cmr10" font-size="22" font-weight="400" font-style="normal" 
>
<text fill="#212121" fill-opacity="1" stroke="none" xml:space="preserve" x="0" y="-0.5" font-family="mwb_cmr10" font-size="22" font-weight="400" font-style="normal" 
 >+</text>
</g>

<g fill="#212121" fill-opacity="1" stroke="#212121" stroke-opacity="1" stroke-width="1" stroke-linecap="square" stroke-linejoin="bevel" transform="matrix(0.49985,0,0,0.499751,416.375,476.762)"
font-family="Helvetica" font-size="17" font-weight="400" font-style="normal" 
>
<text fill="#212121" fill-opacity="1" stroke="none" xml:space="preserve" x="0" y="0.078125" font-family="Helvetica" font-size="17" font-weight="400" font-style="normal" 
 >0</text>
</g>

<g fill="#212121" fill-opacity="1" stroke="#212121" stroke-opacity="1" stroke-width="1" stroke-linecap="square" stroke-linejoin="bevel" transform="matrix(0.49985,0,0,0.499751,420.874,471.265)"
font-family="Helvetica" font-size="22" font-weight="400" font-style="normal" 
>
<text fill="#212121" fill-opacity="1" stroke="none" xml:space="preserve" x="0" y="-0.0625" font-family="Helvetica" font-size="22" font-weight="400" font-style="normal" 
 > [rad/s]</text>
</g>

<g fill="#212121" fill-opacity="1" stroke="#212121" stroke-opacity="1" stroke-width="1" stroke-linecap="butt" stroke-linejoin="round" transform="matrix(0.49985,0,0,0.499751,0,0)"
font-family="Helvetica" font-size="22" font-weight="400" font-style="normal" 
>
<polyline fill="none" vector-effect="none" points="217,893 1508,893 " />
<polyline fill="none" vector-effect="none" points="217,75 1508,75 " />
<polyline fill="none" vector-effect="none" points="248.681,893 248.681,880.09 " />
<polyline fill="none" vector-effect="none" points="248.681,87.91 248.681,75 " />
<polyline fill="none" vector-effect="none" points="453.287,893 453.287,880.09 " />
<polyline fill="none" vector-effect="none" points="453.287,87.91 453.287,75 " />
<polyline fill="none" vector-effect="none" points="657.894,893 657.894,880.09 " />
<polyline fill="none" vector-effect="none" points="657.894,87.91 657.894,75 " />
<polyline fill="none" vector-effect="none" points="862.5,893 862.5,880.09 " />
<polyline fill="none" vector-effect="none" points="862.5,87.91 862.5,75 " />
<polyline fill="none" vector-effect="none" points="1067.11,893 1067.11,880.09 " />
<polyline fill="none" vector-effect="none" points="1067.11,87.91 1067.11,75 " />
<polyline fill="none" vector-effect="none" points="1271.71,893 1271.71,880.09 " />
<polyline fill="none" vector-effect="none" points="1271.71,87.91 1271.71,75 " />
<polyline fill="none" vector-effect="none" points="1476.32,893 1476.32,880.09 " />
<polyline fill="none" vector-effect="none" points="1476.32,87.91 1476.32,75 " />
</g>

<g fill="#212121" fill-opacity="1" stroke="#212121" stroke-opacity="1" stroke-width="1" stroke-linecap="square" stroke-linejoin="bevel" transform="matrix(0.49985,0,0,0.499751,117.055,457.772)"
font-family="Helvetica" font-size="20" font-weight="400" font-style="normal" 
>
<text fill="#212121" fill-opacity="1" stroke="none" xml:space="preserve" x="0" y="0.390625" font-family="Helvetica" font-size="20" font-weight="400" font-style="normal" 
 >-15</text>
</g>

<g fill="#212121" fill-opacity="1" stroke="#212121" stroke-opacity="1" stroke-width="1" stroke-linecap="square" stroke-linejoin="bevel" transform="matrix(0.49985,0,0,0.499751,219.328,457.772)"
font-family="Helvetica" font-size="20" font-weight="400" font-style="normal" 
>
<text fill="#212121" fill-opacity="1" stroke="none" xml:space="preserve" x="0" y="0.390625" font-family="Helvetica" font-size="20" font-weight="400" font-style="normal" 
 >-10</text>
</g>

<g fill="#212121" fill-opacity="1" stroke="#212121" stroke-opacity="1" stroke-width="1" stroke-linecap="square" stroke-linejoin="bevel" transform="matrix(0.49985,0,0,0.499751,324.35,457.772)"
font-family="Helvetica" font-size="20" font-weight="400" font-style="normal" 
>
<text fill="#212121" fill-opacity="1" stroke="none" xml:space="preserve" x="0" y="0.390625" font-family="Helvetica" font-size="20" font-weight="400" font-style="normal" 
 >-5</text>
</g>

<g fill="#212121" fill-opacity="1" stroke="#212121" stroke-opacity="1" stroke-width="1" stroke-linecap="square" stroke-linejoin="bevel" transform="matrix(0.49985,0,0,0.499751,428.371,457.772)"
font-family="Helvetica" font-size="20" font-weight="400" font-style="normal" 
>
<text fill="#212121" fill-opacity="1" stroke="none" xml:space="preserve" x="0" y="0.390625" font-family="Helvetica" font-size="20" font-weight="400" font-style="normal" 
 >0</text>
</g>

<g fill="#212121" fill-opacity="1" stroke="#212121" stroke-opacity="1" stroke-width="1" stroke-linecap="square" stroke-linejoin="bevel" transform="matrix(0.49985,0,0,0.499751,530.644,457.772)"
font-family="Helvetica" font-size="20" font-weight="400" font-style="normal" 
>
<text fill="#212121" fill-opacity="1" stroke="none" xml:space="preserve" x="0" y="0.390625" font-family="Helvetica" font-size="20" font-weight="400" font-style="normal" 
 >5</text>
</g>

<g fill="#212121" fill-opacity="1" stroke="#212121" stroke-opacity="1" stroke-width="1" stroke-linecap="square" stroke-linejoin="bevel" transform="matrix(0.49985,0,0,0.499751,630.167,457.772)"
font-family="Helvetica" font-size="20" font-weight="400" font-style="normal" 
>
<text fill="#212121" fill-opacity="1" stroke="none" xml:space="preserve" x="0" y="0.390625" font-family="Helvetica" font-size="20" font-weight="400" font-style="normal" 
 >10</text>
</g>

<g fill="#212121" fill-opacity="1" stroke="#212121" stroke-opacity="1" stroke-width="1" stroke-linecap="square" stroke-linejoin="bevel" transform="matrix(0.49985,0,0,0.499751,732.44,457.772)"
font-family="Helvetica" font-size="20" font-weight="400" font-style="normal" 
>
<text fill="#212121" fill-opacity="1" stroke="none" xml:space="preserve" x="0" y="0.390625" font-family="Helvetica" font-size="20" font-weight="400" font-style="normal" 
 >15</text>
</g>
</g>
</svg>