<?xml version="1.0" encoding="UTF-8" standalone="no"?>
<svg width="294.217mm" height="177.094mm"
 viewBox="0 0 834 502"
 xmlns="http://www.w3.org/2000/svg" xmlns:xlink="http://www.w3.org/1999/xlink"  version="1.2" baseProfile="tiny">
<title>Qt SVG Document</title>
<desc>MATLAB, The MathWorks, Inc. Version 25.1.0.2833191 R2025a Prerelease Update 2</desc>
<defs>
</defs>
<g fill="none" stroke="black" stroke-width="1" fill-rule="evenodd" stroke-linecap="square" stroke-linejoin="bevel" >

<g fill="#ffffff" fill-opacity="1" stroke="none" transform="matrix(0.49985,0,0,0.499751,0,0)"
font-family=".AppleSystemUIFont" font-size="13" font-weight="400" font-style="normal" 
>
<path vector-effect="none" fill-rule="evenodd" d="M0,0 L1668,0 L1668,1005 L0,1005 L0,0"/>
</g>

<g fill="#ffffff" fill-opacity="1" stroke="none" transform="matrix(4.9985e-05,0,0,4.99751e-05,0,0)"
font-family=".AppleSystemUIFont" font-size="13" font-weight="400" font-style="normal" 
>
<path vector-effect="none" fill-rule="evenodd" d="M2.17e+06,750000 L2.17e+06,8.93e+06 L1.508e+07,8.93e+06 L1.508e+07,750000 L2.17e+06,750000"/>
</g>

<g fill="#212121" fill-opacity="1" stroke="#212121" stroke-opacity="1" stroke-width="1" stroke-linecap="butt" stroke-linejoin="round" transform="matrix(0.49985,0,0,0.499751,0,0)"
font-family=".AppleSystemUIFont" font-size="13" font-weight="400" font-style="normal" 
>
<polyline fill="none" vector-effect="none" points="217,893 217,75 " />
<polyline fill="none" vector-effect="none" points="1508,893 1508,75 " />
<polyline fill="none" vector-effect="none" points="217,893 229.91,893 " />
<polyline fill="none" vector-effect="none" points="1495.09,893 1508,893 " />
<polyline fill="none" vector-effect="none" points="217,776.143 229.91,776.143 " />
<polyline fill="none" vector-effect="none" points="1495.09,776.143 1508,776.143 " />
<polyline fill="none" vector-effect="none" points="217,659.286 229.91,659.286 " />
<polyline fill="none" vector-effect="none" points="1495.09,659.286 1508,659.286 " />
<polyline fill="none" vector-effect="none" points="217,542.429 229.91,542.429 " />
<polyline fill="none" vector-effect="none" points="1495.09,542.429 1508,542.429 " />
<polyline fill="none" vector-effect="none" points="217,425.571 229.91,425.571 " />
<polyline fill="none" vector-effect="none" points="1495.09,425.571 1508,425.571 " />
<polyline fill="none" vector-effect="none" points="217,308.714 229.91,308.714 " />
<polyline fill="none" vector-effect="none" points="1495.09,308.714 1508,308.714 " />
<polyline fill="none" vector-effect="none" points="217,191.857 229.91,191.857 " />
<polyline fill="none" vector-effect="none" points="1495.09,191.857 1508,191.857 " />
<polyline fill="none" vector-effect="none" points="217,75 229.91,75 " />
<polyline fill="none" vector-effect="none" points="1495.09,75 1508,75 " />
</g>

<g fill="#212121" fill-opacity="1" stroke="#212121" stroke-opacity="1" stroke-width="1" stroke-linecap="square" stroke-linejoin="bevel" transform="matrix(0.49985,0,0,0.499751,81.4755,448.776)"
font-family="Helvetica" font-size="20" font-weight="400" font-style="normal" 
>
<text fill="#212121" fill-opacity="1" stroke="none" xml:space="preserve" x="0" y="0.390625" font-family="Helvetica" font-size="20" font-weight="400" font-style="normal" 
 >-0.04</text>
</g>

<g fill="#212121" fill-opacity="1" stroke="#212121" stroke-opacity="1" stroke-width="1" stroke-linecap="square" stroke-linejoin="bevel" transform="matrix(0.49985,0,0,0.499751,81.4755,390.377)"
font-family="Helvetica" font-size="20" font-weight="400" font-style="normal" 
>
<text fill="#212121" fill-opacity="1" stroke="none" xml:space="preserve" x="0" y="0.390625" font-family="Helvetica" font-size="20" font-weight="400" font-style="normal" 
 >-0.02</text>
</g>

<g fill="#212121" fill-opacity="1" stroke="#212121" stroke-opacity="1" stroke-width="1" stroke-linecap="square" stroke-linejoin="bevel" transform="matrix(0.49985,0,0,0.499751,98.9703,331.977)"
font-family="Helvetica" font-size="20" font-weight="400" font-style="normal" 
>
<text fill="#212121" fill-opacity="1" stroke="none" xml:space="preserve" x="0" y="0.390625" font-family="Helvetica" font-size="20" font-weight="400" font-style="normal" 
 >0</text>
</g>

<g fill="#212121" fill-opacity="1" stroke="#212121" stroke-opacity="1" stroke-width="1" stroke-linecap="square" stroke-linejoin="bevel" transform="matrix(0.49985,0,0,0.499751,84.9745,273.578)"
font-family="Helvetica" font-size="20" font-weight="400" font-style="normal" 
>
<text fill="#212121" fill-opacity="1" stroke="none" xml:space="preserve" x="0" y="0.390625" font-family="Helvetica" font-size="20" font-weight="400" font-style="normal" 
 >0.02</text>
</g>

<g fill="#212121" fill-opacity="1" stroke="#212121" stroke-opacity="1" stroke-width="1" stroke-linecap="square" stroke-linejoin="bevel" transform="matrix(0.49985,0,0,0.499751,84.9745,215.179)"
font-family="Helvetica" font-size="20" font-weight="400" font-style="normal" 
>
<text fill="#212121" fill-opacity="1" stroke="none" xml:space="preserve" x="0" y="0.390625" font-family="Helvetica" font-size="20" font-weight="400" font-style="normal" 
 >0.04</text>
</g>

<g fill="#212121" fill-opacity="1" stroke="#212121" stroke-opacity="1" stroke-width="1" stroke-linecap="square" stroke-linejoin="bevel" transform="matrix(0.49985,0,0,0.499751,84.9745,156.779)"
font-family="Helvetica" font-size="20" font-weight="400" font-style="normal" 
>
<text fill="#212121" fill-opacity="1" stroke="none" xml:space="preserve" x="0" y="0.390625" font-family="Helvetica" font-size="20" font-weight="400" font-style="normal" 
 >0.06</text>
</g>

<g fill="#212121" fill-opacity="1" stroke="#212121" stroke-opacity="1" stroke-width="1" stroke-linecap="square" stroke-linejoin="bevel" transform="matrix(0.49985,0,0,0.499751,84.9745,98.3796)"
font-family="Helvetica" font-size="20" font-weight="400" font-style="normal" 
>
<text fill="#212121" fill-opacity="1" stroke="none" xml:space="preserve" x="0" y="0.390625" font-family="Helvetica" font-size="20" font-weight="400" font-style="normal" 
 >0.08</text>
</g>

<g fill="#212121" fill-opacity="1" stroke="#212121" stroke-opacity="1" stroke-width="1" stroke-linecap="square" stroke-linejoin="bevel" transform="matrix(0.49985,0,0,0.499751,90.4728,39.9801)"
font-family="Helvetica" font-size="20" font-weight="400" font-style="normal" 
>
<text fill="#212121" fill-opacity="1" stroke="none" xml:space="preserve" x="0" y="0.390625" font-family="Helvetica" font-size="20" font-weight="400" font-style="normal" 
 >0.1</text>
</g>

<g fill="#212121" fill-opacity="1" stroke="#212121" stroke-opacity="1" stroke-width="1" stroke-linecap="square" stroke-linejoin="bevel" transform="matrix(0.49985,0,0,0.499751,345.647,33.6082)"
font-family="Helvetica" font-size="22" font-weight="700" font-style="normal" 
>
<text fill="#212121" fill-opacity="1" stroke="none" xml:space="preserve" x="0" y="-0.0625" font-family="Helvetica" font-size="22" font-weight="700" font-style="normal" 
 >Line Spectra for pulse with w=10</text>
</g>

<g fill="#212121" fill-opacity="1" stroke="#212121" stroke-opacity="1" stroke-width="1" stroke-linecap="butt" stroke-linejoin="round" transform="matrix(0.49985,0,0,0.499751,0,0)"
font-family="Helvetica" font-size="22" font-weight="700" font-style="normal" 
>
<polyline fill="none" vector-effect="none" points="217,659.286 1508,659.286 " />
</g>

<g fill="#1171be" fill-opacity="1" stroke="#1171be" stroke-opacity="1" stroke-width="1" stroke-linecap="butt" stroke-linejoin="round" transform="matrix(0.49985,0,0,0.499751,0,0)"
font-family="Helvetica" font-size="22" font-weight="700" font-style="normal" 
>
<polyline fill="none" vector-effect="none" points="248.681,659.286 248.681,783.275 " />
<polyline fill="none" vector-effect="none" points="289.602,659.286 289.602,785.629 " />
<polyline fill="none" vector-effect="none" points="330.524,659.286 330.524,775.027 " />
<polyline fill="none" vector-effect="none" points="371.445,659.286 371.445,750.385 " />
<polyline fill="none" vector-effect="none" points="412.366,659.286 412.366,711.533 " />
<polyline fill="none" vector-effect="none" points="494.209,659.286 494.209,595.428 " />
<polyline fill="none" vector-effect="none" points="535.13,659.286 535.13,522.637 " />
<polyline fill="none" vector-effect="none" points="576.051,659.286 576.051,444.337 " />
<polyline fill="none" vector-effect="none" points="616.972,659.286 616.972,364.484 " />
<polyline fill="none" vector-effect="none" points="657.894,659.286 657.894,287.318 " />
<polyline fill="none" vector-effect="none" points="698.815,659.286 698.815,217.083 " />
<polyline fill="none" vector-effect="none" points="739.736,659.286 739.736,157.739 " />
<polyline fill="none" vector-effect="none" points="780.657,659.286 780.657,112.693 " />
<polyline fill="none" vector-effect="none" points="821.579,659.286 821.579,84.5638 " />
<polyline fill="none" vector-effect="none" points="862.5,659.286 862.5,75 " />
<polyline fill="none" vector-effect="none" points="903.421,659.286 903.421,84.5638 " />
<polyline fill="none" vector-effect="none" points="944.343,659.286 944.343,112.693 " />
<polyline fill="none" vector-effect="none" points="985.264,659.286 985.264,157.739 " />
<polyline fill="none" vector-effect="none" points="1026.19,659.286 1026.19,217.083 " />
<polyline fill="none" vector-effect="none" points="1067.11,659.286 1067.11,287.318 " />
<polyline fill="none" vector-effect="none" points="1108.03,659.286 1108.03,364.484 " />
<polyline fill="none" vector-effect="none" points="1148.95,659.286 1148.95,444.337 " />
<polyline fill="none" vector-effect="none" points="1189.87,659.286 1189.87,522.637 " />
<polyline fill="none" vector-effect="none" points="1230.79,659.286 1230.79,595.428 " />
<polyline fill="none" vector-effect="none" points="1312.63,659.286 1312.63,711.533 " />
<polyline fill="none" vector-effect="none" points="1353.56,659.286 1353.56,750.385 " />
<polyline fill="none" vector-effect="none" points="1394.48,659.286 1394.48,775.027 " />
<polyline fill="none" vector-effect="none" points="1435.4,659.286 1435.4,785.629 " />
<polyline fill="none" vector-effect="none" points="1476.32,659.286 1476.32,783.275 " />
</g>

<g fill="none" stroke="#1171be" stroke-opacity="1" stroke-width="1" stroke-linecap="butt" stroke-linejoin="miter" stroke-miterlimit="2" transform="matrix(0.49985,0,0,0.499751,0,0)"
font-family="Helvetica" font-size="22" font-weight="700" font-style="normal" 
>
<path vector-effect="none" fill-rule="evenodd" d="M254.681,783.275 C254.681,779.961 251.995,777.275 248.681,777.275 C245.367,777.275 242.681,779.961 242.681,783.275 C242.681,786.589 245.367,789.275 248.681,789.275 C251.995,789.275 254.681,786.589 254.681,783.275 "/>
</g>

<g fill="none" stroke="#1171be" stroke-opacity="1" stroke-width="1" stroke-linecap="butt" stroke-linejoin="miter" stroke-miterlimit="2" transform="matrix(0.49985,0,0,0.499751,0,0)"
font-family="Helvetica" font-size="22" font-weight="700" font-style="normal" 
>
<path vector-effect="none" fill-rule="evenodd" d="M295.602,785.629 C295.602,782.316 292.916,779.629 289.602,779.629 C286.289,779.629 283.602,782.316 283.602,785.629 C283.602,788.943 286.289,791.629 289.602,791.629 C292.916,791.629 295.602,788.943 295.602,785.629 "/>
</g>

<g fill="none" stroke="#1171be" stroke-opacity="1" stroke-width="1" stroke-linecap="butt" stroke-linejoin="miter" stroke-miterlimit="2" transform="matrix(0.49985,0,0,0.499751,0,0)"
font-family="Helvetica" font-size="22" font-weight="700" font-style="normal" 
>
<path vector-effect="none" fill-rule="evenodd" d="M336.524,775.027 C336.524,771.714 333.837,769.027 330.524,769.027 C327.21,769.027 324.524,771.714 324.524,775.027 C324.524,778.341 327.21,781.027 330.524,781.027 C333.837,781.027 336.524,778.341 336.524,775.027 "/>
</g>

<g fill="none" stroke="#1171be" stroke-opacity="1" stroke-width="1" stroke-linecap="butt" stroke-linejoin="miter" stroke-miterlimit="2" transform="matrix(0.49985,0,0,0.499751,0,0)"
font-family="Helvetica" font-size="22" font-weight="700" font-style="normal" 
>
<path vector-effect="none" fill-rule="evenodd" d="M377.445,750.385 C377.445,747.071 374.759,744.385 371.445,744.385 C368.131,744.385 365.445,747.071 365.445,750.385 C365.445,753.698 368.131,756.385 371.445,756.385 C374.759,756.385 377.445,753.698 377.445,750.385 "/>
</g>

<g fill="none" stroke="#1171be" stroke-opacity="1" stroke-width="1" stroke-linecap="butt" stroke-linejoin="miter" stroke-miterlimit="2" transform="matrix(0.49985,0,0,0.499751,0,0)"
font-family="Helvetica" font-size="22" font-weight="700" font-style="normal" 
>
<path vector-effect="none" fill-rule="evenodd" d="M418.366,711.533 C418.366,708.219 415.68,705.533 412.366,705.533 C409.052,705.533 406.366,708.219 406.366,711.533 C406.366,714.847 409.052,717.533 412.366,717.533 C415.68,717.533 418.366,714.847 418.366,711.533 "/>
</g>

<g fill="none" stroke="#1171be" stroke-opacity="1" stroke-width="1" stroke-linecap="butt" stroke-linejoin="miter" stroke-miterlimit="2" transform="matrix(0.49985,0,0,0.499751,0,0)"
font-family="Helvetica" font-size="22" font-weight="700" font-style="normal" 
>
<path vector-effect="none" fill-rule="evenodd" d="M459.287,659.286 C459.287,655.972 456.601,653.286 453.287,653.286 C449.974,653.286 447.287,655.972 447.287,659.286 C447.287,662.599 449.974,665.286 453.287,665.286 C456.601,665.286 459.287,662.599 459.287,659.286 "/>
</g>

<g fill="none" stroke="#1171be" stroke-opacity="1" stroke-width="1" stroke-linecap="butt" stroke-linejoin="miter" stroke-miterlimit="2" transform="matrix(0.49985,0,0,0.499751,0,0)"
font-family="Helvetica" font-size="22" font-weight="700" font-style="normal" 
>
<path vector-effect="none" fill-rule="evenodd" d="M500.209,595.428 C500.209,592.114 497.522,589.428 494.209,589.428 C490.895,589.428 488.209,592.114 488.209,595.428 C488.209,598.741 490.895,601.428 494.209,601.428 C497.522,601.428 500.209,598.741 500.209,595.428 "/>
</g>

<g fill="none" stroke="#1171be" stroke-opacity="1" stroke-width="1" stroke-linecap="butt" stroke-linejoin="miter" stroke-miterlimit="2" transform="matrix(0.49985,0,0,0.499751,0,0)"
font-family="Helvetica" font-size="22" font-weight="700" font-style="normal" 
>
<path vector-effect="none" fill-rule="evenodd" d="M541.13,522.637 C541.13,519.324 538.444,516.637 535.13,516.637 C531.816,516.637 529.13,519.324 529.13,522.637 C529.13,525.951 531.816,528.637 535.13,528.637 C538.444,528.637 541.13,525.951 541.13,522.637 "/>
</g>

<g fill="none" stroke="#1171be" stroke-opacity="1" stroke-width="1" stroke-linecap="butt" stroke-linejoin="miter" stroke-miterlimit="2" transform="matrix(0.49985,0,0,0.499751,0,0)"
font-family="Helvetica" font-size="22" font-weight="700" font-style="normal" 
>
<path vector-effect="none" fill-rule="evenodd" d="M582.051,444.337 C582.051,441.023 579.365,438.337 576.051,438.337 C572.737,438.337 570.051,441.023 570.051,444.337 C570.051,447.651 572.737,450.337 576.051,450.337 C579.365,450.337 582.051,447.651 582.051,444.337 "/>
</g>

<g fill="none" stroke="#1171be" stroke-opacity="1" stroke-width="1" stroke-linecap="butt" stroke-linejoin="miter" stroke-miterlimit="2" transform="matrix(0.49985,0,0,0.499751,0,0)"
font-family="Helvetica" font-size="22" font-weight="700" font-style="normal" 
>
<path vector-effect="none" fill-rule="evenodd" d="M622.972,364.484 C622.972,361.17 620.286,358.484 616.972,358.484 C613.659,358.484 610.972,361.17 610.972,364.484 C610.972,367.797 613.659,370.484 616.972,370.484 C620.286,370.484 622.972,367.797 622.972,364.484 "/>
</g>

<g fill="none" stroke="#1171be" stroke-opacity="1" stroke-width="1" stroke-linecap="butt" stroke-linejoin="miter" stroke-miterlimit="2" transform="matrix(0.49985,0,0,0.499751,0,0)"
font-family="Helvetica" font-size="22" font-weight="700" font-style="normal" 
>
<path vector-effect="none" fill-rule="evenodd" d="M663.894,287.318 C663.894,284.004 661.207,281.318 657.894,281.318 C654.58,281.318 651.894,284.004 651.894,287.318 C651.894,290.632 654.58,293.318 657.894,293.318 C661.207,293.318 663.894,290.632 663.894,287.318 "/>
</g>

<g fill="none" stroke="#1171be" stroke-opacity="1" stroke-width="1" stroke-linecap="butt" stroke-linejoin="miter" stroke-miterlimit="2" transform="matrix(0.49985,0,0,0.499751,0,0)"
font-family="Helvetica" font-size="22" font-weight="700" font-style="normal" 
>
<path vector-effect="none" fill-rule="evenodd" d="M704.815,217.083 C704.815,213.769 702.129,211.083 698.815,211.083 C695.501,211.083 692.815,213.769 692.815,217.083 C692.815,220.396 695.501,223.083 698.815,223.083 C702.129,223.083 704.815,220.396 704.815,217.083 "/>
</g>

<g fill="none" stroke="#1171be" stroke-opacity="1" stroke-width="1" stroke-linecap="butt" stroke-linejoin="miter" stroke-miterlimit="2" transform="matrix(0.49985,0,0,0.499751,0,0)"
font-family="Helvetica" font-size="22" font-weight="700" font-style="normal" 
>
<path vector-effect="none" fill-rule="evenodd" d="M745.736,157.739 C745.736,154.425 743.05,151.739 739.736,151.739 C736.422,151.739 733.736,154.425 733.736,157.739 C733.736,161.052 736.422,163.739 739.736,163.739 C743.05,163.739 745.736,161.052 745.736,157.739 "/>
</g>

<g fill="none" stroke="#1171be" stroke-opacity="1" stroke-width="1" stroke-linecap="butt" stroke-linejoin="miter" stroke-miterlimit="2" transform="matrix(0.49985,0,0,0.499751,0,0)"
font-family="Helvetica" font-size="22" font-weight="700" font-style="normal" 
>
<path vector-effect="none" fill-rule="evenodd" d="M786.657,112.693 C786.657,109.379 783.971,106.693 780.657,106.693 C777.344,106.693 774.657,109.379 774.657,112.693 C774.657,116.006 777.344,118.693 780.657,118.693 C783.971,118.693 786.657,116.006 786.657,112.693 "/>
</g>

<g fill="none" stroke="#1171be" stroke-opacity="1" stroke-width="1" stroke-linecap="butt" stroke-linejoin="miter" stroke-miterlimit="2" transform="matrix(0.49985,0,0,0.499751,0,0)"
font-family="Helvetica" font-size="22" font-weight="700" font-style="normal" 
>
<path vector-effect="none" fill-rule="evenodd" d="M827.579,84.5638 C827.579,81.2501 824.892,78.5638 821.579,78.5638 C818.265,78.5638 815.579,81.2501 815.579,84.5638 C815.579,87.8775 818.265,90.5638 821.579,90.5638 C824.892,90.5638 827.579,87.8775 827.579,84.5638 "/>
</g>

<g fill="none" stroke="#1171be" stroke-opacity="1" stroke-width="1" stroke-linecap="butt" stroke-linejoin="miter" stroke-miterlimit="2" transform="matrix(0.49985,0,0,0.499751,0,0)"
font-family="Helvetica" font-size="22" font-weight="700" font-style="normal" 
>
<path vector-effect="none" fill-rule="evenodd" d="M868.5,75 C868.5,71.6863 865.814,69 862.5,69 C859.186,69 856.5,71.6863 856.5,75 C856.5,78.3137 859.186,81 862.5,81 C865.814,81 868.5,78.3137 868.5,75 "/>
</g>

<g fill="none" stroke="#1171be" stroke-opacity="1" stroke-width="1" stroke-linecap="butt" stroke-linejoin="miter" stroke-miterlimit="2" transform="matrix(0.49985,0,0,0.499751,0,0)"
font-family="Helvetica" font-size="22" font-weight="700" font-style="normal" 
>
<path vector-effect="none" fill-rule="evenodd" d="M909.421,84.5638 C909.421,81.2501 906.735,78.5638 903.421,78.5638 C900.108,78.5638 897.421,81.2501 897.421,84.5638 C897.421,87.8775 900.108,90.5638 903.421,90.5638 C906.735,90.5638 909.421,87.8775 909.421,84.5638 "/>
</g>

<g fill="none" stroke="#1171be" stroke-opacity="1" stroke-width="1" stroke-linecap="butt" stroke-linejoin="miter" stroke-miterlimit="2" transform="matrix(0.49985,0,0,0.499751,0,0)"
font-family="Helvetica" font-size="22" font-weight="700" font-style="normal" 
>
<path vector-effect="none" fill-rule="evenodd" d="M950.343,112.693 C950.343,109.379 947.656,106.693 944.343,106.693 C941.029,106.693 938.343,109.379 938.343,112.693 C938.343,116.006 941.029,118.693 944.343,118.693 C947.656,118.693 950.343,116.006 950.343,112.693 "/>
</g>

<g fill="none" stroke="#1171be" stroke-opacity="1" stroke-width="1" stroke-linecap="butt" stroke-linejoin="miter" stroke-miterlimit="2" transform="matrix(0.49985,0,0,0.499751,0,0)"
font-family="Helvetica" font-size="22" font-weight="700" font-style="normal" 
>
<path vector-effect="none" fill-rule="evenodd" d="M991.264,157.739 C991.264,154.425 988.578,151.739 985.264,151.739 C981.95,151.739 979.264,154.425 979.264,157.739 C979.264,161.052 981.95,163.739 985.264,163.739 C988.578,163.739 991.264,161.052 991.264,157.739 "/>
</g>

<g fill="none" stroke="#1171be" stroke-opacity="1" stroke-width="1" stroke-linecap="butt" stroke-linejoin="miter" stroke-miterlimit="2" transform="matrix(0.49985,0,0,0.499751,0,0)"
font-family="Helvetica" font-size="22" font-weight="700" font-style="normal" 
>
<path vector-effect="none" fill-rule="evenodd" d="M1032.19,217.083 C1032.19,213.769 1029.5,211.083 1026.19,211.083 C1022.87,211.083 1020.19,213.769 1020.19,217.083 C1020.19,220.396 1022.87,223.083 1026.19,223.083 C1029.5,223.083 1032.19,220.396 1032.19,217.083 "/>
</g>

<g fill="none" stroke="#1171be" stroke-opacity="1" stroke-width="1" stroke-linecap="butt" stroke-linejoin="miter" stroke-miterlimit="2" transform="matrix(0.49985,0,0,0.499751,0,0)"
font-family="Helvetica" font-size="22" font-weight="700" font-style="normal" 
>
<path vector-effect="none" fill-rule="evenodd" d="M1073.11,287.318 C1073.11,284.004 1070.42,281.318 1067.11,281.318 C1063.79,281.318 1061.11,284.004 1061.11,287.318 C1061.11,290.632 1063.79,293.318 1067.11,293.318 C1070.42,293.318 1073.11,290.632 1073.11,287.318 "/>
</g>

<g fill="none" stroke="#1171be" stroke-opacity="1" stroke-width="1" stroke-linecap="butt" stroke-linejoin="miter" stroke-miterlimit="2" transform="matrix(0.49985,0,0,0.499751,0,0)"
font-family="Helvetica" font-size="22" font-weight="700" font-style="normal" 
>
<path vector-effect="none" fill-rule="evenodd" d="M1114.03,364.484 C1114.03,361.17 1111.34,358.484 1108.03,358.484 C1104.71,358.484 1102.03,361.17 1102.03,364.484 C1102.03,367.797 1104.71,370.484 1108.03,370.484 C1111.34,370.484 1114.03,367.797 1114.03,364.484 "/>
</g>

<g fill="none" stroke="#1171be" stroke-opacity="1" stroke-width="1" stroke-linecap="butt" stroke-linejoin="miter" stroke-miterlimit="2" transform="matrix(0.49985,0,0,0.499751,0,0)"
font-family="Helvetica" font-size="22" font-weight="700" font-style="normal" 
>
<path vector-effect="none" fill-rule="evenodd" d="M1154.95,444.337 C1154.95,441.023 1152.26,438.337 1148.95,438.337 C1145.64,438.337 1142.95,441.023 1142.95,444.337 C1142.95,447.651 1145.64,450.337 1148.95,450.337 C1152.26,450.337 1154.95,447.651 1154.95,444.337 "/>
</g>

<g fill="none" stroke="#1171be" stroke-opacity="1" stroke-width="1" stroke-linecap="butt" stroke-linejoin="miter" stroke-miterlimit="2" transform="matrix(0.49985,0,0,0.499751,0,0)"
font-family="Helvetica" font-size="22" font-weight="700" font-style="normal" 
>
<path vector-effect="none" fill-rule="evenodd" d="M1195.87,522.637 C1195.87,519.324 1193.18,516.637 1189.87,516.637 C1186.56,516.637 1183.87,519.324 1183.87,522.637 C1183.87,525.951 1186.56,528.637 1189.87,528.637 C1193.18,528.637 1195.87,525.951 1195.87,522.637 "/>
</g>

<g fill="none" stroke="#1171be" stroke-opacity="1" stroke-width="1" stroke-linecap="butt" stroke-linejoin="miter" stroke-miterlimit="2" transform="matrix(0.49985,0,0,0.499751,0,0)"
font-family="Helvetica" font-size="22" font-weight="700" font-style="normal" 
>
<path vector-effect="none" fill-rule="evenodd" d="M1236.79,595.428 C1236.79,592.114 1234.11,589.428 1230.79,589.428 C1227.48,589.428 1224.79,592.114 1224.79,595.428 C1224.79,598.741 1227.48,601.428 1230.79,601.428 C1234.11,601.428 1236.79,598.741 1236.79,595.428 "/>
</g>

<g fill="none" stroke="#1171be" stroke-opacity="1" stroke-width="1" stroke-linecap="butt" stroke-linejoin="miter" stroke-miterlimit="2" transform="matrix(0.49985,0,0,0.499751,0,0)"
font-family="Helvetica" font-size="22" font-weight="700" font-style="normal" 
>
<path vector-effect="none" fill-rule="evenodd" d="M1277.71,659.286 C1277.71,655.972 1275.03,653.286 1271.71,653.286 C1268.4,653.286 1265.71,655.972 1265.71,659.286 C1265.71,662.599 1268.4,665.286 1271.71,665.286 C1275.03,665.286 1277.71,662.599 1277.71,659.286 "/>
</g>

<g fill="none" stroke="#1171be" stroke-opacity="1" stroke-width="1" stroke-linecap="butt" stroke-linejoin="miter" stroke-miterlimit="2" transform="matrix(0.49985,0,0,0.499751,0,0)"
font-family="Helvetica" font-size="22" font-weight="700" font-style="normal" 
>
<path vector-effect="none" fill-rule="evenodd" d="M1318.63,711.533 C1318.63,708.219 1315.95,705.533 1312.63,705.533 C1309.32,705.533 1306.63,708.219 1306.63,711.533 C1306.63,714.847 1309.32,717.533 1312.63,717.533 C1315.95,717.533 1318.63,714.847 1318.63,711.533 "/>
</g>

<g fill="none" stroke="#1171be" stroke-opacity="1" stroke-width="1" stroke-linecap="butt" stroke-linejoin="miter" stroke-miterlimit="2" transform="matrix(0.49985,0,0,0.499751,0,0)"
font-family="Helvetica" font-size="22" font-weight="700" font-style="normal" 
>
<path vector-effect="none" fill-rule="evenodd" d="M1359.56,750.385 C1359.56,747.071 1356.87,744.385 1353.56,744.385 C1350.24,744.385 1347.56,747.071 1347.56,750.385 C1347.56,753.698 1350.24,756.385 1353.56,756.385 C1356.87,756.385 1359.56,753.698 1359.56,750.385 "/>
</g>

<g fill="none" stroke="#1171be" stroke-opacity="1" stroke-width="1" stroke-linecap="butt" stroke-linejoin="miter" stroke-miterlimit="2" transform="matrix(0.49985,0,0,0.499751,0,0)"
font-family="Helvetica" font-size="22" font-weight="700" font-style="normal" 
>
<path vector-effect="none" fill-rule="evenodd" d="M1400.48,775.027 C1400.48,771.714 1397.79,769.027 1394.48,769.027 C1391.16,769.027 1388.48,771.714 1388.48,775.027 C1388.48,778.341 1391.16,781.027 1394.48,781.027 C1397.79,781.027 1400.48,778.341 1400.48,775.027 "/>
</g>

<g fill="none" stroke="#1171be" stroke-opacity="1" stroke-width="1" stroke-linecap="butt" stroke-linejoin="miter" stroke-miterlimit="2" transform="matrix(0.49985,0,0,0.499751,0,0)"
font-family="Helvetica" font-size="22" font-weight="700" font-style="normal" 
>
<path vector-effect="none" fill-rule="evenodd" d="M1441.4,785.629 C1441.4,782.316 1438.71,779.629 1435.4,779.629 C1432.08,779.629 1429.4,782.316 1429.4,785.629 C1429.4,788.943 1432.08,791.629 1435.4,791.629 C1438.71,791.629 1441.4,788.943 1441.4,785.629 "/>
</g>

<g fill="none" stroke="#1171be" stroke-opacity="1" stroke-width="1" stroke-linecap="butt" stroke-linejoin="miter" stroke-miterlimit="2" transform="matrix(0.49985,0,0,0.499751,0,0)"
font-family="Helvetica" font-size="22" font-weight="700" font-style="normal" 
>
<path vector-effect="none" fill-rule="evenodd" d="M1482.32,783.275 C1482.32,779.961 1479.63,777.275 1476.32,777.275 C1473.01,777.275 1470.32,779.961 1470.32,783.275 C1470.32,786.589 1473.01,789.275 1476.32,789.275 C1479.63,789.275 1482.32,786.589 1482.32,783.275 "/>
</g>

<g fill="none" stroke="#ff0000" stroke-opacity="1" stroke-dasharray="1,3" stroke-dashoffset="0" stroke-width="1" stroke-linecap="butt" stroke-linejoin="round" transform="matrix(0.49985,0,0,0.499751,0,0)"
font-family="Helvetica" font-size="22" font-weight="700" font-style="normal" 
>
<polyline fill="none" vector-effect="none" points="248.681,783.275 249.91,783.518 251.139,783.751 252.368,783.974 253.596,784.187 254.825,784.389 256.054,784.581 257.283,784.763 258.512,784.934 259.741,785.095 260.97,785.245 262.198,785.385 263.427,785.514 264.656,785.632 265.885,785.739 267.114,785.836 268.343,785.922 269.572,785.996 270.801,786.06 272.029,786.113 273.258,786.154 274.487,786.185 275.716,786.204 276.945,786.212 278.174,786.209 279.403,786.194 280.632,786.168 281.86,786.131 283.089,786.082 284.318,786.021 285.547,785.949 286.776,785.866 288.005,785.771 289.234,785.664 290.462,785.545 291.691,785.415 292.92,785.273 294.149,785.118 295.378,784.953 296.607,784.775 297.836,784.585 299.065,784.383 300.293,784.169 301.522,783.943 302.751,783.705 303.98,783.455 305.209,783.192 306.438,782.918 307.667,782.631 308.895,782.332 310.124,782.02 311.353,781.696 312.582,781.36 313.811,781.012 315.04,780.651 316.269,780.277 317.498,779.891 318.726,779.493 319.955,779.082 321.184,778.658 322.413,778.222 323.642,777.774 324.871,777.312 326.1,776.839 327.328,776.352 328.557,775.853 329.786,775.341 331.015,774.816 332.244,774.279 333.473,773.728 334.702,773.165 335.931,772.59 337.159,772.001 338.388,771.4 339.617,770.786 340.846,770.158 342.075,769.519 343.304,768.866 344.533,768.2 345.761,767.522 346.99,766.83 348.219,766.126 349.448,765.409 350.677,764.679 351.906,763.936 353.135,763.18 354.364,762.411 355.592,761.629 356.821,760.834 358.05,760.027 359.279,759.206 360.508,758.372 361.737,757.526 362.966,756.667 364.194,755.794 365.423,754.909 366.652,754.011 367.881,753.1 369.11,752.176 370.339,751.239 371.568,750.289 372.797,749.326 374.025,748.351 375.254,747.362 376.483,746.361 377.712,745.347 378.941,744.32 380.17,743.28 381.399,742.228 382.627,741.162 383.856,740.084 385.085,738.993 386.314,737.889 387.543,736.773 388.772,735.644 390.001,734.502 391.23,733.348 392.458,732.181 393.687,731.001 394.916,729.809 396.145,728.604 397.374,727.386 398.603,726.156 399.832,724.914 401.06,723.659 402.289,722.391 403.518,721.112 404.747,719.819 405.976,718.515 407.205,717.198 408.434,715.869 409.663,714.527 410.891,713.174 412.12,711.808 413.349,710.43 414.578,709.04 415.807,707.637 417.036,706.223 418.265,704.797 419.493,703.358 420.722,701.908 421.951,700.446 423.18,698.972 424.409,697.486 425.638,695.989 426.867,694.479 428.096,692.958 429.324,691.426 430.553,689.882 431.782,688.326 433.011,686.759 434.24,685.18 435.469,683.59 436.698,681.989 437.926,680.376 439.155,678.752 440.384,677.117 441.613,675.471 442.842,673.813 444.071,672.145 445.3,670.465 446.529,668.775 447.757,667.074 448.986,665.362 450.215,663.639 451.444,661.906 452.673,660.162 453.902,658.407 455.131,656.642 456.359,654.866 457.588,653.08 458.817,651.284 460.046,649.478 461.275,647.661 462.504,645.834 463.733,643.997 464.962,642.15 466.19,640.294 467.419,638.427 468.648,636.55 469.877,634.664 471.106,632.768 472.335,630.863 473.564,628.948 474.792,627.024 476.021,625.09 477.25,623.147 478.479,621.195 479.708,619.234 480.937,617.263 482.166,615.284 483.395,613.296 484.623,611.299 485.852,609.293 487.081,607.279 488.31,605.255 489.539,603.224 490.768,601.184 491.997,599.135 493.225,597.079 494.454,595.014 495.683,592.941 496.912,590.86 498.141,588.772 499.37,586.675 500.599,584.57 501.828,582.458 503.056,580.339 504.285,578.212 505.514,576.077 506.743,573.935 507.972,571.786 509.201,569.63 510.43,567.467 511.659,565.296 512.887,563.119 514.116,560.935 515.345,558.745 516.574,556.548 517.803,554.344 519.032,552.134 520.261,549.918 521.489,547.695 522.718,545.467 523.947,543.232 525.176,540.992 526.405,538.745 527.634,536.493 528.863,534.235 530.091,531.972 531.32,529.704 532.549,527.43 533.778,525.15 535.007,522.866 536.236,520.577 537.465,518.283 538.694,515.984 539.922,513.68 541.151,511.371 542.38,509.059 543.609,506.741 544.838,504.42 546.067,502.094 547.296,499.764 548.524,497.43 549.753,495.092 550.982,492.751 552.211,490.406 553.44,488.057 554.669,485.705 555.898,483.349 557.127,480.99 558.355,478.629 559.584,476.264 560.813,473.896 562.042,471.525 563.271,469.152 564.5,466.776 565.729,464.398 566.958,462.017 568.186,459.634 569.415,457.249 570.644,454.862 571.873,452.473 573.102,450.082 574.331,447.689 575.56,445.295 576.788,442.899 578.017,440.502 579.246,438.104 580.475,435.705 581.704,433.305 582.933,430.903 584.162,428.501 585.391,426.099 586.619,423.695 587.848,421.292 589.077,418.888 590.306,416.483 591.535,414.079 592.764,411.675 593.993,409.271 595.221,406.867 596.45,404.463 597.679,402.06 598.908,399.657 600.137,397.256 601.366,394.855 602.595,392.455 603.823,390.056 605.052,387.658 606.281,385.261 607.51,382.866 608.739,380.473 609.968,378.081 611.197,375.69 612.426,373.302 613.654,370.916 614.883,368.532 616.112,366.15 617.341,363.77 618.57,361.393 619.799,359.018 621.028,356.646 622.257,354.277 623.485,351.911 624.714,349.548 625.943,347.188 627.172,344.831 628.401,342.478 629.63,340.128 630.859,337.782 632.087,335.44 633.316,333.101 634.545,330.766 635.774,328.436 637.003,326.11 638.232,323.788 639.461,321.47 640.69,319.157 641.918,316.849 643.147,314.545 644.376,312.247 645.605,309.953 646.834,307.664 648.063,305.381 649.292,303.103 650.52,300.831 651.749,298.564 652.978,296.303 654.207,294.048 655.436,291.798 656.665,289.555 657.894,287.318 659.123,285.087 660.351,282.862 661.58,280.645 662.809,278.433 664.038,276.228 665.267,274.031 666.496,271.84 667.725,269.656 668.953,267.479 670.182,265.31 671.411,263.148 672.64,260.993 673.869,258.846 675.098,256.707 676.327,254.576 677.556,252.452 678.784,250.337 680.013,248.23 681.242,246.131 682.471,244.04 683.7,241.958 684.929,239.885 686.158,237.82 687.386,235.764 688.615,233.717 689.844,231.678 691.073,229.649 692.302,227.63 693.531,225.619 694.76,223.618 695.989,221.626 697.217,219.645 698.446,217.672 699.675,215.71 700.904,213.758 702.133,211.815 703.362,209.883 704.591,207.961 705.819,206.049 707.048,204.148 708.277,202.257 709.506,200.377 710.735,198.508 711.964,196.649 713.193,194.802 714.422,192.965 715.65,191.14 716.879,189.326 718.108,187.523 719.337,185.731 720.566,183.951 721.795,182.182 723.024,180.426 724.253,178.681 725.481,176.947 726.71,175.226 727.939,173.517 729.168,171.82 730.397,170.135 731.626,168.463 732.855,166.802 734.083,165.155 735.312,163.52 736.541,161.897 737.77,160.287 738.999,158.69 740.228,157.106 741.457,155.535 742.685,153.978 743.914,152.433 745.143,150.901 746.372,149.383 747.601,147.878 748.83,146.387 750.059,144.909 751.288,143.445 752.516,141.994 753.745,140.557 754.974,139.135 756.203,137.726 757.432,136.331 758.661,134.95 759.89,133.583 761.118,132.231 762.347,130.893 763.576,129.569 764.805,128.259 766.034,126.965 767.263,125.684 768.492,124.419 769.721,123.168 770.949,121.932 772.178,120.71 773.407,119.504 774.636,118.312 775.865,117.136 777.094,115.975 778.323,114.828 779.551,113.697 780.78,112.582 782.009,111.481 783.238,110.397 784.467,109.327 785.696,108.273 786.925,107.235 788.154,106.212 789.382,105.205 790.611,104.213 791.84,103.238 793.069,102.278 794.298,101.334 795.527,100.406 796.756,99.494 797.984,98.598 799.213,97.7181 800.442,96.8544 801.671,96.0067 802.9,95.1754 804.129,94.3602 805.358,93.5614 806.587,92.779 807.815,92.0129 809.044,91.2632 810.273,90.53 811.502,89.8133 812.731,89.1132 813.96,88.4296 815.189,87.7627 816.417,87.1124 817.646,86.4788 818.875,85.8619 820.104,85.2618 821.333,84.6784 822.562,84.1119 823.791,83.5623 825.02,83.0295 826.248,82.5136 827.477,82.0146 828.706,81.5326 829.935,81.0676 831.164,80.6196 832.393,80.1887 833.622,79.7748 834.85,79.3779 836.079,78.9983 837.308,78.6356 838.537,78.2902 839.766,77.9619 840.995,77.6507 842.224,77.3568 843.453,77.0801 844.681,76.8206 845.91,76.5784 847.139,76.3533 848.368,76.1456 849.597,75.9551 850.826,75.7819 852.055,75.626 853.284,75.4874 854.512,75.3661 855.741,75.2621 856.97,75.1755 858.199,75.1062 859.428,75.0542 860.657,75.0195 861.886,75.0022 863.114,75.0022 864.343,75.0195 865.572,75.0542 866.801,75.1062 868.03,75.1755 869.259,75.2621 870.488,75.3661 871.716,75.4874 872.945,75.626 874.174,75.7819 875.403,75.9551 876.632,76.1456 877.861,76.3533 879.09,76.5784 880.319,76.8206 881.547,77.0801 882.776,77.3568 884.005,77.6507 885.234,77.9619 886.463,78.2902 887.692,78.6356 888.921,78.9983 890.15,79.3779 891.378,79.7748 892.607,80.1887 893.836,80.6196 895.065,81.0676 896.294,81.5326 897.523,82.0146 898.752,82.5136 899.98,83.0295 901.209,83.5623 902.438,84.1119 903.667,84.6784 904.896,85.2618 906.125,85.8619 907.354,86.4788 908.583,87.1124 909.811,87.7627 911.04,88.4296 912.269,89.1132 913.498,89.8133 914.727,90.53 915.956,91.2632 917.185,92.0129 918.413,92.779 919.642,93.5614 920.871,94.3602 922.1,95.1754 923.329,96.0067 924.558,96.8544 925.787,97.7181 927.016,98.598 928.244,99.494 929.473,100.406 930.702,101.334 931.931,102.278 933.16,103.238 934.389,104.213 935.618,105.205 936.846,106.212 938.075,107.235 939.304,108.273 940.533,109.327 941.762,110.397 942.991,111.481 944.22,112.582 945.449,113.697 946.677,114.828 947.906,115.975 949.135,117.136 950.364,118.312 951.593,119.504 952.822,120.71 954.051,121.932 955.279,123.168 956.508,124.419 957.737,125.684 958.966,126.965 960.195,128.259 961.424,129.569 962.653,130.893 963.882,132.231 965.11,133.583 966.339,134.95 967.568,136.331 968.797,137.726 970.026,139.135 971.255,140.557 972.484,141.994 973.712,143.445 974.941,144.909 976.17,146.387 977.399,147.878 978.628,149.383 979.857,150.901 981.086,152.433 982.315,153.978 983.543,155.535 984.772,157.106 986.001,158.69 987.23,160.287 988.459,161.897 989.688,163.52 990.917,165.155 992.145,166.802 993.374,168.463 994.603,170.135 995.832,171.82 997.061,173.517 998.29,175.226 999.519,176.947 1000.75,178.681 1001.98,180.426 1003.21,182.182 1004.43,183.951 1005.66,185.731 1006.89,187.523 1008.12,189.326 1009.35,191.14 1010.58,192.965 1011.81,194.802 1013.04,196.649 1014.27,198.508 1015.49,200.377 1016.72,202.257 1017.95,204.148 1019.18,206.049 1020.41,207.961 1021.64,209.883 1022.87,211.815 1024.1,213.758 1025.32,215.71 1026.55,217.672 1027.78,219.645 1029.01,221.626 1030.24,223.618 1031.47,225.619 1032.7,227.63 1033.93,229.649 1035.16,231.678 1036.38,233.717 1037.61,235.764 1038.84,237.82 1040.07,239.885 1041.3,241.958 1042.53,244.04 1043.76,246.131 1044.99,248.23 1046.22,250.337 1047.44,252.452 1048.67,254.576 1049.9,256.707 1051.13,258.846 1052.36,260.993 1053.59,263.148 1054.82,265.31 1056.05,267.479 1057.28,269.656 1058.5,271.84 1059.73,274.031 1060.96,276.228 1062.19,278.433 1063.42,280.645 1064.65,282.862 1065.88,285.087 1067.11,287.318 1068.34,289.555 1069.56,291.798 1070.79,294.048 1072.02,296.303 1073.25,298.564 1074.48,300.831 1075.71,303.103 1076.94,305.381 1078.17,307.664 1079.4,309.953 1080.62,312.247 1081.85,314.545 1083.08,316.849 1084.31,319.157 1085.54,321.47 1086.77,323.788 1088,326.11 1089.23,328.436 1090.45,330.766 1091.68,333.101 1092.91,335.44 1094.14,337.782 1095.37,340.128 1096.6,342.478 1097.83,344.831 1099.06,347.188 1100.29,349.548 1101.51,351.911 1102.74,354.277 1103.97,356.646 1105.2,359.018 1106.43,361.393 1107.66,363.77 1108.89,366.15 1110.12,368.532 1111.35,370.916 1112.57,373.302 1113.8,375.69 1115.03,378.081 1116.26,380.473 1117.49,382.866 1118.72,385.261 1119.95,387.658 1121.18,390.056 1122.41,392.455 1123.63,394.855 1124.86,397.256 1126.09,399.657 1127.32,402.06 1128.55,404.463 1129.78,406.867 1131.01,409.271 1132.24,411.675 1133.47,414.079 1134.69,416.483 1135.92,418.888 1137.15,421.292 1138.38,423.695 1139.61,426.099 1140.84,428.501 1142.07,430.903 1143.3,433.305 1144.52,435.705 1145.75,438.104 1146.98,440.502 1148.21,442.899 1149.44,445.295 1150.67,447.689 1151.9,450.082 1153.13,452.473 1154.36,454.862 1155.58,457.249 1156.81,459.634 1158.04,462.017 1159.27,464.398 1160.5,466.776 1161.73,469.152 1162.96,471.525 1164.19,473.896 1165.42,476.264 1166.64,478.629 1167.87,480.99 1169.1,483.349 1170.33,485.705 1171.56,488.057 1172.79,490.406 1174.02,492.751 1175.25,495.092 1176.48,497.43 1177.7,499.764 1178.93,502.094 1180.16,504.42 1181.39,506.741 1182.62,509.059 1183.85,511.371 1185.08,513.68 1186.31,515.984 1187.54,518.283 1188.76,520.577 1189.99,522.866 1191.22,525.15 1192.45,527.43 1193.68,529.704 1194.91,531.972 1196.14,534.235 1197.37,536.493 1198.6,538.745 1199.82,540.992 1201.05,543.232 1202.28,545.467 1203.51,547.695 1204.74,549.918 1205.97,552.134 1207.2,554.344 1208.43,556.548 1209.65,558.745 1210.88,560.935 1212.11,563.119 1213.34,565.296 1214.57,567.467 1215.8,569.63 1217.03,571.786 1218.26,573.935 1219.49,576.077 1220.71,578.212 1221.94,580.339 1223.17,582.458 1224.4,584.57 1225.63,586.675 1226.86,588.772 1228.09,590.86 1229.32,592.941 1230.55,595.014 1231.77,597.079 1233,599.135 1234.23,601.184 1235.46,603.224 1236.69,605.255 1237.92,607.279 1239.15,609.293 1240.38,611.299 1241.61,613.296 1242.83,615.284 1244.06,617.263 1245.29,619.234 1246.52,621.195 1247.75,623.147 1248.98,625.09 1250.21,627.024 1251.44,628.948 1252.67,630.863 1253.89,632.768 1255.12,634.664 1256.35,636.55 1257.58,638.427 1258.81,640.294 1260.04,642.15 1261.27,643.997 1262.5,645.834 1263.73,647.661 1264.95,649.478 1266.18,651.284 1267.41,653.08 1268.64,654.866 1269.87,656.642 1271.1,658.407 1272.33,660.162 1273.56,661.906 1274.78,663.639 1276.01,665.362 1277.24,667.074 1278.47,668.775 1279.7,670.465 1280.93,672.145 1282.16,673.813 1283.39,675.471 1284.62,677.117 1285.84,678.752 1287.07,680.376 1288.3,681.989 1289.53,683.59 1290.76,685.18 1291.99,686.759 1293.22,688.326 1294.45,689.882 1295.68,691.426 1296.9,692.958 1298.13,694.479 1299.36,695.989 1300.59,697.486 1301.82,698.972 1303.05,700.446 1304.28,701.908 1305.51,703.358 1306.74,704.797 1307.96,706.223 1309.19,707.637 1310.42,709.04 1311.65,710.43 1312.88,711.808 1314.11,713.174 1315.34,714.527 1316.57,715.869 1317.8,717.198 1319.02,718.515 1320.25,719.819 1321.48,721.112 1322.71,722.391 1323.94,723.659 1325.17,724.914 1326.4,726.156 1327.63,727.386 1328.85,728.604 1330.08,729.809 1331.31,731.001 1332.54,732.181 1333.77,733.348 1335,734.502 1336.23,735.644 1337.46,736.773 1338.69,737.889 1339.91,738.993 1341.14,740.084 1342.37,741.162 1343.6,742.228 1344.83,743.28 1346.06,744.32 1347.29,745.347 1348.52,746.361 1349.75,747.362 1350.97,748.351 1352.2,749.326 1353.43,750.289 1354.66,751.239 1355.89,752.176 1357.12,753.1 1358.35,754.011 1359.58,754.909 1360.81,755.794 1362.03,756.667 1363.26,757.526 1364.49,758.372 1365.72,759.206 1366.95,760.027 1368.18,760.834 1369.41,761.629 1370.64,762.411 1371.87,763.18 1373.09,763.936 1374.32,764.679 1375.55,765.409 1376.78,766.126 1378.01,766.83 1379.24,767.522 1380.47,768.2 1381.7,768.866 1382.93,769.519 1384.15,770.158 1385.38,770.786 1386.61,771.4 1387.84,772.001 1389.07,772.59 1390.3,773.165 1391.53,773.728 1392.76,774.279 1393.98,774.816 1395.21,775.341 1396.44,775.853 1397.67,776.352 1398.9,776.839 1400.13,777.312 1401.36,777.774 1402.59,778.222 1403.82,778.658 1405.04,779.082 1406.27,779.493 1407.5,779.891 1408.73,780.277 1409.96,780.651 1411.19,781.012 1412.42,781.36 1413.65,781.696 1414.88,782.02 1416.1,782.332 1417.33,782.631 1418.56,782.918 1419.79,783.192 1421.02,783.455 1422.25,783.705 1423.48,783.943 1424.71,784.169 1425.94,784.383 1427.16,784.585 1428.39,784.775 1429.62,784.953 1430.85,785.118 1432.08,785.273 1433.31,785.415 1434.54,785.545 1435.77,785.664 1437,785.771 1438.22,785.866 1439.45,785.949 1440.68,786.021 1441.91,786.082 1443.14,786.131 1444.37,786.168 1445.6,786.194 1446.83,786.209 1448.06,786.212 1449.28,786.204 1450.51,786.185 1451.74,786.154 1452.97,786.113 1454.2,786.06 1455.43,785.996 1456.66,785.922 1457.89,785.836 1459.11,785.739 1460.34,785.632 1461.57,785.514 1462.8,785.385 1464.03,785.245 1465.26,785.095 1466.49,784.934 1467.72,784.763 1468.95,784.581 1470.17,784.389 1471.4,784.187 1472.63,783.974 1473.86,783.751 1475.09,783.518 1476.32,783.275 " />
</g>

<g fill="#212121" fill-opacity="1" stroke="#212121" stroke-opacity="1" stroke-width="1" stroke-linecap="square" stroke-linejoin="bevel" transform="matrix(0.49985,0,0,0.499751,389.883,471.265)"
font-family="Helvetica" font-size="22" font-weight="400" font-style="normal" 
>
<text fill="#212121" fill-opacity="1" stroke="none" xml:space="preserve" x="0" y="-0.0625" font-family="Helvetica" font-size="22" font-weight="400" font-style="normal" 
 >k Omega</text>
</g>

<g fill="#212121" fill-opacity="1" stroke="#212121" stroke-opacity="1" stroke-width="1" stroke-linecap="square" stroke-linejoin="bevel" transform="matrix(0.49985,0,0,0.499751,434.37,476.762)"
font-family="Helvetica" font-size="17" font-weight="400" font-style="normal" 
>
<text fill="#212121" fill-opacity="1" stroke="none" xml:space="preserve" x="0" y="0.078125" font-family="Helvetica" font-size="17" font-weight="400" font-style="normal" 
 >0</text>
</g>

<g fill="#212121" fill-opacity="1" stroke="#212121" stroke-opacity="1" stroke-width="1" stroke-linecap="square" stroke-linejoin="bevel" transform="matrix(0.49985,0,0,0.499751,438.868,471.265)"
font-family="Helvetica" font-size="22" font-weight="400" font-style="normal" 
>
<text fill="#212121" fill-opacity="1" stroke="none" xml:space="preserve" x="0" y="-0.0625" font-family="Helvetica" font-size="22" font-weight="400" font-style="normal" 
 > [rad/s]</text>
</g>

<g fill="#212121" fill-opacity="1" stroke="#212121" stroke-opacity="1" stroke-width="1" stroke-linecap="butt" stroke-linejoin="round" transform="matrix(0.49985,0,0,0.499751,0,0)"
font-family="Helvetica" font-size="22" font-weight="400" font-style="normal" 
>
<polyline fill="none" vector-effect="none" points="217,893 1508,893 " />
<polyline fill="none" vector-effect="none" points="217,75 1508,75 " />
<polyline fill="none" vector-effect="none" points="248.681,893 248.681,880.09 " />
<polyline fill="none" vector-effect="none" points="248.681,87.91 248.681,75 " />
<polyline fill="none" vector-effect="none" points="453.287,893 453.287,880.09 " />
<polyline fill="none" vector-effect="none" points="453.287,87.91 453.287,75 " />
<polyline fill="none" vector-effect="none" points="657.894,893 657.894,880.09 " />
<polyline fill="none" vector-effect="none" points="657.894,87.91 657.894,75 " />
<polyline fill="none" vector-effect="none" points="862.5,893 862.5,880.09 " />
<polyline fill="none" vector-effect="none" points="862.5,87.91 862.5,75 " />
<polyline fill="none" vector-effect="none" points="1067.11,893 1067.11,880.09 " />
<polyline fill="none" vector-effect="none" points="1067.11,87.91 1067.11,75 " />
<polyline fill="none" vector-effect="none" points="1271.71,893 1271.71,880.09 " />
<polyline fill="none" vector-effect="none" points="1271.71,87.91 1271.71,75 " />
<polyline fill="none" vector-effect="none" points="1476.32,893 1476.32,880.09 " />
<polyline fill="none" vector-effect="none" points="1476.32,87.91 1476.32,75 " />
</g>

<g fill="#212121" fill-opacity="1" stroke="#212121" stroke-opacity="1" stroke-width="1" stroke-linecap="square" stroke-linejoin="bevel" transform="matrix(0.49985,0,0,0.499751,117.055,457.772)"
font-family="Helvetica" font-size="20" font-weight="400" font-style="normal" 
>
<text fill="#212121" fill-opacity="1" stroke="none" xml:space="preserve" x="0" y="0.390625" font-family="Helvetica" font-size="20" font-weight="400" font-style="normal" 
 >-15</text>
</g>

<g fill="#212121" fill-opacity="1" stroke="#212121" stroke-opacity="1" stroke-width="1" stroke-linecap="square" stroke-linejoin="bevel" transform="matrix(0.49985,0,0,0.499751,219.328,457.772)"
font-family="Helvetica" font-size="20" font-weight="400" font-style="normal" 
>
<text fill="#212121" fill-opacity="1" stroke="none" xml:space="preserve" x="0" y="0.390625" font-family="Helvetica" font-size="20" font-weight="400" font-style="normal" 
 >-10</text>
</g>

<g fill="#212121" fill-opacity="1" stroke="#212121" stroke-opacity="1" stroke-width="1" stroke-linecap="square" stroke-linejoin="bevel" transform="matrix(0.49985,0,0,0.499751,324.35,457.772)"
font-family="Helvetica" font-size="20" font-weight="400" font-style="normal" 
>
<text fill="#212121" fill-opacity="1" stroke="none" xml:space="preserve" x="0" y="0.390625" font-family="Helvetica" font-size="20" font-weight="400" font-style="normal" 
 >-5</text>
</g>

<g fill="#212121" fill-opacity="1" stroke="#212121" stroke-opacity="1" stroke-width="1" stroke-linecap="square" stroke-linejoin="bevel" transform="matrix(0.49985,0,0,0.499751,428.371,457.772)"
font-family="Helvetica" font-size="20" font-weight="400" font-style="normal" 
>
<text fill="#212121" fill-opacity="1" stroke="none" xml:space="preserve" x="0" y="0.390625" font-family="Helvetica" font-size="20" font-weight="400" font-style="normal" 
 >0</text>
</g>

<g fill="#212121" fill-opacity="1" stroke="#212121" stroke-opacity="1" stroke-width="1" stroke-linecap="square" stroke-linejoin="bevel" transform="matrix(0.49985,0,0,0.499751,530.644,457.772)"
font-family="Helvetica" font-size="20" font-weight="400" font-style="normal" 
>
<text fill="#212121" fill-opacity="1" stroke="none" xml:space="preserve" x="0" y="0.390625" font-family="Helvetica" font-size="20" font-weight="400" font-style="normal" 
 >5</text>
</g>

<g fill="#212121" fill-opacity="1" stroke="#212121" stroke-opacity="1" stroke-width="1" stroke-linecap="square" stroke-linejoin="bevel" transform="matrix(0.49985,0,0,0.499751,630.167,457.772)"
font-family="Helvetica" font-size="20" font-weight="400" font-style="normal" 
>
<text fill="#212121" fill-opacity="1" stroke="none" xml:space="preserve" x="0" y="0.390625" font-family="Helvetica" font-size="20" font-weight="400" font-style="normal" 
 >10</text>
</g>

<g fill="#212121" fill-opacity="1" stroke="#212121" stroke-opacity="1" stroke-width="1" stroke-linecap="square" stroke-linejoin="bevel" transform="matrix(0.49985,0,0,0.499751,732.44,457.772)"
font-family="Helvetica" font-size="20" font-weight="400" font-style="normal" 
>
<text fill="#212121" fill-opacity="1" stroke="none" xml:space="preserve" x="0" y="0.390625" font-family="Helvetica" font-size="20" font-weight="400" font-style="normal" 
 >15</text>
</g>
</g>
</svg>