<?xml version="1.0" encoding="UTF-8" standalone="no"?>
<svg width="294.217mm" height="177.094mm"
 viewBox="0 0 834 502"
 xmlns="http://www.w3.org/2000/svg" xmlns:xlink="http://www.w3.org/1999/xlink"  version="1.2" baseProfile="tiny">
<title>Qt SVG Document</title>
<desc>MATLAB, The MathWorks, Inc. Version 25.1.0.2833191 R2025a Prerelease Update 2</desc>
<defs>
</defs>
<g fill="none" stroke="black" stroke-width="1" fill-rule="evenodd" stroke-linecap="square" stroke-linejoin="bevel" >

<g fill="#ffffff" fill-opacity="1" stroke="none" transform="matrix(0.49985,0,0,0.499751,0,0)"
font-family=".AppleSystemUIFont" font-size="13" font-weight="400" font-style="normal" 
>
<path vector-effect="none" fill-rule="evenodd" d="M0,0 L1668,0 L1668,1005 L0,1005 L0,0"/>
</g>

<g fill="#212121" fill-opacity="1" stroke="#212121" stroke-opacity="1" stroke-width="1" stroke-linecap="square" stroke-linejoin="bevel" transform="matrix(0.49985,0,0,0.499751,378.319,17.991)"
font-family="Helvetica" font-size="22" font-weight="700" font-style="normal" 
>
<text fill="#212121" fill-opacity="1" stroke="none" xml:space="preserve" x="0" y="-0.0625" font-family="Helvetica" font-size="22" font-weight="700" font-style="normal" 
 >Impulse Response</text>
</g>

<g fill="#212121" fill-opacity="1" stroke="#212121" stroke-opacity="1" stroke-width="1" stroke-linecap="square" stroke-linejoin="bevel" transform="matrix(0.49985,0,0,0.499751,389.066,474.099)"
font-family="Helvetica" font-size="22" font-weight="400" font-style="normal" 
>
<text fill="#212121" fill-opacity="1" stroke="none" xml:space="preserve" x="0" y="-0.0625" font-family="Helvetica" font-size="22" font-weight="400" font-style="normal" 
 >Time (seconds)</text>
</g>

<g fill="#212121" fill-opacity="1" stroke="#212121" stroke-opacity="1" stroke-width="1" stroke-linecap="square" stroke-linejoin="bevel" transform="matrix(0,-0.499751,0.49985,0,49.2352,274.406)"
font-family="Helvetica" font-size="22" font-weight="400" font-style="normal" 
>
<text fill="#212121" fill-opacity="1" stroke="none" xml:space="preserve" x="0" y="-0.0625" font-family="Helvetica" font-size="22" font-weight="400" font-style="normal" 
 >x(t) [metres]</text>
</g>

<g fill="#ffffff" fill-opacity="1" stroke="none" transform="matrix(4.9985e-05,0,0,4.99751e-05,0,0)"
font-family="Helvetica" font-size="22" font-weight="400" font-style="normal" 
>
<path vector-effect="none" fill-rule="evenodd" d="M2e+06,880000 L2e+06,8.93e+06 L1.508e+07,8.93e+06 L1.508e+07,880000 L2e+06,880000"/>
</g>

<g fill="#212121" fill-opacity="0.14902" stroke="#212121" stroke-opacity="0.14902" stroke-width="1" stroke-linecap="butt" stroke-linejoin="round" transform="matrix(0.49985,0,0,0.499751,0,0)"
font-family="Helvetica" font-size="22" font-weight="400" font-style="normal" 
>
<polyline fill="none" vector-effect="none" points="200,88 200,893 " />
<polyline fill="none" vector-effect="none" points="330.8,88 330.8,893 " />
<polyline fill="none" vector-effect="none" points="461.6,88 461.6,893 " />
<polyline fill="none" vector-effect="none" points="592.4,88 592.4,893 " />
<polyline fill="none" vector-effect="none" points="723.2,88 723.2,893 " />
<polyline fill="none" vector-effect="none" points="854,88 854,893 " />
<polyline fill="none" vector-effect="none" points="984.8,88 984.8,893 " />
<polyline fill="none" vector-effect="none" points="1115.6,88 1115.6,893 " />
<polyline fill="none" vector-effect="none" points="1246.4,88 1246.4,893 " />
<polyline fill="none" vector-effect="none" points="1377.2,88 1377.2,893 " />
<polyline fill="none" vector-effect="none" points="1508,88 1508,893 " />
<polyline fill="none" vector-effect="none" points="200,893 1508,893 " />
<polyline fill="none" vector-effect="none" points="200,812.5 1508,812.5 " />
<polyline fill="none" vector-effect="none" points="200,732 1508,732 " />
<polyline fill="none" vector-effect="none" points="200,651.5 1508,651.5 " />
<polyline fill="none" vector-effect="none" points="200,571 1508,571 " />
<polyline fill="none" vector-effect="none" points="200,490.5 1508,490.5 " />
<polyline fill="none" vector-effect="none" points="200,410 1508,410 " />
<polyline fill="none" vector-effect="none" points="200,329.5 1508,329.5 " />
<polyline fill="none" vector-effect="none" points="200,249 1508,249 " />
<polyline fill="none" vector-effect="none" points="200,168.5 1508,168.5 " />
<polyline fill="none" vector-effect="none" points="200,88 1508,88 " />
</g>

<g fill="#616161" fill-opacity="1" stroke="#616161" stroke-opacity="1" stroke-width="1" stroke-linecap="square" stroke-linejoin="round" transform="matrix(0.49985,0,0,0.499751,0,0)"
font-family="Helvetica" font-size="22" font-weight="400" font-style="normal" 
>
<polyline fill="none" vector-effect="none" points="200,893 1508,893 " />
<polyline fill="none" vector-effect="none" points="200,88 1508,88 " />
<polyline fill="none" vector-effect="none" points="200,893 200,879.92 " />
<polyline fill="none" vector-effect="none" points="330.8,893 330.8,879.92 " />
<polyline fill="none" vector-effect="none" points="461.6,893 461.6,879.92 " />
<polyline fill="none" vector-effect="none" points="592.4,893 592.4,879.92 " />
<polyline fill="none" vector-effect="none" points="723.2,893 723.2,879.92 " />
<polyline fill="none" vector-effect="none" points="854,893 854,879.92 " />
<polyline fill="none" vector-effect="none" points="984.8,893 984.8,879.92 " />
<polyline fill="none" vector-effect="none" points="1115.6,893 1115.6,879.92 " />
<polyline fill="none" vector-effect="none" points="1246.4,893 1246.4,879.92 " />
<polyline fill="none" vector-effect="none" points="1377.2,893 1377.2,879.92 " />
<polyline fill="none" vector-effect="none" points="1508,893 1508,879.92 " />
<polyline fill="none" vector-effect="none" points="200,88 200,101.08 " />
<polyline fill="none" vector-effect="none" points="330.8,88 330.8,101.08 " />
<polyline fill="none" vector-effect="none" points="461.6,88 461.6,101.08 " />
<polyline fill="none" vector-effect="none" points="592.4,88 592.4,101.08 " />
<polyline fill="none" vector-effect="none" points="723.2,88 723.2,101.08 " />
<polyline fill="none" vector-effect="none" points="854,88 854,101.08 " />
<polyline fill="none" vector-effect="none" points="984.8,88 984.8,101.08 " />
<polyline fill="none" vector-effect="none" points="1115.6,88 1115.6,101.08 " />
<polyline fill="none" vector-effect="none" points="1246.4,88 1246.4,101.08 " />
<polyline fill="none" vector-effect="none" points="1377.2,88 1377.2,101.08 " />
<polyline fill="none" vector-effect="none" points="1508,88 1508,101.08 " />
</g>

<g fill="#616161" fill-opacity="1" stroke="#616161" stroke-opacity="1" stroke-width="1" stroke-linecap="square" stroke-linejoin="bevel" transform="matrix(0.49985,0,0,0.499751,97.2208,457.772)"
font-family="Helvetica" font-size="20" font-weight="400" font-style="normal" 
>
<text fill="#616161" fill-opacity="1" stroke="none" xml:space="preserve" x="0" y="0.390625" font-family="Helvetica" font-size="20" font-weight="400" font-style="normal" 
 >0</text>
</g>

<g fill="#616161" fill-opacity="1" stroke="#616161" stroke-opacity="1" stroke-width="1" stroke-linecap="square" stroke-linejoin="bevel" transform="matrix(0.49985,0,0,0.499751,159.852,457.772)"
font-family="Helvetica" font-size="20" font-weight="400" font-style="normal" 
>
<text fill="#616161" fill-opacity="1" stroke="none" xml:space="preserve" x="0" y="0.390625" font-family="Helvetica" font-size="20" font-weight="400" font-style="normal" 
 >10</text>
</g>

<g fill="#616161" fill-opacity="1" stroke="#616161" stroke-opacity="1" stroke-width="1" stroke-linecap="square" stroke-linejoin="bevel" transform="matrix(0.49985,0,0,0.499751,225.232,457.772)"
font-family="Helvetica" font-size="20" font-weight="400" font-style="normal" 
>
<text fill="#616161" fill-opacity="1" stroke="none" xml:space="preserve" x="0" y="0.390625" font-family="Helvetica" font-size="20" font-weight="400" font-style="normal" 
 >20</text>
</g>

<g fill="#616161" fill-opacity="1" stroke="#616161" stroke-opacity="1" stroke-width="1" stroke-linecap="square" stroke-linejoin="bevel" transform="matrix(0.49985,0,0,0.499751,290.613,457.772)"
font-family="Helvetica" font-size="20" font-weight="400" font-style="normal" 
>
<text fill="#616161" fill-opacity="1" stroke="none" xml:space="preserve" x="0" y="0.390625" font-family="Helvetica" font-size="20" font-weight="400" font-style="normal" 
 >30</text>
</g>

<g fill="#616161" fill-opacity="1" stroke="#616161" stroke-opacity="1" stroke-width="1" stroke-linecap="square" stroke-linejoin="bevel" transform="matrix(0.49985,0,0,0.499751,355.993,457.772)"
font-family="Helvetica" font-size="20" font-weight="400" font-style="normal" 
>
<text fill="#616161" fill-opacity="1" stroke="none" xml:space="preserve" x="0" y="0.390625" font-family="Helvetica" font-size="20" font-weight="400" font-style="normal" 
 >40</text>
</g>

<g fill="#616161" fill-opacity="1" stroke="#616161" stroke-opacity="1" stroke-width="1" stroke-linecap="square" stroke-linejoin="bevel" transform="matrix(0.49985,0,0,0.499751,421.374,457.772)"
font-family="Helvetica" font-size="20" font-weight="400" font-style="normal" 
>
<text fill="#616161" fill-opacity="1" stroke="none" xml:space="preserve" x="0" y="0.390625" font-family="Helvetica" font-size="20" font-weight="400" font-style="normal" 
 >50</text>
</g>

<g fill="#616161" fill-opacity="1" stroke="#616161" stroke-opacity="1" stroke-width="1" stroke-linecap="square" stroke-linejoin="bevel" transform="matrix(0.49985,0,0,0.499751,486.754,457.772)"
font-family="Helvetica" font-size="20" font-weight="400" font-style="normal" 
>
<text fill="#616161" fill-opacity="1" stroke="none" xml:space="preserve" x="0" y="0.390625" font-family="Helvetica" font-size="20" font-weight="400" font-style="normal" 
 >60</text>
</g>

<g fill="#616161" fill-opacity="1" stroke="#616161" stroke-opacity="1" stroke-width="1" stroke-linecap="square" stroke-linejoin="bevel" transform="matrix(0.49985,0,0,0.499751,552.134,457.772)"
font-family="Helvetica" font-size="20" font-weight="400" font-style="normal" 
>
<text fill="#616161" fill-opacity="1" stroke="none" xml:space="preserve" x="0" y="0.390625" font-family="Helvetica" font-size="20" font-weight="400" font-style="normal" 
 >70</text>
</g>

<g fill="#616161" fill-opacity="1" stroke="#616161" stroke-opacity="1" stroke-width="1" stroke-linecap="square" stroke-linejoin="bevel" transform="matrix(0.49985,0,0,0.499751,617.515,457.772)"
font-family="Helvetica" font-size="20" font-weight="400" font-style="normal" 
>
<text fill="#616161" fill-opacity="1" stroke="none" xml:space="preserve" x="0" y="0.390625" font-family="Helvetica" font-size="20" font-weight="400" font-style="normal" 
 >80</text>
</g>

<g fill="#616161" fill-opacity="1" stroke="#616161" stroke-opacity="1" stroke-width="1" stroke-linecap="square" stroke-linejoin="bevel" transform="matrix(0.49985,0,0,0.499751,682.895,457.772)"
font-family="Helvetica" font-size="20" font-weight="400" font-style="normal" 
>
<text fill="#616161" fill-opacity="1" stroke="none" xml:space="preserve" x="0" y="0.390625" font-family="Helvetica" font-size="20" font-weight="400" font-style="normal" 
 >90</text>
</g>

<g fill="#616161" fill-opacity="1" stroke="#616161" stroke-opacity="1" stroke-width="1" stroke-linecap="square" stroke-linejoin="bevel" transform="matrix(0.49985,0,0,0.499751,745.526,457.772)"
font-family="Helvetica" font-size="20" font-weight="400" font-style="normal" 
>
<text fill="#616161" fill-opacity="1" stroke="none" xml:space="preserve" x="0" y="0.390625" font-family="Helvetica" font-size="20" font-weight="400" font-style="normal" 
 >100</text>
</g>

<g fill="#616161" fill-opacity="1" stroke="#616161" stroke-opacity="1" stroke-width="1" stroke-linecap="square" stroke-linejoin="round" transform="matrix(0.49985,0,0,0.499751,0,0)"
font-family="Helvetica" font-size="20" font-weight="400" font-style="normal" 
>
<polyline fill="none" vector-effect="none" points="200,893 200,88 " />
<polyline fill="none" vector-effect="none" points="1508,893 1508,88 " />
<polyline fill="none" vector-effect="none" points="200,893 213.08,893 " />
<polyline fill="none" vector-effect="none" points="200,812.5 213.08,812.5 " />
<polyline fill="none" vector-effect="none" points="200,732 213.08,732 " />
<polyline fill="none" vector-effect="none" points="200,651.5 213.08,651.5 " />
<polyline fill="none" vector-effect="none" points="200,571 213.08,571 " />
<polyline fill="none" vector-effect="none" points="200,490.5 213.08,490.5 " />
<polyline fill="none" vector-effect="none" points="200,410 213.08,410 " />
<polyline fill="none" vector-effect="none" points="200,329.5 213.08,329.5 " />
<polyline fill="none" vector-effect="none" points="200,249 213.08,249 " />
<polyline fill="none" vector-effect="none" points="200,168.5 213.08,168.5 " />
<polyline fill="none" vector-effect="none" points="200,88 213.08,88 " />
<polyline fill="none" vector-effect="none" points="1508,893 1494.92,893 " />
<polyline fill="none" vector-effect="none" points="1508,812.5 1494.92,812.5 " />
<polyline fill="none" vector-effect="none" points="1508,732 1494.92,732 " />
<polyline fill="none" vector-effect="none" points="1508,651.5 1494.92,651.5 " />
<polyline fill="none" vector-effect="none" points="1508,571 1494.92,571 " />
<polyline fill="none" vector-effect="none" points="1508,490.5 1494.92,490.5 " />
<polyline fill="none" vector-effect="none" points="1508,410 1494.92,410 " />
<polyline fill="none" vector-effect="none" points="1508,329.5 1494.92,329.5 " />
<polyline fill="none" vector-effect="none" points="1508,249 1494.92,249 " />
<polyline fill="none" vector-effect="none" points="1508,168.5 1494.92,168.5 " />
<polyline fill="none" vector-effect="none" points="1508,88 1494.92,88 " />
</g>

<g fill="#616161" fill-opacity="1" stroke="#616161" stroke-opacity="1" stroke-width="1" stroke-linecap="square" stroke-linejoin="bevel" transform="matrix(0.49985,0,0,0.499751,90.4729,448.776)"
font-family="Helvetica" font-size="20" font-weight="400" font-style="normal" 
>
<text fill="#616161" fill-opacity="1" stroke="none" xml:space="preserve" x="0" y="0.390625" font-family="Helvetica" font-size="20" font-weight="400" font-style="normal" 
 >0</text>
</g>

<g fill="#616161" fill-opacity="1" stroke="#616161" stroke-opacity="1" stroke-width="1" stroke-linecap="square" stroke-linejoin="bevel" transform="matrix(0.49985,0,0,0.499751,70.9787,408.546)"
font-family="Helvetica" font-size="20" font-weight="400" font-style="normal" 
>
<text fill="#616161" fill-opacity="1" stroke="none" xml:space="preserve" x="0" y="0.390625" font-family="Helvetica" font-size="20" font-weight="400" font-style="normal" 
 >0.001</text>
</g>

<g fill="#616161" fill-opacity="1" stroke="#616161" stroke-opacity="1" stroke-width="1" stroke-linecap="square" stroke-linejoin="bevel" transform="matrix(0.49985,0,0,0.499751,70.9787,368.316)"
font-family="Helvetica" font-size="20" font-weight="400" font-style="normal" 
>
<text fill="#616161" fill-opacity="1" stroke="none" xml:space="preserve" x="0" y="0.390625" font-family="Helvetica" font-size="20" font-weight="400" font-style="normal" 
 >0.002</text>
</g>

<g fill="#616161" fill-opacity="1" stroke="#616161" stroke-opacity="1" stroke-width="1" stroke-linecap="square" stroke-linejoin="bevel" transform="matrix(0.49985,0,0,0.499751,70.9787,328.087)"
font-family="Helvetica" font-size="20" font-weight="400" font-style="normal" 
>
<text fill="#616161" fill-opacity="1" stroke="none" xml:space="preserve" x="0" y="0.390625" font-family="Helvetica" font-size="20" font-weight="400" font-style="normal" 
 >0.003</text>
</g>

<g fill="#616161" fill-opacity="1" stroke="#616161" stroke-opacity="1" stroke-width="1" stroke-linecap="square" stroke-linejoin="bevel" transform="matrix(0.49985,0,0,0.499751,70.9787,287.857)"
font-family="Helvetica" font-size="20" font-weight="400" font-style="normal" 
>
<text fill="#616161" fill-opacity="1" stroke="none" xml:space="preserve" x="0" y="0.390625" font-family="Helvetica" font-size="20" font-weight="400" font-style="normal" 
 >0.004</text>
</g>

<g fill="#616161" fill-opacity="1" stroke="#616161" stroke-opacity="1" stroke-width="1" stroke-linecap="square" stroke-linejoin="bevel" transform="matrix(0.49985,0,0,0.499751,70.9787,247.627)"
font-family="Helvetica" font-size="20" font-weight="400" font-style="normal" 
>
<text fill="#616161" fill-opacity="1" stroke="none" xml:space="preserve" x="0" y="0.390625" font-family="Helvetica" font-size="20" font-weight="400" font-style="normal" 
 >0.005</text>
</g>

<g fill="#616161" fill-opacity="1" stroke="#616161" stroke-opacity="1" stroke-width="1" stroke-linecap="square" stroke-linejoin="bevel" transform="matrix(0.49985,0,0,0.499751,70.9787,207.397)"
font-family="Helvetica" font-size="20" font-weight="400" font-style="normal" 
>
<text fill="#616161" fill-opacity="1" stroke="none" xml:space="preserve" x="0" y="0.390625" font-family="Helvetica" font-size="20" font-weight="400" font-style="normal" 
 >0.006</text>
</g>

<g fill="#616161" fill-opacity="1" stroke="#616161" stroke-opacity="1" stroke-width="1" stroke-linecap="square" stroke-linejoin="bevel" transform="matrix(0.49985,0,0,0.499751,70.9787,167.167)"
font-family="Helvetica" font-size="20" font-weight="400" font-style="normal" 
>
<text fill="#616161" fill-opacity="1" stroke="none" xml:space="preserve" x="0" y="0.390625" font-family="Helvetica" font-size="20" font-weight="400" font-style="normal" 
 >0.007</text>
</g>

<g fill="#616161" fill-opacity="1" stroke="#616161" stroke-opacity="1" stroke-width="1" stroke-linecap="square" stroke-linejoin="bevel" transform="matrix(0.49985,0,0,0.499751,70.9787,126.937)"
font-family="Helvetica" font-size="20" font-weight="400" font-style="normal" 
>
<text fill="#616161" fill-opacity="1" stroke="none" xml:space="preserve" x="0" y="0.390625" font-family="Helvetica" font-size="20" font-weight="400" font-style="normal" 
 >0.008</text>
</g>

<g fill="#616161" fill-opacity="1" stroke="#616161" stroke-opacity="1" stroke-width="1" stroke-linecap="square" stroke-linejoin="bevel" transform="matrix(0.49985,0,0,0.499751,70.9787,86.7068)"
font-family="Helvetica" font-size="20" font-weight="400" font-style="normal" 
>
<text fill="#616161" fill-opacity="1" stroke="none" xml:space="preserve" x="0" y="0.390625" font-family="Helvetica" font-size="20" font-weight="400" font-style="normal" 
 >0.009</text>
</g>

<g fill="#616161" fill-opacity="1" stroke="#616161" stroke-opacity="1" stroke-width="1" stroke-linecap="square" stroke-linejoin="bevel" transform="matrix(0.49985,0,0,0.499751,76.4771,46.4769)"
font-family="Helvetica" font-size="20" font-weight="400" font-style="normal" 
>
<text fill="#616161" fill-opacity="1" stroke="none" xml:space="preserve" x="0" y="0.390625" font-family="Helvetica" font-size="20" font-weight="400" font-style="normal" 
 >0.01</text>
</g>

<g fill="none" stroke="#1171be" stroke-opacity="1" stroke-width="1" stroke-linecap="butt" stroke-linejoin="round" transform="matrix(0.49985,0,0,0.499751,0,0)"
font-family="Helvetica" font-size="20" font-weight="400" font-style="normal" 
>
<polyline fill="none" vector-effect="none" points="200,893 213.08,833.399 226.16,778.21 239.24,727.108 252.32,679.789 265.4,635.974 278.48,595.402 291.56,557.835 304.64,523.049 317.72,490.838 330.8,461.012 343.88,433.395 356.96,407.822 370.04,384.143 383.12,362.217 396.2,341.914 409.28,323.115 422.36,305.707 435.44,289.588 448.52,274.663 461.6,260.842 474.68,248.045 487.76,236.196 500.84,225.224 513.92,215.064 527,205.656 540.08,196.945 553.16,188.879 566.24,181.41 579.32,174.494 592.4,168.09 605.48,162.16 618.56,156.669 631.64,151.585 644.72,146.877 657.8,142.518 670.88,138.482 683.96,134.744 697.04,131.283 710.12,128.079 723.2,125.111 736.28,122.364 749.36,119.819 762.44,117.463 775.52,115.282 788.6,113.262 801.68,111.392 814.76,109.66 827.84,108.056 840.92,106.571 854,105.196 867.08,103.923 880.16,102.744 893.24,101.652 906.32,100.642 919.4,99.7057 932.48,98.839 945.56,98.0364 958.64,97.2934 971.72,96.6053 984.8,95.9682 997.88,95.3783 1010.96,94.8319 1024.04,94.3261 1037.12,93.8578 1050.2,93.4241 1063.28,93.0224 1076.36,92.6506 1089.44,92.3063 1102.52,91.9874 1115.6,91.6922 1128.68,91.4189 1141.76,91.1657 1154.84,90.9313 1167.92,90.7143 1181,90.5134 1194.08,90.3273 1207.16,90.1549 1220.24,89.9954 1233.32,89.8477 1246.4,89.7109 1259.48,89.5842 1272.56,89.4669 1285.64,89.3583 1298.72,89.2577 1311.8,89.1646 1324.88,89.0784 1337.96,88.9986 1351.04,88.9246 1364.12,88.8561 1377.2,88.7928 1390.28,88.7341 1403.36,88.6797 1416.44,88.6294 1429.52,88.5828 1442.6,88.5397 1455.68,88.4997 1468.76,88.4627 1481.84,88.4284 1494.92,88.3967 1508,88.3674 " />
</g>
</g>
</svg>