<?xml version="1.0" encoding="UTF-8" standalone="no"?>
<svg width="294.217mm" height="177.094mm"
 viewBox="0 0 834 502"
 xmlns="http://www.w3.org/2000/svg" xmlns:xlink="http://www.w3.org/1999/xlink"  version="1.2" baseProfile="tiny">
<title>Qt SVG Document</title>
<desc>MATLAB, The MathWorks, Inc. Version 25.1.0.2833191 R2025a Prerelease Update 2</desc>
<defs>
</defs>
<g fill="none" stroke="black" stroke-width="1" fill-rule="evenodd" stroke-linecap="square" stroke-linejoin="bevel" >

<g fill="#ffffff" fill-opacity="1" stroke="none" transform="matrix(0.49985,0,0,0.499751,0,0)"
font-family=".AppleSystemUIFont" font-size="13" font-weight="400" font-style="normal" 
>
<path vector-effect="none" fill-rule="evenodd" d="M0,0 L1668,0 L1668,1005 L0,1005 L0,0"/>
</g>

<g fill="#ffffff" fill-opacity="1" stroke="none" transform="matrix(4.9985e-05,0,0,4.99751e-05,0,0)"
font-family=".AppleSystemUIFont" font-size="13" font-weight="400" font-style="normal" 
>
<path vector-effect="none" fill-rule="evenodd" d="M2.17e+06,750000 L2.17e+06,8.93e+06 L1.508e+07,8.93e+06 L1.508e+07,750000 L2.17e+06,750000"/>
</g>

<g fill="#212121" fill-opacity="0.14902" stroke="#212121" stroke-opacity="0.14902" stroke-width="1" stroke-linecap="butt" stroke-linejoin="round" transform="matrix(0.49985,0,0,0.499751,0,0)"
font-family=".AppleSystemUIFont" font-size="13" font-weight="400" font-style="normal" 
>
<polyline fill="none" vector-effect="none" points="217,75 217,893 " />
<polyline fill="none" vector-effect="none" points="346.1,75 346.1,893 " />
<polyline fill="none" vector-effect="none" points="475.2,75 475.2,893 " />
<polyline fill="none" vector-effect="none" points="604.3,75 604.3,893 " />
<polyline fill="none" vector-effect="none" points="733.4,75 733.4,893 " />
<polyline fill="none" vector-effect="none" points="862.5,75 862.5,893 " />
<polyline fill="none" vector-effect="none" points="991.6,75 991.6,893 " />
<polyline fill="none" vector-effect="none" points="1120.7,75 1120.7,893 " />
<polyline fill="none" vector-effect="none" points="1249.8,75 1249.8,893 " />
<polyline fill="none" vector-effect="none" points="1378.9,75 1378.9,893 " />
<polyline fill="none" vector-effect="none" points="1508,75 1508,893 " />
<polyline fill="none" vector-effect="none" points="217,893 1508,893 " />
<polyline fill="none" vector-effect="none" points="217,811.2 1508,811.2 " />
<polyline fill="none" vector-effect="none" points="217,729.4 1508,729.4 " />
<polyline fill="none" vector-effect="none" points="217,647.6 1508,647.6 " />
<polyline fill="none" vector-effect="none" points="217,565.8 1508,565.8 " />
<polyline fill="none" vector-effect="none" points="217,484 1508,484 " />
<polyline fill="none" vector-effect="none" points="217,402.2 1508,402.2 " />
<polyline fill="none" vector-effect="none" points="217,320.4 1508,320.4 " />
<polyline fill="none" vector-effect="none" points="217,238.6 1508,238.6 " />
<polyline fill="none" vector-effect="none" points="217,156.8 1508,156.8 " />
<polyline fill="none" vector-effect="none" points="217,75 1508,75 " />
</g>

<g fill="#212121" fill-opacity="1" stroke="#212121" stroke-opacity="1" stroke-width="1" stroke-linecap="square" stroke-linejoin="bevel" transform="matrix(0.49985,0,0,0.499751,422.374,471.265)"
font-family="Helvetica" font-size="22" font-weight="400" font-style="normal" 
>
<text fill="#212121" fill-opacity="1" stroke="none" xml:space="preserve" x="0" y="-0.0625" font-family="Helvetica" font-size="22" font-weight="400" font-style="normal" 
 >t [s]</text>
</g>

<g fill="#212121" fill-opacity="1" stroke="#212121" stroke-opacity="1" stroke-width="1" stroke-linecap="butt" stroke-linejoin="round" transform="matrix(0.49985,0,0,0.499751,0,0)"
font-family="Helvetica" font-size="22" font-weight="400" font-style="normal" 
>
<polyline fill="none" vector-effect="none" points="217,893 1508,893 " />
<polyline fill="none" vector-effect="none" points="217,75 1508,75 " />
<polyline fill="none" vector-effect="none" points="217,893 217,880.09 " />
<polyline fill="none" vector-effect="none" points="217,87.91 217,75 " />
<polyline fill="none" vector-effect="none" points="346.1,893 346.1,880.09 " />
<polyline fill="none" vector-effect="none" points="346.1,87.91 346.1,75 " />
<polyline fill="none" vector-effect="none" points="475.2,893 475.2,880.09 " />
<polyline fill="none" vector-effect="none" points="475.2,87.91 475.2,75 " />
<polyline fill="none" vector-effect="none" points="604.3,893 604.3,880.09 " />
<polyline fill="none" vector-effect="none" points="604.3,87.91 604.3,75 " />
<polyline fill="none" vector-effect="none" points="733.4,893 733.4,880.09 " />
<polyline fill="none" vector-effect="none" points="733.4,87.91 733.4,75 " />
<polyline fill="none" vector-effect="none" points="862.5,893 862.5,880.09 " />
<polyline fill="none" vector-effect="none" points="862.5,87.91 862.5,75 " />
<polyline fill="none" vector-effect="none" points="991.6,893 991.6,880.09 " />
<polyline fill="none" vector-effect="none" points="991.6,87.91 991.6,75 " />
<polyline fill="none" vector-effect="none" points="1120.7,893 1120.7,880.09 " />
<polyline fill="none" vector-effect="none" points="1120.7,87.91 1120.7,75 " />
<polyline fill="none" vector-effect="none" points="1249.8,893 1249.8,880.09 " />
<polyline fill="none" vector-effect="none" points="1249.8,87.91 1249.8,75 " />
<polyline fill="none" vector-effect="none" points="1378.9,893 1378.9,880.09 " />
<polyline fill="none" vector-effect="none" points="1378.9,87.91 1378.9,75 " />
<polyline fill="none" vector-effect="none" points="1508,893 1508,880.09 " />
<polyline fill="none" vector-effect="none" points="1508,87.91 1508,75 " />
</g>

<g fill="#212121" fill-opacity="1" stroke="#212121" stroke-opacity="1" stroke-width="1" stroke-linecap="square" stroke-linejoin="bevel" transform="matrix(0.49985,0,0,0.499751,105.718,457.772)"
font-family="Helvetica" font-size="20" font-weight="400" font-style="normal" 
>
<text fill="#212121" fill-opacity="1" stroke="none" xml:space="preserve" x="0" y="0.390625" font-family="Helvetica" font-size="20" font-weight="400" font-style="normal" 
 >0</text>
</g>

<g fill="#212121" fill-opacity="1" stroke="#212121" stroke-opacity="1" stroke-width="1" stroke-linecap="square" stroke-linejoin="bevel" transform="matrix(0.49985,0,0,0.499751,167.5,457.772)"
font-family="Helvetica" font-size="20" font-weight="400" font-style="normal" 
>
<text fill="#212121" fill-opacity="1" stroke="none" xml:space="preserve" x="0" y="0.390625" font-family="Helvetica" font-size="20" font-weight="400" font-style="normal" 
 >10</text>
</g>

<g fill="#212121" fill-opacity="1" stroke="#212121" stroke-opacity="1" stroke-width="1" stroke-linecap="square" stroke-linejoin="bevel" transform="matrix(0.49985,0,0,0.499751,232.03,457.772)"
font-family="Helvetica" font-size="20" font-weight="400" font-style="normal" 
>
<text fill="#212121" fill-opacity="1" stroke="none" xml:space="preserve" x="0" y="0.390625" font-family="Helvetica" font-size="20" font-weight="400" font-style="normal" 
 >20</text>
</g>

<g fill="#212121" fill-opacity="1" stroke="#212121" stroke-opacity="1" stroke-width="1" stroke-linecap="square" stroke-linejoin="bevel" transform="matrix(0.49985,0,0,0.499751,296.561,457.772)"
font-family="Helvetica" font-size="20" font-weight="400" font-style="normal" 
>
<text fill="#212121" fill-opacity="1" stroke="none" xml:space="preserve" x="0" y="0.390625" font-family="Helvetica" font-size="20" font-weight="400" font-style="normal" 
 >30</text>
</g>

<g fill="#212121" fill-opacity="1" stroke="#212121" stroke-opacity="1" stroke-width="1" stroke-linecap="square" stroke-linejoin="bevel" transform="matrix(0.49985,0,0,0.499751,361.092,457.772)"
font-family="Helvetica" font-size="20" font-weight="400" font-style="normal" 
>
<text fill="#212121" fill-opacity="1" stroke="none" xml:space="preserve" x="0" y="0.390625" font-family="Helvetica" font-size="20" font-weight="400" font-style="normal" 
 >40</text>
</g>

<g fill="#212121" fill-opacity="1" stroke="#212121" stroke-opacity="1" stroke-width="1" stroke-linecap="square" stroke-linejoin="bevel" transform="matrix(0.49985,0,0,0.499751,425.622,457.772)"
font-family="Helvetica" font-size="20" font-weight="400" font-style="normal" 
>
<text fill="#212121" fill-opacity="1" stroke="none" xml:space="preserve" x="0" y="0.390625" font-family="Helvetica" font-size="20" font-weight="400" font-style="normal" 
 >50</text>
</g>

<g fill="#212121" fill-opacity="1" stroke="#212121" stroke-opacity="1" stroke-width="1" stroke-linecap="square" stroke-linejoin="bevel" transform="matrix(0.49985,0,0,0.499751,490.153,457.772)"
font-family="Helvetica" font-size="20" font-weight="400" font-style="normal" 
>
<text fill="#212121" fill-opacity="1" stroke="none" xml:space="preserve" x="0" y="0.390625" font-family="Helvetica" font-size="20" font-weight="400" font-style="normal" 
 >60</text>
</g>

<g fill="#212121" fill-opacity="1" stroke="#212121" stroke-opacity="1" stroke-width="1" stroke-linecap="square" stroke-linejoin="bevel" transform="matrix(0.49985,0,0,0.499751,554.684,457.772)"
font-family="Helvetica" font-size="20" font-weight="400" font-style="normal" 
>
<text fill="#212121" fill-opacity="1" stroke="none" xml:space="preserve" x="0" y="0.390625" font-family="Helvetica" font-size="20" font-weight="400" font-style="normal" 
 >70</text>
</g>

<g fill="#212121" fill-opacity="1" stroke="#212121" stroke-opacity="1" stroke-width="1" stroke-linecap="square" stroke-linejoin="bevel" transform="matrix(0.49985,0,0,0.499751,619.214,457.772)"
font-family="Helvetica" font-size="20" font-weight="400" font-style="normal" 
>
<text fill="#212121" fill-opacity="1" stroke="none" xml:space="preserve" x="0" y="0.390625" font-family="Helvetica" font-size="20" font-weight="400" font-style="normal" 
 >80</text>
</g>

<g fill="#212121" fill-opacity="1" stroke="#212121" stroke-opacity="1" stroke-width="1" stroke-linecap="square" stroke-linejoin="bevel" transform="matrix(0.49985,0,0,0.499751,683.745,457.772)"
font-family="Helvetica" font-size="20" font-weight="400" font-style="normal" 
>
<text fill="#212121" fill-opacity="1" stroke="none" xml:space="preserve" x="0" y="0.390625" font-family="Helvetica" font-size="20" font-weight="400" font-style="normal" 
 >90</text>
</g>

<g fill="#212121" fill-opacity="1" stroke="#212121" stroke-opacity="1" stroke-width="1" stroke-linecap="square" stroke-linejoin="bevel" transform="matrix(0.49985,0,0,0.499751,745.526,457.772)"
font-family="Helvetica" font-size="20" font-weight="400" font-style="normal" 
>
<text fill="#212121" fill-opacity="1" stroke="none" xml:space="preserve" x="0" y="0.390625" font-family="Helvetica" font-size="20" font-weight="400" font-style="normal" 
 >100</text>
</g>

<g fill="#212121" fill-opacity="1" stroke="#212121" stroke-opacity="1" stroke-width="1" stroke-linecap="square" stroke-linejoin="bevel" transform="matrix(0,-0.499751,0.49985,0,73.478,253.873)"
font-family="Helvetica" font-size="22" font-weight="400" font-style="normal" 
>
<text fill="#212121" fill-opacity="1" stroke="none" xml:space="preserve" x="0" y="-0.0625" font-family="Helvetica" font-size="22" font-weight="400" font-style="normal" 
 >x [m]</text>
</g>

<g fill="#212121" fill-opacity="1" stroke="#212121" stroke-opacity="1" stroke-width="1" stroke-linecap="butt" stroke-linejoin="round" transform="matrix(0.49985,0,0,0.499751,0,0)"
font-family="Helvetica" font-size="22" font-weight="400" font-style="normal" 
>
<polyline fill="none" vector-effect="none" points="217,893 217,75 " />
<polyline fill="none" vector-effect="none" points="1508,893 1508,75 " />
<polyline fill="none" vector-effect="none" points="217,893 229.91,893 " />
<polyline fill="none" vector-effect="none" points="1495.09,893 1508,893 " />
<polyline fill="none" vector-effect="none" points="217,811.2 229.91,811.2 " />
<polyline fill="none" vector-effect="none" points="1495.09,811.2 1508,811.2 " />
<polyline fill="none" vector-effect="none" points="217,729.4 229.91,729.4 " />
<polyline fill="none" vector-effect="none" points="1495.09,729.4 1508,729.4 " />
<polyline fill="none" vector-effect="none" points="217,647.6 229.91,647.6 " />
<polyline fill="none" vector-effect="none" points="1495.09,647.6 1508,647.6 " />
<polyline fill="none" vector-effect="none" points="217,565.8 229.91,565.8 " />
<polyline fill="none" vector-effect="none" points="1495.09,565.8 1508,565.8 " />
<polyline fill="none" vector-effect="none" points="217,484 229.91,484 " />
<polyline fill="none" vector-effect="none" points="1495.09,484 1508,484 " />
<polyline fill="none" vector-effect="none" points="217,402.2 229.91,402.2 " />
<polyline fill="none" vector-effect="none" points="1495.09,402.2 1508,402.2 " />
<polyline fill="none" vector-effect="none" points="217,320.4 229.91,320.4 " />
<polyline fill="none" vector-effect="none" points="1495.09,320.4 1508,320.4 " />
<polyline fill="none" vector-effect="none" points="217,238.6 229.91,238.6 " />
<polyline fill="none" vector-effect="none" points="1495.09,238.6 1508,238.6 " />
<polyline fill="none" vector-effect="none" points="217,156.8 229.91,156.8 " />
<polyline fill="none" vector-effect="none" points="1495.09,156.8 1508,156.8 " />
<polyline fill="none" vector-effect="none" points="217,75 229.91,75 " />
<polyline fill="none" vector-effect="none" points="1495.09,75 1508,75 " />
</g>

<g fill="#212121" fill-opacity="1" stroke="#212121" stroke-opacity="1" stroke-width="1" stroke-linecap="square" stroke-linejoin="bevel" transform="matrix(0.49985,0,0,0.499751,98.9703,448.776)"
font-family="Helvetica" font-size="20" font-weight="400" font-style="normal" 
>
<text fill="#212121" fill-opacity="1" stroke="none" xml:space="preserve" x="0" y="0.390625" font-family="Helvetica" font-size="20" font-weight="400" font-style="normal" 
 >0</text>
</g>

<g fill="#212121" fill-opacity="1" stroke="#212121" stroke-opacity="1" stroke-width="1" stroke-linecap="square" stroke-linejoin="bevel" transform="matrix(0.49985,0,0,0.499751,79.4762,407.897)"
font-family="Helvetica" font-size="20" font-weight="400" font-style="normal" 
>
<text fill="#212121" fill-opacity="1" stroke="none" xml:space="preserve" x="0" y="0.390625" font-family="Helvetica" font-size="20" font-weight="400" font-style="normal" 
 >0.001</text>
</g>

<g fill="#212121" fill-opacity="1" stroke="#212121" stroke-opacity="1" stroke-width="1" stroke-linecap="square" stroke-linejoin="bevel" transform="matrix(0.49985,0,0,0.499751,79.4762,367.017)"
font-family="Helvetica" font-size="20" font-weight="400" font-style="normal" 
>
<text fill="#212121" fill-opacity="1" stroke="none" xml:space="preserve" x="0" y="0.390625" font-family="Helvetica" font-size="20" font-weight="400" font-style="normal" 
 >0.002</text>
</g>

<g fill="#212121" fill-opacity="1" stroke="#212121" stroke-opacity="1" stroke-width="1" stroke-linecap="square" stroke-linejoin="bevel" transform="matrix(0.49985,0,0,0.499751,79.4762,326.137)"
font-family="Helvetica" font-size="20" font-weight="400" font-style="normal" 
>
<text fill="#212121" fill-opacity="1" stroke="none" xml:space="preserve" x="0" y="0.390625" font-family="Helvetica" font-size="20" font-weight="400" font-style="normal" 
 >0.003</text>
</g>

<g fill="#212121" fill-opacity="1" stroke="#212121" stroke-opacity="1" stroke-width="1" stroke-linecap="square" stroke-linejoin="bevel" transform="matrix(0.49985,0,0,0.499751,79.4762,285.258)"
font-family="Helvetica" font-size="20" font-weight="400" font-style="normal" 
>
<text fill="#212121" fill-opacity="1" stroke="none" xml:space="preserve" x="0" y="0.390625" font-family="Helvetica" font-size="20" font-weight="400" font-style="normal" 
 >0.004</text>
</g>

<g fill="#212121" fill-opacity="1" stroke="#212121" stroke-opacity="1" stroke-width="1" stroke-linecap="square" stroke-linejoin="bevel" transform="matrix(0.49985,0,0,0.499751,79.4762,244.378)"
font-family="Helvetica" font-size="20" font-weight="400" font-style="normal" 
>
<text fill="#212121" fill-opacity="1" stroke="none" xml:space="preserve" x="0" y="0.390625" font-family="Helvetica" font-size="20" font-weight="400" font-style="normal" 
 >0.005</text>
</g>

<g fill="#212121" fill-opacity="1" stroke="#212121" stroke-opacity="1" stroke-width="1" stroke-linecap="square" stroke-linejoin="bevel" transform="matrix(0.49985,0,0,0.499751,79.4762,203.499)"
font-family="Helvetica" font-size="20" font-weight="400" font-style="normal" 
>
<text fill="#212121" fill-opacity="1" stroke="none" xml:space="preserve" x="0" y="0.390625" font-family="Helvetica" font-size="20" font-weight="400" font-style="normal" 
 >0.006</text>
</g>

<g fill="#212121" fill-opacity="1" stroke="#212121" stroke-opacity="1" stroke-width="1" stroke-linecap="square" stroke-linejoin="bevel" transform="matrix(0.49985,0,0,0.499751,79.4762,162.619)"
font-family="Helvetica" font-size="20" font-weight="400" font-style="normal" 
>
<text fill="#212121" fill-opacity="1" stroke="none" xml:space="preserve" x="0" y="0.390625" font-family="Helvetica" font-size="20" font-weight="400" font-style="normal" 
 >0.007</text>
</g>

<g fill="#212121" fill-opacity="1" stroke="#212121" stroke-opacity="1" stroke-width="1" stroke-linecap="square" stroke-linejoin="bevel" transform="matrix(0.49985,0,0,0.499751,79.4762,121.739)"
font-family="Helvetica" font-size="20" font-weight="400" font-style="normal" 
>
<text fill="#212121" fill-opacity="1" stroke="none" xml:space="preserve" x="0" y="0.390625" font-family="Helvetica" font-size="20" font-weight="400" font-style="normal" 
 >0.008</text>
</g>

<g fill="#212121" fill-opacity="1" stroke="#212121" stroke-opacity="1" stroke-width="1" stroke-linecap="square" stroke-linejoin="bevel" transform="matrix(0.49985,0,0,0.499751,79.4762,80.8597)"
font-family="Helvetica" font-size="20" font-weight="400" font-style="normal" 
>
<text fill="#212121" fill-opacity="1" stroke="none" xml:space="preserve" x="0" y="0.390625" font-family="Helvetica" font-size="20" font-weight="400" font-style="normal" 
 >0.009</text>
</g>

<g fill="#212121" fill-opacity="1" stroke="#212121" stroke-opacity="1" stroke-width="1" stroke-linecap="square" stroke-linejoin="bevel" transform="matrix(0.49985,0,0,0.499751,84.9745,39.9801)"
font-family="Helvetica" font-size="20" font-weight="400" font-style="normal" 
>
<text fill="#212121" fill-opacity="1" stroke="none" xml:space="preserve" x="0" y="0.390625" font-family="Helvetica" font-size="20" font-weight="400" font-style="normal" 
 >0.01</text>
</g>

<g fill="#212121" fill-opacity="1" stroke="#212121" stroke-opacity="1" stroke-width="1" stroke-linecap="square" stroke-linejoin="bevel" transform="matrix(0.49985,0,0,0.499751,393.132,33.6083)"
font-family="Helvetica" font-size="22" font-weight="700" font-style="normal" 
>
<text fill="#212121" fill-opacity="1" stroke="none" xml:space="preserve" x="0" y="-0.0625" font-family="Helvetica" font-size="22" font-weight="700" font-style="normal" 
 >Step response</text>
</g>

<g fill="none" stroke="#1171be" stroke-opacity="1" stroke-width="1" stroke-linecap="butt" stroke-linejoin="round" transform="matrix(0.49985,0,0,0.499751,0,0)"
font-family="Helvetica" font-size="22" font-weight="700" font-style="normal" 
>
<polyline fill="none" vector-effect="none" points="217,893 232.458,821.025 247.915,755.383 263.373,695.516 278.831,640.918 294.289,591.123 309.746,545.71 325.204,504.293 340.662,466.519 356.119,432.07 371.577,400.652 387.035,371.998 402.493,345.865 417.95,322.032 433.408,300.296 448.866,280.472 464.323,262.393 479.781,245.904 495.239,230.867 510.697,217.152 526.154,204.644 541.612,193.237 557.07,182.833 572.527,173.345 587.985,164.692 603.443,156.8 618.901,149.602 634.358,143.038 649.816,137.052 665.274,131.592 680.731,126.612 696.189,122.071 711.647,117.929 727.105,114.152 742.562,110.707 758.02,107.565 773.478,104.7 788.935,102.087 804.393,99.7032 819.851,97.5296 835.309,95.5473 850.766,93.7393 866.224,92.0904 881.682,90.5867 897.139,89.2152 912.597,87.9644 928.055,86.8237 943.513,85.7833 958.97,84.8345 974.428,83.9692 989.886,83.18 1005.34,82.4602 1020.8,81.8038 1036.26,81.2051 1051.72,80.6592 1067.17,80.1612 1082.63,79.7071 1098.09,79.293 1113.55,78.9152 1129.01,78.5707 1144.46,78.2565 1159.92,77.97 1175.38,77.7087 1190.84,77.4703 1206.29,77.253 1221.75,77.0547 1237.21,76.8739 1252.67,76.709 1268.12,76.5586 1283.58,76.4215 1299.04,76.2964 1314.5,76.1824 1329.96,76.0783 1345.41,75.9835 1360.87,75.8969 1376.33,75.818 1391.79,75.746 1407.24,75.6804 1422.7,75.6205 1438.16,75.5659 1453.62,75.5162 " />
</g>

<g fill="none" stroke="#dd5400" stroke-opacity="1" stroke-dasharray="10,6" stroke-dashoffset="0" stroke-width="1" stroke-linecap="butt" stroke-linejoin="round" transform="matrix(0.49985,0,0,0.499751,0,0)"
font-family="Helvetica" font-size="22" font-weight="700" font-style="normal" 
>
<polyline fill="none" vector-effect="none" points="217,893 232.458,821.025 247.915,755.383 263.373,695.516 278.831,640.918 294.289,591.123 309.746,545.71 325.204,504.293 340.662,466.519 356.119,432.07 371.577,400.652 387.035,371.998 402.493,345.865 417.95,322.032 433.408,300.296 448.866,280.472 464.323,262.393 479.781,245.904 495.239,230.867 510.697,217.152 526.154,204.644 541.612,193.237 557.07,182.833 572.527,173.345 587.985,164.692 603.443,156.8 618.901,149.602 634.358,143.038 649.816,137.052 665.274,131.592 680.731,126.612 696.189,122.071 711.647,117.929 727.105,114.152 742.562,110.707 758.02,107.565 773.478,104.7 788.935,102.087 804.393,99.7032 819.851,97.5296 835.309,95.5473 850.766,93.7393 866.224,92.0904 881.682,90.5867 897.139,89.2152 912.597,87.9644 928.055,86.8237 943.513,85.7833 958.97,84.8345 974.428,83.9692 989.886,83.18 1005.34,82.4602 1020.8,81.8038 1036.26,81.2051 1051.72,80.6592 1067.17,80.1612 1082.63,79.7071 1098.09,79.293 1113.55,78.9152 1129.01,78.5707 1144.46,78.2565 1159.92,77.97 1175.38,77.7087 1190.84,77.4703 1206.29,77.253 1221.75,77.0547 1237.21,76.8739 1252.67,76.709 1268.12,76.5586 1283.58,76.4215 1299.04,76.2964 1314.5,76.1824 1329.96,76.0783 1345.41,75.9835 1360.87,75.8969 1376.33,75.818 1391.79,75.746 1407.24,75.6804 1422.7,75.6205 1438.16,75.5659 1453.62,75.5162 " />
</g>

<g fill="#ffffff" fill-opacity="1" stroke="none" transform="matrix(4.9985e-05,0,0,4.99751e-05,0,0)"
font-family="Helvetica" font-size="22" font-weight="700" font-style="normal" 
>
<path vector-effect="none" fill-rule="evenodd" d="M1.284e+07,910000 L1.284e+07,1.4e+06 L1.492e+07,1.4e+06 L1.492e+07,910000 L1.284e+07,910000"/>
</g>

<g fill="#1171be" fill-opacity="1" stroke="#1171be" stroke-opacity="1" stroke-width="1" stroke-linecap="butt" stroke-linejoin="round" transform="matrix(0.49985,0,0,0.499751,0,0)"
font-family="Helvetica" font-size="22" font-weight="700" font-style="normal" 
>
<polyline fill="none" vector-effect="none" points="1289.99,104.569 1349.84,104.569 " />
</g>

<g fill="#dd5400" fill-opacity="1" stroke="#dd5400" stroke-opacity="1" stroke-dasharray="10,6" stroke-dashoffset="0" stroke-width="1" stroke-linecap="butt" stroke-linejoin="round" transform="matrix(0.49985,0,0,0.499751,0,0)"
font-family="Helvetica" font-size="22" font-weight="700" font-style="normal" 
>
<polyline fill="none" vector-effect="none" points="1289.99,126.431 1349.84,126.431 " />
</g>

<g fill="#212121" fill-opacity="1" stroke="#212121" stroke-opacity="1" stroke-width="1" stroke-linecap="square" stroke-linejoin="bevel" transform="matrix(0.49985,0,0,0.499751,676.962,54.7573)"
font-family="Helvetica" font-size="18" font-weight="400" font-style="normal" 
>
<text fill="#212121" fill-opacity="1" stroke="none" xml:space="preserve" x="0" y="-0.140625" font-family="Helvetica" font-size="18" font-weight="400" font-style="normal" 
 >result of impulse</text>
</g>

<g fill="#212121" fill-opacity="1" stroke="#212121" stroke-opacity="1" stroke-width="1" stroke-linecap="square" stroke-linejoin="bevel" transform="matrix(0.49985,0,0,0.499751,676.962,65.6827)"
font-family="Helvetica" font-size="18" font-weight="400" font-style="normal" 
>
<text fill="#212121" fill-opacity="1" stroke="none" xml:space="preserve" x="0" y="-0.140625" font-family="Helvetica" font-size="18" font-weight="400" font-style="normal" 
 >analytic</text>
</g>

<g fill="none" stroke="#212121" stroke-opacity="1" stroke-width="1" stroke-linecap="butt" stroke-linejoin="miter" stroke-miterlimit="2" transform="matrix(0.49985,0,0,0.499751,0,0)"
font-family="Helvetica" font-size="18" font-weight="400" font-style="normal" 
>
<path vector-effect="none" fill-rule="evenodd" d="M1284,140 L1284,91 L1492,91 L1492,140 L1284,140"/>
</g>
</g>
</svg>