<?xml version="1.0" encoding="UTF-8" standalone="no"?>
<svg width="294.217mm" height="177.094mm"
 viewBox="0 0 834 502"
 xmlns="http://www.w3.org/2000/svg" xmlns:xlink="http://www.w3.org/1999/xlink"  version="1.2" baseProfile="tiny">
<title>Qt SVG Document</title>
<desc>MATLAB, The MathWorks, Inc. Version 25.1.0.2833191 R2025a Prerelease Update 2</desc>
<defs>
</defs>
<g fill="none" stroke="black" stroke-width="1" fill-rule="evenodd" stroke-linecap="square" stroke-linejoin="bevel" >

<g fill="#ffffff" fill-opacity="1" stroke="none" transform="matrix(0.49985,0,0,0.499751,0,0)"
font-family=".AppleSystemUIFont" font-size="13" font-weight="400" font-style="normal" 
>
<path vector-effect="none" fill-rule="evenodd" d="M0,0 L1668,0 L1668,1005 L0,1005 L0,0"/>
</g>

<g fill="#212121" fill-opacity="1" stroke="#212121" stroke-opacity="1" stroke-width="1" stroke-linecap="square" stroke-linejoin="bevel" transform="matrix(0.49985,0,0,0.499751,378.319,17.991)"
font-family="Helvetica" font-size="22" font-weight="700" font-style="normal" 
>
<text fill="#212121" fill-opacity="1" stroke="none" xml:space="preserve" x="0" y="-0.0625" font-family="Helvetica" font-size="22" font-weight="700" font-style="normal" 
 >Impulse Response</text>
</g>

<g fill="#212121" fill-opacity="1" stroke="#212121" stroke-opacity="1" stroke-width="1" stroke-linecap="square" stroke-linejoin="bevel" transform="matrix(0.49985,0,0,0.499751,389.066,474.099)"
font-family="Helvetica" font-size="22" font-weight="400" font-style="normal" 
>
<text fill="#212121" fill-opacity="1" stroke="none" xml:space="preserve" x="0" y="-0.0625" font-family="Helvetica" font-size="22" font-weight="400" font-style="normal" 
 >Time (seconds)</text>
</g>

<g fill="#212121" fill-opacity="1" stroke="#212121" stroke-opacity="1" stroke-width="1" stroke-linecap="square" stroke-linejoin="bevel" transform="matrix(0,-0.499751,0.49985,0,57.2328,257.164)"
font-family="Helvetica" font-size="22" font-weight="400" font-style="normal" 
>
<text fill="#212121" fill-opacity="1" stroke="none" xml:space="preserve" x="0" y="-0.0625" font-family="Helvetica" font-size="22" font-weight="400" font-style="normal" 
 >x [m]</text>
</g>

<g fill="#ffffff" fill-opacity="1" stroke="none" transform="matrix(4.9985e-05,0,0,4.99751e-05,0,0)"
font-family="Helvetica" font-size="22" font-weight="400" font-style="normal" 
>
<path vector-effect="none" fill-rule="evenodd" d="M2e+06,880000 L2e+06,8.93e+06 L1.508e+07,8.93e+06 L1.508e+07,880000 L2e+06,880000"/>
</g>

<g fill="#616161" fill-opacity="1" stroke="#616161" stroke-opacity="1" stroke-width="1" stroke-linecap="square" stroke-linejoin="round" transform="matrix(0.49985,0,0,0.499751,0,0)"
font-family="Helvetica" font-size="22" font-weight="400" font-style="normal" 
>
<polyline fill="none" vector-effect="none" points="200,893 1508,893 " />
<polyline fill="none" vector-effect="none" points="200,88 1508,88 " />
<polyline fill="none" vector-effect="none" points="200,893 200,879.92 " />
<polyline fill="none" vector-effect="none" points="330.8,893 330.8,879.92 " />
<polyline fill="none" vector-effect="none" points="461.6,893 461.6,879.92 " />
<polyline fill="none" vector-effect="none" points="592.4,893 592.4,879.92 " />
<polyline fill="none" vector-effect="none" points="723.2,893 723.2,879.92 " />
<polyline fill="none" vector-effect="none" points="854,893 854,879.92 " />
<polyline fill="none" vector-effect="none" points="984.8,893 984.8,879.92 " />
<polyline fill="none" vector-effect="none" points="1115.6,893 1115.6,879.92 " />
<polyline fill="none" vector-effect="none" points="1246.4,893 1246.4,879.92 " />
<polyline fill="none" vector-effect="none" points="1377.2,893 1377.2,879.92 " />
<polyline fill="none" vector-effect="none" points="1508,893 1508,879.92 " />
<polyline fill="none" vector-effect="none" points="200,88 200,101.08 " />
<polyline fill="none" vector-effect="none" points="330.8,88 330.8,101.08 " />
<polyline fill="none" vector-effect="none" points="461.6,88 461.6,101.08 " />
<polyline fill="none" vector-effect="none" points="592.4,88 592.4,101.08 " />
<polyline fill="none" vector-effect="none" points="723.2,88 723.2,101.08 " />
<polyline fill="none" vector-effect="none" points="854,88 854,101.08 " />
<polyline fill="none" vector-effect="none" points="984.8,88 984.8,101.08 " />
<polyline fill="none" vector-effect="none" points="1115.6,88 1115.6,101.08 " />
<polyline fill="none" vector-effect="none" points="1246.4,88 1246.4,101.08 " />
<polyline fill="none" vector-effect="none" points="1377.2,88 1377.2,101.08 " />
<polyline fill="none" vector-effect="none" points="1508,88 1508,101.08 " />
</g>

<g fill="#616161" fill-opacity="1" stroke="#616161" stroke-opacity="1" stroke-width="1" stroke-linecap="square" stroke-linejoin="bevel" transform="matrix(0.49985,0,0,0.499751,97.2208,457.772)"
font-family="Helvetica" font-size="20" font-weight="400" font-style="normal" 
>
<text fill="#616161" fill-opacity="1" stroke="none" xml:space="preserve" x="0" y="0.390625" font-family="Helvetica" font-size="20" font-weight="400" font-style="normal" 
 >0</text>
</g>

<g fill="#616161" fill-opacity="1" stroke="#616161" stroke-opacity="1" stroke-width="1" stroke-linecap="square" stroke-linejoin="bevel" transform="matrix(0.49985,0,0,0.499751,159.852,457.772)"
font-family="Helvetica" font-size="20" font-weight="400" font-style="normal" 
>
<text fill="#616161" fill-opacity="1" stroke="none" xml:space="preserve" x="0" y="0.390625" font-family="Helvetica" font-size="20" font-weight="400" font-style="normal" 
 >10</text>
</g>

<g fill="#616161" fill-opacity="1" stroke="#616161" stroke-opacity="1" stroke-width="1" stroke-linecap="square" stroke-linejoin="bevel" transform="matrix(0.49985,0,0,0.499751,225.232,457.772)"
font-family="Helvetica" font-size="20" font-weight="400" font-style="normal" 
>
<text fill="#616161" fill-opacity="1" stroke="none" xml:space="preserve" x="0" y="0.390625" font-family="Helvetica" font-size="20" font-weight="400" font-style="normal" 
 >20</text>
</g>

<g fill="#616161" fill-opacity="1" stroke="#616161" stroke-opacity="1" stroke-width="1" stroke-linecap="square" stroke-linejoin="bevel" transform="matrix(0.49985,0,0,0.499751,290.613,457.772)"
font-family="Helvetica" font-size="20" font-weight="400" font-style="normal" 
>
<text fill="#616161" fill-opacity="1" stroke="none" xml:space="preserve" x="0" y="0.390625" font-family="Helvetica" font-size="20" font-weight="400" font-style="normal" 
 >30</text>
</g>

<g fill="#616161" fill-opacity="1" stroke="#616161" stroke-opacity="1" stroke-width="1" stroke-linecap="square" stroke-linejoin="bevel" transform="matrix(0.49985,0,0,0.499751,355.993,457.772)"
font-family="Helvetica" font-size="20" font-weight="400" font-style="normal" 
>
<text fill="#616161" fill-opacity="1" stroke="none" xml:space="preserve" x="0" y="0.390625" font-family="Helvetica" font-size="20" font-weight="400" font-style="normal" 
 >40</text>
</g>

<g fill="#616161" fill-opacity="1" stroke="#616161" stroke-opacity="1" stroke-width="1" stroke-linecap="square" stroke-linejoin="bevel" transform="matrix(0.49985,0,0,0.499751,421.374,457.772)"
font-family="Helvetica" font-size="20" font-weight="400" font-style="normal" 
>
<text fill="#616161" fill-opacity="1" stroke="none" xml:space="preserve" x="0" y="0.390625" font-family="Helvetica" font-size="20" font-weight="400" font-style="normal" 
 >50</text>
</g>

<g fill="#616161" fill-opacity="1" stroke="#616161" stroke-opacity="1" stroke-width="1" stroke-linecap="square" stroke-linejoin="bevel" transform="matrix(0.49985,0,0,0.499751,486.754,457.772)"
font-family="Helvetica" font-size="20" font-weight="400" font-style="normal" 
>
<text fill="#616161" fill-opacity="1" stroke="none" xml:space="preserve" x="0" y="0.390625" font-family="Helvetica" font-size="20" font-weight="400" font-style="normal" 
 >60</text>
</g>

<g fill="#616161" fill-opacity="1" stroke="#616161" stroke-opacity="1" stroke-width="1" stroke-linecap="square" stroke-linejoin="bevel" transform="matrix(0.49985,0,0,0.499751,552.134,457.772)"
font-family="Helvetica" font-size="20" font-weight="400" font-style="normal" 
>
<text fill="#616161" fill-opacity="1" stroke="none" xml:space="preserve" x="0" y="0.390625" font-family="Helvetica" font-size="20" font-weight="400" font-style="normal" 
 >70</text>
</g>

<g fill="#616161" fill-opacity="1" stroke="#616161" stroke-opacity="1" stroke-width="1" stroke-linecap="square" stroke-linejoin="bevel" transform="matrix(0.49985,0,0,0.499751,617.515,457.772)"
font-family="Helvetica" font-size="20" font-weight="400" font-style="normal" 
>
<text fill="#616161" fill-opacity="1" stroke="none" xml:space="preserve" x="0" y="0.390625" font-family="Helvetica" font-size="20" font-weight="400" font-style="normal" 
 >80</text>
</g>

<g fill="#616161" fill-opacity="1" stroke="#616161" stroke-opacity="1" stroke-width="1" stroke-linecap="square" stroke-linejoin="bevel" transform="matrix(0.49985,0,0,0.499751,682.895,457.772)"
font-family="Helvetica" font-size="20" font-weight="400" font-style="normal" 
>
<text fill="#616161" fill-opacity="1" stroke="none" xml:space="preserve" x="0" y="0.390625" font-family="Helvetica" font-size="20" font-weight="400" font-style="normal" 
 >90</text>
</g>

<g fill="#616161" fill-opacity="1" stroke="#616161" stroke-opacity="1" stroke-width="1" stroke-linecap="square" stroke-linejoin="bevel" transform="matrix(0.49985,0,0,0.499751,745.526,457.772)"
font-family="Helvetica" font-size="20" font-weight="400" font-style="normal" 
>
<text fill="#616161" fill-opacity="1" stroke="none" xml:space="preserve" x="0" y="0.390625" font-family="Helvetica" font-size="20" font-weight="400" font-style="normal" 
 >100</text>
</g>

<g fill="#616161" fill-opacity="1" stroke="#616161" stroke-opacity="1" stroke-width="1" stroke-linecap="square" stroke-linejoin="round" transform="matrix(0.49985,0,0,0.499751,0,0)"
font-family="Helvetica" font-size="20" font-weight="400" font-style="normal" 
>
<polyline fill="none" vector-effect="none" points="200,893 200,88 " />
<polyline fill="none" vector-effect="none" points="1508,893 1508,88 " />
<polyline fill="none" vector-effect="none" points="200,893 213.08,893 " />
<polyline fill="none" vector-effect="none" points="200,758.833 213.08,758.833 " />
<polyline fill="none" vector-effect="none" points="200,624.667 213.08,624.667 " />
<polyline fill="none" vector-effect="none" points="200,490.5 213.08,490.5 " />
<polyline fill="none" vector-effect="none" points="200,356.333 213.08,356.333 " />
<polyline fill="none" vector-effect="none" points="200,222.167 213.08,222.167 " />
<polyline fill="none" vector-effect="none" points="200,88 213.08,88 " />
<polyline fill="none" vector-effect="none" points="1508,893 1494.92,893 " />
<polyline fill="none" vector-effect="none" points="1508,758.833 1494.92,758.833 " />
<polyline fill="none" vector-effect="none" points="1508,624.667 1494.92,624.667 " />
<polyline fill="none" vector-effect="none" points="1508,490.5 1494.92,490.5 " />
<polyline fill="none" vector-effect="none" points="1508,356.333 1494.92,356.333 " />
<polyline fill="none" vector-effect="none" points="1508,222.167 1494.92,222.167 " />
<polyline fill="none" vector-effect="none" points="1508,88 1494.92,88 " />
</g>

<g fill="#616161" fill-opacity="1" stroke="#616161" stroke-opacity="1" stroke-width="1" stroke-linecap="square" stroke-linejoin="bevel" transform="matrix(0.49985,0,0,0.499751,78.9763,448.776)"
font-family="Helvetica" font-size="20" font-weight="400" font-style="normal" 
>
<text fill="#616161" fill-opacity="1" stroke="none" xml:space="preserve" x="0" y="0.390625" font-family="Helvetica" font-size="20" font-weight="400" font-style="normal" 
 >-1.5</text>
</g>

<g fill="#616161" fill-opacity="1" stroke="#616161" stroke-opacity="1" stroke-width="1" stroke-linecap="square" stroke-linejoin="bevel" transform="matrix(0.49985,0,0,0.499751,86.9739,381.726)"
font-family="Helvetica" font-size="20" font-weight="400" font-style="normal" 
>
<text fill="#616161" fill-opacity="1" stroke="none" xml:space="preserve" x="0" y="0.390625" font-family="Helvetica" font-size="20" font-weight="400" font-style="normal" 
 >-1</text>
</g>

<g fill="#616161" fill-opacity="1" stroke="#616161" stroke-opacity="1" stroke-width="1" stroke-linecap="square" stroke-linejoin="bevel" transform="matrix(0.49985,0,0,0.499751,78.9763,314.677)"
font-family="Helvetica" font-size="20" font-weight="400" font-style="normal" 
>
<text fill="#616161" fill-opacity="1" stroke="none" xml:space="preserve" x="0" y="0.390625" font-family="Helvetica" font-size="20" font-weight="400" font-style="normal" 
 >-0.5</text>
</g>

<g fill="#616161" fill-opacity="1" stroke="#616161" stroke-opacity="1" stroke-width="1" stroke-linecap="square" stroke-linejoin="bevel" transform="matrix(0.49985,0,0,0.499751,90.4729,247.627)"
font-family="Helvetica" font-size="20" font-weight="400" font-style="normal" 
>
<text fill="#616161" fill-opacity="1" stroke="none" xml:space="preserve" x="0" y="0.390625" font-family="Helvetica" font-size="20" font-weight="400" font-style="normal" 
 >0</text>
</g>

<g fill="#616161" fill-opacity="1" stroke="#616161" stroke-opacity="1" stroke-width="1" stroke-linecap="square" stroke-linejoin="bevel" transform="matrix(0.49985,0,0,0.499751,81.9754,180.577)"
font-family="Helvetica" font-size="20" font-weight="400" font-style="normal" 
>
<text fill="#616161" fill-opacity="1" stroke="none" xml:space="preserve" x="0" y="0.390625" font-family="Helvetica" font-size="20" font-weight="400" font-style="normal" 
 >0.5</text>
</g>

<g fill="#616161" fill-opacity="1" stroke="#616161" stroke-opacity="1" stroke-width="1" stroke-linecap="square" stroke-linejoin="bevel" transform="matrix(0.49985,0,0,0.499751,90.4729,113.527)"
font-family="Helvetica" font-size="20" font-weight="400" font-style="normal" 
>
<text fill="#616161" fill-opacity="1" stroke="none" xml:space="preserve" x="0" y="0.390625" font-family="Helvetica" font-size="20" font-weight="400" font-style="normal" 
 >1</text>
</g>

<g fill="#616161" fill-opacity="1" stroke="#616161" stroke-opacity="1" stroke-width="1" stroke-linecap="square" stroke-linejoin="bevel" transform="matrix(0.49985,0,0,0.499751,81.9754,46.4768)"
font-family="Helvetica" font-size="20" font-weight="400" font-style="normal" 
>
<text fill="#616161" fill-opacity="1" stroke="none" xml:space="preserve" x="0" y="0.390625" font-family="Helvetica" font-size="20" font-weight="400" font-style="normal" 
 >1.5</text>
</g>

<g fill="#7d7d7d" fill-opacity="0.701961" stroke="#7d7d7d" stroke-opacity="0.701961" stroke-dasharray="1,3" stroke-dashoffset="0" stroke-width="1" stroke-linecap="butt" stroke-linejoin="round" transform="matrix(0.49985,0,0,0.499751,0,0)"
font-family="Helvetica" font-size="20" font-weight="400" font-style="normal" 
>
<polyline fill="none" vector-effect="none" points="200,490.5 1508,490.5 " />
</g>

<g fill="none" stroke="#1171be" stroke-opacity="1" stroke-width="1" stroke-linecap="butt" stroke-linejoin="round" transform="matrix(0.49985,0,0,0.499751,0,0)"
font-family="Helvetica" font-size="20" font-weight="400" font-style="normal" 
>
<polyline fill="none" vector-effect="none" points="200,490.5 206.507,362.406 213.015,252.798 219.522,171.28 226.03,124.297 232.537,114.673 239.045,141.517 245.552,200.487 252.06,284.375 258.567,383.938 265.075,488.875 271.582,588.875 278.09,674.599 284.597,738.527 291.104,775.593 297.612,783.552 304.119,763.052 310.627,717.44 317.134,652.302 323.642,574.827 330.149,493.034 336.657,414.968 343.164,347.926 349.672,297.796 356.179,268.557 362.687,261.998 369.194,277.645 375.701,312.923 382.209,363.498 388.716,423.785 395.224,487.536 401.731,548.477 408.239,600.907 414.746,640.216 421.254,663.276 427.761,668.666 434.269,656.728 440.776,629.447 447.284,590.179 453.791,543.269 460.298,493.581 466.806,446.01 473.313,405.009 479.821,374.187 486.328,356.003 492.836,351.585 499.343,360.688 505.851,381.784 512.358,412.27 518.866,448.771 525.373,487.497 531.881,524.631 538.388,556.693 544.896,580.859 551.403,595.196 557.91,598.809 564.418,591.871 570.925,575.56 577.433,551.892 583.94,523.492 590.448,493.31 596.955,464.324 603.463,439.252 609.97,420.306 616.478,409.003 622.985,406.056 629.492,411.341 636,423.951 642.507,442.325 649.015,464.421 655.522,487.944 662.03,510.569 668.537,530.174 675.045,545.027 681.552,553.936 688.06,556.336 694.567,552.313 701.075,542.564 707.582,528.301 714.09,511.11 720.597,492.778 727.104,475.118 733.612,459.789 740.119,448.145 746.627,441.124 753.134,439.173 759.642,442.234 766.149,449.769 772.657,460.841 779.164,474.216 785.672,488.502 792.179,502.286 798.687,514.272 805.194,523.399 811.702,528.932 818.209,530.515 824.716,528.188 831.224,522.363 837.731,513.77 844.239,503.364 850.746,492.231 857.254,481.473 863.761,472.101 870.269,464.947 876.776,460.588 883.284,459.305 889.791,461.073 896.298,465.574 902.806,472.244 909.313,480.34 915.821,489.015 922.328,497.412 928.836,504.739 935.343,510.347 941.851,513.781 948.358,514.818 954.866,513.476 961.373,509.998 967.881,504.821 974.388,498.523 980.896,491.763 987.403,485.21 993.91,479.481 1000.42,475.086 1006.93,472.381 1013.43,471.543 1019.94,472.561 1026.45,475.249 1032.96,479.266 1039.46,484.165 1045.97,489.433 1052.48,494.548 1058.98,499.026 1065.49,502.471 1072,504.601 1078.51,505.278 1085.01,504.506 1091.52,502.43 1098.03,499.311 1104.54,495.501 1111.04,491.396 1117.55,487.404 1124.06,483.903 1130.57,481.204 1137.07,479.526 1143.58,478.981 1150.09,479.565 1156.6,481.169 1163.1,483.589 1169.61,486.553 1176.12,489.752 1182.63,492.867 1189.13,495.604 1195.64,497.719 1202.15,499.04 1208.66,499.479 1215.16,499.037 1221.67,497.798 1228.18,495.92 1234.69,493.615 1241.19,491.122 1247.7,488.691 1254.21,486.552 1260.72,484.894 1267.22,483.854 1273.73,483.501 1280.24,483.836 1286.75,484.792 1293.25,486.249 1299.76,488.043 1306.27,489.984 1312.78,491.881 1319.28,493.554 1325.79,494.853 1332.3,495.672 1338.81,495.955 1345.31,495.703 1351.82,494.964 1358.33,493.833 1364.84,492.439 1371.34,490.926 1377.85,489.445 1384.36,488.138 1390.87,487.12 1397.37,486.476 1403.88,486.248 1410.39,486.439 1416.9,487.009 1423.4,487.886 1429.91,488.971 1436.42,490.15 1442.93,491.305 1449.43,492.327 1455.94,493.124 1462.45,493.631 1468.96,493.814 1475.46,493.671 1481.97,493.23 1488.48,492.55 1494.99,491.706 1501.49,490.787 1508,489.886 " />
</g>
</g>
</svg>