<?xml version="1.0" encoding="UTF-8" standalone="no"?>
<svg width="294.217mm" height="177.094mm"
 viewBox="0 0 834 502"
 xmlns="http://www.w3.org/2000/svg" xmlns:xlink="http://www.w3.org/1999/xlink"  version="1.2" baseProfile="tiny">
<title>Qt SVG Document</title>
<desc>MATLAB, The MathWorks, Inc. Version 25.1.0.2833191 R2025a Prerelease Update 2</desc>
<defs>
</defs>
<g fill="none" stroke="black" stroke-width="1" fill-rule="evenodd" stroke-linecap="square" stroke-linejoin="bevel" >

<g fill="#ffffff" fill-opacity="1" stroke="none" transform="matrix(0.49985,0,0,0.499751,0,0)"
font-family=".AppleSystemUIFont" font-size="13" font-weight="400" font-style="normal" 
>
<path vector-effect="none" fill-rule="evenodd" d="M0,0 L1668,0 L1668,1005 L0,1005 L0,0"/>
</g>

<g fill="#212121" fill-opacity="1" stroke="#212121" stroke-opacity="1" stroke-width="1" stroke-linecap="square" stroke-linejoin="bevel" transform="matrix(0.49985,0,0,0.499751,388.816,26.0995)"
font-family="Helvetica" font-size="22" font-weight="700" font-style="normal" 
>
<text fill="#212121" fill-opacity="1" stroke="none" xml:space="preserve" x="0" y="-0.0625" font-family="Helvetica" font-size="22" font-weight="700" font-style="normal" 
 >Pole-Zero Map</text>
</g>

<g fill="#212121" fill-opacity="1" stroke="#212121" stroke-opacity="1" stroke-width="1" stroke-linecap="square" stroke-linejoin="bevel" transform="matrix(0.49985,0,0,0.499751,374.388,477.762)"
font-family="Helvetica" font-size="22" font-weight="400" font-style="normal" 
>
<text fill="#212121" fill-opacity="1" stroke="none" xml:space="preserve" x="0" y="-0.0625" font-family="Helvetica" font-size="22" font-weight="400" font-style="normal" 
 >Real Axis (seconds</text>
</g>

<g fill="#212121" fill-opacity="1" stroke="#212121" stroke-opacity="1" stroke-width="1" stroke-linecap="square" stroke-linejoin="bevel" transform="matrix(0.49985,0,0,0.499751,467.86,472.265)"
font-family="Helvetica" font-size="17" font-weight="400" font-style="normal" 
>
<text fill="#212121" fill-opacity="1" stroke="none" xml:space="preserve" x="0" y="0.078125" font-family="Helvetica" font-size="17" font-weight="400" font-style="normal" 
 >-1</text>
</g>

<g fill="#212121" fill-opacity="1" stroke="#212121" stroke-opacity="1" stroke-width="1" stroke-linecap="square" stroke-linejoin="bevel" transform="matrix(0.49985,0,0,0.499751,475.357,477.762)"
font-family="Helvetica" font-size="22" font-weight="400" font-style="normal" 
>
<text fill="#212121" fill-opacity="1" stroke="none" xml:space="preserve" x="0" y="-0.0625" font-family="Helvetica" font-size="22" font-weight="400" font-style="normal" 
 >)</text>
</g>

<g fill="#212121" fill-opacity="1" stroke="#212121" stroke-opacity="1" stroke-width="1" stroke-linecap="square" stroke-linejoin="bevel" transform="matrix(0,-0.499751,0.49985,0,80.4759,306.847)"
font-family="Helvetica" font-size="22" font-weight="400" font-style="normal" 
>
<text fill="#212121" fill-opacity="1" stroke="none" xml:space="preserve" x="0" y="-0.0625" font-family="Helvetica" font-size="22" font-weight="400" font-style="normal" 
 >Imaginary Axis (seconds</text>
</g>

<g fill="#212121" fill-opacity="1" stroke="#212121" stroke-opacity="1" stroke-width="1" stroke-linecap="square" stroke-linejoin="bevel" transform="matrix(0,-0.499751,0.49985,0,74.9775,187.906)"
font-family="Helvetica" font-size="17" font-weight="400" font-style="normal" 
>
<text fill="#212121" fill-opacity="1" stroke="none" xml:space="preserve" x="0" y="0.078125" font-family="Helvetica" font-size="17" font-weight="400" font-style="normal" 
 >-1</text>
</g>

<g fill="#212121" fill-opacity="1" stroke="#212121" stroke-opacity="1" stroke-width="1" stroke-linecap="square" stroke-linejoin="bevel" transform="matrix(0,-0.499751,0.49985,0,80.4759,180.41)"
font-family="Helvetica" font-size="22" font-weight="400" font-style="normal" 
>
<text fill="#212121" fill-opacity="1" stroke="none" xml:space="preserve" x="0" y="-0.0625" font-family="Helvetica" font-size="22" font-weight="400" font-style="normal" 
 >)</text>
</g>

<g fill="#ffffff" fill-opacity="1" stroke="none" transform="matrix(4.9985e-05,0,0,4.99751e-05,0,0)"
font-family="Helvetica" font-size="22" font-weight="400" font-style="normal" 
>
<path vector-effect="none" fill-rule="evenodd" d="M2e+06,750000 L2e+06,8.93e+06 L1.508e+07,8.93e+06 L1.508e+07,750000 L2e+06,750000"/>
</g>

<g fill="#616161" fill-opacity="1" stroke="#616161" stroke-opacity="1" stroke-width="1" stroke-linecap="square" stroke-linejoin="round" transform="matrix(0.49985,0,0,0.499751,0,0)"
font-family="Helvetica" font-size="22" font-weight="400" font-style="normal" 
>
<polyline fill="none" vector-effect="none" points="200,893 1508,893 " />
<polyline fill="none" vector-effect="none" points="200,75 1508,75 " />
<polyline fill="none" vector-effect="none" points="200,893 200,879.92 " />
<polyline fill="none" vector-effect="none" points="418,893 418,879.92 " />
<polyline fill="none" vector-effect="none" points="636,893 636,879.92 " />
<polyline fill="none" vector-effect="none" points="854,893 854,879.92 " />
<polyline fill="none" vector-effect="none" points="1072,893 1072,879.92 " />
<polyline fill="none" vector-effect="none" points="1290,893 1290,879.92 " />
<polyline fill="none" vector-effect="none" points="1508,893 1508,879.92 " />
<polyline fill="none" vector-effect="none" points="200,75 200,88.08 " />
<polyline fill="none" vector-effect="none" points="418,75 418,88.08 " />
<polyline fill="none" vector-effect="none" points="636,75 636,88.08 " />
<polyline fill="none" vector-effect="none" points="854,75 854,88.08 " />
<polyline fill="none" vector-effect="none" points="1072,75 1072,88.08 " />
<polyline fill="none" vector-effect="none" points="1290,75 1290,88.08 " />
<polyline fill="none" vector-effect="none" points="1508,75 1508,88.08 " />
</g>

<g fill="#616161" fill-opacity="1" stroke="#616161" stroke-opacity="1" stroke-width="1" stroke-linecap="square" stroke-linejoin="bevel" transform="matrix(0.49985,0,0,0.499751,91.4725,457.772)"
font-family="Helvetica" font-size="20" font-weight="400" font-style="normal" 
>
<text fill="#616161" fill-opacity="1" stroke="none" xml:space="preserve" x="0" y="0.390625" font-family="Helvetica" font-size="20" font-weight="400" font-style="normal" 
 >-1.2</text>
</g>

<g fill="#616161" fill-opacity="1" stroke="#616161" stroke-opacity="1" stroke-width="1" stroke-linecap="square" stroke-linejoin="bevel" transform="matrix(0.49985,0,0,0.499751,204.439,457.772)"
font-family="Helvetica" font-size="20" font-weight="400" font-style="normal" 
>
<text fill="#616161" fill-opacity="1" stroke="none" xml:space="preserve" x="0" y="0.390625" font-family="Helvetica" font-size="20" font-weight="400" font-style="normal" 
 >-1</text>
</g>

<g fill="#616161" fill-opacity="1" stroke="#616161" stroke-opacity="1" stroke-width="1" stroke-linecap="square" stroke-linejoin="bevel" transform="matrix(0.49985,0,0,0.499751,309.407,457.772)"
font-family="Helvetica" font-size="20" font-weight="400" font-style="normal" 
>
<text fill="#616161" fill-opacity="1" stroke="none" xml:space="preserve" x="0" y="0.390625" font-family="Helvetica" font-size="20" font-weight="400" font-style="normal" 
 >-0.8</text>
</g>

<g fill="#616161" fill-opacity="1" stroke="#616161" stroke-opacity="1" stroke-width="1" stroke-linecap="square" stroke-linejoin="bevel" transform="matrix(0.49985,0,0,0.499751,418.374,457.772)"
font-family="Helvetica" font-size="20" font-weight="400" font-style="normal" 
>
<text fill="#616161" fill-opacity="1" stroke="none" xml:space="preserve" x="0" y="0.390625" font-family="Helvetica" font-size="20" font-weight="400" font-style="normal" 
 >-0.6</text>
</g>

<g fill="#616161" fill-opacity="1" stroke="#616161" stroke-opacity="1" stroke-width="1" stroke-linecap="square" stroke-linejoin="bevel" transform="matrix(0.49985,0,0,0.499751,527.342,457.772)"
font-family="Helvetica" font-size="20" font-weight="400" font-style="normal" 
>
<text fill="#616161" fill-opacity="1" stroke="none" xml:space="preserve" x="0" y="0.390625" font-family="Helvetica" font-size="20" font-weight="400" font-style="normal" 
 >-0.4</text>
</g>

<g fill="#616161" fill-opacity="1" stroke="#616161" stroke-opacity="1" stroke-width="1" stroke-linecap="square" stroke-linejoin="bevel" transform="matrix(0.49985,0,0,0.499751,636.309,457.772)"
font-family="Helvetica" font-size="20" font-weight="400" font-style="normal" 
>
<text fill="#616161" fill-opacity="1" stroke="none" xml:space="preserve" x="0" y="0.390625" font-family="Helvetica" font-size="20" font-weight="400" font-style="normal" 
 >-0.2</text>
</g>

<g fill="#616161" fill-opacity="1" stroke="#616161" stroke-opacity="1" stroke-width="1" stroke-linecap="square" stroke-linejoin="bevel" transform="matrix(0.49985,0,0,0.499751,751.025,457.772)"
font-family="Helvetica" font-size="20" font-weight="400" font-style="normal" 
>
<text fill="#616161" fill-opacity="1" stroke="none" xml:space="preserve" x="0" y="0.390625" font-family="Helvetica" font-size="20" font-weight="400" font-style="normal" 
 >0</text>
</g>

<g fill="#616161" fill-opacity="1" stroke="#616161" stroke-opacity="1" stroke-width="1" stroke-linecap="square" stroke-linejoin="round" transform="matrix(0.49985,0,0,0.499751,0,0)"
font-family="Helvetica" font-size="20" font-weight="400" font-style="normal" 
>
<polyline fill="none" vector-effect="none" points="200,893 200,75 " />
<polyline fill="none" vector-effect="none" points="1508,893 1508,75 " />
<polyline fill="none" vector-effect="none" points="200,893 213.08,893 " />
<polyline fill="none" vector-effect="none" points="200,790.75 213.08,790.75 " />
<polyline fill="none" vector-effect="none" points="200,688.5 213.08,688.5 " />
<polyline fill="none" vector-effect="none" points="200,586.25 213.08,586.25 " />
<polyline fill="none" vector-effect="none" points="200,484 213.08,484 " />
<polyline fill="none" vector-effect="none" points="200,381.75 213.08,381.75 " />
<polyline fill="none" vector-effect="none" points="200,279.5 213.08,279.5 " />
<polyline fill="none" vector-effect="none" points="200,177.25 213.08,177.25 " />
<polyline fill="none" vector-effect="none" points="200,75 213.08,75 " />
<polyline fill="none" vector-effect="none" points="1508,893 1494.92,893 " />
<polyline fill="none" vector-effect="none" points="1508,790.75 1494.92,790.75 " />
<polyline fill="none" vector-effect="none" points="1508,688.5 1494.92,688.5 " />
<polyline fill="none" vector-effect="none" points="1508,586.25 1494.92,586.25 " />
<polyline fill="none" vector-effect="none" points="1508,484 1494.92,484 " />
<polyline fill="none" vector-effect="none" points="1508,381.75 1494.92,381.75 " />
<polyline fill="none" vector-effect="none" points="1508,279.5 1494.92,279.5 " />
<polyline fill="none" vector-effect="none" points="1508,177.25 1494.92,177.25 " />
<polyline fill="none" vector-effect="none" points="1508,75 1494.92,75 " />
</g>

<g fill="#616161" fill-opacity="1" stroke="#616161" stroke-opacity="1" stroke-width="1" stroke-linecap="square" stroke-linejoin="bevel" transform="matrix(0.49985,0,0,0.499751,86.9739,448.776)"
font-family="Helvetica" font-size="20" font-weight="400" font-style="normal" 
>
<text fill="#616161" fill-opacity="1" stroke="none" xml:space="preserve" x="0" y="0.390625" font-family="Helvetica" font-size="20" font-weight="400" font-style="normal" 
 >-4</text>
</g>

<g fill="#616161" fill-opacity="1" stroke="#616161" stroke-opacity="1" stroke-width="1" stroke-linecap="square" stroke-linejoin="bevel" transform="matrix(0.49985,0,0,0.499751,86.9739,397.677)"
font-family="Helvetica" font-size="20" font-weight="400" font-style="normal" 
>
<text fill="#616161" fill-opacity="1" stroke="none" xml:space="preserve" x="0" y="0.390625" font-family="Helvetica" font-size="20" font-weight="400" font-style="normal" 
 >-3</text>
</g>

<g fill="#616161" fill-opacity="1" stroke="#616161" stroke-opacity="1" stroke-width="1" stroke-linecap="square" stroke-linejoin="bevel" transform="matrix(0.49985,0,0,0.499751,86.9739,346.577)"
font-family="Helvetica" font-size="20" font-weight="400" font-style="normal" 
>
<text fill="#616161" fill-opacity="1" stroke="none" xml:space="preserve" x="0" y="0.390625" font-family="Helvetica" font-size="20" font-weight="400" font-style="normal" 
 >-2</text>
</g>

<g fill="#616161" fill-opacity="1" stroke="#616161" stroke-opacity="1" stroke-width="1" stroke-linecap="square" stroke-linejoin="bevel" transform="matrix(0.49985,0,0,0.499751,86.9739,295.478)"
font-family="Helvetica" font-size="20" font-weight="400" font-style="normal" 
>
<text fill="#616161" fill-opacity="1" stroke="none" xml:space="preserve" x="0" y="0.390625" font-family="Helvetica" font-size="20" font-weight="400" font-style="normal" 
 >-1</text>
</g>

<g fill="#616161" fill-opacity="1" stroke="#616161" stroke-opacity="1" stroke-width="1" stroke-linecap="square" stroke-linejoin="bevel" transform="matrix(0.49985,0,0,0.499751,90.4728,244.378)"
font-family="Helvetica" font-size="20" font-weight="400" font-style="normal" 
>
<text fill="#616161" fill-opacity="1" stroke="none" xml:space="preserve" x="0" y="0.390625" font-family="Helvetica" font-size="20" font-weight="400" font-style="normal" 
 >0</text>
</g>

<g fill="#616161" fill-opacity="1" stroke="#616161" stroke-opacity="1" stroke-width="1" stroke-linecap="square" stroke-linejoin="bevel" transform="matrix(0.49985,0,0,0.499751,90.4728,193.279)"
font-family="Helvetica" font-size="20" font-weight="400" font-style="normal" 
>
<text fill="#616161" fill-opacity="1" stroke="none" xml:space="preserve" x="0" y="0.390625" font-family="Helvetica" font-size="20" font-weight="400" font-style="normal" 
 >1</text>
</g>

<g fill="#616161" fill-opacity="1" stroke="#616161" stroke-opacity="1" stroke-width="1" stroke-linecap="square" stroke-linejoin="bevel" transform="matrix(0.49985,0,0,0.499751,90.4728,142.179)"
font-family="Helvetica" font-size="20" font-weight="400" font-style="normal" 
>
<text fill="#616161" fill-opacity="1" stroke="none" xml:space="preserve" x="0" y="0.390625" font-family="Helvetica" font-size="20" font-weight="400" font-style="normal" 
 >2</text>
</g>

<g fill="#616161" fill-opacity="1" stroke="#616161" stroke-opacity="1" stroke-width="1" stroke-linecap="square" stroke-linejoin="bevel" transform="matrix(0.49985,0,0,0.499751,90.4728,91.0796)"
font-family="Helvetica" font-size="20" font-weight="400" font-style="normal" 
>
<text fill="#616161" fill-opacity="1" stroke="none" xml:space="preserve" x="0" y="0.390625" font-family="Helvetica" font-size="20" font-weight="400" font-style="normal" 
 >3</text>
</g>

<g fill="#616161" fill-opacity="1" stroke="#616161" stroke-opacity="1" stroke-width="1" stroke-linecap="square" stroke-linejoin="bevel" transform="matrix(0.49985,0,0,0.499751,90.4728,39.9801)"
font-family="Helvetica" font-size="20" font-weight="400" font-style="normal" 
>
<text fill="#616161" fill-opacity="1" stroke="none" xml:space="preserve" x="0" y="0.390625" font-family="Helvetica" font-size="20" font-weight="400" font-style="normal" 
 >4</text>
</g>

<g fill="#7d7d7d" fill-opacity="0.701961" stroke="#7d7d7d" stroke-opacity="0.701961" stroke-dasharray="1,3" stroke-dashoffset="0" stroke-width="1" stroke-linecap="butt" stroke-linejoin="round" transform="matrix(0.49985,0,0,0.499751,0,0)"
font-family="Helvetica" font-size="20" font-weight="400" font-style="normal" 
>
<polyline fill="none" vector-effect="none" points="200,484 1508,484 " />
<polyline fill="none" vector-effect="none" points="1508,893 1508,75 " />
</g>

<g fill="#d9d9d9" fill-opacity="1" stroke="#d9d9d9" stroke-opacity="1" stroke-width="1" stroke-linecap="square" stroke-linejoin="bevel" transform="matrix(0.49985,0,0,0.499751,738.468,453.772)"
font-family="Helvetica" font-size="20" font-weight="400" font-style="normal" 
>
<text fill="#d9d9d9" fill-opacity="1" stroke="none" xml:space="preserve" x="0" y="0.390625" font-family="Helvetica" font-size="20" font-weight="400" font-style="normal" 
 >4</text>
</g>

<g fill="#d9d9d9" fill-opacity="1" stroke="#d9d9d9" stroke-opacity="1" stroke-width="1" stroke-linecap="square" stroke-linejoin="bevel" transform="matrix(0.49985,0,0,0.499751,729.971,428.222)"
font-family="Helvetica" font-size="20" font-weight="400" font-style="normal" 
>
<text fill="#d9d9d9" fill-opacity="1" stroke="none" xml:space="preserve" x="0" y="0.390625" font-family="Helvetica" font-size="20" font-weight="400" font-style="normal" 
 >3.5</text>
</g>

<g fill="#d9d9d9" fill-opacity="1" stroke="#d9d9d9" stroke-opacity="1" stroke-width="1" stroke-linecap="square" stroke-linejoin="bevel" transform="matrix(0.49985,0,0,0.499751,738.468,402.672)"
font-family="Helvetica" font-size="20" font-weight="400" font-style="normal" 
>
<text fill="#d9d9d9" fill-opacity="1" stroke="none" xml:space="preserve" x="0" y="0.390625" font-family="Helvetica" font-size="20" font-weight="400" font-style="normal" 
 >3</text>
</g>

<g fill="#d9d9d9" fill-opacity="1" stroke="#d9d9d9" stroke-opacity="1" stroke-width="1" stroke-linecap="square" stroke-linejoin="bevel" transform="matrix(0.49985,0,0,0.499751,729.971,377.121)"
font-family="Helvetica" font-size="20" font-weight="400" font-style="normal" 
>
<text fill="#d9d9d9" fill-opacity="1" stroke="none" xml:space="preserve" x="0" y="0.390625" font-family="Helvetica" font-size="20" font-weight="400" font-style="normal" 
 >2.5</text>
</g>

<g fill="#d9d9d9" fill-opacity="1" stroke="#d9d9d9" stroke-opacity="1" stroke-width="1" stroke-linecap="square" stroke-linejoin="bevel" transform="matrix(0.49985,0,0,0.499751,738.468,351.571)"
font-family="Helvetica" font-size="20" font-weight="400" font-style="normal" 
>
<text fill="#d9d9d9" fill-opacity="1" stroke="none" xml:space="preserve" x="0" y="0.390625" font-family="Helvetica" font-size="20" font-weight="400" font-style="normal" 
 >2</text>
</g>

<g fill="#d9d9d9" fill-opacity="1" stroke="#d9d9d9" stroke-opacity="1" stroke-width="1" stroke-linecap="square" stroke-linejoin="bevel" transform="matrix(0.49985,0,0,0.499751,729.971,326.02)"
font-family="Helvetica" font-size="20" font-weight="400" font-style="normal" 
>
<text fill="#d9d9d9" fill-opacity="1" stroke="none" xml:space="preserve" x="0" y="0.390625" font-family="Helvetica" font-size="20" font-weight="400" font-style="normal" 
 >1.5</text>
</g>

<g fill="#d9d9d9" fill-opacity="1" stroke="#d9d9d9" stroke-opacity="1" stroke-width="1" stroke-linecap="square" stroke-linejoin="bevel" transform="matrix(0.49985,0,0,0.499751,738.468,300.467)"
font-family="Helvetica" font-size="20" font-weight="400" font-style="normal" 
>
<text fill="#d9d9d9" fill-opacity="1" stroke="none" xml:space="preserve" x="0" y="0.390625" font-family="Helvetica" font-size="20" font-weight="400" font-style="normal" 
 >1</text>
</g>

<g fill="#d9d9d9" fill-opacity="1" stroke="#d9d9d9" stroke-opacity="1" stroke-width="1" stroke-linecap="square" stroke-linejoin="bevel" transform="matrix(0.49985,0,0,0.499751,729.971,274.909)"
font-family="Helvetica" font-size="20" font-weight="400" font-style="normal" 
>
<text fill="#d9d9d9" fill-opacity="1" stroke="none" xml:space="preserve" x="0" y="0.390625" font-family="Helvetica" font-size="20" font-weight="400" font-style="normal" 
 >0.5</text>
</g>

<g fill="#d9d9d9" fill-opacity="1" stroke="#d9d9d9" stroke-opacity="1" stroke-width="1" stroke-linecap="square" stroke-linejoin="bevel" transform="matrix(0.49985,0,0,0.499751,738.468,34.9846)"
font-family="Helvetica" font-size="20" font-weight="400" font-style="normal" 
>
<text fill="#d9d9d9" fill-opacity="1" stroke="none" xml:space="preserve" x="0" y="0.390625" font-family="Helvetica" font-size="20" font-weight="400" font-style="normal" 
 >4</text>
</g>

<g fill="#d9d9d9" fill-opacity="1" stroke="#d9d9d9" stroke-opacity="1" stroke-width="1" stroke-linecap="square" stroke-linejoin="bevel" transform="matrix(0.49985,0,0,0.499751,729.971,60.5347)"
font-family="Helvetica" font-size="20" font-weight="400" font-style="normal" 
>
<text fill="#d9d9d9" fill-opacity="1" stroke="none" xml:space="preserve" x="0" y="0.390625" font-family="Helvetica" font-size="20" font-weight="400" font-style="normal" 
 >3.5</text>
</g>

<g fill="#d9d9d9" fill-opacity="1" stroke="#d9d9d9" stroke-opacity="1" stroke-width="1" stroke-linecap="square" stroke-linejoin="bevel" transform="matrix(0.49985,0,0,0.499751,738.468,86.0849)"
font-family="Helvetica" font-size="20" font-weight="400" font-style="normal" 
>
<text fill="#d9d9d9" fill-opacity="1" stroke="none" xml:space="preserve" x="0" y="0.390625" font-family="Helvetica" font-size="20" font-weight="400" font-style="normal" 
 >3</text>
</g>

<g fill="#d9d9d9" fill-opacity="1" stroke="#d9d9d9" stroke-opacity="1" stroke-width="1" stroke-linecap="square" stroke-linejoin="bevel" transform="matrix(0.49985,0,0,0.499751,729.971,111.635)"
font-family="Helvetica" font-size="20" font-weight="400" font-style="normal" 
>
<text fill="#d9d9d9" fill-opacity="1" stroke="none" xml:space="preserve" x="0" y="0.390625" font-family="Helvetica" font-size="20" font-weight="400" font-style="normal" 
 >2.5</text>
</g>

<g fill="#d9d9d9" fill-opacity="1" stroke="#d9d9d9" stroke-opacity="1" stroke-width="1" stroke-linecap="square" stroke-linejoin="bevel" transform="matrix(0.49985,0,0,0.499751,738.468,137.186)"
font-family="Helvetica" font-size="20" font-weight="400" font-style="normal" 
>
<text fill="#d9d9d9" fill-opacity="1" stroke="none" xml:space="preserve" x="0" y="0.390625" font-family="Helvetica" font-size="20" font-weight="400" font-style="normal" 
 >2</text>
</g>

<g fill="#d9d9d9" fill-opacity="1" stroke="#d9d9d9" stroke-opacity="1" stroke-width="1" stroke-linecap="square" stroke-linejoin="bevel" transform="matrix(0.49985,0,0,0.499751,729.971,162.737)"
font-family="Helvetica" font-size="20" font-weight="400" font-style="normal" 
>
<text fill="#d9d9d9" fill-opacity="1" stroke="none" xml:space="preserve" x="0" y="0.390625" font-family="Helvetica" font-size="20" font-weight="400" font-style="normal" 
 >1.5</text>
</g>

<g fill="#d9d9d9" fill-opacity="1" stroke="#d9d9d9" stroke-opacity="1" stroke-width="1" stroke-linecap="square" stroke-linejoin="bevel" transform="matrix(0.49985,0,0,0.499751,738.468,188.289)"
font-family="Helvetica" font-size="20" font-weight="400" font-style="normal" 
>
<text fill="#d9d9d9" fill-opacity="1" stroke="none" xml:space="preserve" x="0" y="0.390625" font-family="Helvetica" font-size="20" font-weight="400" font-style="normal" 
 >1</text>
</g>

<g fill="#d9d9d9" fill-opacity="1" stroke="#d9d9d9" stroke-opacity="1" stroke-width="1" stroke-linecap="square" stroke-linejoin="bevel" transform="matrix(0.49985,0,0,0.499751,729.971,213.848)"
font-family="Helvetica" font-size="20" font-weight="400" font-style="normal" 
>
<text fill="#d9d9d9" fill-opacity="1" stroke="none" xml:space="preserve" x="0" y="0.390625" font-family="Helvetica" font-size="20" font-weight="400" font-style="normal" 
 >0.5</text>
</g>

<g fill="#d9d9d9" fill-opacity="1" stroke="#d9d9d9" stroke-opacity="1" stroke-width="1" stroke-linecap="square" stroke-linejoin="bevel" transform="matrix(0.49985,0,0,0.499751,109.777,314.993)"
font-family="Helvetica" font-size="20" font-weight="400" font-style="normal" 
>
<text fill="#d9d9d9" fill-opacity="1" stroke="none" xml:space="preserve" x="0" y="0.390625" font-family="Helvetica" font-size="20" font-weight="400" font-style="normal" 
 >0.65</text>
</g>

<g fill="#d9d9d9" fill-opacity="1" stroke="#d9d9d9" stroke-opacity="1" stroke-width="1" stroke-linecap="square" stroke-linejoin="bevel" transform="matrix(0.49985,0,0,0.499751,109.777,391.402)"
font-family="Helvetica" font-size="20" font-weight="400" font-style="normal" 
>
<text fill="#d9d9d9" fill-opacity="1" stroke="none" xml:space="preserve" x="0" y="0.390625" font-family="Helvetica" font-size="20" font-weight="400" font-style="normal" 
 >0.38</text>
</g>

<g fill="#d9d9d9" fill-opacity="1" stroke="#d9d9d9" stroke-opacity="1" stroke-width="1" stroke-linecap="square" stroke-linejoin="bevel" transform="matrix(0.49985,0,0,0.499751,198.203,437.647)"
font-family="Helvetica" font-size="20" font-weight="400" font-style="normal" 
>
<text fill="#d9d9d9" fill-opacity="1" stroke="none" xml:space="preserve" x="0" y="0.390625" font-family="Helvetica" font-size="20" font-weight="400" font-style="normal" 
 >0.25</text>
</g>

<g fill="#d9d9d9" fill-opacity="1" stroke="#d9d9d9" stroke-opacity="1" stroke-width="1" stroke-linecap="square" stroke-linejoin="bevel" transform="matrix(0.49985,0,0,0.499751,357.195,437.647)"
font-family="Helvetica" font-size="20" font-weight="400" font-style="normal" 
>
<text fill="#d9d9d9" fill-opacity="1" stroke="none" xml:space="preserve" x="0" y="0.390625" font-family="Helvetica" font-size="20" font-weight="400" font-style="normal" 
 >0.18</text>
</g>

<g fill="#d9d9d9" fill-opacity="1" stroke="#d9d9d9" stroke-opacity="1" stroke-width="1" stroke-linecap="square" stroke-linejoin="bevel" transform="matrix(0.49985,0,0,0.499751,474.943,437.647)"
font-family="Helvetica" font-size="20" font-weight="400" font-style="normal" 
>
<text fill="#d9d9d9" fill-opacity="1" stroke="none" xml:space="preserve" x="0" y="0.390625" font-family="Helvetica" font-size="20" font-weight="400" font-style="normal" 
 >0.125</text>
</g>

<g fill="#d9d9d9" fill-opacity="1" stroke="#d9d9d9" stroke-opacity="1" stroke-width="1" stroke-linecap="square" stroke-linejoin="bevel" transform="matrix(0.49985,0,0,0.499751,560.938,437.647)"
font-family="Helvetica" font-size="20" font-weight="400" font-style="normal" 
>
<text fill="#d9d9d9" fill-opacity="1" stroke="none" xml:space="preserve" x="0" y="0.390625" font-family="Helvetica" font-size="20" font-weight="400" font-style="normal" 
 >0.085</text>
</g>

<g fill="#d9d9d9" fill-opacity="1" stroke="#d9d9d9" stroke-opacity="1" stroke-width="1" stroke-linecap="square" stroke-linejoin="bevel" transform="matrix(0.49985,0,0,0.499751,624.833,437.647)"
font-family="Helvetica" font-size="20" font-weight="400" font-style="normal" 
>
<text fill="#d9d9d9" fill-opacity="1" stroke="none" xml:space="preserve" x="0" y="0.390625" font-family="Helvetica" font-size="20" font-weight="400" font-style="normal" 
 >0.055</text>
</g>

<g fill="#d9d9d9" fill-opacity="1" stroke="#d9d9d9" stroke-opacity="1" stroke-width="1" stroke-linecap="square" stroke-linejoin="bevel" transform="matrix(0.49985,0,0,0.499751,688.412,437.647)"
font-family="Helvetica" font-size="20" font-weight="400" font-style="normal" 
>
<text fill="#d9d9d9" fill-opacity="1" stroke="none" xml:space="preserve" x="0" y="0.390625" font-family="Helvetica" font-size="20" font-weight="400" font-style="normal" 
 >0.025</text>
</g>

<g fill="#d9d9d9" fill-opacity="1" stroke="#d9d9d9" stroke-opacity="1" stroke-width="1" stroke-linecap="square" stroke-linejoin="bevel" transform="matrix(0.49985,0,0,0.499751,109.777,173.763)"
font-family="Helvetica" font-size="20" font-weight="400" font-style="normal" 
>
<text fill="#d9d9d9" fill-opacity="1" stroke="none" xml:space="preserve" x="0" y="0.390625" font-family="Helvetica" font-size="20" font-weight="400" font-style="normal" 
 >0.65</text>
</g>

<g fill="#d9d9d9" fill-opacity="1" stroke="#d9d9d9" stroke-opacity="1" stroke-width="1" stroke-linecap="square" stroke-linejoin="bevel" transform="matrix(0.49985,0,0,0.499751,109.777,97.3549)"
font-family="Helvetica" font-size="20" font-weight="400" font-style="normal" 
>
<text fill="#d9d9d9" fill-opacity="1" stroke="none" xml:space="preserve" x="0" y="0.390625" font-family="Helvetica" font-size="20" font-weight="400" font-style="normal" 
 >0.38</text>
</g>

<g fill="#d9d9d9" fill-opacity="1" stroke="#d9d9d9" stroke-opacity="1" stroke-width="1" stroke-linecap="square" stroke-linejoin="bevel" transform="matrix(0.49985,0,0,0.499751,198.203,51.1095)"
font-family="Helvetica" font-size="20" font-weight="400" font-style="normal" 
>
<text fill="#d9d9d9" fill-opacity="1" stroke="none" xml:space="preserve" x="0" y="0.390625" font-family="Helvetica" font-size="20" font-weight="400" font-style="normal" 
 >0.25</text>
</g>

<g fill="#d9d9d9" fill-opacity="1" stroke="#d9d9d9" stroke-opacity="1" stroke-width="1" stroke-linecap="square" stroke-linejoin="bevel" transform="matrix(0.49985,0,0,0.499751,357.195,51.1095)"
font-family="Helvetica" font-size="20" font-weight="400" font-style="normal" 
>
<text fill="#d9d9d9" fill-opacity="1" stroke="none" xml:space="preserve" x="0" y="0.390625" font-family="Helvetica" font-size="20" font-weight="400" font-style="normal" 
 >0.18</text>
</g>

<g fill="#d9d9d9" fill-opacity="1" stroke="#d9d9d9" stroke-opacity="1" stroke-width="1" stroke-linecap="square" stroke-linejoin="bevel" transform="matrix(0.49985,0,0,0.499751,474.943,51.1095)"
font-family="Helvetica" font-size="20" font-weight="400" font-style="normal" 
>
<text fill="#d9d9d9" fill-opacity="1" stroke="none" xml:space="preserve" x="0" y="0.390625" font-family="Helvetica" font-size="20" font-weight="400" font-style="normal" 
 >0.125</text>
</g>

<g fill="#d9d9d9" fill-opacity="1" stroke="#d9d9d9" stroke-opacity="1" stroke-width="1" stroke-linecap="square" stroke-linejoin="bevel" transform="matrix(0.49985,0,0,0.499751,560.938,51.1095)"
font-family="Helvetica" font-size="20" font-weight="400" font-style="normal" 
>
<text fill="#d9d9d9" fill-opacity="1" stroke="none" xml:space="preserve" x="0" y="0.390625" font-family="Helvetica" font-size="20" font-weight="400" font-style="normal" 
 >0.085</text>
</g>

<g fill="#d9d9d9" fill-opacity="1" stroke="#d9d9d9" stroke-opacity="1" stroke-width="1" stroke-linecap="square" stroke-linejoin="bevel" transform="matrix(0.49985,0,0,0.499751,624.833,51.1095)"
font-family="Helvetica" font-size="20" font-weight="400" font-style="normal" 
>
<text fill="#d9d9d9" fill-opacity="1" stroke="none" xml:space="preserve" x="0" y="0.390625" font-family="Helvetica" font-size="20" font-weight="400" font-style="normal" 
 >0.055</text>
</g>

<g fill="#d9d9d9" fill-opacity="1" stroke="#d9d9d9" stroke-opacity="1" stroke-width="1" stroke-linecap="square" stroke-linejoin="bevel" transform="matrix(0.49985,0,0,0.499751,688.412,51.1095)"
font-family="Helvetica" font-size="20" font-weight="400" font-style="normal" 
>
<text fill="#d9d9d9" fill-opacity="1" stroke="none" xml:space="preserve" x="0" y="0.390625" font-family="Helvetica" font-size="20" font-weight="400" font-style="normal" 
 >0.025</text>
</g>

<g fill="#d9d9d9" fill-opacity="1" stroke="#d9d9d9" stroke-opacity="1" stroke-width="1" stroke-linecap="butt" stroke-linejoin="round" transform="matrix(0.49985,0,0,0.499751,0,0)"
font-family="Helvetica" font-size="20" font-weight="400" font-style="normal" 
>
<polyline fill="none" vector-effect="none" points="1508,484 1508,75 " />
<polyline fill="none" vector-effect="none" points="1508,484 1398.97,75 " />
<polyline fill="none" vector-effect="none" points="1508,484 1267.84,75 " />
<polyline fill="none" vector-effect="none" points="1508,484 1136.05,75 " />
<polyline fill="none" vector-effect="none" points="1508,484 958.692,75 " />
<polyline fill="none" vector-effect="none" points="1508,484 710.169,75 " />
<polyline fill="none" vector-effect="none" points="1508,484 382.253,75 " />
<polyline fill="none" vector-effect="none" points="1508,484 200,185.327 " />
<polyline fill="none" vector-effect="none" points="1508,484 200,340.548 " />
<polyline fill="none" vector-effect="none" points="1508,484 200,484 " />
<polyline fill="none" vector-effect="none" points="1508,484 1508,893 " />
<polyline fill="none" vector-effect="none" points="1508,484 1398.97,893 " />
<polyline fill="none" vector-effect="none" points="1508,484 1267.84,893 " />
<polyline fill="none" vector-effect="none" points="1508,484 1136.05,893 " />
<polyline fill="none" vector-effect="none" points="1508,484 958.692,893 " />
<polyline fill="none" vector-effect="none" points="1508,484 710.169,893 " />
<polyline fill="none" vector-effect="none" points="1508,484 382.253,893 " />
<polyline fill="none" vector-effect="none" points="1508,484 200,782.673 " />
<polyline fill="none" vector-effect="none" points="1508,484 200,627.452 " />
<polyline fill="none" vector-effect="none" points="1508,484 200,484 " />
</g>

<g fill="none" stroke="#d9d9d9" stroke-opacity="1" stroke-width="1" stroke-linecap="butt" stroke-linejoin="round" transform="matrix(0.49985,0,0,0.499751,0,0)"
font-family="Helvetica" font-size="20" font-weight="400" font-style="normal" 
>
<polyline fill="none" vector-effect="none" points="1508,484 1508,484 1508,484 1508,484 1508,484 1508,484 1508,484 1508,484 1508,484 1508,484 1508,484 1508,484 1508,484 1508,484 1508,484 1508,484 1508,484 1508,484 1508,484 1508,484 1508,484 1508,484 1508,484 1508,484 1508,484 1508,484 1508,484 1508,484 1508,484 1508,484 1508,484 1508,484 1508,484 1508,484 1508,484 1508,484 1508,484 1508,484 1508,484 1508,484 1508,484 " />
<polyline fill="none" vector-effect="none" points="1508,432.875 1504.79,432.876 1501.57,432.879 1498.33,432.883 1495.06,432.889 1491.75,432.898 1488.39,432.908 1484.96,432.921 1481.47,432.936 1477.89,432.953 1474.2,432.973 1470.4,432.997 1466.47,433.024 1462.38,433.054 1458.11,433.09 1453.65,433.13 1448.95,433.176 1444,433.229 1438.74,433.289 1433.15,433.359 1427.15,433.441 1420.71,433.535 1413.73,433.646 1406.13,433.776 1397.8,433.931 1388.62,434.117 1378.42,434.341 1367,434.616 1354.09,434.956 1339.37,435.384 1322.43,435.93 1302.73,436.64 1279.57,437.583 1252.08,438.862 1219.22,440.642 1179.86,443.18 1133.24,446.88 1080.15,452.331 1025.39,460.247 980.786,471.046 963,484 " />
<polyline fill="none" vector-effect="none" points="1508,381.75 1501.58,381.752 1495.13,381.757 1488.65,381.766 1482.11,381.779 1475.49,381.795 1468.77,381.816 1461.93,381.841 1454.94,381.871 1447.77,381.906 1440.41,381.947 1432.81,381.994 1424.93,382.047 1416.76,382.109 1408.23,382.179 1399.3,382.26 1389.91,382.352 1380,382.457 1369.49,382.579 1358.29,382.719 1346.31,382.881 1333.41,383.07 1319.45,383.291 1304.26,383.552 1287.61,383.862 1269.25,384.233 1248.84,384.682 1225.99,385.232 1200.18,385.912 1170.74,386.767 1136.86,387.86 1097.45,389.28 1051.13,391.165 996.163,393.724 930.437,397.284 851.718,402.361 758.486,409.76 652.302,420.662 542.788,436.494 453.572,458.091 418,484 " />
<polyline fill="none" vector-effect="none" points="1508,330.625 1498.36,330.628 1488.7,330.636 1478.98,330.649 1469.17,330.668 1459.24,330.693 1449.16,330.724 1438.89,330.762 1428.41,330.807 1417.66,330.859 1406.61,330.92 1395.21,330.99 1383.4,331.071 1371.14,331.163 1358.34,331.269 1344.95,331.39 1330.86,331.528 1316,331.686 1300.23,331.868 1283.44,332.078 1265.46,332.322 1246.12,332.605 1225.18,332.937 1202.38,333.328 1177.41,333.793 1149.87,334.35 1119.26,335.023 1084.99,335.847 1046.26,336.868 1002.12,338.151 951.293,339.79 892.178,341.92 822.7,344.748 740.245,348.586 641.656,353.926 523.577,361.541 383.729,372.64 224.454,388.993 200,392.528 " />
<polyline fill="none" vector-effect="none" points="1508,279.5 1495.15,279.504 1482.27,279.514 1469.3,279.532 1456.22,279.558 1442.98,279.591 1429.55,279.632 1415.86,279.683 1401.88,279.742 1387.55,279.812 1372.81,279.894 1357.61,279.987 1341.87,280.095 1325.51,280.218 1308.46,280.359 1290.59,280.519 1271.82,280.704 1252,280.915 1230.98,281.158 1208.59,281.438 1184.62,281.763 1158.82,282.14 1130.9,282.583 1100.51,283.104 1067.22,283.724 1030.49,284.466 989.686,285.364 943.981,286.463 892.35,287.824 833.489,289.535 765.724,291.72 686.904,294.56 594.267,298.33 484.326,303.448 352.875,310.568 200,320.428 " />
<polyline fill="none" vector-effect="none" points="1508,228.375 1491.94,228.379 1475.83,228.393 1459.63,228.415 1443.28,228.447 1426.73,228.489 1409.93,228.541 1392.82,228.603 1375.35,228.678 1357.43,228.765 1339.02,228.867 1320.01,228.984 1300.34,229.118 1279.89,229.272 1258.57,229.448 1236.24,229.649 1212.77,229.88 1188,230.144 1161.72,230.447 1133.74,230.797 1103.77,231.203 1071.53,231.675 1036.63,232.228 998.642,232.88 957.024,233.655 911.118,234.583 860.108,235.705 802.976,237.079 738.438,238.78 664.861,240.919 580.155,243.649 481.63,247.2 365.834,251.913 228.408,258.311 200,259.849 " />
<polyline fill="none" vector-effect="none" points="1508,177.25 1488.73,177.255 1469.4,177.271 1449.95,177.298 1430.33,177.337 1410.48,177.386 1390.32,177.449 1369.79,177.524 1348.82,177.614 1327.32,177.719 1305.22,177.84 1282.42,177.981 1258.8,178.142 1234.27,178.327 1208.68,178.538 1181.89,178.779 1153.73,179.056 1124,179.372 1092.47,179.737 1058.88,180.157 1022.93,180.644 984.231,181.211 942.356,181.874 896.77,182.656 846.829,183.586 791.741,184.699 730.529,186.046 661.971,187.694 584.525,189.736 496.233,192.302 394.586,195.579 276.356,199.84 200,202.948 " />
<polyline fill="none" vector-effect="none" points="1508,126.125 1485.52,126.131 1462.97,126.15 1440.28,126.181 1417.39,126.226 1394.22,126.284 1370.7,126.357 1346.75,126.445 1322.29,126.549 1297.21,126.672 1271.42,126.814 1244.82,126.978 1217.27,127.166 1188.65,127.381 1158.8,127.627 1127.54,127.909 1094.68,128.231 1060,128.601 1023.21,129.026 984.031,129.516 942.081,130.084 896.936,130.746 848.082,131.52 794.898,132.433 736.633,133.517 672.365,134.816 600.951,136.387 520.966,138.31 430.613,140.693 327.606,143.686 209.017,147.509 200,147.834 " />
<polyline fill="none" vector-effect="none" points="1508,75 1482.3,75.0071 1456.53,75.0285 1430.61,75.0644 1404.45,75.1154 1377.97,75.1819 1351.09,75.2649 1323.72,75.3655 1295.75,75.4849 1267.1,75.6248 1237.63,75.7872 1207.22,75.9744 1175.74,76.1893 1143.03,76.4355 1108.91,76.717 1073.19,77.0389 1035.64,77.4074 995.995,77.8299 953.959,78.3156 909.178,78.876 861.236,79.525 809.641,80.2807 753.808,81.1655 693.026,82.2086 626.438,83.4476 552.989,84.9321 471.373,86.7284 379.961,88.926 276.7,91.6486 200,93.8778 " />
<polyline fill="none" vector-effect="none" points="1508,484 1508,484 1508,484 1508,484 1508,484 1508,484 1508,484 1508,484 1508,484 1508,484 1508,484 1508,484 1508,484 1508,484 1508,484 1508,484 1508,484 1508,484 1508,484 1508,484 1508,484 1508,484 1508,484 1508,484 1508,484 1508,484 1508,484 1508,484 1508,484 1508,484 1508,484 1508,484 1508,484 1508,484 1508,484 1508,484 1508,484 1508,484 1508,484 1508,484 1508,484 " />
<polyline fill="none" vector-effect="none" points="1508,535.125 1504.79,535.124 1501.57,535.121 1498.33,535.117 1495.06,535.111 1491.75,535.102 1488.39,535.092 1484.96,535.079 1481.47,535.064 1477.89,535.047 1474.2,535.027 1470.4,535.003 1466.47,534.976 1462.38,534.946 1458.11,534.91 1453.65,534.87 1448.95,534.824 1444,534.771 1438.74,534.711 1433.15,534.641 1427.15,534.559 1420.71,534.465 1413.73,534.354 1406.13,534.224 1397.8,534.069 1388.62,533.883 1378.42,533.659 1367,533.384 1354.09,533.044 1339.37,532.616 1322.43,532.07 1302.73,531.36 1279.57,530.417 1252.08,529.138 1219.22,527.358 1179.86,524.82 1133.24,521.12 1080.15,515.669 1025.39,507.753 980.786,496.954 963,484 " />
<polyline fill="none" vector-effect="none" points="1508,586.25 1501.58,586.248 1495.13,586.243 1488.65,586.234 1482.11,586.221 1475.49,586.205 1468.77,586.184 1461.93,586.159 1454.94,586.129 1447.77,586.094 1440.41,586.053 1432.81,586.006 1424.93,585.953 1416.76,585.891 1408.23,585.821 1399.3,585.74 1389.91,585.648 1380,585.543 1369.49,585.421 1358.29,585.281 1346.31,585.119 1333.41,584.93 1319.45,584.709 1304.26,584.448 1287.61,584.138 1269.25,583.767 1248.84,583.318 1225.99,582.768 1200.18,582.088 1170.74,581.232 1136.86,580.14 1097.45,578.72 1051.13,576.835 996.163,574.276 930.437,570.716 851.718,565.639 758.486,558.24 652.302,547.338 542.788,531.506 453.572,509.909 418,484 " />
<polyline fill="none" vector-effect="none" points="1508,637.375 1498.36,637.372 1488.7,637.364 1478.98,637.351 1469.17,637.332 1459.24,637.307 1449.16,637.276 1438.89,637.238 1428.41,637.193 1417.66,637.141 1406.61,637.08 1395.21,637.01 1383.4,636.929 1371.14,636.837 1358.34,636.731 1344.95,636.61 1330.86,636.472 1316,636.314 1300.23,636.132 1283.44,635.922 1265.46,635.678 1246.12,635.395 1225.18,635.063 1202.38,634.672 1177.41,634.207 1149.87,633.65 1119.26,632.977 1084.99,632.153 1046.26,631.132 1002.12,629.849 951.293,628.21 892.178,626.08 822.7,623.252 740.245,619.414 641.656,614.074 523.577,606.458 383.729,595.36 224.454,579.007 200,575.472 " />
<polyline fill="none" vector-effect="none" points="1508,688.5 1495.15,688.496 1482.27,688.486 1469.3,688.468 1456.22,688.442 1442.98,688.409 1429.55,688.368 1415.86,688.317 1401.88,688.258 1387.55,688.188 1372.81,688.106 1357.61,688.013 1341.87,687.905 1325.51,687.782 1308.46,687.641 1290.59,687.481 1271.82,687.296 1252,687.085 1230.98,686.842 1208.59,686.562 1184.62,686.237 1158.82,685.86 1130.9,685.417 1100.51,684.896 1067.22,684.276 1030.49,683.534 989.686,682.636 943.981,681.537 892.35,680.176 833.489,678.465 765.724,676.28 686.904,673.44 594.267,669.67 484.326,664.552 352.875,657.432 200,647.572 " />
<polyline fill="none" vector-effect="none" points="1508,739.625 1491.94,739.621 1475.83,739.607 1459.63,739.585 1443.28,739.553 1426.73,739.511 1409.93,739.459 1392.82,739.397 1375.35,739.322 1357.43,739.234 1339.02,739.133 1320.01,739.016 1300.34,738.882 1279.89,738.728 1258.57,738.552 1236.24,738.351 1212.77,738.12 1188,737.856 1161.72,737.553 1133.74,737.203 1103.77,736.797 1071.53,736.325 1036.63,735.772 998.642,735.12 957.024,734.345 911.118,733.417 860.108,732.295 802.976,730.921 738.438,729.22 664.861,727.081 580.155,724.351 481.63,720.8 365.834,716.087 228.408,709.689 200,708.151 " />
<polyline fill="none" vector-effect="none" points="1508,790.75 1488.73,790.745 1469.4,790.729 1449.95,790.702 1430.33,790.663 1410.48,790.614 1390.32,790.551 1369.79,790.476 1348.82,790.386 1327.32,790.281 1305.22,790.16 1282.42,790.019 1258.8,789.858 1234.27,789.673 1208.68,789.462 1181.89,789.221 1153.73,788.944 1124,788.628 1092.47,788.263 1058.88,787.843 1022.93,787.356 984.231,786.789 942.356,786.126 896.77,785.344 846.829,784.414 791.741,783.301 730.529,781.954 661.971,780.305 584.525,778.264 496.233,775.698 394.586,772.421 276.356,768.16 200,765.052 " />
<polyline fill="none" vector-effect="none" points="1508,841.875 1485.52,841.869 1462.97,841.85 1440.28,841.819 1417.39,841.774 1394.22,841.716 1370.7,841.643 1346.75,841.555 1322.29,841.451 1297.21,841.328 1271.42,841.186 1244.82,841.022 1217.27,840.834 1188.65,840.619 1158.8,840.373 1127.54,840.091 1094.68,839.768 1060,839.399 1023.21,838.974 984.031,838.484 942.081,837.916 896.936,837.254 848.082,836.48 794.898,835.567 736.633,834.483 672.365,833.184 600.951,831.613 520.966,829.69 430.613,827.307 327.606,824.314 209.017,820.491 200,820.166 " />
<polyline fill="none" vector-effect="none" points="1508,893 1482.3,892.993 1456.53,892.971 1430.61,892.936 1404.45,892.885 1377.97,892.818 1351.09,892.735 1323.72,892.635 1295.75,892.515 1267.1,892.375 1237.63,892.213 1207.22,892.026 1175.74,891.811 1143.03,891.565 1108.91,891.283 1073.19,890.961 1035.64,890.593 995.995,890.17 953.959,889.684 909.178,889.124 861.236,888.475 809.641,887.719 753.808,886.834 693.026,885.791 626.438,884.552 552.989,883.068 471.373,881.272 379.961,879.074 276.7,876.351 200,874.122 " />
</g>

<g fill="#1171be" fill-opacity="1" stroke="#1171be" stroke-opacity="1" stroke-width="1" stroke-linecap="butt" stroke-linejoin="miter" stroke-miterlimit="2" transform="matrix(0.49985,0,0,0.499751,0,0)"
font-family="Helvetica" font-size="20" font-weight="400" font-style="normal" 
>
<polyline fill="none" vector-effect="none" points="250.257,161.671 258.743,170.156 " />
<polyline fill="none" vector-effect="none" points="250.257,170.156 258.743,161.671 " />
<polyline fill="none" vector-effect="none" points="250.257,797.844 258.743,806.329 " />
<polyline fill="none" vector-effect="none" points="250.257,806.329 258.743,797.844 " />
</g>
</g>
</svg>