<?xml version="1.0" encoding="UTF-8" standalone="no"?>
<svg width="294.217mm" height="177.094mm"
 viewBox="0 0 834 502"
 xmlns="http://www.w3.org/2000/svg" xmlns:xlink="http://www.w3.org/1999/xlink"  version="1.2" baseProfile="tiny">
<title>Qt SVG Document</title>
<desc>MATLAB, The MathWorks, Inc. Version 25.1.0.2833191 R2025a Prerelease Update 2</desc>
<defs>
</defs>
<g fill="none" stroke="black" stroke-width="1" fill-rule="evenodd" stroke-linecap="square" stroke-linejoin="bevel" >

<g fill="#ffffff" fill-opacity="1" stroke="none" transform="matrix(0.49985,0,0,0.499751,0,0)"
font-family=".AppleSystemUIFont" font-size="13" font-weight="400" font-style="normal" 
>
<path vector-effect="none" fill-rule="evenodd" d="M0,0 L1668,0 L1668,1005 L0,1005 L0,0"/>
</g>

<g fill="#ffffff" fill-opacity="1" stroke="none" transform="matrix(4.9985e-05,0,0,4.99751e-05,0,0)"
font-family=".AppleSystemUIFont" font-size="13" font-weight="400" font-style="normal" 
>
<path vector-effect="none" fill-rule="evenodd" d="M2.17e+06,750000 L2.17e+06,8.93e+06 L1.508e+07,8.93e+06 L1.508e+07,750000 L2.17e+06,750000"/>
</g>

<g fill="#212121" fill-opacity="1" stroke="#212121" stroke-opacity="1" stroke-width="1" stroke-linecap="butt" stroke-linejoin="round" transform="matrix(0.49985,0,0,0.499751,0,0)"
font-family=".AppleSystemUIFont" font-size="13" font-weight="400" font-style="normal" 
>
<polyline fill="none" vector-effect="none" points="217,893 1508,893 " />
<polyline fill="none" vector-effect="none" points="217,75 1508,75 " />
<polyline fill="none" vector-effect="none" points="217,893 217,880.09 " />
<polyline fill="none" vector-effect="none" points="217,87.91 217,75 " />
<polyline fill="none" vector-effect="none" points="432.167,893 432.167,880.09 " />
<polyline fill="none" vector-effect="none" points="432.167,87.91 432.167,75 " />
<polyline fill="none" vector-effect="none" points="647.333,893 647.333,880.09 " />
<polyline fill="none" vector-effect="none" points="647.333,87.91 647.333,75 " />
<polyline fill="none" vector-effect="none" points="862.5,893 862.5,880.09 " />
<polyline fill="none" vector-effect="none" points="862.5,87.91 862.5,75 " />
<polyline fill="none" vector-effect="none" points="1077.67,893 1077.67,880.09 " />
<polyline fill="none" vector-effect="none" points="1077.67,87.91 1077.67,75 " />
<polyline fill="none" vector-effect="none" points="1292.83,893 1292.83,880.09 " />
<polyline fill="none" vector-effect="none" points="1292.83,87.91 1292.83,75 " />
<polyline fill="none" vector-effect="none" points="1508,893 1508,880.09 " />
<polyline fill="none" vector-effect="none" points="1508,87.91 1508,75 " />
</g>

<g fill="#212121" fill-opacity="1" stroke="#212121" stroke-opacity="1" stroke-width="1" stroke-linecap="square" stroke-linejoin="bevel" transform="matrix(0.49985,0,0,0.499751,105.718,457.772)"
font-family="Helvetica" font-size="20" font-weight="400" font-style="normal" 
>
<text fill="#212121" fill-opacity="1" stroke="none" xml:space="preserve" x="0" y="0.390625" font-family="Helvetica" font-size="20" font-weight="400" font-style="normal" 
 >0</text>
</g>

<g fill="#212121" fill-opacity="1" stroke="#212121" stroke-opacity="1" stroke-width="1" stroke-linecap="square" stroke-linejoin="bevel" transform="matrix(0.49985,0,0,0.499751,213.269,457.772)"
font-family="Helvetica" font-size="20" font-weight="400" font-style="normal" 
>
<text fill="#212121" fill-opacity="1" stroke="none" xml:space="preserve" x="0" y="0.390625" font-family="Helvetica" font-size="20" font-weight="400" font-style="normal" 
 >5</text>
</g>

<g fill="#212121" fill-opacity="1" stroke="#212121" stroke-opacity="1" stroke-width="1" stroke-linecap="square" stroke-linejoin="bevel" transform="matrix(0.49985,0,0,0.499751,318.071,457.772)"
font-family="Helvetica" font-size="20" font-weight="400" font-style="normal" 
>
<text fill="#212121" fill-opacity="1" stroke="none" xml:space="preserve" x="0" y="0.390625" font-family="Helvetica" font-size="20" font-weight="400" font-style="normal" 
 >10</text>
</g>

<g fill="#212121" fill-opacity="1" stroke="#212121" stroke-opacity="1" stroke-width="1" stroke-linecap="square" stroke-linejoin="bevel" transform="matrix(0.49985,0,0,0.499751,425.622,457.772)"
font-family="Helvetica" font-size="20" font-weight="400" font-style="normal" 
>
<text fill="#212121" fill-opacity="1" stroke="none" xml:space="preserve" x="0" y="0.390625" font-family="Helvetica" font-size="20" font-weight="400" font-style="normal" 
 >15</text>
</g>

<g fill="#212121" fill-opacity="1" stroke="#212121" stroke-opacity="1" stroke-width="1" stroke-linecap="square" stroke-linejoin="bevel" transform="matrix(0.49985,0,0,0.499751,533.173,457.772)"
font-family="Helvetica" font-size="20" font-weight="400" font-style="normal" 
>
<text fill="#212121" fill-opacity="1" stroke="none" xml:space="preserve" x="0" y="0.390625" font-family="Helvetica" font-size="20" font-weight="400" font-style="normal" 
 >20</text>
</g>

<g fill="#212121" fill-opacity="1" stroke="#212121" stroke-opacity="1" stroke-width="1" stroke-linecap="square" stroke-linejoin="bevel" transform="matrix(0.49985,0,0,0.499751,640.724,457.772)"
font-family="Helvetica" font-size="20" font-weight="400" font-style="normal" 
>
<text fill="#212121" fill-opacity="1" stroke="none" xml:space="preserve" x="0" y="0.390625" font-family="Helvetica" font-size="20" font-weight="400" font-style="normal" 
 >25</text>
</g>

<g fill="#212121" fill-opacity="1" stroke="#212121" stroke-opacity="1" stroke-width="1" stroke-linecap="square" stroke-linejoin="bevel" transform="matrix(0.49985,0,0,0.499751,748.276,457.772)"
font-family="Helvetica" font-size="20" font-weight="400" font-style="normal" 
>
<text fill="#212121" fill-opacity="1" stroke="none" xml:space="preserve" x="0" y="0.390625" font-family="Helvetica" font-size="20" font-weight="400" font-style="normal" 
 >30</text>
</g>

<g fill="#212121" fill-opacity="1" stroke="#212121" stroke-opacity="1" stroke-width="1" stroke-linecap="butt" stroke-linejoin="round" transform="matrix(0.49985,0,0,0.499751,0,0)"
font-family="Helvetica" font-size="20" font-weight="400" font-style="normal" 
>
<polyline fill="none" vector-effect="none" points="217,893 217,75 " />
<polyline fill="none" vector-effect="none" points="1508,893 1508,75 " />
<polyline fill="none" vector-effect="none" points="217,893 229.91,893 " />
<polyline fill="none" vector-effect="none" points="1495.09,893 1508,893 " />
<polyline fill="none" vector-effect="none" points="217,811.2 229.91,811.2 " />
<polyline fill="none" vector-effect="none" points="1495.09,811.2 1508,811.2 " />
<polyline fill="none" vector-effect="none" points="217,729.4 229.91,729.4 " />
<polyline fill="none" vector-effect="none" points="1495.09,729.4 1508,729.4 " />
<polyline fill="none" vector-effect="none" points="217,647.6 229.91,647.6 " />
<polyline fill="none" vector-effect="none" points="1495.09,647.6 1508,647.6 " />
<polyline fill="none" vector-effect="none" points="217,565.8 229.91,565.8 " />
<polyline fill="none" vector-effect="none" points="1495.09,565.8 1508,565.8 " />
<polyline fill="none" vector-effect="none" points="217,484 229.91,484 " />
<polyline fill="none" vector-effect="none" points="1495.09,484 1508,484 " />
<polyline fill="none" vector-effect="none" points="217,402.2 229.91,402.2 " />
<polyline fill="none" vector-effect="none" points="1495.09,402.2 1508,402.2 " />
<polyline fill="none" vector-effect="none" points="217,320.4 229.91,320.4 " />
<polyline fill="none" vector-effect="none" points="1495.09,320.4 1508,320.4 " />
<polyline fill="none" vector-effect="none" points="217,238.6 229.91,238.6 " />
<polyline fill="none" vector-effect="none" points="1495.09,238.6 1508,238.6 " />
<polyline fill="none" vector-effect="none" points="217,156.8 229.91,156.8 " />
<polyline fill="none" vector-effect="none" points="1495.09,156.8 1508,156.8 " />
<polyline fill="none" vector-effect="none" points="217,75 229.91,75 " />
<polyline fill="none" vector-effect="none" points="1495.09,75 1508,75 " />
</g>

<g fill="#212121" fill-opacity="1" stroke="#212121" stroke-opacity="1" stroke-width="1" stroke-linecap="square" stroke-linejoin="bevel" transform="matrix(0.49985,0,0,0.499751,98.9703,448.776)"
font-family="Helvetica" font-size="20" font-weight="400" font-style="normal" 
>
<text fill="#212121" fill-opacity="1" stroke="none" xml:space="preserve" x="0" y="0.390625" font-family="Helvetica" font-size="20" font-weight="400" font-style="normal" 
 >0</text>
</g>

<g fill="#212121" fill-opacity="1" stroke="#212121" stroke-opacity="1" stroke-width="1" stroke-linecap="square" stroke-linejoin="bevel" transform="matrix(0.49985,0,0,0.499751,90.4729,407.897)"
font-family="Helvetica" font-size="20" font-weight="400" font-style="normal" 
>
<text fill="#212121" fill-opacity="1" stroke="none" xml:space="preserve" x="0" y="0.390625" font-family="Helvetica" font-size="20" font-weight="400" font-style="normal" 
 >0.1</text>
</g>

<g fill="#212121" fill-opacity="1" stroke="#212121" stroke-opacity="1" stroke-width="1" stroke-linecap="square" stroke-linejoin="bevel" transform="matrix(0.49985,0,0,0.499751,90.4729,367.017)"
font-family="Helvetica" font-size="20" font-weight="400" font-style="normal" 
>
<text fill="#212121" fill-opacity="1" stroke="none" xml:space="preserve" x="0" y="0.390625" font-family="Helvetica" font-size="20" font-weight="400" font-style="normal" 
 >0.2</text>
</g>

<g fill="#212121" fill-opacity="1" stroke="#212121" stroke-opacity="1" stroke-width="1" stroke-linecap="square" stroke-linejoin="bevel" transform="matrix(0.49985,0,0,0.499751,90.4729,326.137)"
font-family="Helvetica" font-size="20" font-weight="400" font-style="normal" 
>
<text fill="#212121" fill-opacity="1" stroke="none" xml:space="preserve" x="0" y="0.390625" font-family="Helvetica" font-size="20" font-weight="400" font-style="normal" 
 >0.3</text>
</g>

<g fill="#212121" fill-opacity="1" stroke="#212121" stroke-opacity="1" stroke-width="1" stroke-linecap="square" stroke-linejoin="bevel" transform="matrix(0.49985,0,0,0.499751,90.4729,285.258)"
font-family="Helvetica" font-size="20" font-weight="400" font-style="normal" 
>
<text fill="#212121" fill-opacity="1" stroke="none" xml:space="preserve" x="0" y="0.390625" font-family="Helvetica" font-size="20" font-weight="400" font-style="normal" 
 >0.4</text>
</g>

<g fill="#212121" fill-opacity="1" stroke="#212121" stroke-opacity="1" stroke-width="1" stroke-linecap="square" stroke-linejoin="bevel" transform="matrix(0.49985,0,0,0.499751,90.4729,244.378)"
font-family="Helvetica" font-size="20" font-weight="400" font-style="normal" 
>
<text fill="#212121" fill-opacity="1" stroke="none" xml:space="preserve" x="0" y="0.390625" font-family="Helvetica" font-size="20" font-weight="400" font-style="normal" 
 >0.5</text>
</g>

<g fill="#212121" fill-opacity="1" stroke="#212121" stroke-opacity="1" stroke-width="1" stroke-linecap="square" stroke-linejoin="bevel" transform="matrix(0.49985,0,0,0.499751,90.4729,203.499)"
font-family="Helvetica" font-size="20" font-weight="400" font-style="normal" 
>
<text fill="#212121" fill-opacity="1" stroke="none" xml:space="preserve" x="0" y="0.390625" font-family="Helvetica" font-size="20" font-weight="400" font-style="normal" 
 >0.6</text>
</g>

<g fill="#212121" fill-opacity="1" stroke="#212121" stroke-opacity="1" stroke-width="1" stroke-linecap="square" stroke-linejoin="bevel" transform="matrix(0.49985,0,0,0.499751,90.4729,162.619)"
font-family="Helvetica" font-size="20" font-weight="400" font-style="normal" 
>
<text fill="#212121" fill-opacity="1" stroke="none" xml:space="preserve" x="0" y="0.390625" font-family="Helvetica" font-size="20" font-weight="400" font-style="normal" 
 >0.7</text>
</g>

<g fill="#212121" fill-opacity="1" stroke="#212121" stroke-opacity="1" stroke-width="1" stroke-linecap="square" stroke-linejoin="bevel" transform="matrix(0.49985,0,0,0.499751,90.4729,121.739)"
font-family="Helvetica" font-size="20" font-weight="400" font-style="normal" 
>
<text fill="#212121" fill-opacity="1" stroke="none" xml:space="preserve" x="0" y="0.390625" font-family="Helvetica" font-size="20" font-weight="400" font-style="normal" 
 >0.8</text>
</g>

<g fill="#212121" fill-opacity="1" stroke="#212121" stroke-opacity="1" stroke-width="1" stroke-linecap="square" stroke-linejoin="bevel" transform="matrix(0.49985,0,0,0.499751,90.4729,80.8597)"
font-family="Helvetica" font-size="20" font-weight="400" font-style="normal" 
>
<text fill="#212121" fill-opacity="1" stroke="none" xml:space="preserve" x="0" y="0.390625" font-family="Helvetica" font-size="20" font-weight="400" font-style="normal" 
 >0.9</text>
</g>

<g fill="#212121" fill-opacity="1" stroke="#212121" stroke-opacity="1" stroke-width="1" stroke-linecap="square" stroke-linejoin="bevel" transform="matrix(0.49985,0,0,0.499751,98.9703,39.9801)"
font-family="Helvetica" font-size="20" font-weight="400" font-style="normal" 
>
<text fill="#212121" fill-opacity="1" stroke="none" xml:space="preserve" x="0" y="0.390625" font-family="Helvetica" font-size="20" font-weight="400" font-style="normal" 
 >1</text>
</g>

<g fill="none" stroke="#1171be" stroke-opacity="1" stroke-width="1" stroke-linecap="butt" stroke-linejoin="round" transform="matrix(0.49985,0,0,0.499751,0,0)"
font-family="Helvetica" font-size="20" font-weight="400" font-style="normal" 
>
<polyline fill="none" vector-effect="none" points="217,893 219.587,892.996 222.174,892.956 224.762,892.806 227.349,892.419 229.936,891.629 232.523,890.234 235.11,888.004 237.697,884.693 240.285,880.046 242.872,873.81 245.459,865.75 248.046,855.652 250.633,843.337 253.22,828.668 255.808,811.558 258.395,791.974 260.982,769.945 263.569,745.556 266.156,718.955 268.743,690.346 271.331,659.987 273.918,628.182 276.505,595.274 279.092,561.635 281.679,527.656 284.267,493.738 286.854,460.277 289.441,427.655 292.028,396.23 294.615,366.323 297.202,338.215 299.79,312.133 302.377,288.249 304.964,266.676 307.551,247.466 310.138,230.611 312.725,216.043 315.313,203.643 317.9,193.244 320.487,184.642 323.074,177.601 325.661,171.867 328.249,167.177 330.836,163.269 333.423,159.894 336.01,156.825 338.597,153.869 341.184,150.869 343.772,147.716 346.359,144.349 348.946,140.762 351.533,137 354.12,133.16 356.707,129.385 359.295,125.864 361.882,122.819 364.469,120.497 367.056,119.165 369.643,119.096 372.23,120.558 374.818,123.804 377.405,129.064 379.992,136.531 382.579,146.355 385.166,158.638 387.754,173.422 390.341,190.694 392.928,210.378 395.515,232.339 398.102,256.383 400.689,282.264 403.277,309.691 405.864,338.332 408.451,367.828 411.038,397.799 413.625,427.86 416.212,457.627 418.8,486.732 421.387,514.831 423.974,541.617 426.561,566.824 429.148,590.238 431.735,611.699 434.323,631.108 436.91,648.424 439.497,663.666 442.084,676.91 444.671,688.282 447.259,697.955 449.846,706.137 452.433,713.064 455.02,718.992 457.607,724.18 460.194,728.886 462.782,733.352 465.369,737.796 467.956,742.402 470.543,747.315 473.13,752.63 475.717,758.394 478.305,764.599 480.892,771.182 483.479,778.032 486.066,784.986 488.653,791.842 491.24,798.361 493.828,804.278 496.415,809.313 499.002,813.177 501.589,815.589 504.176,816.282 506.764,815.015 509.351,811.582 511.938,805.822 514.525,797.625 517.112,786.935 519.699,773.759 522.287,758.161 524.874,740.268 527.461,720.263 530.048,698.383 532.635,674.908 535.222,650.16 537.81,624.486 540.397,598.253 542.984,571.835 545.571,545.602 548.158,519.908 550.745,495.083 553.333,471.42 555.92,449.17 558.507,428.533 561.094,409.655 563.681,392.623 566.269,377.464 568.856,364.147 571.443,352.588 574.03,342.65 576.617,334.154 579.204,326.887 581.792,320.607 584.379,315.059 586.966,309.982 589.553,305.123 592.14,300.242 594.727,295.128 597.315,289.603 599.902,283.533 602.489,276.832 605.076,269.466 607.663,261.454 610.25,252.872 612.838,243.845 615.425,234.548 618.012,225.197 620.599,216.045 623.186,207.369 625.774,199.463 628.361,192.624 630.948,187.146 633.535,183.307 636.122,181.356 638.709,181.509 641.297,183.934 643.884,188.75 646.471,196.02 649.058,205.745 651.645,217.868 654.232,232.269 656.82,248.774 659.407,267.154 661.994,287.137 664.581,308.412 667.168,330.641 669.755,353.469 672.343,376.533 674.93,399.476 677.517,421.958 680.104,443.661 682.691,464.308 685.279,483.661 687.866,501.534 690.453,517.796 693.04,532.375 695.627,545.255 698.214,556.479 700.802,566.144 703.389,574.396 705.976,581.421 708.563,587.441 711.15,592.701 713.737,597.46 716.325,601.979 718.912,606.513 721.499,611.297 724.086,616.54 726.673,622.413 729.26,629.044 731.848,636.511 734.435,644.84 737.022,653.999 739.609,663.905 742.196,674.42 744.784,685.359 747.371,696.494 749.958,707.563 752.545,718.279 755.132,728.34 757.719,737.436 760.307,745.268 762.894,751.549 765.481,756.023 768.068,758.469 770.655,758.712 773.242,756.628 775.83,752.148 778.417,745.267 781.004,736.036 783.591,724.568 786.178,711.033 788.766,695.652 791.353,678.691 793.94,660.452 796.527,641.264 799.114,621.473 801.701,601.429 804.289,581.479 806.876,561.951 809.463,543.148 812.05,525.336 814.637,508.737 817.224,493.523 819.812,479.811 822.399,467.66 824.986,457.073 827.573,447.993 830.16,440.313 832.747,433.876 835.335,428.488 837.922,423.918 840.509,419.917 843.096,416.221 845.683,412.567 848.271,408.698 850.858,404.382 853.445,399.411 856.032,393.618 858.619,386.881 861.206,379.128 863.794,370.341 866.381,360.558 868.968,349.872 871.555,338.429 874.142,326.423 876.729,314.09 879.317,301.701 881.904,289.549 884.491,277.946 887.078,267.206 889.665,257.636 892.253,249.526 894.84,243.137 897.427,238.696 900.014,236.38 902.601,236.318 905.188,238.58 907.776,243.177 910.363,250.058 912.95,259.116 915.537,270.185 918.124,283.049 920.711,297.448 923.299,313.086 925.886,329.642 928.473,346.779 931.06,364.156 933.647,381.438 936.234,398.307 938.822,414.473 941.409,429.684 943.996,443.729 946.583,456.452 949.17,467.748 951.758,477.571 954.345,485.934 956.932,492.904 959.519,498.6 962.106,503.188 964.693,506.874 967.281,509.894 969.868,512.505 972.455,514.976 975.042,517.572 977.629,520.55 980.216,524.146 982.804,528.563 985.391,533.966 987.978,540.474 990.565,548.152 993.152,557.015 995.74,567.016 998.327,578.057 1000.91,589.984 1003.5,602.596 1006.09,615.652 1008.68,628.874 1011.26,641.961 1013.85,654.599 1016.44,666.467 1019.02,677.255 1021.61,686.67 1024.2,694.447 1026.79,700.36 1029.37,704.227 1031.96,705.919 1034.55,705.364 1037.13,702.551 1039.72,697.527 1042.31,690.399 1044.9,681.329 1047.48,670.531 1050.07,658.26 1052.66,644.805 1055.24,630.482 1057.83,615.621 1060.42,600.554 1063.01,585.607 1065.59,571.087 1068.18,557.272 1070.77,544.402 1073.35,532.675 1075.94,522.236 1078.53,513.175 1081.12,505.525 1083.7,499.262 1086.29,494.305 1088.88,490.526 1091.46,487.746 1094.05,485.751 1096.64,484.298 1099.23,483.123 1101.81,481.954 1104.4,480.519 1106.99,478.561 1109.58,475.843 1112.16,472.164 1114.75,467.36 1117.34,461.316 1119.92,453.969 1122.51,445.312 1125.1,435.395 1127.69,424.322 1130.27,412.252 1132.86,399.392 1135.45,385.99 1138.03,372.326 1140.62,358.706 1143.21,345.449 1145.8,332.877 1148.38,321.303 1150.97,311.022 1153.56,302.299 1156.14,295.362 1158.73,290.392 1161.32,287.517 1163.91,286.81 1166.49,288.281 1169.08,291.884 1171.67,297.512 1174.25,305.004 1176.84,314.149 1179.43,324.695 1182.02,336.355 1184.6,348.819 1187.19,361.765 1189.78,374.867 1192.36,387.808 1194.95,400.29 1197.54,412.047 1200.13,422.847 1202.71,432.507 1205.3,440.893 1207.89,447.929 1210.47,453.592 1213.06,457.919 1215.65,461.002 1218.24,462.982 1220.82,464.045 1223.41,464.415 1226,464.344 1228.59,464.101 1231.17,463.963 1233.76,464.205 1236.35,465.087 1238.93,466.845 1241.52,469.683 1244.11,473.76 1246.7,479.189 1249.28,486.031 1251.87,494.288 1254.46,503.906 1257.04,514.776 1259.63,526.735 1262.22,539.571 1264.81,553.032 1267.39,566.835 1269.98,580.67 1272.57,594.216 1275.15,607.151 1277.74,619.159 1280.33,629.946 1282.92,639.247 1285.5,646.836 1288.09,652.532 1290.68,656.209 1293.26,657.798 1295.85,657.286 1298.44,654.725 1301.03,650.22 1303.61,643.932 1306.2,636.073 1308.79,626.891 1311.37,616.672 1313.96,605.72 1316.55,594.355 1319.14,582.894 1321.72,571.647 1324.31,560.902 1326.9,550.919 1329.48,541.917 1332.07,534.068 1334.66,527.495 1337.25,522.264 1339.83,518.383 1342.42,515.806 1345.01,514.429 1347.6,514.102 1350.18,514.628 1352.77,515.775 1355.36,517.285 1357.94,518.881 1360.53,520.283 1363.12,521.211 1365.71,521.404 1368.29,520.625 1370.88,518.672 1373.47,515.385 1376.05,510.653 1378.64,504.42 1381.23,496.687 1383.82,487.511 1386.4,477.006 1388.99,465.338 1391.58,452.723 1394.16,439.416 1396.75,425.703 1399.34,411.895 1401.93,398.315 1404.51,385.287 1407.1,373.123 1409.69,362.119 1412.27,352.537 1414.86,344.602 1417.45,338.49 1420.04,334.326 1422.62,332.177 1425.21,332.051 1427.8,333.895 1430.38,337.602 1432.97,343.009 1435.56,349.905 1438.15,358.041 1440.73,367.134 1443.32,376.883 1445.91,386.973 1448.49,397.09 1451.08,406.932 1453.67,416.219 1456.26,424.699 1458.84,432.164 1461.43,438.45 1464.02,443.446 1466.61,447.097 1469.19,449.405 1471.78,450.429 1474.37,450.28 1476.95,449.12 1479.54,447.154 1482.13,444.622 1484.72,441.789 1487.3,438.937 1489.89,436.352 1492.48,434.315 1495.06,433.09 1497.65,432.914 1500.24,433.99 1502.83,436.475 1505.41,440.478 1508,446.053 " />
</g>
</g>
</svg>